<?xml version="1.0" encoding="UTF-8" standalone="no"?>
<!DOCTYPE svg PUBLIC "-//W3C//DTD SVG 1.1//EN"
 "http://www.w3.org/Graphics/SVG/1.1/DTD/svg11.dtd">
<!-- Generated by graphviz version 2.43.0 (0)
 -->
<!-- Title: main/AGS10.c Pages: 1 -->
<svg width="1064pt" height="247pt"
 viewBox="0.00 0.00 1064.38 247.00" xmlns="http://www.w3.org/2000/svg" xmlns:xlink="http://www.w3.org/1999/xlink">
<g id="graph0" class="graph" transform="scale(1 1) rotate(0) translate(4 243)">
<title>main/AGS10.c</title>
<!-- Node1 -->
<g id="Node000001" class="node">
<title>Node1</title>
<g id="a_Node000001"><a xlink:title=" ">
<polygon fill="#999999" stroke="#666666" points="496.38,-239 411.38,-239 411.38,-220 496.38,-220 496.38,-239"/>
<text text-anchor="middle" x="453.88" y="-227" font-family="Helvetica,sans-Serif" font-size="10.00">main/AGS10.c</text>
</a>
</g>
</g>
<!-- Node2 -->
<g id="Node000002" class="node">
<title>Node2</title>
<g id="a_Node000002"><a xlink:href="_a_g_s10_8h.html" target="_top" xlink:title=" ">
<polygon fill="white" stroke="#666666" points="79.88,-184 21.88,-184 21.88,-165 79.88,-165 79.88,-184"/>
<text text-anchor="middle" x="50.88" y="-172" font-family="Helvetica,sans-Serif" font-size="10.00">AGS10.h</text>
</a>
</g>
</g>
<!-- Node1&#45;&gt;Node2 -->
<g id="edge1_Node000001_Node000002" class="edge">
<title>Node1&#45;&gt;Node2</title>
<g id="a_edge1_Node000001_Node000002"><a xlink:title=" ">
<path fill="none" stroke="#63b8ff" d="M411.13,-222.88C332.49,-212.54 165.97,-190.64 90.07,-180.65"/>
<polygon fill="#63b8ff" stroke="#63b8ff" points="90.35,-177.16 79.98,-179.33 89.43,-184.1 90.35,-177.16"/>
</a>
</g>
</g>
<!-- Node5 -->
<g id="Node000005" class="node">
<title>Node5</title>
<g id="a_Node000005"><a xlink:href="board__ctrl_8h.html" target="_top" xlink:title=" ">
<polygon fill="white" stroke="#666666" points="490.88,-184 416.88,-184 416.88,-165 490.88,-165 490.88,-184"/>
<text text-anchor="middle" x="453.88" y="-172" font-family="Helvetica,sans-Serif" font-size="10.00">board_ctrl.h</text>
</a>
</g>
</g>
<!-- Node1&#45;&gt;Node5 -->
<g id="edge4_Node000001_Node000005" class="edge">
<title>Node1&#45;&gt;Node5</title>
<g id="a_edge4_Node000001_Node000005"><a xlink:title=" ">
<path fill="none" stroke="#63b8ff" d="M453.88,-219.75C453.88,-212.8 453.88,-202.85 453.88,-194.13"/>
<polygon fill="#63b8ff" stroke="#63b8ff" points="457.38,-194.09 453.88,-184.09 450.38,-194.09 457.38,-194.09"/>
</a>
</g>
</g>
<!-- Node18 -->
<g id="Node000018" class="node">
<title>Node18</title>
<g id="a_Node000018"><a xlink:title=" ">
<polygon fill="#e0e0e0" stroke="#999999" points="572.38,-184 509.38,-184 509.38,-165 572.38,-165 572.38,-184"/>
<text text-anchor="middle" x="540.88" y="-172" font-family="Helvetica,sans-Serif" font-size="10.00">esp_log.h</text>
</a>
</g>
</g>
<!-- Node1&#45;&gt;Node18 -->
<g id="edge22_Node000001_Node000018" class="edge">
<title>Node1&#45;&gt;Node18</title>
<g id="a_edge22_Node000001_Node000018"><a xlink:title=" ">
<path fill="none" stroke="#63b8ff" d="M467.86,-219.98C481.35,-211.77 502.02,-199.18 517.92,-189.49"/>
<polygon fill="#63b8ff" stroke="#63b8ff" points="519.93,-192.36 526.65,-184.17 516.29,-186.38 519.93,-192.36"/>
</a>
</g>
</g>
<!-- Node3 -->
<g id="Node000003" class="node">
<title>Node3</title>
<g id="a_Node000003"><a xlink:title=" ">
<polygon fill="#e0e0e0" stroke="#999999" points="399.38,-74 324.38,-74 324.38,-55 399.38,-55 399.38,-74"/>
<text text-anchor="middle" x="361.88" y="-62" font-family="Helvetica,sans-Serif" font-size="10.00">esp_types.h</text>
</a>
</g>
</g>
<!-- Node2&#45;&gt;Node3 -->
<g id="edge2_Node000002_Node000003" class="edge">
<title>Node2&#45;&gt;Node3</title>
<g id="a_edge2_Node000002_Node000003"><a xlink:title=" ">
<path fill="none" stroke="#63b8ff" d="M36.84,-164.89C17.99,-152.3 -11.34,-128.37 4.88,-110 25.03,-87.18 221.59,-73.31 314.14,-67.99"/>
<polygon fill="#63b8ff" stroke="#63b8ff" points="314.58,-71.47 324.37,-67.41 314.18,-64.48 314.58,-71.47"/>
</a>
</g>
</g>
<!-- Node4 -->
<g id="Node000004" class="node">
<title>Node4</title>
<g id="a_Node000004"><a xlink:title=" ">
<polygon fill="#e0e0e0" stroke="#999999" points="87.88,-129 13.88,-129 13.88,-110 87.88,-110 87.88,-129"/>
<text text-anchor="middle" x="50.88" y="-117" font-family="Helvetica,sans-Serif" font-size="10.00">board_def.h</text>
</a>
</g>
</g>
<!-- Node2&#45;&gt;Node4 -->
<g id="edge3_Node000002_Node000004" class="edge">
<title>Node2&#45;&gt;Node4</title>
<g id="a_edge3_Node000002_Node000004"><a xlink:title=" ">
<path fill="none" stroke="#63b8ff" d="M50.88,-164.75C50.88,-157.8 50.88,-147.85 50.88,-139.13"/>
<polygon fill="#63b8ff" stroke="#63b8ff" points="54.38,-139.09 50.88,-129.09 47.38,-139.09 54.38,-139.09"/>
</a>
</g>
</g>
<!-- Node5&#45;&gt;Node3 -->
<g id="edge5_Node000005_Node000003" class="edge">
<title>Node5&#45;&gt;Node3</title>
<g id="a_edge5_Node000005_Node000003"><a xlink:title=" ">
<path fill="none" stroke="#63b8ff" d="M433.79,-164.93C418.47,-157.46 397.85,-145.28 384.88,-129 374.49,-115.96 368.55,-97.82 365.32,-84.26"/>
<polygon fill="#63b8ff" stroke="#63b8ff" points="368.68,-83.24 363.2,-74.17 361.83,-84.67 368.68,-83.24"/>
</a>
</g>
</g>
<!-- Node5&#45;&gt;Node4 -->
<g id="edge7_Node000005_Node000004" class="edge">
<title>Node5&#45;&gt;Node4</title>
<g id="a_edge7_Node000005_Node000004"><a xlink:title=" ">
<path fill="none" stroke="#63b8ff" d="M416.78,-169.6C353.51,-162.8 220.49,-147.8 97.94,-129.08"/>
<polygon fill="#63b8ff" stroke="#63b8ff" points="98.42,-125.62 88.01,-127.55 97.36,-132.53 98.42,-125.62"/>
</a>
</g>
</g>
<!-- Node6 -->
<g id="Node000006" class="node">
<title>Node6</title>
<g id="a_Node000006"><a xlink:title=" ">
<polygon fill="#e0e0e0" stroke="#999999" points="529.38,-19 476.38,-19 476.38,0 529.38,0 529.38,-19"/>
<text text-anchor="middle" x="502.88" y="-7" font-family="Helvetica,sans-Serif" font-size="10.00">string.h</text>
</a>
</g>
</g>
<!-- Node5&#45;&gt;Node6 -->
<g id="edge6_Node000005_Node000006" class="edge">
<title>Node5&#45;&gt;Node6</title>
<g id="a_edge6_Node000005_Node000006"><a xlink:title=" ">
<path fill="none" stroke="#63b8ff" d="M456.52,-164.74C464.19,-139.2 486.67,-64.43 497.25,-29.23"/>
<polygon fill="#63b8ff" stroke="#63b8ff" points="500.71,-29.89 500.23,-19.31 494,-27.88 500.71,-29.89"/>
</a>
</g>
</g>
<!-- Node7 -->
<g id="Node000007" class="node">
<title>Node7</title>
<g id="a_Node000007"><a xlink:title=" ">
<polygon fill="#e0e0e0" stroke="#999999" points="709.38,-129 636.38,-129 636.38,-110 709.38,-110 709.38,-129"/>
<text text-anchor="middle" x="672.88" y="-117" font-family="Helvetica,sans-Serif" font-size="10.00">audio_hal.h</text>
</a>
</g>
</g>
<!-- Node5&#45;&gt;Node7 -->
<g id="edge8_Node000005_Node000007" class="edge">
<title>Node5&#45;&gt;Node7</title>
<g id="a_edge8_Node000005_Node000007"><a xlink:title=" ">
<path fill="none" stroke="#63b8ff" d="M489.07,-164.98C526.71,-155.87 586.54,-141.4 627.65,-131.45"/>
<polygon fill="#63b8ff" stroke="#63b8ff" points="628.52,-134.84 637.42,-129.08 626.88,-128.03 628.52,-134.84"/>
</a>
</g>
</g>
<!-- Node8 -->
<g id="Node000008" class="node">
<title>Node8</title>
<g id="a_Node000008"><a xlink:title=" ">
<polygon fill="#e0e0e0" stroke="#999999" points="830.38,-129 727.38,-129 727.38,-110 830.38,-110 830.38,-129"/>
<text text-anchor="middle" x="778.88" y="-117" font-family="Helvetica,sans-Serif" font-size="10.00">esxxx_common.h</text>
</a>
</g>
</g>
<!-- Node5&#45;&gt;Node8 -->
<g id="edge9_Node000005_Node000008" class="edge">
<title>Node5&#45;&gt;Node8</title>
<g id="a_edge9_Node000005_Node000008"><a xlink:title=" ">
<path fill="none" stroke="#63b8ff" d="M491.07,-166.7C494.39,-166.12 497.69,-165.54 500.88,-165 575.16,-152.34 660.79,-138.79 717.16,-130.01"/>
<polygon fill="#63b8ff" stroke="#63b8ff" points="717.99,-133.43 727.34,-128.43 716.92,-126.51 717.99,-133.43"/>
</a>
</g>
</g>
<!-- Node9 -->
<g id="Node000009" class="node">
<title>Node9</title>
<g id="a_Node000009"><a xlink:href="sevetest30__gpio_8h.html" target="_top" xlink:title=" ">
<polygon fill="white" stroke="#666666" points="617.88,-129 511.88,-129 511.88,-110 617.88,-110 617.88,-129"/>
<text text-anchor="middle" x="564.88" y="-117" font-family="Helvetica,sans-Serif" font-size="10.00">sevetest30_gpio.h</text>
</a>
</g>
</g>
<!-- Node5&#45;&gt;Node9 -->
<g id="edge10_Node000005_Node000009" class="edge">
<title>Node5&#45;&gt;Node9</title>
<g id="a_edge10_Node000005_Node000009"><a xlink:title=" ">
<path fill="none" stroke="#63b8ff" d="M471.72,-164.98C489.49,-156.5 517.03,-143.35 537.56,-133.54"/>
<polygon fill="#63b8ff" stroke="#63b8ff" points="539.21,-136.64 546.72,-129.17 536.19,-130.32 539.21,-136.64"/>
</a>
</g>
</g>
<!-- Node13 -->
<g id="Node000013" class="node">
<title>Node13</title>
<g id="a_Node000013"><a xlink:title=" ">
<polygon fill="#e0e0e0" stroke="#999999" points="919.38,-129 848.38,-129 848.38,-110 919.38,-110 919.38,-129"/>
<text text-anchor="middle" x="883.88" y="-117" font-family="Helvetica,sans-Serif" font-size="10.00">driver/i2c.h</text>
</a>
</g>
</g>
<!-- Node5&#45;&gt;Node13 -->
<g id="edge15_Node000005_Node000013" class="edge">
<title>Node5&#45;&gt;Node13</title>
<g id="a_edge15_Node000005_Node000013"><a xlink:title=" ">
<path fill="none" stroke="#63b8ff" d="M491.04,-166.52C494.36,-165.98 497.68,-165.46 500.88,-165 647.64,-143.97 688.3,-151.06 837.89,-129.19"/>
<polygon fill="#63b8ff" stroke="#63b8ff" points="838.53,-132.64 847.91,-127.71 837.5,-125.71 838.53,-132.64"/>
</a>
</g>
</g>
<!-- Node14 -->
<g id="Node000014" class="node">
<title>Node14</title>
<g id="a_Node000014"><a xlink:title=" ">
<polygon fill="#e0e0e0" stroke="#999999" points="1056.38,-129 937.38,-129 937.38,-110 1056.38,-110 1056.38,-129"/>
<text text-anchor="middle" x="996.88" y="-117" font-family="Helvetica,sans-Serif" font-size="10.00">driver/spi_common.h</text>
</a>
</g>
</g>
<!-- Node5&#45;&gt;Node14 -->
<g id="edge16_Node000005_Node000014" class="edge">
<title>Node5&#45;&gt;Node14</title>
<g id="a_edge16_Node000005_Node000014"><a xlink:title=" ">
<path fill="none" stroke="#63b8ff" d="M491.03,-166.45C494.36,-165.92 497.68,-165.42 500.88,-165 686.89,-140.41 737.31,-148.55 927.16,-129.14"/>
<polygon fill="#63b8ff" stroke="#63b8ff" points="927.61,-132.61 937.19,-128.1 926.89,-125.65 927.61,-132.61"/>
</a>
</g>
</g>
<!-- Node15 -->
<g id="Node000015" class="node">
<title>Node15</title>
<g id="a_Node000015"><a xlink:title=" ">
<polygon fill="#e0e0e0" stroke="#999999" points="215.88,-129 105.88,-129 105.88,-110 215.88,-110 215.88,-129"/>
<text text-anchor="middle" x="160.88" y="-117" font-family="Helvetica,sans-Serif" font-size="10.00">driver/spi_master.h</text>
</a>
</g>
</g>
<!-- Node5&#45;&gt;Node15 -->
<g id="edge17_Node000005_Node000015" class="edge">
<title>Node5&#45;&gt;Node15</title>
<g id="a_edge17_Node000005_Node000015"><a xlink:title=" ">
<path fill="none" stroke="#63b8ff" d="M416.77,-166.79C366.62,-157.72 276.75,-141.46 217.97,-130.83"/>
<polygon fill="#63b8ff" stroke="#63b8ff" points="218.55,-127.38 208.09,-129.04 217.31,-134.26 218.55,-127.38"/>
</a>
</g>
</g>
<!-- Node16 -->
<g id="Node000016" class="node">
<title>Node16</title>
<g id="a_Node000016"><a xlink:title=" ">
<polygon fill="#e0e0e0" stroke="#999999" points="337.38,-129 234.38,-129 234.38,-110 337.38,-110 337.38,-129"/>
<text text-anchor="middle" x="285.88" y="-117" font-family="Helvetica,sans-Serif" font-size="10.00">esp_peripherals.h</text>
</a>
</g>
</g>
<!-- Node5&#45;&gt;Node16 -->
<g id="edge18_Node000005_Node000016" class="edge">
<title>Node5&#45;&gt;Node16</title>
<g id="a_edge18_Node000005_Node000016"><a xlink:title=" ">
<path fill="none" stroke="#63b8ff" d="M426.89,-164.98C398.68,-156.09 354.24,-142.07 322.8,-132.15"/>
<polygon fill="#63b8ff" stroke="#63b8ff" points="323.67,-128.75 313.08,-129.08 321.57,-135.43 323.67,-128.75"/>
</a>
</g>
</g>
<!-- Node17 -->
<g id="Node000017" class="node">
<title>Node17</title>
<g id="a_Node000017"><a xlink:href="_b_l5372_8h.html" target="_top" xlink:title=" ">
<polygon fill="white" stroke="#666666" points="455.88,-129 393.88,-129 393.88,-110 455.88,-110 455.88,-129"/>
<text text-anchor="middle" x="424.88" y="-117" font-family="Helvetica,sans-Serif" font-size="10.00">BL5372.h</text>
</a>
</g>
</g>
<!-- Node5&#45;&gt;Node17 -->
<g id="edge19_Node000005_Node000017" class="edge">
<title>Node5&#45;&gt;Node17</title>
<g id="a_edge19_Node000005_Node000017"><a xlink:title=" ">
<path fill="none" stroke="#63b8ff" d="M449.09,-164.75C445.12,-157.49 439.36,-146.95 434.45,-137.98"/>
<polygon fill="#63b8ff" stroke="#63b8ff" points="437.45,-136.18 429.58,-129.09 431.31,-139.54 437.45,-136.18"/>
</a>
</g>
</g>
<!-- Node10 -->
<g id="Node000010" class="node">
<title>Node10</title>
<g id="a_Node000010"><a xlink:href="_t_c_a6416_a_8h.html" target="_top" xlink:title=" ">
<polygon fill="white" stroke="#666666" points="595.38,-74 520.38,-74 520.38,-55 595.38,-55 595.38,-74"/>
<text text-anchor="middle" x="557.88" y="-62" font-family="Helvetica,sans-Serif" font-size="10.00">TCA6416A.h</text>
</a>
</g>
</g>
<!-- Node9&#45;&gt;Node10 -->
<g id="edge11_Node000009_Node000010" class="edge">
<title>Node9&#45;&gt;Node10</title>
<g id="a_edge11_Node000009_Node000010"><a xlink:title=" ">
<path fill="none" stroke="#63b8ff" d="M563.73,-109.75C562.81,-102.8 561.49,-92.85 560.34,-84.13"/>
<polygon fill="#63b8ff" stroke="#63b8ff" points="563.79,-83.54 559.02,-74.09 556.86,-84.46 563.79,-83.54"/>
</a>
</g>
</g>
<!-- Node10&#45;&gt;Node6 -->
<g id="edge12_Node000010_Node000006" class="edge">
<title>Node10&#45;&gt;Node6</title>
<g id="a_edge12_Node000010_Node000006"><a xlink:title=" ">
<path fill="none" stroke="#63b8ff" d="M548.8,-54.75C540.79,-47.03 528.92,-35.6 519.26,-26.28"/>
<polygon fill="#63b8ff" stroke="#63b8ff" points="521.42,-23.51 511.79,-19.09 516.57,-28.55 521.42,-23.51"/>
</a>
</g>
</g>
<!-- Node11 -->
<g id="Node000011" class="node">
<title>Node11</title>
<g id="a_Node000011"><a xlink:title=" ">
<polygon fill="#e0e0e0" stroke="#999999" points="609.88,-19 547.88,-19 547.88,0 609.88,0 609.88,-19"/>
<text text-anchor="middle" x="578.88" y="-7" font-family="Helvetica,sans-Serif" font-size="10.00">stdbool.h</text>
</a>
</g>
</g>
<!-- Node10&#45;&gt;Node11 -->
<g id="edge13_Node000010_Node000011" class="edge">
<title>Node10&#45;&gt;Node11</title>
<g id="a_edge13_Node000010_Node000011"><a xlink:title=" ">
<path fill="none" stroke="#63b8ff" d="M561.35,-54.75C564.16,-47.65 568.22,-37.4 571.73,-28.56"/>
<polygon fill="#63b8ff" stroke="#63b8ff" points="575.05,-29.68 575.48,-19.09 568.54,-27.1 575.05,-29.68"/>
</a>
</g>
</g>
<!-- Node12 -->
<g id="Node000012" class="node">
<title>Node12</title>
<g id="a_Node000012"><a xlink:title=" ">
<polygon fill="#e0e0e0" stroke="#999999" points="458.38,-19 397.38,-19 397.38,0 458.38,0 458.38,-19"/>
<text text-anchor="middle" x="427.88" y="-7" font-family="Helvetica,sans-Serif" font-size="10.00">esp_err.h</text>
</a>
</g>
</g>
<!-- Node10&#45;&gt;Node12 -->
<g id="edge14_Node000010_Node000012" class="edge">
<title>Node10&#45;&gt;Node12</title>
<g id="a_edge14_Node000010_Node000012"><a xlink:title=" ">
<path fill="none" stroke="#63b8ff" d="M536.99,-54.98C515.8,-46.34 482.75,-32.87 458.58,-23.02"/>
<polygon fill="#63b8ff" stroke="#63b8ff" points="459.73,-19.7 449.15,-19.17 457.09,-26.19 459.73,-19.7"/>
</a>
</g>
</g>
<!-- Node17&#45;&gt;Node3 -->
<g id="edge20_Node000017_Node000003" class="edge">
<title>Node17&#45;&gt;Node3</title>
<g id="a_edge20_Node000017_Node000003"><a xlink:title=" ">
<path fill="none" stroke="#63b8ff" d="M414.76,-109.98C405.45,-102.15 391.41,-90.34 380.14,-80.86"/>
<polygon fill="#63b8ff" stroke="#63b8ff" points="382.09,-77.93 372.19,-74.17 377.59,-83.29 382.09,-77.93"/>
</a>
</g>
</g>
<!-- Node17&#45;&gt;Node12 -->
<g id="edge21_Node000017_Node000012" class="edge">
<title>Node17&#45;&gt;Node12</title>
<g id="a_edge21_Node000017_Node000012"><a xlink:title=" ">
<path fill="none" stroke="#63b8ff" d="M425.13,-109.66C425.61,-92.17 426.71,-52.8 427.36,-29.27"/>
<polygon fill="#63b8ff" stroke="#63b8ff" points="430.86,-29.25 427.64,-19.16 423.86,-29.06 430.86,-29.25"/>
</a>
</g>
</g>
</g>
</svg>
