<?xml version="1.0" encoding="UTF-8" standalone="no"?>
<!DOCTYPE svg PUBLIC "-//W3C//DTD SVG 1.1//EN"
 "http://www.w3.org/Graphics/SVG/1.1/DTD/svg11.dtd">
<!-- Generated by graphviz version 2.43.0 (0)
 -->
<!-- Title: components/sevetest30_board/include/AHT21.h Pages: 1 -->
<svg width="472pt" height="170pt"
 viewBox="0.00 0.00 472.00 170.00" xmlns="http://www.w3.org/2000/svg" xmlns:xlink="http://www.w3.org/1999/xlink">
<g id="graph0" class="graph" transform="scale(1 1) rotate(0) translate(4 166)">
<title>components/sevetest30_board/include/AHT21.h</title>
<!-- Node1 -->
<g id="Node000001" class="node">
<title>Node1</title>
<g id="a_Node000001"><a xlink:title=" ">
<polygon fill="#999999" stroke="#666666" points="369.5,-162 235.5,-162 235.5,-132 369.5,-132 369.5,-162"/>
<text text-anchor="start" x="243.5" y="-150" font-family="Helvetica,sans-Serif" font-size="10.00">components/sevetest30</text>
<text text-anchor="middle" x="302.5" y="-139" font-family="Helvetica,sans-Serif" font-size="10.00">_board/include/AHT21.h</text>
</a>
</g>
</g>
<!-- Node2 -->
<g id="Node000002" class="node">
<title>Node2</title>
<g id="a_Node000002"><a xlink:href="sevetest30___s_w_e_d_a_8h.html" target="_top" xlink:title=" ">
<polygon fill="white" stroke="#666666" points="242,-96 97,-96 97,-55 242,-55 242,-96"/>
<text text-anchor="start" x="105" y="-84" font-family="Helvetica,sans-Serif" font-size="10.00">components/sevetest30</text>
<text text-anchor="start" x="105" y="-73" font-family="Helvetica,sans-Serif" font-size="10.00">_board/include/sevetest30</text>
<text text-anchor="middle" x="169.5" y="-62" font-family="Helvetica,sans-Serif" font-size="10.00">_SWEDA.h</text>
</a>
</g>
</g>
<!-- Node1&#45;&gt;Node2 -->
<g id="edge1_Node000001_Node000002" class="edge">
<title>Node1&#45;&gt;Node2</title>
<g id="a_edge1_Node000001_Node000002"><a xlink:title=" ">
<path fill="none" stroke="#63b8ff" d="M266.61,-127.24C248.14,-117.59 225.64,-105.84 206.96,-96.07"/>
<polygon fill="#63b8ff" stroke="#63b8ff" points="265.1,-130.41 275.59,-131.94 268.34,-124.2 265.1,-130.41"/>
</a>
</g>
</g>
<!-- Node6 -->
<g id="Node000006" class="node">
<title>Node6</title>
<g id="a_Node000006"><a xlink:href="_a_h_t21_8c.html" target="_top" xlink:title=" ">
<polygon fill="white" stroke="#666666" points="345,-85 260,-85 260,-66 345,-66 345,-85"/>
<text text-anchor="middle" x="302.5" y="-73" font-family="Helvetica,sans-Serif" font-size="10.00">main/AHT21.c</text>
</a>
</g>
</g>
<!-- Node1&#45;&gt;Node6 -->
<g id="edge5_Node000001_Node000006" class="edge">
<title>Node1&#45;&gt;Node6</title>
<g id="a_edge5_Node000001_Node000006"><a xlink:title=" ">
<path fill="none" stroke="#63b8ff" d="M302.5,-121.56C302.5,-108.95 302.5,-94.35 302.5,-85.27"/>
<polygon fill="#63b8ff" stroke="#63b8ff" points="299,-121.94 302.5,-131.94 306,-121.94 299,-121.94"/>
</a>
</g>
</g>
<!-- Node7 -->
<g id="Node000007" class="node">
<title>Node7</title>
<g id="a_Node000007"><a xlink:href="board__ctrl_8c.html" target="_top" xlink:title=" ">
<polygon fill="white" stroke="#666666" points="464,-85 363,-85 363,-66 464,-66 464,-85"/>
<text text-anchor="middle" x="413.5" y="-73" font-family="Helvetica,sans-Serif" font-size="10.00">main/board_ctrl.c</text>
</a>
</g>
</g>
<!-- Node1&#45;&gt;Node7 -->
<g id="edge6_Node000001_Node000007" class="edge">
<title>Node1&#45;&gt;Node7</title>
<g id="a_edge6_Node000001_Node000007"><a xlink:title=" ">
<path fill="none" stroke="#63b8ff" d="M333.56,-126.55C355.34,-112.92 383.39,-95.35 399.82,-85.07"/>
<polygon fill="#63b8ff" stroke="#63b8ff" points="331.58,-123.66 324.96,-131.94 335.3,-129.6 331.58,-123.66"/>
</a>
</g>
</g>
<!-- Node3 -->
<g id="Node000003" class="node">
<title>Node3</title>
<g id="a_Node000003"><a xlink:href="main_8c.html" target="_top" xlink:title=" ">
<polygon fill="white" stroke="#666666" points="77,-19 0,-19 0,0 77,0 77,-19"/>
<text text-anchor="middle" x="38.5" y="-7" font-family="Helvetica,sans-Serif" font-size="10.00">main/main.c</text>
</a>
</g>
</g>
<!-- Node2&#45;&gt;Node3 -->
<g id="edge2_Node000002_Node000003" class="edge">
<title>Node2&#45;&gt;Node3</title>
<g id="a_edge2_Node000002_Node000003"><a xlink:title=" ">
<path fill="none" stroke="#63b8ff" d="M120.35,-50.49C97.81,-39.48 72.51,-27.12 56.09,-19.09"/>
<polygon fill="#63b8ff" stroke="#63b8ff" points="118.96,-53.71 129.48,-54.95 122.04,-47.42 118.96,-53.71"/>
</a>
</g>
</g>
<!-- Node4 -->
<g id="Node000004" class="node">
<title>Node4</title>
<g id="a_Node000004"><a xlink:href="sevetest30___s_w_e_d_a_8c.html" target="_top" xlink:title=" ">
<polygon fill="white" stroke="#666666" points="243.5,-19 95.5,-19 95.5,0 243.5,0 243.5,-19"/>
<text text-anchor="middle" x="169.5" y="-7" font-family="Helvetica,sans-Serif" font-size="10.00">main/sevetest30_SWEDA.c</text>
</a>
</g>
</g>
<!-- Node2&#45;&gt;Node4 -->
<g id="edge3_Node000002_Node000004" class="edge">
<title>Node2&#45;&gt;Node4</title>
<g id="a_edge3_Node000002_Node000004"><a xlink:title=" ">
<path fill="none" stroke="#63b8ff" d="M169.5,-44.74C169.5,-35.45 169.5,-25.9 169.5,-19.26"/>
<polygon fill="#63b8ff" stroke="#63b8ff" points="166,-44.95 169.5,-54.95 173,-44.95 166,-44.95"/>
</a>
</g>
</g>
<!-- Node5 -->
<g id="Node000005" class="node">
<title>Node5</title>
<g id="a_Node000005"><a xlink:href="sevetest30___u_i_8c.html" target="_top" xlink:title=" ">
<polygon fill="white" stroke="#666666" points="383.5,-19 261.5,-19 261.5,0 383.5,0 383.5,-19"/>
<text text-anchor="middle" x="322.5" y="-7" font-family="Helvetica,sans-Serif" font-size="10.00">main/sevetest30_UI.c</text>
</a>
</g>
</g>
<!-- Node2&#45;&gt;Node5 -->
<g id="edge4_Node000002_Node000005" class="edge">
<title>Node2&#45;&gt;Node5</title>
<g id="a_edge4_Node000002_Node000005"><a xlink:title=" ">
<path fill="none" stroke="#63b8ff" d="M225.5,-51.08C252.17,-39.92 282.43,-27.26 301.96,-19.09"/>
<polygon fill="#63b8ff" stroke="#63b8ff" points="224.11,-47.86 216.24,-54.95 226.81,-54.32 224.11,-47.86"/>
</a>
</g>
</g>
</g>
</svg>
