<?xml version="1.0" encoding="UTF-8" standalone="no"?>
<!DOCTYPE svg PUBLIC "-//W3C//DTD SVG 1.1//EN"
 "http://www.w3.org/Graphics/SVG/1.1/DTD/svg11.dtd">
<!-- Generated by graphviz version 2.43.0 (0)
 -->
<!-- Title: components/sevetest30_board/include/BL5372.h Pages: 1 -->
<svg width="1012pt" height="302pt"
 viewBox="0.00 0.00 1011.50 302.00" xmlns="http://www.w3.org/2000/svg" xmlns:xlink="http://www.w3.org/1999/xlink">
<g id="graph0" class="graph" transform="scale(1 1) rotate(0) translate(4 298)">
<title>components/sevetest30_board/include/BL5372.h</title>
<!-- Node1 -->
<g id="Node000001" class="node">
<title>Node1</title>
<g id="a_Node000001"><a xlink:title=" ">
<polygon fill="#999999" stroke="#666666" points="627,-294 491,-294 491,-264 627,-264 627,-294"/>
<text text-anchor="start" x="499" y="-282" font-family="Helvetica,sans-Serif" font-size="10.00">components/sevetest30</text>
<text text-anchor="middle" x="559" y="-271" font-family="Helvetica,sans-Serif" font-size="10.00">_board/include/BL5372.h</text>
</a>
</g>
</g>
<!-- Node2 -->
<g id="Node000002" class="node">
<title>Node2</title>
<g id="a_Node000002"><a xlink:href="board__ctrl_8h.html" target="_top" xlink:title=" ">
<polygon fill="white" stroke="#666666" points="626,-228 492,-228 492,-198 626,-198 626,-228"/>
<text text-anchor="start" x="500" y="-216" font-family="Helvetica,sans-Serif" font-size="10.00">components/sevetest30</text>
<text text-anchor="middle" x="559" y="-205" font-family="Helvetica,sans-Serif" font-size="10.00">_board/board_ctrl.h</text>
</a>
</g>
</g>
<!-- Node1&#45;&gt;Node2 -->
<g id="edge1_Node000001_Node000002" class="edge">
<title>Node1&#45;&gt;Node2</title>
<g id="a_edge1_Node000001_Node000002"><a xlink:title=" ">
<path fill="none" stroke="#63b8ff" d="M559,-253.54C559,-244.96 559,-235.61 559,-228.16"/>
<polygon fill="#63b8ff" stroke="#63b8ff" points="555.5,-253.8 559,-263.8 562.5,-253.8 555.5,-253.8"/>
</a>
</g>
</g>
<!-- Node15 -->
<g id="Node000015" class="node">
<title>Node15</title>
<g id="a_Node000015"><a xlink:href="sevetest30___s_w_e_d_a_8h.html" target="_top" xlink:title=" ">
<polygon fill="white" stroke="#666666" points="166.5,-96 21.5,-96 21.5,-55 166.5,-55 166.5,-96"/>
<text text-anchor="start" x="29.5" y="-84" font-family="Helvetica,sans-Serif" font-size="10.00">components/sevetest30</text>
<text text-anchor="start" x="29.5" y="-73" font-family="Helvetica,sans-Serif" font-size="10.00">_board/include/sevetest30</text>
<text text-anchor="middle" x="94" y="-62" font-family="Helvetica,sans-Serif" font-size="10.00">_SWEDA.h</text>
</a>
</g>
</g>
<!-- Node1&#45;&gt;Node15 -->
<g id="edge24_Node000001_Node000015" class="edge">
<title>Node1&#45;&gt;Node15</title>
<g id="a_edge24_Node000001_Node000015"><a xlink:title=" ">
<path fill="none" stroke="#63b8ff" d="M481.08,-261.76C405.8,-244.06 290.12,-211.49 199,-162 166.15,-144.16 133.6,-115.5 113.65,-96.34"/>
<polygon fill="#63b8ff" stroke="#63b8ff" points="480.43,-265.2 490.96,-264.05 482.01,-258.38 480.43,-265.2"/>
</a>
</g>
</g>
<!-- Node17 -->
<g id="Node000017" class="node">
<title>Node17</title>
<g id="a_Node000017"><a xlink:href="_b_l5372_8c.html" target="_top" xlink:title=" ">
<polygon fill="white" stroke="#666666" points="733.5,-222.5 644.5,-222.5 644.5,-203.5 733.5,-203.5 733.5,-222.5"/>
<text text-anchor="middle" x="689" y="-210.5" font-family="Helvetica,sans-Serif" font-size="10.00">main/BL5372.c</text>
</a>
</g>
</g>
<!-- Node1&#45;&gt;Node17 -->
<g id="edge28_Node000001_Node000017" class="edge">
<title>Node1&#45;&gt;Node17</title>
<g id="a_edge28_Node000001_Node000017"><a xlink:title=" ">
<path fill="none" stroke="#63b8ff" d="M596.66,-259.46C621.42,-247.27 652.64,-231.9 671.7,-222.52"/>
<polygon fill="#63b8ff" stroke="#63b8ff" points="594.95,-256.4 587.53,-263.95 598.05,-262.68 594.95,-256.4"/>
</a>
</g>
</g>
<!-- Node3 -->
<g id="Node000003" class="node">
<title>Node3</title>
<g id="a_Node000003"><a xlink:href="gt32l32s0140_8h.html" target="_top" xlink:title=" ">
<polygon fill="white" stroke="#666666" points="851,-90.5 685,-90.5 685,-60.5 851,-60.5 851,-90.5"/>
<text text-anchor="start" x="693" y="-78.5" font-family="Helvetica,sans-Serif" font-size="10.00">components/sevetest30</text>
<text text-anchor="middle" x="768" y="-67.5" font-family="Helvetica,sans-Serif" font-size="10.00">_board/include/gt32l32s0140.h</text>
</a>
</g>
</g>
<!-- Node2&#45;&gt;Node3 -->
<g id="edge2_Node000002_Node000003" class="edge">
<title>Node2&#45;&gt;Node3</title>
<g id="a_edge2_Node000002_Node000003"><a xlink:title=" ">
<path fill="none" stroke="#63b8ff" d="M636.2,-198.11C703.01,-190.37 840.74,-200.64 874,-162 899.14,-132.79 849.29,-106.11 809.76,-90.59"/>
<polygon fill="#63b8ff" stroke="#63b8ff" points="635.54,-194.67 626.12,-199.51 636.5,-201.6 635.54,-194.67"/>
</a>
</g>
</g>
<!-- Node4 -->
<g id="Node000004" class="node">
<title>Node4</title>
<g id="a_Node000004"><a xlink:href="board__ctrl_8c.html" target="_top" xlink:title=" ">
<polygon fill="white" stroke="#666666" points="818.5,-19 717.5,-19 717.5,0 818.5,0 818.5,-19"/>
<text text-anchor="middle" x="768" y="-7" font-family="Helvetica,sans-Serif" font-size="10.00">main/board_ctrl.c</text>
</a>
</g>
</g>
<!-- Node2&#45;&gt;Node4 -->
<g id="edge18_Node000002_Node000004" class="edge">
<title>Node2&#45;&gt;Node4</title>
<g id="a_edge18_Node000002_Node000004"><a xlink:title=" ">
<path fill="none" stroke="#63b8ff" d="M636.38,-198.1C707.19,-190.27 855.15,-203.24 891,-162 914.97,-134.42 880.01,-76.41 860,-55 843.53,-37.37 818.59,-25.91 798.83,-19.04"/>
<polygon fill="#63b8ff" stroke="#63b8ff" points="635.55,-194.68 626.11,-199.48 636.49,-201.61 635.55,-194.68"/>
</a>
</g>
</g>
<!-- Node5 -->
<g id="Node000005" class="node">
<title>Node5</title>
<g id="a_Node000005"><a xlink:href="gt32l32s0140_8c.html" target="_top" xlink:title=" ">
<polygon fill="white" stroke="#666666" points="1003.5,-19 884.5,-19 884.5,0 1003.5,0 1003.5,-19"/>
<text text-anchor="middle" x="944" y="-7" font-family="Helvetica,sans-Serif" font-size="10.00">main/gt32l32s0140.c</text>
</a>
</g>
</g>
<!-- Node2&#45;&gt;Node5 -->
<g id="edge19_Node000002_Node000005" class="edge">
<title>Node2&#45;&gt;Node5</title>
<g id="a_edge19_Node000002_Node000005"><a xlink:title=" ">
<path fill="none" stroke="#63b8ff" d="M636.05,-198.11C710.5,-189.65 865.58,-201.43 909,-162 951.17,-123.71 947.6,-45.62 945.04,-19.35"/>
<polygon fill="#63b8ff" stroke="#63b8ff" points="635.55,-194.65 626.1,-199.44 636.48,-201.58 635.55,-194.65"/>
</a>
</g>
</g>
<!-- Node6 -->
<g id="Node000006" class="node">
<title>Node6</title>
<g id="a_Node000006"><a xlink:href="main_8c.html" target="_top" xlink:title=" ">
<polygon fill="white" stroke="#666666" points="383.5,-19 306.5,-19 306.5,0 383.5,0 383.5,-19"/>
<text text-anchor="middle" x="345" y="-7" font-family="Helvetica,sans-Serif" font-size="10.00">main/main.c</text>
</a>
</g>
</g>
<!-- Node2&#45;&gt;Node6 -->
<g id="edge20_Node000002_Node000006" class="edge">
<title>Node2&#45;&gt;Node6</title>
<g id="a_edge20_Node000002_Node000006"><a xlink:title=" ">
<path fill="none" stroke="#63b8ff" d="M481.6,-212.07C390.68,-210.31 247.89,-201.16 214,-162 166.9,-107.58 281.62,-42.11 327.26,-19.04"/>
<polygon fill="#63b8ff" stroke="#63b8ff" points="481.81,-215.57 491.87,-212.24 481.93,-208.57 481.81,-215.57"/>
</a>
</g>
</g>
<!-- Node8 -->
<g id="Node000008" class="node">
<title>Node8</title>
<g id="a_Node000008"><a xlink:href="sevetest30___u_i_8h.html" target="_top" xlink:title=" ">
<polygon fill="white" stroke="#666666" points="393,-162 223,-162 223,-132 393,-132 393,-162"/>
<text text-anchor="start" x="231" y="-150" font-family="Helvetica,sans-Serif" font-size="10.00">components/sevetest30</text>
<text text-anchor="middle" x="308" y="-139" font-family="Helvetica,sans-Serif" font-size="10.00">_board/include/sevetest30_UI.h</text>
</a>
</g>
</g>
<!-- Node2&#45;&gt;Node8 -->
<g id="edge7_Node000002_Node000008" class="edge">
<title>Node2&#45;&gt;Node8</title>
<g id="a_edge7_Node000002_Node000008"><a xlink:title=" ">
<path fill="none" stroke="#63b8ff" d="M494.1,-195.45C453.43,-185.08 401.59,-171.86 362.95,-162.01"/>
<polygon fill="#63b8ff" stroke="#63b8ff" points="493.36,-198.88 503.92,-197.95 495.09,-192.09 493.36,-198.88"/>
</a>
</g>
</g>
<!-- Node11 -->
<g id="Node000011" class="node">
<title>Node11</title>
<g id="a_Node000011"><a xlink:href="sevetest30__sound_8c.html" target="_top" xlink:title=" ">
<polygon fill="white" stroke="#666666" points="642.5,-85 501.5,-85 501.5,-66 642.5,-66 642.5,-85"/>
<text text-anchor="middle" x="572" y="-73" font-family="Helvetica,sans-Serif" font-size="10.00">main/sevetest30_sound.c</text>
</a>
</g>
</g>
<!-- Node2&#45;&gt;Node11 -->
<g id="edge23_Node000002_Node000011" class="edge">
<title>Node2&#45;&gt;Node11</title>
<g id="a_edge23_Node000002_Node000011"><a xlink:title=" ">
<path fill="none" stroke="#63b8ff" d="M493.35,-194.56C456.42,-181.25 421.16,-160.36 440,-132 451.73,-114.35 506.39,-95.59 541.59,-85.03"/>
<polygon fill="#63b8ff" stroke="#63b8ff" points="492.66,-198.02 503.25,-197.95 494.92,-191.4 492.66,-198.02"/>
</a>
</g>
</g>
<!-- Node12 -->
<g id="Node000012" class="node">
<title>Node12</title>
<g id="a_Node000012"><a xlink:href="_a_g_s10_8c.html" target="_top" xlink:title=" ">
<polygon fill="white" stroke="#666666" points="534.5,-156.5 449.5,-156.5 449.5,-137.5 534.5,-137.5 534.5,-156.5"/>
<text text-anchor="middle" x="492" y="-144.5" font-family="Helvetica,sans-Serif" font-size="10.00">main/AGS10.c</text>
</a>
</g>
</g>
<!-- Node2&#45;&gt;Node12 -->
<g id="edge17_Node000002_Node000012" class="edge">
<title>Node2&#45;&gt;Node12</title>
<g id="a_edge17_Node000002_Node000012"><a xlink:title=" ">
<path fill="none" stroke="#63b8ff" d="M536.6,-190.6C524.55,-179.1 510.34,-165.52 501.26,-156.84"/>
<polygon fill="#63b8ff" stroke="#63b8ff" points="534.48,-193.42 544.13,-197.8 539.32,-188.36 534.48,-193.42"/>
</a>
</g>
</g>
<!-- Node13 -->
<g id="Node000013" class="node">
<title>Node13</title>
<g id="a_Node000013"><a xlink:href="sevetest30___b_w_e_d_a_8c.html" target="_top" xlink:title=" ">
<polygon fill="white" stroke="#666666" points="701.5,-156.5 552.5,-156.5 552.5,-137.5 701.5,-137.5 701.5,-156.5"/>
<text text-anchor="middle" x="627" y="-144.5" font-family="Helvetica,sans-Serif" font-size="10.00">main/sevetest30_BWEDA.c</text>
</a>
</g>
</g>
<!-- Node2&#45;&gt;Node13 -->
<g id="edge21_Node000002_Node000013" class="edge">
<title>Node2&#45;&gt;Node13</title>
<g id="a_edge21_Node000002_Node000013"><a xlink:title=" ">
<path fill="none" stroke="#63b8ff" d="M581.38,-190.93C593.69,-179.35 608.29,-165.61 617.6,-156.84"/>
<polygon fill="#63b8ff" stroke="#63b8ff" points="578.97,-188.39 574.09,-197.8 583.77,-193.49 578.97,-188.39"/>
</a>
</g>
</g>
<!-- Node14 -->
<g id="Node000014" class="node">
<title>Node14</title>
<g id="a_Node000014"><a xlink:href="sevetest30___i_w_e_d_a_8c.html" target="_top" xlink:title=" ">
<polygon fill="white" stroke="#666666" points="864.5,-156.5 719.5,-156.5 719.5,-137.5 864.5,-137.5 864.5,-156.5"/>
<text text-anchor="middle" x="792" y="-144.5" font-family="Helvetica,sans-Serif" font-size="10.00">main/sevetest30_IWEDA.c</text>
</a>
</g>
</g>
<!-- Node2&#45;&gt;Node14 -->
<g id="edge22_Node000002_Node000014" class="edge">
<title>Node2&#45;&gt;Node14</title>
<g id="a_edge22_Node000002_Node000014"><a xlink:title=" ">
<path fill="none" stroke="#63b8ff" d="M619.85,-195.29C665.14,-182.84 725.11,-166.37 760.99,-156.52"/>
<polygon fill="#63b8ff" stroke="#63b8ff" points="618.85,-191.93 610.13,-197.95 620.7,-198.68 618.85,-191.93"/>
</a>
</g>
</g>
<!-- Node3&#45;&gt;Node4 -->
<g id="edge3_Node000003_Node000004" class="edge">
<title>Node3&#45;&gt;Node4</title>
<g id="a_edge3_Node000003_Node000004"><a xlink:title=" ">
<path fill="none" stroke="#63b8ff" d="M768,-50.1C768,-39.3 768,-27.28 768,-19.34"/>
<polygon fill="#63b8ff" stroke="#63b8ff" points="764.5,-50.3 768,-60.3 771.5,-50.3 764.5,-50.3"/>
</a>
</g>
</g>
<!-- Node3&#45;&gt;Node5 -->
<g id="edge4_Node000003_Node000005" class="edge">
<title>Node3&#45;&gt;Node5</title>
<g id="a_edge4_Node000003_Node000005"><a xlink:title=" ">
<path fill="none" stroke="#63b8ff" d="M816.35,-56.92C850.26,-44.59 894.1,-28.65 920.58,-19.02"/>
<polygon fill="#63b8ff" stroke="#63b8ff" points="814.83,-53.75 806.62,-60.45 817.22,-60.33 814.83,-53.75"/>
</a>
</g>
</g>
<!-- Node3&#45;&gt;Node6 -->
<g id="edge5_Node000003_Node000006" class="edge">
<title>Node3&#45;&gt;Node6</title>
<g id="a_edge5_Node000003_Node000006"><a xlink:title=" ">
<path fill="none" stroke="#63b8ff" d="M675.5,-58.85C667.22,-57.52 658.96,-56.22 651,-55 536.56,-37.48 507.35,-37.1 393,-19 389.99,-18.52 386.88,-18.01 383.75,-17.49"/>
<polygon fill="#63b8ff" stroke="#63b8ff" points="675.16,-62.34 685.59,-60.48 676.27,-55.43 675.16,-62.34"/>
</a>
</g>
</g>
<!-- Node7 -->
<g id="Node000007" class="node">
<title>Node7</title>
<g id="a_Node000007"><a xlink:href="sevetest30___led_array_8c.html" target="_top" xlink:title=" ">
<polygon fill="white" stroke="#666666" points="556,-19 402,-19 402,0 556,0 556,-19"/>
<text text-anchor="middle" x="479" y="-7" font-family="Helvetica,sans-Serif" font-size="10.00">main/sevetest30_LedArray.c</text>
</a>
</g>
</g>
<!-- Node3&#45;&gt;Node7 -->
<g id="edge6_Node000003_Node000007" class="edge">
<title>Node3&#45;&gt;Node7</title>
<g id="a_edge6_Node000003_Node000007"><a xlink:title=" ">
<path fill="none" stroke="#63b8ff" d="M694.64,-58.25C638.22,-45.76 562.53,-29 517.46,-19.02"/>
<polygon fill="#63b8ff" stroke="#63b8ff" points="694.06,-61.71 704.58,-60.45 695.57,-54.88 694.06,-61.71"/>
</a>
</g>
</g>
<!-- Node8&#45;&gt;Node6 -->
<g id="edge13_Node000008_Node000006" class="edge">
<title>Node8&#45;&gt;Node6</title>
<g id="a_edge13_Node000008_Node000006"><a xlink:title=" ">
<path fill="none" stroke="#63b8ff" d="M295.64,-122.63C287.37,-103.63 279.72,-76.54 290,-55 297.72,-38.82 314.53,-26.62 327.54,-19.12"/>
<polygon fill="#63b8ff" stroke="#63b8ff" points="292.51,-124.19 299.93,-131.76 298.84,-121.22 292.51,-124.19"/>
</a>
</g>
</g>
<!-- Node8&#45;&gt;Node7 -->
<g id="edge14_Node000008_Node000007" class="edge">
<title>Node8&#45;&gt;Node7</title>
<g id="a_edge14_Node000008_Node000007"><a xlink:title=" ">
<path fill="none" stroke="#63b8ff" d="M400.41,-128.6C419.82,-121.26 438.71,-110.83 453,-96 474,-74.22 478.09,-36.01 478.85,-19.04"/>
<polygon fill="#63b8ff" stroke="#63b8ff" points="399.13,-125.34 390.86,-131.96 401.45,-131.94 399.13,-125.34"/>
</a>
</g>
</g>
<!-- Node9 -->
<g id="Node000009" class="node">
<title>Node9</title>
<g id="a_Node000009"><a xlink:href="sevetest30___led_array_8h.html" target="_top" xlink:title=" ">
<polygon fill="white" stroke="#666666" points="444.5,-96 299.5,-96 299.5,-55 444.5,-55 444.5,-96"/>
<text text-anchor="start" x="307.5" y="-84" font-family="Helvetica,sans-Serif" font-size="10.00">components/sevetest30</text>
<text text-anchor="start" x="307.5" y="-73" font-family="Helvetica,sans-Serif" font-size="10.00">_board/include/sevetest30</text>
<text text-anchor="middle" x="372" y="-62" font-family="Helvetica,sans-Serif" font-size="10.00">_LedArray.h</text>
</a>
</g>
</g>
<!-- Node8&#45;&gt;Node9 -->
<g id="edge8_Node000008_Node000009" class="edge">
<title>Node8&#45;&gt;Node9</title>
<g id="a_edge8_Node000008_Node000009"><a xlink:title=" ">
<path fill="none" stroke="#63b8ff" d="M327.88,-124.41C336.22,-115.36 345.85,-104.9 353.98,-96.07"/>
<polygon fill="#63b8ff" stroke="#63b8ff" points="325.15,-122.21 320.95,-131.94 330.3,-126.95 325.15,-122.21"/>
</a>
</g>
</g>
<!-- Node10 -->
<g id="Node000010" class="node">
<title>Node10</title>
<g id="a_Node000010"><a xlink:href="sevetest30___u_i_8c.html" target="_top" xlink:title=" ">
<polygon fill="white" stroke="#666666" points="288,-19 166,-19 166,0 288,0 288,-19"/>
<text text-anchor="middle" x="227" y="-7" font-family="Helvetica,sans-Serif" font-size="10.00">main/sevetest30_UI.c</text>
</a>
</g>
</g>
<!-- Node8&#45;&gt;Node10 -->
<g id="edge15_Node000008_Node000010" class="edge">
<title>Node8&#45;&gt;Node10</title>
<g id="a_edge15_Node000008_Node000010"><a xlink:title=" ">
<path fill="none" stroke="#63b8ff" d="M294.26,-123.01C275.93,-92.36 244.38,-39.58 232.1,-19.03"/>
<polygon fill="#63b8ff" stroke="#63b8ff" points="291.35,-124.97 299.48,-131.76 297.36,-121.38 291.35,-124.97"/>
</a>
</g>
</g>
<!-- Node8&#45;&gt;Node11 -->
<g id="edge16_Node000008_Node000011" class="edge">
<title>Node8&#45;&gt;Node11</title>
<g id="a_edge16_Node000008_Node000011"><a xlink:title=" ">
<path fill="none" stroke="#63b8ff" d="M371.39,-129.31C424.35,-115.37 497.7,-96.06 539.45,-85.07"/>
<polygon fill="#63b8ff" stroke="#63b8ff" points="370.2,-126.01 361.42,-131.94 371.99,-132.77 370.2,-126.01"/>
</a>
</g>
</g>
<!-- Node9&#45;&gt;Node4 -->
<g id="edge9_Node000009_Node000004" class="edge">
<title>Node9&#45;&gt;Node4</title>
<g id="a_edge9_Node000009_Node000004"><a xlink:title=" ">
<path fill="none" stroke="#63b8ff" d="M454.63,-61.06C467.15,-59.03 479.92,-56.96 492,-55 570.7,-42.26 662.02,-27.55 717.38,-18.64"/>
<polygon fill="#63b8ff" stroke="#63b8ff" points="453.97,-57.62 444.66,-62.68 455.09,-64.53 453.97,-57.62"/>
</a>
</g>
</g>
<!-- Node9&#45;&gt;Node6 -->
<g id="edge10_Node000009_Node000006" class="edge">
<title>Node9&#45;&gt;Node6</title>
<g id="a_edge10_Node000009_Node000006"><a xlink:title=" ">
<path fill="none" stroke="#63b8ff" d="M359.82,-45.63C355.79,-36.06 351.59,-26.12 348.7,-19.26"/>
<polygon fill="#63b8ff" stroke="#63b8ff" points="356.64,-47.1 363.75,-54.95 363.09,-44.38 356.64,-47.1"/>
</a>
</g>
</g>
<!-- Node9&#45;&gt;Node7 -->
<g id="edge11_Node000009_Node000007" class="edge">
<title>Node9&#45;&gt;Node7</title>
<g id="a_edge11_Node000009_Node000007"><a xlink:title=" ">
<path fill="none" stroke="#63b8ff" d="M413.37,-49.75C431.47,-38.93 451.52,-26.94 464.64,-19.09"/>
<polygon fill="#63b8ff" stroke="#63b8ff" points="411.47,-46.81 404.68,-54.95 415.06,-52.82 411.47,-46.81"/>
</a>
</g>
</g>
<!-- Node9&#45;&gt;Node10 -->
<g id="edge12_Node000009_Node000010" class="edge">
<title>Node9&#45;&gt;Node10</title>
<g id="a_edge12_Node000009_Node000010"><a xlink:title=" ">
<path fill="none" stroke="#63b8ff" d="M318.27,-50.78C293.15,-39.7 264.81,-27.19 246.47,-19.09"/>
<polygon fill="#63b8ff" stroke="#63b8ff" points="317.15,-54.11 327.71,-54.95 319.97,-47.71 317.15,-54.11"/>
</a>
</g>
</g>
<!-- Node15&#45;&gt;Node6 -->
<g id="edge25_Node000015_Node000006" class="edge">
<title>Node15&#45;&gt;Node6</title>
<g id="a_edge25_Node000015_Node000006"><a xlink:title=" ">
<path fill="none" stroke="#63b8ff" d="M176.56,-53.45C222.51,-41.73 277.2,-27.79 311.51,-19.04"/>
<polygon fill="#63b8ff" stroke="#63b8ff" points="175.42,-50.13 166.6,-55.99 177.15,-56.91 175.42,-50.13"/>
</a>
</g>
</g>
<!-- Node15&#45;&gt;Node10 -->
<g id="edge27_Node000015_Node000010" class="edge">
<title>Node15&#45;&gt;Node10</title>
<g id="a_edge27_Node000015_Node000010"><a xlink:title=" ">
<path fill="none" stroke="#63b8ff" d="M143.9,-50.49C166.78,-39.48 192.47,-27.12 209.15,-19.09"/>
<polygon fill="#63b8ff" stroke="#63b8ff" points="142.12,-47.46 134.63,-54.95 145.16,-53.77 142.12,-47.46"/>
</a>
</g>
</g>
<!-- Node16 -->
<g id="Node000016" class="node">
<title>Node16</title>
<g id="a_Node000016"><a xlink:href="sevetest30___s_w_e_d_a_8c.html" target="_top" xlink:title=" ">
<polygon fill="white" stroke="#666666" points="148,-19 0,-19 0,0 148,0 148,-19"/>
<text text-anchor="middle" x="74" y="-7" font-family="Helvetica,sans-Serif" font-size="10.00">main/sevetest30_SWEDA.c</text>
</a>
</g>
</g>
<!-- Node15&#45;&gt;Node16 -->
<g id="edge26_Node000015_Node000016" class="edge">
<title>Node15&#45;&gt;Node16</title>
<g id="a_edge26_Node000015_Node000016"><a xlink:title=" ">
<path fill="none" stroke="#63b8ff" d="M84.89,-45.34C81.92,-35.86 78.86,-26.05 76.74,-19.26"/>
<polygon fill="#63b8ff" stroke="#63b8ff" points="81.57,-46.45 87.89,-54.95 88.25,-44.36 81.57,-46.45"/>
</a>
</g>
</g>
</g>
</svg>
