<?xml version="1.0" encoding="UTF-8" standalone="no"?>
<!DOCTYPE svg PUBLIC "-//W3C//DTD SVG 1.1//EN"
 "http://www.w3.org/Graphics/SVG/1.1/DTD/svg11.dtd">
<!-- Generated by graphviz version 2.43.0 (0)
 -->
<!-- Title: components/FrequencyECD/PsP2P_DM_for_idf.c Pages: 1 -->
<svg width="587pt" height="203pt"
 viewBox="0.00 0.00 587.00 203.00" xmlns="http://www.w3.org/2000/svg" xmlns:xlink="http://www.w3.org/1999/xlink">
<g id="graph0" class="graph" transform="scale(1 1) rotate(0) translate(4 199)">
<title>components/FrequencyECD/PsP2P_DM_for_idf.c</title>
<!-- Node1 -->
<g id="Node000001" class="node">
<title>Node1</title>
<g id="a_Node000001"><a xlink:title=" ">
<polygon fill="#999999" stroke="#666666" points="461.5,-195 311.5,-195 311.5,-165 461.5,-165 461.5,-195"/>
<text text-anchor="start" x="319.5" y="-183" font-family="Helvetica,sans-Serif" font-size="10.00">components/FrequencyECD</text>
<text text-anchor="middle" x="386.5" y="-172" font-family="Helvetica,sans-Serif" font-size="10.00">/PsP2P_DM_for_idf.c</text>
</a>
</g>
</g>
<!-- Node2 -->
<g id="Node000002" class="node">
<title>Node2</title>
<g id="a_Node000002"><a xlink:href="_ps_p2_p___d_m__for__idf_8h.html" target="_top" xlink:title=" ">
<polygon fill="white" stroke="#666666" points="285,-74 172,-74 172,-55 285,-55 285,-74"/>
<text text-anchor="middle" x="228.5" y="-62" font-family="Helvetica,sans-Serif" font-size="10.00">PsP2P_DM_for_idf.h</text>
</a>
</g>
</g>
<!-- Node1&#45;&gt;Node2 -->
<g id="edge1_Node000001_Node000002" class="edge">
<title>Node1&#45;&gt;Node2</title>
<g id="a_edge1_Node000001_Node000002"><a xlink:title=" ">
<path fill="none" stroke="#63b8ff" d="M311.33,-168.24C265.96,-160.03 214.33,-147.04 200.5,-129 189.57,-114.75 200.86,-95.56 212.2,-82.02"/>
<polygon fill="#63b8ff" stroke="#63b8ff" points="214.97,-84.18 219.07,-74.42 209.77,-79.49 214.97,-84.18"/>
</a>
</g>
</g>
<!-- Node7 -->
<g id="Node000007" class="node">
<title>Node7</title>
<g id="a_Node000007"><a xlink:href="_frequency_e_c_d__for__idf_8h.html" target="_top" xlink:title=" ">
<polygon fill="white" stroke="#666666" points="341.5,-129 209.5,-129 209.5,-110 341.5,-110 341.5,-129"/>
<text text-anchor="middle" x="275.5" y="-117" font-family="Helvetica,sans-Serif" font-size="10.00">FrequencyECD_for_idf.h</text>
</a>
</g>
</g>
<!-- Node1&#45;&gt;Node7 -->
<g id="edge6_Node000001_Node000007" class="edge">
<title>Node1&#45;&gt;Node7</title>
<g id="a_edge6_Node000001_Node000007"><a xlink:title=" ">
<path fill="none" stroke="#63b8ff" d="M359.91,-164.99C342.05,-155.58 318.66,-143.24 301.02,-133.95"/>
<polygon fill="#63b8ff" stroke="#63b8ff" points="302.37,-130.71 291.89,-129.14 299.11,-136.9 302.37,-130.71"/>
</a>
</g>
</g>
<!-- Node8 -->
<g id="Node000008" class="node">
<title>Node8</title>
<g id="a_Node000008"><a xlink:title=" ">
<polygon fill="#e0e0e0" stroke="#999999" points="413,-129 360,-129 360,-110 413,-110 413,-129"/>
<text text-anchor="middle" x="386.5" y="-117" font-family="Helvetica,sans-Serif" font-size="10.00">stdlib.h</text>
</a>
</g>
</g>
<!-- Node1&#45;&gt;Node8 -->
<g id="edge8_Node000001_Node000008" class="edge">
<title>Node1&#45;&gt;Node8</title>
<g id="a_edge8_Node000001_Node000008"><a xlink:title=" ">
<path fill="none" stroke="#63b8ff" d="M386.5,-164.84C386.5,-157.21 386.5,-147.7 386.5,-139.45"/>
<polygon fill="#63b8ff" stroke="#63b8ff" points="390,-139.27 386.5,-129.27 383,-139.27 390,-139.27"/>
</a>
</g>
</g>
<!-- Node9 -->
<g id="Node000009" class="node">
<title>Node9</title>
<g id="a_Node000009"><a xlink:title=" ">
<polygon fill="#e0e0e0" stroke="#999999" points="484,-129 431,-129 431,-110 484,-110 484,-129"/>
<text text-anchor="middle" x="457.5" y="-117" font-family="Helvetica,sans-Serif" font-size="10.00">string.h</text>
</a>
</g>
</g>
<!-- Node1&#45;&gt;Node9 -->
<g id="edge9_Node000001_Node000009" class="edge">
<title>Node1&#45;&gt;Node9</title>
<g id="a_edge9_Node000001_Node000009"><a xlink:title=" ">
<path fill="none" stroke="#63b8ff" d="M403.69,-164.84C414.31,-156.09 427.94,-144.85 438.83,-135.88"/>
<polygon fill="#63b8ff" stroke="#63b8ff" points="441.37,-138.33 446.86,-129.27 436.92,-132.92 441.37,-138.33"/>
</a>
</g>
</g>
<!-- Node10 -->
<g id="Node000010" class="node">
<title>Node10</title>
<g id="a_Node000010"><a xlink:title=" ">
<polygon fill="#e0e0e0" stroke="#999999" points="579,-129 502,-129 502,-110 579,-110 579,-129"/>
<text text-anchor="middle" x="540.5" y="-117" font-family="Helvetica,sans-Serif" font-size="10.00">esp_check.h</text>
</a>
</g>
</g>
<!-- Node1&#45;&gt;Node10 -->
<g id="edge10_Node000001_Node000010" class="edge">
<title>Node1&#45;&gt;Node10</title>
<g id="a_edge10_Node000001_Node000010"><a xlink:title=" ">
<path fill="none" stroke="#63b8ff" d="M423.39,-164.99C449.2,-155.18 483.35,-142.21 508.1,-132.81"/>
<polygon fill="#63b8ff" stroke="#63b8ff" points="509.65,-135.96 517.76,-129.14 507.17,-129.42 509.65,-135.96"/>
</a>
</g>
</g>
<!-- Node3 -->
<g id="Node000003" class="node">
<title>Node3</title>
<g id="a_Node000003"><a xlink:title=" ">
<polygon fill="#e0e0e0" stroke="#999999" points="113,-19 0,-19 0,0 113,0 113,-19"/>
<text text-anchor="middle" x="56.5" y="-7" font-family="Helvetica,sans-Serif" font-size="10.00">freertos/FreeRTOS.h</text>
</a>
</g>
</g>
<!-- Node2&#45;&gt;Node3 -->
<g id="edge2_Node000002_Node000003" class="edge">
<title>Node2&#45;&gt;Node3</title>
<g id="a_edge2_Node000002_Node000003"><a xlink:title=" ">
<path fill="none" stroke="#63b8ff" d="M200.87,-54.98C171.99,-46.09 126.49,-32.07 94.3,-22.15"/>
<polygon fill="#63b8ff" stroke="#63b8ff" points="94.94,-18.68 84.35,-19.08 92.88,-25.37 94.94,-18.68"/>
</a>
</g>
</g>
<!-- Node4 -->
<g id="Node000004" class="node">
<title>Node4</title>
<g id="a_Node000004"><a xlink:title=" ">
<polygon fill="#e0e0e0" stroke="#999999" points="228,-19 131,-19 131,0 228,0 228,-19"/>
<text text-anchor="middle" x="179.5" y="-7" font-family="Helvetica,sans-Serif" font-size="10.00">freertos/queue.h</text>
</a>
</g>
</g>
<!-- Node2&#45;&gt;Node4 -->
<g id="edge3_Node000002_Node000004" class="edge">
<title>Node2&#45;&gt;Node4</title>
<g id="a_edge3_Node000002_Node000004"><a xlink:title=" ">
<path fill="none" stroke="#63b8ff" d="M220.41,-54.75C213.34,-47.11 202.91,-35.82 194.35,-26.56"/>
<polygon fill="#63b8ff" stroke="#63b8ff" points="196.8,-24.06 187.44,-19.09 191.66,-28.81 196.8,-24.06"/>
</a>
</g>
</g>
<!-- Node5 -->
<g id="Node000005" class="node">
<title>Node5</title>
<g id="a_Node000005"><a xlink:title=" ">
<polygon fill="#e0e0e0" stroke="#999999" points="308.5,-19 246.5,-19 246.5,0 308.5,0 308.5,-19"/>
<text text-anchor="middle" x="277.5" y="-7" font-family="Helvetica,sans-Serif" font-size="10.00">stdbool.h</text>
</a>
</g>
</g>
<!-- Node2&#45;&gt;Node5 -->
<g id="edge4_Node000002_Node000005" class="edge">
<title>Node2&#45;&gt;Node5</title>
<g id="a_edge4_Node000002_Node000005"><a xlink:title=" ">
<path fill="none" stroke="#63b8ff" d="M236.59,-54.75C243.66,-47.11 254.09,-35.82 262.65,-26.56"/>
<polygon fill="#63b8ff" stroke="#63b8ff" points="265.34,-28.81 269.56,-19.09 260.2,-24.06 265.34,-28.81"/>
</a>
</g>
</g>
<!-- Node6 -->
<g id="Node000006" class="node">
<title>Node6</title>
<g id="a_Node000006"><a xlink:title=" ">
<polygon fill="#e0e0e0" stroke="#999999" points="388,-19 327,-19 327,0 388,0 388,-19"/>
<text text-anchor="middle" x="357.5" y="-7" font-family="Helvetica,sans-Serif" font-size="10.00">esp_err.h</text>
</a>
</g>
</g>
<!-- Node2&#45;&gt;Node6 -->
<g id="edge5_Node000002_Node000006" class="edge">
<title>Node2&#45;&gt;Node6</title>
<g id="a_edge5_Node000002_Node000006"><a xlink:title=" ">
<path fill="none" stroke="#63b8ff" d="M249.23,-54.98C270.26,-46.34 303.05,-32.87 327.04,-23.02"/>
<polygon fill="#63b8ff" stroke="#63b8ff" points="328.48,-26.21 336.4,-19.17 325.82,-19.73 328.48,-26.21"/>
</a>
</g>
</g>
<!-- Node7&#45;&gt;Node2 -->
<g id="edge7_Node000007_Node000002" class="edge">
<title>Node7&#45;&gt;Node2</title>
<g id="a_edge7_Node000007_Node000002"><a xlink:title=" ">
<path fill="none" stroke="#63b8ff" d="M267.74,-109.75C261.03,-102.18 251.16,-91.05 242.99,-81.84"/>
<polygon fill="#63b8ff" stroke="#63b8ff" points="245.37,-79.25 236.12,-74.09 240.13,-83.89 245.37,-79.25"/>
</a>
</g>
</g>
</g>
</svg>
