<?xml version="1.0" encoding="UTF-8" standalone="no"?>
<!DOCTYPE svg PUBLIC "-//W3C//DTD SVG 1.1//EN"
 "http://www.w3.org/Graphics/SVG/1.1/DTD/svg11.dtd">
<!-- Generated by graphviz version 2.43.0 (0)
 -->
<!-- Title: components/FrequencyECD/include/PsP2P_DM_for_idf.h Pages: 1 -->
<svg width="529pt" height="181pt"
 viewBox="0.00 0.00 529.00 181.00" xmlns="http://www.w3.org/2000/svg" xmlns:xlink="http://www.w3.org/1999/xlink">
<g id="graph0" class="graph" transform="scale(1 1) rotate(0) translate(4 177)">
<title>components/FrequencyECD/include/PsP2P_DM_for_idf.h</title>
<!-- Node1 -->
<g id="Node000001" class="node">
<title>Node1</title>
<g id="a_Node000001"><a xlink:title=" ">
<polygon fill="#999999" stroke="#666666" points="287,-173 133,-173 133,-143 287,-143 287,-173"/>
<text text-anchor="start" x="141" y="-161" font-family="Helvetica,sans-Serif" font-size="10.00">components/FrequencyECD</text>
<text text-anchor="middle" x="210" y="-150" font-family="Helvetica,sans-Serif" font-size="10.00">/include/PsP2P_DM_for_idf.h</text>
</a>
</g>
</g>
<!-- Node2 -->
<g id="Node000002" class="node">
<title>Node2</title>
<g id="a_Node000002"><a xlink:href="_ps_p2_p___d_m__for__idf_8c.html" target="_top" xlink:title=" ">
<polygon fill="white" stroke="#666666" points="150,-30 0,-30 0,0 150,0 150,-30"/>
<text text-anchor="start" x="8" y="-18" font-family="Helvetica,sans-Serif" font-size="10.00">components/FrequencyECD</text>
<text text-anchor="middle" x="75" y="-7" font-family="Helvetica,sans-Serif" font-size="10.00">/PsP2P_DM_for_idf.c</text>
</a>
</g>
</g>
<!-- Node1&#45;&gt;Node2 -->
<g id="edge1_Node000001_Node000002" class="edge">
<title>Node1&#45;&gt;Node2</title>
<g id="a_edge1_Node000001_Node000002"><a xlink:title=" ">
<path fill="none" stroke="#63b8ff" d="M122.93,-141.01C87.53,-132.58 52.48,-121.05 42,-107 24.32,-83.29 46.55,-49.17 62.17,-30.16"/>
<polygon fill="#63b8ff" stroke="#63b8ff" points="122.37,-144.47 132.9,-143.3 123.94,-137.65 122.37,-144.47"/>
</a>
</g>
</g>
<!-- Node3 -->
<g id="Node000003" class="node">
<title>Node3</title>
<g id="a_Node000003"><a xlink:href="_frequency_e_c_d__for__idf_8h.html" target="_top" xlink:title=" ">
<polygon fill="white" stroke="#666666" points="201,-107 51,-107 51,-66 201,-66 201,-107"/>
<text text-anchor="start" x="59" y="-95" font-family="Helvetica,sans-Serif" font-size="10.00">components/FrequencyECD</text>
<text text-anchor="start" x="59" y="-84" font-family="Helvetica,sans-Serif" font-size="10.00">/include/FrequencyECD</text>
<text text-anchor="middle" x="126" y="-73" font-family="Helvetica,sans-Serif" font-size="10.00">_for_idf.h</text>
</a>
</g>
</g>
<!-- Node1&#45;&gt;Node3 -->
<g id="edge2_Node000001_Node000003" class="edge">
<title>Node1&#45;&gt;Node3</title>
<g id="a_edge2_Node000001_Node000003"><a xlink:title=" ">
<path fill="none" stroke="#63b8ff" d="M185.23,-136.5C173.99,-127.21 160.76,-116.26 149.66,-107.07"/>
<polygon fill="#63b8ff" stroke="#63b8ff" points="183.07,-139.26 193,-142.94 187.53,-133.86 183.07,-139.26"/>
</a>
</g>
</g>
<!-- Node4 -->
<g id="Node000004" class="node">
<title>Node4</title>
<g id="a_Node000004"><a xlink:href="_ps_p2_p___d_m___f_d_e__for__idf_8h.html" target="_top" xlink:title=" ">
<polygon fill="white" stroke="#666666" points="369,-107 219,-107 219,-66 369,-66 369,-107"/>
<text text-anchor="start" x="227" y="-95" font-family="Helvetica,sans-Serif" font-size="10.00">components/FrequencyECD</text>
<text text-anchor="start" x="227" y="-84" font-family="Helvetica,sans-Serif" font-size="10.00">/include/PsP2P_DM_FDE</text>
<text text-anchor="middle" x="294" y="-73" font-family="Helvetica,sans-Serif" font-size="10.00">_for_idf.h</text>
</a>
</g>
</g>
<!-- Node1&#45;&gt;Node4 -->
<g id="edge4_Node000001_Node000004" class="edge">
<title>Node1&#45;&gt;Node4</title>
<g id="a_edge4_Node000001_Node000004"><a xlink:title=" ">
<path fill="none" stroke="#63b8ff" d="M234.77,-136.5C246.01,-127.21 259.24,-116.26 270.34,-107.07"/>
<polygon fill="#63b8ff" stroke="#63b8ff" points="232.47,-133.86 227,-142.94 236.93,-139.26 232.47,-133.86"/>
</a>
</g>
</g>
<!-- Node6 -->
<g id="Node000006" class="node">
<title>Node6</title>
<g id="a_Node000006"><a xlink:href="calibration__tools_8c.html" target="_top" xlink:title=" ">
<polygon fill="white" stroke="#666666" points="521,-96 387,-96 387,-77 521,-77 521,-96"/>
<text text-anchor="middle" x="454" y="-84" font-family="Helvetica,sans-Serif" font-size="10.00">main/calibration_tools.c</text>
</a>
</g>
</g>
<!-- Node1&#45;&gt;Node6 -->
<g id="edge6_Node000001_Node000006" class="edge">
<title>Node1&#45;&gt;Node6</title>
<g id="a_edge6_Node000001_Node000006"><a xlink:title=" ">
<path fill="none" stroke="#63b8ff" d="M269.2,-140.14C318.1,-126.21 385.49,-107.01 423.92,-96.07"/>
<polygon fill="#63b8ff" stroke="#63b8ff" points="268.04,-136.83 259.38,-142.94 269.95,-143.56 268.04,-136.83"/>
</a>
</g>
</g>
<!-- Node3&#45;&gt;Node2 -->
<g id="edge3_Node000003_Node000002" class="edge">
<title>Node3&#45;&gt;Node2</title>
<g id="a_edge3_Node000003_Node000002"><a xlink:title=" ">
<path fill="none" stroke="#63b8ff" d="M105.59,-57.69C98.62,-48.19 91.13,-37.98 85.3,-30.04"/>
<polygon fill="#63b8ff" stroke="#63b8ff" points="102.78,-59.78 111.52,-65.77 108.43,-55.64 102.78,-59.78"/>
</a>
</g>
</g>
<!-- Node5 -->
<g id="Node000005" class="node">
<title>Node5</title>
<g id="a_Node000005"><a xlink:href="_ps_p2_p___d_m___f_d_e__for__idf_8c.html" target="_top" xlink:title=" ">
<polygon fill="white" stroke="#666666" points="369,-30 219,-30 219,0 369,0 369,-30"/>
<text text-anchor="start" x="227" y="-18" font-family="Helvetica,sans-Serif" font-size="10.00">components/FrequencyECD</text>
<text text-anchor="middle" x="294" y="-7" font-family="Helvetica,sans-Serif" font-size="10.00">/PsP2P_DM_FDE_for_idf.c</text>
</a>
</g>
</g>
<!-- Node4&#45;&gt;Node5 -->
<g id="edge5_Node000004_Node000005" class="edge">
<title>Node4&#45;&gt;Node5</title>
<g id="a_edge5_Node000004_Node000005"><a xlink:title=" ">
<path fill="none" stroke="#63b8ff" d="M294,-55.66C294,-46.76 294,-37.42 294,-30.04"/>
<polygon fill="#63b8ff" stroke="#63b8ff" points="290.5,-55.77 294,-65.77 297.5,-55.77 290.5,-55.77"/>
</a>
</g>
</g>
</g>
</svg>
