<?xml version="1.0" encoding="UTF-8" standalone="no"?>
<!DOCTYPE svg PUBLIC "-//W3C//DTD SVG 1.1//EN"
 "http://www.w3.org/Graphics/SVG/1.1/DTD/svg11.dtd">
<!-- Generated by graphviz version 2.43.0 (0)
 -->
<!-- Title: components/sevetest30_board/include/TCA6416A.h Pages: 1 -->
<svg width="1224pt" height="379pt"
 viewBox="0.00 0.00 1223.50 379.00" xmlns="http://www.w3.org/2000/svg" xmlns:xlink="http://www.w3.org/1999/xlink">
<g id="graph0" class="graph" transform="scale(1 1) rotate(0) translate(4 375)">
<title>components/sevetest30_board/include/TCA6416A.h</title>
<!-- Node1 -->
<g id="Node000001" class="node">
<title>Node1</title>
<g id="a_Node000001"><a xlink:title=" ">
<polygon fill="#999999" stroke="#666666" points="1160,-371 1011,-371 1011,-341 1160,-341 1160,-371"/>
<text text-anchor="start" x="1019" y="-359" font-family="Helvetica,sans-Serif" font-size="10.00">components/sevetest30</text>
<text text-anchor="middle" x="1085.5" y="-348" font-family="Helvetica,sans-Serif" font-size="10.00">_board/include/TCA6416A.h</text>
</a>
</g>
</g>
<!-- Node2 -->
<g id="Node000002" class="node">
<title>Node2</title>
<g id="a_Node000002"><a xlink:href="sevetest30__gpio_8h.html" target="_top" xlink:title=" ">
<polygon fill="white" stroke="#666666" points="608,-305 463,-305 463,-264 608,-264 608,-305"/>
<text text-anchor="start" x="471" y="-293" font-family="Helvetica,sans-Serif" font-size="10.00">components/sevetest30</text>
<text text-anchor="start" x="471" y="-282" font-family="Helvetica,sans-Serif" font-size="10.00">_board/include/sevetest30</text>
<text text-anchor="middle" x="535.5" y="-271" font-family="Helvetica,sans-Serif" font-size="10.00">_gpio.h</text>
</a>
</g>
</g>
<!-- Node1&#45;&gt;Node2 -->
<g id="edge1_Node000001_Node000002" class="edge">
<title>Node1&#45;&gt;Node2</title>
<g id="a_edge1_Node000001_Node000002"><a xlink:title=" ">
<path fill="none" stroke="#63b8ff" d="M1000.59,-344.27C893.1,-330.69 709.74,-307.52 608.33,-294.7"/>
<polygon fill="#63b8ff" stroke="#63b8ff" points="1000.39,-347.77 1010.75,-345.55 1001.27,-340.83 1000.39,-347.77"/>
</a>
</g>
</g>
<!-- Node7 -->
<g id="Node000007" class="node">
<title>Node7</title>
<g id="a_Node000007"><a xlink:href="main_8c.html" target="_top" xlink:title=" ">
<polygon fill="white" stroke="#666666" points="646,-19 569,-19 569,0 646,0 646,-19"/>
<text text-anchor="middle" x="607.5" y="-7" font-family="Helvetica,sans-Serif" font-size="10.00">main/main.c</text>
</a>
</g>
</g>
<!-- Node1&#45;&gt;Node7 -->
<g id="edge28_Node000001_Node000007" class="edge">
<title>Node1&#45;&gt;Node7</title>
<g id="a_edge28_Node000001_Node000007"><a xlink:title=" ">
<path fill="none" stroke="#63b8ff" d="M1085.5,-330.92C1085.5,-302.85 1085.5,-255.06 1085.5,-214 1085.5,-214 1085.5,-214 1085.5,-146 1085.5,-70.67 1013.28,-80.79 942.5,-55 840.1,-17.69 709.93,-11.1 646.2,-10.29"/>
<polygon fill="#63b8ff" stroke="#63b8ff" points="1082,-330.99 1085.5,-340.99 1089,-330.99 1082,-330.99"/>
</a>
</g>
</g>
<!-- Node18 -->
<g id="Node000018" class="node">
<title>Node18</title>
<g id="a_Node000018"><a xlink:href="_t_c_a6416_a_8c.html" target="_top" xlink:title=" ">
<polygon fill="white" stroke="#666666" points="1215.5,-294 1113.5,-294 1113.5,-275 1215.5,-275 1215.5,-294"/>
<text text-anchor="middle" x="1164.5" y="-282" font-family="Helvetica,sans-Serif" font-size="10.00">main/TCA6416A.c</text>
</a>
</g>
</g>
<!-- Node1&#45;&gt;Node18 -->
<g id="edge27_Node000001_Node000018" class="edge">
<title>Node1&#45;&gt;Node18</title>
<g id="a_edge27_Node000001_Node000018"><a xlink:title=" ">
<path fill="none" stroke="#63b8ff" d="M1109.02,-334.31C1124.2,-320.95 1143.17,-304.26 1154.53,-294.27"/>
<polygon fill="#63b8ff" stroke="#63b8ff" points="1106.68,-331.7 1101.49,-340.94 1111.31,-336.96 1106.68,-331.7"/>
</a>
</g>
</g>
<!-- Node3 -->
<g id="Node000003" class="node">
<title>Node3</title>
<g id="a_Node000003"><a xlink:href="board__ctrl_8h.html" target="_top" xlink:title=" ">
<polygon fill="white" stroke="#666666" points="678.5,-228 544.5,-228 544.5,-198 678.5,-198 678.5,-228"/>
<text text-anchor="start" x="552.5" y="-216" font-family="Helvetica,sans-Serif" font-size="10.00">components/sevetest30</text>
<text text-anchor="middle" x="611.5" y="-205" font-family="Helvetica,sans-Serif" font-size="10.00">_board/board_ctrl.h</text>
</a>
</g>
</g>
<!-- Node2&#45;&gt;Node3 -->
<g id="edge2_Node000002_Node000003" class="edge">
<title>Node2&#45;&gt;Node3</title>
<g id="a_edge2_Node000002_Node000003"><a xlink:title=" ">
<path fill="none" stroke="#63b8ff" d="M564.66,-256.83C575.39,-247.02 587.11,-236.3 596.15,-228.04"/>
<polygon fill="#63b8ff" stroke="#63b8ff" points="562.09,-254.44 557.08,-263.77 566.82,-259.6 562.09,-254.44"/>
</a>
</g>
</g>
<!-- Node16 -->
<g id="Node000016" class="node">
<title>Node16</title>
<g id="a_Node000016"><a xlink:href="sevetest30___s_w_e_d_a_8c.html" target="_top" xlink:title=" ">
<polygon fill="white" stroke="#666666" points="374.5,-222.5 226.5,-222.5 226.5,-203.5 374.5,-203.5 374.5,-222.5"/>
<text text-anchor="middle" x="300.5" y="-210.5" font-family="Helvetica,sans-Serif" font-size="10.00">main/sevetest30_SWEDA.c</text>
</a>
</g>
</g>
<!-- Node2&#45;&gt;Node16 -->
<g id="edge25_Node000002_Node000016" class="edge">
<title>Node2&#45;&gt;Node16</title>
<g id="a_edge25_Node000002_Node000016"><a xlink:title=" ">
<path fill="none" stroke="#63b8ff" d="M459.78,-261.1C415.26,-247.94 361.55,-232.05 329.25,-222.5"/>
<polygon fill="#63b8ff" stroke="#63b8ff" points="458.83,-264.48 469.41,-263.96 460.82,-257.76 458.83,-264.48"/>
</a>
</g>
</g>
<!-- Node17 -->
<g id="Node000017" class="node">
<title>Node17</title>
<g id="a_Node000017"><a xlink:href="sevetest30__gpio_8c.html" target="_top" xlink:title=" ">
<polygon fill="white" stroke="#666666" points="526,-222.5 393,-222.5 393,-203.5 526,-203.5 526,-222.5"/>
<text text-anchor="middle" x="459.5" y="-210.5" font-family="Helvetica,sans-Serif" font-size="10.00">main/sevetest30_gpio.c</text>
</a>
</g>
</g>
<!-- Node2&#45;&gt;Node17 -->
<g id="edge26_Node000002_Node000017" class="edge">
<title>Node2&#45;&gt;Node17</title>
<g id="a_edge26_Node000002_Node000017"><a xlink:title=" ">
<path fill="none" stroke="#63b8ff" d="M506.39,-256.88C493.21,-244.82 478.51,-231.38 469.14,-222.82"/>
<polygon fill="#63b8ff" stroke="#63b8ff" points="504.18,-259.6 513.92,-263.77 508.91,-254.44 504.18,-259.6"/>
</a>
</g>
</g>
<!-- Node4 -->
<g id="Node000004" class="node">
<title>Node4</title>
<g id="a_Node000004"><a xlink:href="gt32l32s0140_8h.html" target="_top" xlink:title=" ">
<polygon fill="white" stroke="#666666" points="301.5,-90.5 135.5,-90.5 135.5,-60.5 301.5,-60.5 301.5,-90.5"/>
<text text-anchor="start" x="143.5" y="-78.5" font-family="Helvetica,sans-Serif" font-size="10.00">components/sevetest30</text>
<text text-anchor="middle" x="218.5" y="-67.5" font-family="Helvetica,sans-Serif" font-size="10.00">_board/include/gt32l32s0140.h</text>
</a>
</g>
</g>
<!-- Node3&#45;&gt;Node4 -->
<g id="edge3_Node000003_Node000004" class="edge">
<title>Node3&#45;&gt;Node4</title>
<g id="a_edge3_Node000003_Node000004"><a xlink:title=" ">
<path fill="none" stroke="#63b8ff" d="M534.62,-197.44C469.42,-184.88 384.07,-167.87 368.5,-162 318.85,-143.29 266.15,-109.58 238.35,-90.55"/>
<polygon fill="#63b8ff" stroke="#63b8ff" points="534,-200.88 544.48,-199.33 535.33,-194.01 534,-200.88"/>
</a>
</g>
</g>
<!-- Node5 -->
<g id="Node000005" class="node">
<title>Node5</title>
<g id="a_Node000005"><a xlink:href="board__ctrl_8c.html" target="_top" xlink:title=" ">
<polygon fill="white" stroke="#666666" points="238,-19 137,-19 137,0 238,0 238,-19"/>
<text text-anchor="middle" x="187.5" y="-7" font-family="Helvetica,sans-Serif" font-size="10.00">main/board_ctrl.c</text>
</a>
</g>
</g>
<!-- Node3&#45;&gt;Node5 -->
<g id="edge19_Node000003_Node000005" class="edge">
<title>Node3&#45;&gt;Node5</title>
<g id="a_edge19_Node000003_Node000005"><a xlink:title=" ">
<path fill="none" stroke="#63b8ff" d="M534.44,-198.1C346.22,-169.52 231.56,-246.71 126.5,-96 116.08,-81.05 118.24,-71.24 126.5,-55 134.99,-38.29 153.03,-26.36 167.3,-19.09"/>
<polygon fill="#63b8ff" stroke="#63b8ff" points="533.9,-201.56 544.32,-199.69 535.01,-194.65 533.9,-201.56"/>
</a>
</g>
</g>
<!-- Node6 -->
<g id="Node000006" class="node">
<title>Node6</title>
<g id="a_Node000006"><a xlink:href="gt32l32s0140_8c.html" target="_top" xlink:title=" ">
<polygon fill="white" stroke="#666666" points="119,-19 0,-19 0,0 119,0 119,-19"/>
<text text-anchor="middle" x="59.5" y="-7" font-family="Helvetica,sans-Serif" font-size="10.00">main/gt32l32s0140.c</text>
</a>
</g>
</g>
<!-- Node3&#45;&gt;Node6 -->
<g id="edge20_Node000003_Node000006" class="edge">
<title>Node3&#45;&gt;Node6</title>
<g id="a_edge20_Node000003_Node000006"><a xlink:title=" ">
<path fill="none" stroke="#63b8ff" d="M534.32,-198.22C435.62,-187.7 225.14,-204.73 155.5,-162 99.23,-127.48 70.32,-46.24 62.05,-19.33"/>
<polygon fill="#63b8ff" stroke="#63b8ff" points="534.01,-201.71 544.36,-199.45 534.86,-194.76 534.01,-201.71"/>
</a>
</g>
</g>
<!-- Node3&#45;&gt;Node7 -->
<g id="edge21_Node000003_Node000007" class="edge">
<title>Node3&#45;&gt;Node7</title>
<g id="a_edge21_Node000003_Node000007"><a xlink:title=" ">
<path fill="none" stroke="#63b8ff" d="M601.75,-188.53C598.81,-180.29 595.97,-170.87 594.5,-162 585.59,-108.09 599.59,-42.31 605.27,-19.1"/>
<polygon fill="#63b8ff" stroke="#63b8ff" points="598.48,-189.78 605.31,-197.88 605.02,-187.29 598.48,-189.78"/>
</a>
</g>
</g>
<!-- Node9 -->
<g id="Node000009" class="node">
<title>Node9</title>
<g id="a_Node000009"><a xlink:href="sevetest30___u_i_8h.html" target="_top" xlink:title=" ">
<polygon fill="white" stroke="#666666" points="547.5,-162 377.5,-162 377.5,-132 547.5,-132 547.5,-162"/>
<text text-anchor="start" x="385.5" y="-150" font-family="Helvetica,sans-Serif" font-size="10.00">components/sevetest30</text>
<text text-anchor="middle" x="462.5" y="-139" font-family="Helvetica,sans-Serif" font-size="10.00">_board/include/sevetest30_UI.h</text>
</a>
</g>
</g>
<!-- Node3&#45;&gt;Node9 -->
<g id="edge8_Node000003_Node000009" class="edge">
<title>Node3&#45;&gt;Node9</title>
<g id="a_edge8_Node000003_Node000009"><a xlink:title=" ">
<path fill="none" stroke="#63b8ff" d="M569.41,-193.92C545.86,-183.8 516.94,-171.38 495.12,-162.01"/>
<polygon fill="#63b8ff" stroke="#63b8ff" points="568.23,-197.22 578.8,-197.95 570.99,-190.79 568.23,-197.22"/>
</a>
</g>
</g>
<!-- Node12 -->
<g id="Node000012" class="node">
<title>Node12</title>
<g id="a_Node000012"><a xlink:href="sevetest30__sound_8c.html" target="_top" xlink:title=" ">
<polygon fill="white" stroke="#666666" points="933,-85 792,-85 792,-66 933,-66 933,-85"/>
<text text-anchor="middle" x="862.5" y="-73" font-family="Helvetica,sans-Serif" font-size="10.00">main/sevetest30_sound.c</text>
</a>
</g>
</g>
<!-- Node3&#45;&gt;Node12 -->
<g id="edge24_Node000003_Node000012" class="edge">
<title>Node3&#45;&gt;Node12</title>
<g id="a_edge24_Node000003_Node000012"><a xlink:title=" ">
<path fill="none" stroke="#63b8ff" d="M688.98,-208.18C803.38,-201.74 1006.39,-186.92 1028.5,-162 1065.08,-120.78 979.87,-96.6 918.5,-85.01"/>
<polygon fill="#63b8ff" stroke="#63b8ff" points="688.67,-204.69 678.87,-208.74 689.05,-211.68 688.67,-204.69"/>
</a>
</g>
</g>
<!-- Node13 -->
<g id="Node000013" class="node">
<title>Node13</title>
<g id="a_Node000013"><a xlink:href="_a_g_s10_8c.html" target="_top" xlink:title=" ">
<polygon fill="white" stroke="#666666" points="689,-156.5 604,-156.5 604,-137.5 689,-137.5 689,-156.5"/>
<text text-anchor="middle" x="646.5" y="-144.5" font-family="Helvetica,sans-Serif" font-size="10.00">main/AGS10.c</text>
</a>
</g>
</g>
<!-- Node3&#45;&gt;Node13 -->
<g id="edge18_Node000003_Node000013" class="edge">
<title>Node3&#45;&gt;Node13</title>
<g id="a_edge18_Node000003_Node000013"><a xlink:title=" ">
<path fill="none" stroke="#63b8ff" d="M624.11,-188.95C630.2,-177.81 637.14,-165.11 641.66,-156.84"/>
<polygon fill="#63b8ff" stroke="#63b8ff" points="621,-187.34 619.27,-197.8 627.14,-190.7 621,-187.34"/>
</a>
</g>
</g>
<!-- Node14 -->
<g id="Node000014" class="node">
<title>Node14</title>
<g id="a_Node000014"><a xlink:href="sevetest30___b_w_e_d_a_8c.html" target="_top" xlink:title=" ">
<polygon fill="white" stroke="#666666" points="856,-156.5 707,-156.5 707,-137.5 856,-137.5 856,-156.5"/>
<text text-anchor="middle" x="781.5" y="-144.5" font-family="Helvetica,sans-Serif" font-size="10.00">main/sevetest30_BWEDA.c</text>
</a>
</g>
</g>
<!-- Node3&#45;&gt;Node14 -->
<g id="edge22_Node000003_Node000014" class="edge">
<title>Node3&#45;&gt;Node14</title>
<g id="a_edge22_Node000003_Node000014"><a xlink:title=" ">
<path fill="none" stroke="#63b8ff" d="M658.2,-194.42C690.95,-182.09 733.3,-166.15 758.88,-156.52"/>
<polygon fill="#63b8ff" stroke="#63b8ff" points="656.93,-191.16 648.81,-197.95 659.4,-197.71 656.93,-191.16"/>
</a>
</g>
</g>
<!-- Node15 -->
<g id="Node000015" class="node">
<title>Node15</title>
<g id="a_Node000015"><a xlink:href="sevetest30___i_w_e_d_a_8c.html" target="_top" xlink:title=" ">
<polygon fill="white" stroke="#666666" points="1019,-156.5 874,-156.5 874,-137.5 1019,-137.5 1019,-156.5"/>
<text text-anchor="middle" x="946.5" y="-144.5" font-family="Helvetica,sans-Serif" font-size="10.00">main/sevetest30_IWEDA.c</text>
</a>
</g>
</g>
<!-- Node3&#45;&gt;Node15 -->
<g id="edge23_Node000003_Node000015" class="edge">
<title>Node3&#45;&gt;Node15</title>
<g id="a_edge23_Node000003_Node000015"><a xlink:title=" ">
<path fill="none" stroke="#63b8ff" d="M688.83,-197.23C754.79,-184.63 847.33,-166.95 901.69,-156.56"/>
<polygon fill="#63b8ff" stroke="#63b8ff" points="688.05,-193.81 678.89,-199.13 689.37,-200.69 688.05,-193.81"/>
</a>
</g>
</g>
<!-- Node4&#45;&gt;Node5 -->
<g id="edge4_Node000004_Node000005" class="edge">
<title>Node4&#45;&gt;Node5</title>
<g id="a_edge4_Node000004_Node000005"><a xlink:title=" ">
<path fill="none" stroke="#63b8ff" d="M207.17,-51.11C201.82,-40.06 195.75,-27.53 191.78,-19.34"/>
<polygon fill="#63b8ff" stroke="#63b8ff" points="204.11,-52.82 211.62,-60.3 210.41,-49.77 204.11,-52.82"/>
</a>
</g>
</g>
<!-- Node4&#45;&gt;Node6 -->
<g id="edge5_Node000004_Node000006" class="edge">
<title>Node4&#45;&gt;Node6</title>
<g id="a_edge5_Node000004_Node000006"><a xlink:title=" ">
<path fill="none" stroke="#63b8ff" d="M174.03,-56.6C143.51,-44.32 104.38,-28.56 80.66,-19.02"/>
<polygon fill="#63b8ff" stroke="#63b8ff" points="173.02,-59.97 183.61,-60.45 175.64,-53.47 173.02,-59.97"/>
</a>
</g>
</g>
<!-- Node4&#45;&gt;Node7 -->
<g id="edge6_Node000004_Node000007" class="edge">
<title>Node4&#45;&gt;Node7</title>
<g id="a_edge6_Node000004_Node000007"><a xlink:title=" ">
<path fill="none" stroke="#63b8ff" d="M311.51,-59.72C380.1,-48.73 475.66,-33.24 559.5,-19 562.59,-18.48 565.78,-17.93 569,-17.37"/>
<polygon fill="#63b8ff" stroke="#63b8ff" points="310.91,-56.27 301.59,-61.31 312.02,-63.18 310.91,-56.27"/>
</a>
</g>
</g>
<!-- Node8 -->
<g id="Node000008" class="node">
<title>Node8</title>
<g id="a_Node000008"><a xlink:href="sevetest30___led_array_8c.html" target="_top" xlink:title=" ">
<polygon fill="white" stroke="#666666" points="410.5,-19 256.5,-19 256.5,0 410.5,0 410.5,-19"/>
<text text-anchor="middle" x="333.5" y="-7" font-family="Helvetica,sans-Serif" font-size="10.00">main/sevetest30_LedArray.c</text>
</a>
</g>
</g>
<!-- Node4&#45;&gt;Node8 -->
<g id="edge7_Node000004_Node000008" class="edge">
<title>Node4&#45;&gt;Node8</title>
<g id="a_edge7_Node000004_Node000008"><a xlink:title=" ">
<path fill="none" stroke="#63b8ff" d="M252.69,-55.47C274.44,-43.37 301.56,-28.28 318.2,-19.02"/>
<polygon fill="#63b8ff" stroke="#63b8ff" points="250.77,-52.53 243.74,-60.45 254.18,-58.65 250.77,-52.53"/>
</a>
</g>
</g>
<!-- Node9&#45;&gt;Node7 -->
<g id="edge14_Node000009_Node000007" class="edge">
<title>Node9&#45;&gt;Node7</title>
<g id="a_edge14_Node000009_Node000007"><a xlink:title=" ">
<path fill="none" stroke="#63b8ff" d="M490.68,-125.9C502.41,-117.13 515.96,-106.47 527.5,-96 556.25,-69.9 586.63,-35.15 600.21,-19.19"/>
<polygon fill="#63b8ff" stroke="#63b8ff" points="488.48,-123.17 482.51,-131.92 492.63,-128.8 488.48,-123.17"/>
</a>
</g>
</g>
<!-- Node9&#45;&gt;Node8 -->
<g id="edge15_Node000009_Node000008" class="edge">
<title>Node9&#45;&gt;Node8</title>
<g id="a_edge15_Node000009_Node000008"><a xlink:title=" ">
<path fill="none" stroke="#63b8ff" d="M392.92,-128.16C376.14,-120.77 359.82,-110.41 348.5,-96 330.45,-73 331.14,-35.76 332.54,-19.07"/>
<polygon fill="#63b8ff" stroke="#63b8ff" points="391.68,-131.44 402.26,-131.98 394.32,-124.96 391.68,-131.44"/>
</a>
</g>
</g>
<!-- Node10 -->
<g id="Node000010" class="node">
<title>Node10</title>
<g id="a_Node000010"><a xlink:href="sevetest30___led_array_8h.html" target="_top" xlink:title=" ">
<polygon fill="white" stroke="#666666" points="503,-96 358,-96 358,-55 503,-55 503,-96"/>
<text text-anchor="start" x="366" y="-84" font-family="Helvetica,sans-Serif" font-size="10.00">components/sevetest30</text>
<text text-anchor="start" x="366" y="-73" font-family="Helvetica,sans-Serif" font-size="10.00">_board/include/sevetest30</text>
<text text-anchor="middle" x="430.5" y="-62" font-family="Helvetica,sans-Serif" font-size="10.00">_LedArray.h</text>
</a>
</g>
</g>
<!-- Node9&#45;&gt;Node10 -->
<g id="edge9_Node000009_Node000010" class="edge">
<title>Node9&#45;&gt;Node10</title>
<g id="a_edge9_Node000009_Node000010"><a xlink:title=" ">
<path fill="none" stroke="#63b8ff" d="M451.8,-122.75C447.81,-114.1 443.33,-104.37 439.51,-96.07"/>
<polygon fill="#63b8ff" stroke="#63b8ff" points="448.66,-124.32 456.02,-131.94 455.02,-121.39 448.66,-124.32"/>
</a>
</g>
</g>
<!-- Node11 -->
<g id="Node000011" class="node">
<title>Node11</title>
<g id="a_Node000011"><a xlink:href="sevetest30___u_i_8c.html" target="_top" xlink:title=" ">
<polygon fill="white" stroke="#666666" points="550.5,-19 428.5,-19 428.5,0 550.5,0 550.5,-19"/>
<text text-anchor="middle" x="489.5" y="-7" font-family="Helvetica,sans-Serif" font-size="10.00">main/sevetest30_UI.c</text>
</a>
</g>
</g>
<!-- Node9&#45;&gt;Node11 -->
<g id="edge16_Node000009_Node000011" class="edge">
<title>Node9&#45;&gt;Node11</title>
<g id="a_edge16_Node000009_Node000011"><a xlink:title=" ">
<path fill="none" stroke="#63b8ff" d="M490.31,-124.97C498.76,-116.94 507,-107.03 511.5,-96 522.51,-69.04 505.06,-35 495.33,-19.24"/>
<polygon fill="#63b8ff" stroke="#63b8ff" points="487.76,-122.56 482.59,-131.8 492.4,-127.8 487.76,-122.56"/>
</a>
</g>
</g>
<!-- Node9&#45;&gt;Node12 -->
<g id="edge17_Node000009_Node000012" class="edge">
<title>Node9&#45;&gt;Node12</title>
<g id="a_edge17_Node000009_Node000012"><a xlink:title=" ">
<path fill="none" stroke="#63b8ff" d="M553.6,-130.17C634.27,-116.15 748.95,-96.23 813.47,-85.02"/>
<polygon fill="#63b8ff" stroke="#63b8ff" points="552.7,-126.78 543.45,-131.94 553.9,-133.67 552.7,-126.78"/>
</a>
</g>
</g>
<!-- Node10&#45;&gt;Node5 -->
<g id="edge10_Node000010_Node000005" class="edge">
<title>Node10&#45;&gt;Node5</title>
<g id="a_edge10_Node000010_Node000005"><a xlink:title=" ">
<path fill="none" stroke="#63b8ff" d="M348.09,-52.8C304.14,-41.22 252.54,-27.63 219.94,-19.04"/>
<polygon fill="#63b8ff" stroke="#63b8ff" points="347.36,-56.22 357.92,-55.38 349.14,-49.45 347.36,-56.22"/>
</a>
</g>
</g>
<!-- Node10&#45;&gt;Node7 -->
<g id="edge11_Node000010_Node000007" class="edge">
<title>Node10&#45;&gt;Node7</title>
<g id="a_edge11_Node000010_Node000007"><a xlink:title=" ">
<path fill="none" stroke="#63b8ff" d="M494.07,-51.51C525.22,-40.25 560.85,-27.37 583.74,-19.09"/>
<polygon fill="#63b8ff" stroke="#63b8ff" points="492.78,-48.26 484.57,-54.95 495.16,-54.84 492.78,-48.26"/>
</a>
</g>
</g>
<!-- Node10&#45;&gt;Node8 -->
<g id="edge12_Node000010_Node000008" class="edge">
<title>Node10&#45;&gt;Node8</title>
<g id="a_edge12_Node000010_Node000008"><a xlink:title=" ">
<path fill="none" stroke="#63b8ff" d="M392.1,-49.16C375.93,-38.5 358.2,-26.8 346.52,-19.09"/>
<polygon fill="#63b8ff" stroke="#63b8ff" points="390.6,-52.36 400.87,-54.95 394.45,-46.52 390.6,-52.36"/>
</a>
</g>
</g>
<!-- Node10&#45;&gt;Node11 -->
<g id="edge13_Node000010_Node000011" class="edge">
<title>Node10&#45;&gt;Node11</title>
<g id="a_edge13_Node000010_Node000011"><a xlink:title=" ">
<path fill="none" stroke="#63b8ff" d="M455.46,-47.42C464.77,-37.32 474.71,-26.55 481.42,-19.26"/>
<polygon fill="#63b8ff" stroke="#63b8ff" points="452.73,-45.23 448.52,-54.95 457.87,-49.97 452.73,-45.23"/>
</a>
</g>
</g>
</g>
</svg>
