<?xml version="1.0" encoding="UTF-8" standalone="no"?>
<!DOCTYPE svg PUBLIC "-//W3C//DTD SVG 1.1//EN"
 "http://www.w3.org/Graphics/SVG/1.1/DTD/svg11.dtd">
<!-- Generated by graphviz version 2.43.0 (0)
 -->
<!-- Title: components/sevetest30_board/board_ctrl.h Pages: 1 -->
<svg width="1074pt" height="203pt"
 viewBox="0.00 0.00 1074.00 203.00" xmlns="http://www.w3.org/2000/svg" xmlns:xlink="http://www.w3.org/1999/xlink">
<g id="graph0" class="graph" transform="scale(1 1) rotate(0) translate(4 199)">
<title>components/sevetest30_board/board_ctrl.h</title>
<!-- Node1 -->
<g id="Node000001" class="node">
<title>Node1</title>
<g id="a_Node000001"><a xlink:title=" ">
<polygon fill="#999999" stroke="#666666" points="499.5,-195 365.5,-195 365.5,-165 499.5,-165 499.5,-195"/>
<text text-anchor="start" x="373.5" y="-183" font-family="Helvetica,sans-Serif" font-size="10.00">components/sevetest30</text>
<text text-anchor="middle" x="432.5" y="-172" font-family="Helvetica,sans-Serif" font-size="10.00">_board/board_ctrl.h</text>
</a>
</g>
</g>
<!-- Node2 -->
<g id="Node000002" class="node">
<title>Node2</title>
<g id="a_Node000002"><a xlink:title=" ">
<polygon fill="#e0e0e0" stroke="#999999" points="75,-74 0,-74 0,-55 75,-55 75,-74"/>
<text text-anchor="middle" x="37.5" y="-62" font-family="Helvetica,sans-Serif" font-size="10.00">esp_types.h</text>
</a>
</g>
</g>
<!-- Node1&#45;&gt;Node2 -->
<g id="edge1_Node000001_Node000002" class="edge">
<title>Node1&#45;&gt;Node2</title>
<g id="a_edge1_Node000001_Node000002"><a xlink:title=" ">
<path fill="none" stroke="#63b8ff" d="M365.27,-179.04C268.64,-177.65 97.18,-169.37 52.5,-129 40.3,-117.97 37.11,-99.03 36.64,-84.7"/>
<polygon fill="#63b8ff" stroke="#63b8ff" points="40.14,-84.46 36.72,-74.43 33.14,-84.4 40.14,-84.46"/>
</a>
</g>
</g>
<!-- Node3 -->
<g id="Node000003" class="node">
<title>Node3</title>
<g id="a_Node000003"><a xlink:title=" ">
<polygon fill="#e0e0e0" stroke="#999999" points="300,-19 247,-19 247,0 300,0 300,-19"/>
<text text-anchor="middle" x="273.5" y="-7" font-family="Helvetica,sans-Serif" font-size="10.00">string.h</text>
</a>
</g>
</g>
<!-- Node1&#45;&gt;Node3 -->
<g id="edge2_Node000001_Node000003" class="edge">
<title>Node1&#45;&gt;Node3</title>
<g id="a_edge2_Node000001_Node000003"><a xlink:title=" ">
<path fill="none" stroke="#63b8ff" d="M365.22,-169.31C339.54,-162.25 312.21,-150.06 294.5,-129 270.71,-100.71 269.77,-54.93 271.46,-29.34"/>
<polygon fill="#63b8ff" stroke="#63b8ff" points="274.97,-29.41 272.35,-19.14 268,-28.8 274.97,-29.41"/>
</a>
</g>
</g>
<!-- Node4 -->
<g id="Node000004" class="node">
<title>Node4</title>
<g id="a_Node000004"><a xlink:title=" ">
<polygon fill="#e0e0e0" stroke="#999999" points="377.5,-129 303.5,-129 303.5,-110 377.5,-110 377.5,-129"/>
<text text-anchor="middle" x="340.5" y="-117" font-family="Helvetica,sans-Serif" font-size="10.00">board_def.h</text>
</a>
</g>
</g>
<!-- Node1&#45;&gt;Node4 -->
<g id="edge3_Node000001_Node000004" class="edge">
<title>Node1&#45;&gt;Node4</title>
<g id="a_edge3_Node000001_Node000004"><a xlink:title=" ">
<path fill="none" stroke="#63b8ff" d="M410.23,-164.84C395.83,-155.68 377.17,-143.82 362.77,-134.66"/>
<polygon fill="#63b8ff" stroke="#63b8ff" points="364.33,-131.51 354.02,-129.09 360.58,-137.41 364.33,-131.51"/>
</a>
</g>
</g>
<!-- Node5 -->
<g id="Node000005" class="node">
<title>Node5</title>
<g id="a_Node000005"><a xlink:title=" ">
<polygon fill="#e0e0e0" stroke="#999999" points="469,-129 396,-129 396,-110 469,-110 469,-129"/>
<text text-anchor="middle" x="432.5" y="-117" font-family="Helvetica,sans-Serif" font-size="10.00">audio_hal.h</text>
</a>
</g>
</g>
<!-- Node1&#45;&gt;Node5 -->
<g id="edge4_Node000001_Node000005" class="edge">
<title>Node1&#45;&gt;Node5</title>
<g id="a_edge4_Node000001_Node000005"><a xlink:title=" ">
<path fill="none" stroke="#63b8ff" d="M432.5,-164.84C432.5,-157.21 432.5,-147.7 432.5,-139.45"/>
<polygon fill="#63b8ff" stroke="#63b8ff" points="436,-139.27 432.5,-129.27 429,-139.27 436,-139.27"/>
</a>
</g>
</g>
<!-- Node6 -->
<g id="Node000006" class="node">
<title>Node6</title>
<g id="a_Node000006"><a xlink:title=" ">
<polygon fill="#e0e0e0" stroke="#999999" points="590,-129 487,-129 487,-110 590,-110 590,-129"/>
<text text-anchor="middle" x="538.5" y="-117" font-family="Helvetica,sans-Serif" font-size="10.00">esxxx_common.h</text>
</a>
</g>
</g>
<!-- Node1&#45;&gt;Node6 -->
<g id="edge5_Node000001_Node000006" class="edge">
<title>Node1&#45;&gt;Node6</title>
<g id="a_edge5_Node000001_Node000006"><a xlink:title=" ">
<path fill="none" stroke="#63b8ff" d="M457.89,-164.99C474.79,-155.66 496.88,-143.47 513.66,-134.21"/>
<polygon fill="#63b8ff" stroke="#63b8ff" points="515.78,-137.04 522.85,-129.14 512.4,-130.91 515.78,-137.04"/>
</a>
</g>
</g>
<!-- Node7 -->
<g id="Node000007" class="node">
<title>Node7</title>
<g id="a_Node000007"><a xlink:href="sevetest30__gpio_8h.html" target="_top" xlink:title=" ">
<polygon fill="white" stroke="#666666" points="247.5,-129 141.5,-129 141.5,-110 247.5,-110 247.5,-129"/>
<text text-anchor="middle" x="194.5" y="-117" font-family="Helvetica,sans-Serif" font-size="10.00">sevetest30_gpio.h</text>
</a>
</g>
</g>
<!-- Node1&#45;&gt;Node7 -->
<g id="edge6_Node000001_Node000007" class="edge">
<title>Node1&#45;&gt;Node7</title>
<g id="a_edge6_Node000001_Node000007"><a xlink:title=" ">
<path fill="none" stroke="#63b8ff" d="M375.49,-164.99C333.71,-154.72 277.77,-140.97 239.2,-131.49"/>
<polygon fill="#63b8ff" stroke="#63b8ff" points="239.85,-128.04 229.3,-129.05 238.17,-134.84 239.85,-128.04"/>
</a>
</g>
</g>
<!-- Node11 -->
<g id="Node000011" class="node">
<title>Node11</title>
<g id="a_Node000011"><a xlink:title=" ">
<polygon fill="#e0e0e0" stroke="#999999" points="679,-129 608,-129 608,-110 679,-110 679,-129"/>
<text text-anchor="middle" x="643.5" y="-117" font-family="Helvetica,sans-Serif" font-size="10.00">driver/i2c.h</text>
</a>
</g>
</g>
<!-- Node1&#45;&gt;Node11 -->
<g id="edge11_Node000001_Node000011" class="edge">
<title>Node1&#45;&gt;Node11</title>
<g id="a_edge11_Node000001_Node000011"><a xlink:title=" ">
<path fill="none" stroke="#63b8ff" d="M483.04,-164.99C519.77,-154.8 568.83,-141.2 602.99,-131.73"/>
<polygon fill="#63b8ff" stroke="#63b8ff" points="603.95,-135.1 612.65,-129.05 602.08,-128.35 603.95,-135.1"/>
</a>
</g>
</g>
<!-- Node12 -->
<g id="Node000012" class="node">
<title>Node12</title>
<g id="a_Node000012"><a xlink:title=" ">
<polygon fill="#e0e0e0" stroke="#999999" points="816,-129 697,-129 697,-110 816,-110 816,-129"/>
<text text-anchor="middle" x="756.5" y="-117" font-family="Helvetica,sans-Serif" font-size="10.00">driver/spi_common.h</text>
</a>
</g>
</g>
<!-- Node1&#45;&gt;Node12 -->
<g id="edge12_Node000001_Node000012" class="edge">
<title>Node1&#45;&gt;Node12</title>
<g id="a_edge12_Node000001_Node000012"><a xlink:title=" ">
<path fill="none" stroke="#63b8ff" d="M499.63,-166.88C558.61,-156.23 643.49,-140.9 699.3,-130.83"/>
<polygon fill="#63b8ff" stroke="#63b8ff" points="700.15,-134.23 709.37,-129.01 698.91,-127.34 700.15,-134.23"/>
</a>
</g>
</g>
<!-- Node13 -->
<g id="Node000013" class="node">
<title>Node13</title>
<g id="a_Node000013"><a xlink:title=" ">
<polygon fill="#e0e0e0" stroke="#999999" points="944.5,-129 834.5,-129 834.5,-110 944.5,-110 944.5,-129"/>
<text text-anchor="middle" x="889.5" y="-117" font-family="Helvetica,sans-Serif" font-size="10.00">driver/spi_master.h</text>
</a>
</g>
</g>
<!-- Node1&#45;&gt;Node13 -->
<g id="edge13_Node000001_Node000013" class="edge">
<title>Node1&#45;&gt;Node13</title>
<g id="a_edge13_Node000001_Node000013"><a xlink:title=" ">
<path fill="none" stroke="#63b8ff" d="M499.62,-170.57C575.73,-160.99 703.84,-144.79 824.21,-129.16"/>
<polygon fill="#63b8ff" stroke="#63b8ff" points="824.88,-132.6 834.34,-127.84 823.98,-125.66 824.88,-132.6"/>
</a>
</g>
</g>
<!-- Node14 -->
<g id="Node000014" class="node">
<title>Node14</title>
<g id="a_Node000014"><a xlink:title=" ">
<polygon fill="#e0e0e0" stroke="#999999" points="1066,-129 963,-129 963,-110 1066,-110 1066,-129"/>
<text text-anchor="middle" x="1014.5" y="-117" font-family="Helvetica,sans-Serif" font-size="10.00">esp_peripherals.h</text>
</a>
</g>
</g>
<!-- Node1&#45;&gt;Node14 -->
<g id="edge14_Node000001_Node000014" class="edge">
<title>Node1&#45;&gt;Node14</title>
<g id="a_edge14_Node000001_Node000014"><a xlink:title=" ">
<path fill="none" stroke="#63b8ff" d="M499.63,-173.48C597,-165.27 783.37,-148.79 952.83,-129.03"/>
<polygon fill="#63b8ff" stroke="#63b8ff" points="953.41,-132.48 962.94,-127.84 952.6,-125.53 953.41,-132.48"/>
</a>
</g>
</g>
<!-- Node15 -->
<g id="Node000015" class="node">
<title>Node15</title>
<g id="a_Node000015"><a xlink:href="_b_l5372_8h.html" target="_top" xlink:title=" ">
<polygon fill="white" stroke="#666666" points="123.5,-129 61.5,-129 61.5,-110 123.5,-110 123.5,-129"/>
<text text-anchor="middle" x="92.5" y="-117" font-family="Helvetica,sans-Serif" font-size="10.00">BL5372.h</text>
</a>
</g>
</g>
<!-- Node1&#45;&gt;Node15 -->
<g id="edge15_Node000001_Node000015" class="edge">
<title>Node1&#45;&gt;Node15</title>
<g id="a_edge15_Node000001_Node000015"><a xlink:title=" ">
<path fill="none" stroke="#63b8ff" d="M365.33,-168.68C306.69,-159.46 219.06,-145.22 133.77,-129.18"/>
<polygon fill="#63b8ff" stroke="#63b8ff" points="134.39,-125.73 123.92,-127.31 133.09,-132.61 134.39,-125.73"/>
</a>
</g>
</g>
<!-- Node8 -->
<g id="Node000008" class="node">
<title>Node8</title>
<g id="a_Node000008"><a xlink:href="_t_c_a6416_a_8h.html" target="_top" xlink:title=" ">
<polygon fill="white" stroke="#666666" points="232,-74 157,-74 157,-55 232,-55 232,-74"/>
<text text-anchor="middle" x="194.5" y="-62" font-family="Helvetica,sans-Serif" font-size="10.00">TCA6416A.h</text>
</a>
</g>
</g>
<!-- Node7&#45;&gt;Node8 -->
<g id="edge7_Node000007_Node000008" class="edge">
<title>Node7&#45;&gt;Node8</title>
<g id="a_edge7_Node000007_Node000008"><a xlink:title=" ">
<path fill="none" stroke="#63b8ff" d="M194.5,-109.75C194.5,-102.8 194.5,-92.85 194.5,-84.13"/>
<polygon fill="#63b8ff" stroke="#63b8ff" points="198,-84.09 194.5,-74.09 191,-84.09 198,-84.09"/>
</a>
</g>
</g>
<!-- Node8&#45;&gt;Node3 -->
<g id="edge8_Node000008_Node000003" class="edge">
<title>Node8&#45;&gt;Node3</title>
<g id="a_edge8_Node000008_Node000003"><a xlink:title=" ">
<path fill="none" stroke="#63b8ff" d="M207.19,-54.98C219.33,-46.84 237.86,-34.41 252.25,-24.76"/>
<polygon fill="#63b8ff" stroke="#63b8ff" points="254.22,-27.65 260.58,-19.17 250.32,-21.84 254.22,-27.65"/>
</a>
</g>
</g>
<!-- Node9 -->
<g id="Node000009" class="node">
<title>Node9</title>
<g id="a_Node000009"><a xlink:title=" ">
<polygon fill="#e0e0e0" stroke="#999999" points="225.5,-19 163.5,-19 163.5,0 225.5,0 225.5,-19"/>
<text text-anchor="middle" x="194.5" y="-7" font-family="Helvetica,sans-Serif" font-size="10.00">stdbool.h</text>
</a>
</g>
</g>
<!-- Node8&#45;&gt;Node9 -->
<g id="edge9_Node000008_Node000009" class="edge">
<title>Node8&#45;&gt;Node9</title>
<g id="a_edge9_Node000008_Node000009"><a xlink:title=" ">
<path fill="none" stroke="#63b8ff" d="M194.5,-54.75C194.5,-47.8 194.5,-37.85 194.5,-29.13"/>
<polygon fill="#63b8ff" stroke="#63b8ff" points="198,-29.09 194.5,-19.09 191,-29.09 198,-29.09"/>
</a>
</g>
</g>
<!-- Node10 -->
<g id="Node000010" class="node">
<title>Node10</title>
<g id="a_Node000010"><a xlink:title=" ">
<polygon fill="#e0e0e0" stroke="#999999" points="138,-19 77,-19 77,0 138,0 138,-19"/>
<text text-anchor="middle" x="107.5" y="-7" font-family="Helvetica,sans-Serif" font-size="10.00">esp_err.h</text>
</a>
</g>
</g>
<!-- Node8&#45;&gt;Node10 -->
<g id="edge10_Node000008_Node000010" class="edge">
<title>Node8&#45;&gt;Node10</title>
<g id="a_edge10_Node000008_Node000010"><a xlink:title=" ">
<path fill="none" stroke="#63b8ff" d="M180.52,-54.98C167.03,-46.77 146.37,-34.18 130.46,-24.49"/>
<polygon fill="#63b8ff" stroke="#63b8ff" points="132.09,-21.38 121.73,-19.17 128.45,-27.36 132.09,-21.38"/>
</a>
</g>
</g>
<!-- Node15&#45;&gt;Node2 -->
<g id="edge16_Node000015_Node000002" class="edge">
<title>Node15&#45;&gt;Node2</title>
<g id="a_edge16_Node000015_Node000002"><a xlink:title=" ">
<path fill="none" stroke="#63b8ff" d="M83.42,-109.75C75.41,-102.03 63.54,-90.6 53.88,-81.28"/>
<polygon fill="#63b8ff" stroke="#63b8ff" points="56.04,-78.51 46.41,-74.09 51.19,-83.55 56.04,-78.51"/>
</a>
</g>
</g>
<!-- Node15&#45;&gt;Node10 -->
<g id="edge17_Node000015_Node000010" class="edge">
<title>Node15&#45;&gt;Node10</title>
<g id="a_edge17_Node000015_Node000010"><a xlink:title=" ">
<path fill="none" stroke="#63b8ff" d="M93.73,-109.66C96.16,-92.17 101.62,-52.8 104.89,-29.27"/>
<polygon fill="#63b8ff" stroke="#63b8ff" points="108.39,-29.54 106.3,-19.16 101.45,-28.58 108.39,-29.54"/>
</a>
</g>
</g>
</g>
</svg>
