<?xml version="1.0" encoding="UTF-8" standalone="no"?>
<!DOCTYPE svg PUBLIC "-//W3C//DTD SVG 1.1//EN"
 "http://www.w3.org/Graphics/SVG/1.1/DTD/svg11.dtd">
<!-- Generated by graphviz version 2.43.0 (0)
 -->
<!-- Title: main/board_ctrl.c Pages: 1 -->
<svg width="2044pt" height="357pt"
 viewBox="0.00 0.00 2044.00 357.00" xmlns="http://www.w3.org/2000/svg" xmlns:xlink="http://www.w3.org/1999/xlink">
<g id="graph0" class="graph" transform="scale(1 1) rotate(0) translate(4 353)">
<title>main/board_ctrl.c</title>
<!-- Node1 -->
<g id="Node000001" class="node">
<title>Node1</title>
<g id="a_Node000001"><a xlink:title=" ">
<polygon fill="#999999" stroke="#666666" points="1047.5,-349 946.5,-349 946.5,-330 1047.5,-330 1047.5,-349"/>
<text text-anchor="middle" x="997" y="-337" font-family="Helvetica,sans-Serif" font-size="10.00">main/board_ctrl.c</text>
</a>
</g>
</g>
<!-- Node2 -->
<g id="Node000002" class="node">
<title>Node2</title>
<g id="a_Node000002"><a xlink:href="board__ctrl_8h.html" target="_top" xlink:title=" ">
<polygon fill="white" stroke="#666666" points="989,-184 915,-184 915,-165 989,-165 989,-184"/>
<text text-anchor="middle" x="952" y="-172" font-family="Helvetica,sans-Serif" font-size="10.00">board_ctrl.h</text>
</a>
</g>
</g>
<!-- Node1&#45;&gt;Node2 -->
<g id="edge1_Node000001_Node000002" class="edge">
<title>Node1&#45;&gt;Node2</title>
<g id="a_edge1_Node000001_Node000002"><a xlink:title=" ">
<path fill="none" stroke="#63b8ff" d="M994.58,-329.74C987.53,-304.2 966.89,-229.43 957.17,-194.23"/>
<polygon fill="#63b8ff" stroke="#63b8ff" points="960.47,-193.01 954.43,-184.31 953.72,-194.88 960.47,-193.01"/>
</a>
</g>
</g>
<!-- Node5 -->
<g id="Node000005" class="node">
<title>Node5</title>
<g id="a_Node000005"><a xlink:title=" ">
<polygon fill="#e0e0e0" stroke="#999999" points="1341,-129 1267,-129 1267,-110 1341,-110 1341,-129"/>
<text text-anchor="middle" x="1304" y="-117" font-family="Helvetica,sans-Serif" font-size="10.00">board_def.h</text>
</a>
</g>
</g>
<!-- Node1&#45;&gt;Node5 -->
<g id="edge20_Node000001_Node000005" class="edge">
<title>Node1&#45;&gt;Node5</title>
<g id="a_edge20_Node000001_Node000005"><a xlink:title=" ">
<path fill="none" stroke="#63b8ff" d="M1009.03,-329.95C1055.64,-296.86 1224.59,-176.89 1283.54,-135.03"/>
<polygon fill="#63b8ff" stroke="#63b8ff" points="1285.59,-137.87 1291.71,-129.22 1281.53,-132.16 1285.59,-137.87"/>
</a>
</g>
</g>
<!-- Node17 -->
<g id="Node000017" class="node">
<title>Node17</title>
<g id="a_Node000017"><a xlink:title=" ">
<polygon fill="#e0e0e0" stroke="#999999" points="1450.5,-294 1397.5,-294 1397.5,-275 1450.5,-275 1450.5,-294"/>
<text text-anchor="middle" x="1424" y="-282" font-family="Helvetica,sans-Serif" font-size="10.00">board.h</text>
</a>
</g>
</g>
<!-- Node1&#45;&gt;Node17 -->
<g id="edge19_Node000001_Node000017" class="edge">
<title>Node1&#45;&gt;Node17</title>
<g id="a_edge19_Node000001_Node000017"><a xlink:title=" ">
<path fill="none" stroke="#63b8ff" d="M1047.58,-334.67C1120.46,-328.73 1259.4,-315.83 1387.36,-293.9"/>
<polygon fill="#63b8ff" stroke="#63b8ff" points="1388.08,-297.33 1397.34,-292.17 1386.89,-290.43 1388.08,-297.33"/>
</a>
</g>
</g>
<!-- Node18 -->
<g id="Node000018" class="node">
<title>Node18</title>
<g id="a_Node000018"><a xlink:href="gt32l32s0140_8h.html" target="_top" xlink:title=" ">
<polygon fill="white" stroke="#666666" points="859,-239 767,-239 767,-220 859,-220 859,-239"/>
<text text-anchor="middle" x="813" y="-227" font-family="Helvetica,sans-Serif" font-size="10.00">gt32l32s0140.h</text>
</a>
</g>
</g>
<!-- Node1&#45;&gt;Node18 -->
<g id="edge21_Node000001_Node000018" class="edge">
<title>Node1&#45;&gt;Node18</title>
<g id="a_edge21_Node000001_Node000018"><a xlink:title=" ">
<path fill="none" stroke="#63b8ff" d="M959.37,-329.94C933.63,-322.94 899.51,-311.34 873,-294 853.84,-281.47 836.42,-261.64 825.34,-247.48"/>
<polygon fill="#63b8ff" stroke="#63b8ff" points="827.85,-244.99 819.03,-239.12 822.26,-249.21 827.85,-244.99"/>
</a>
</g>
</g>
<!-- Node19 -->
<g id="Node000019" class="node">
<title>Node19</title>
<g id="a_Node000019"><a xlink:href="lsm6ds3trc_8h.html" target="_top" xlink:title=" ">
<polygon fill="white" stroke="#666666" points="166,-129 86,-129 86,-110 166,-110 166,-129"/>
<text text-anchor="middle" x="126" y="-117" font-family="Helvetica,sans-Serif" font-size="10.00">lsm6ds3trc.h</text>
</a>
</g>
</g>
<!-- Node1&#45;&gt;Node19 -->
<g id="edge24_Node000001_Node000019" class="edge">
<title>Node1&#45;&gt;Node19</title>
<g id="a_edge24_Node000001_Node000019"><a xlink:title=" ">
<path fill="none" stroke="#63b8ff" d="M946.35,-331.35C826.8,-313.7 518.49,-263.61 271,-184 227.94,-170.15 180.31,-147.86 151.79,-133.71"/>
<polygon fill="#63b8ff" stroke="#63b8ff" points="153.04,-130.42 142.53,-129.07 149.91,-136.68 153.04,-130.42"/>
</a>
</g>
</g>
<!-- Node20 -->
<g id="Node000020" class="node">
<title>Node20</title>
<g id="a_Node000020"><a xlink:href="_a_h_t21_8h.html" target="_top" xlink:title=" ">
<polygon fill="white" stroke="#666666" points="280,-129 222,-129 222,-110 280,-110 280,-129"/>
<text text-anchor="middle" x="251" y="-117" font-family="Helvetica,sans-Serif" font-size="10.00">AHT21.h</text>
</a>
</g>
</g>
<!-- Node1&#45;&gt;Node20 -->
<g id="edge27_Node000001_Node000020" class="edge">
<title>Node1&#45;&gt;Node20</title>
<g id="a_edge27_Node000001_Node000020"><a xlink:title=" ">
<path fill="none" stroke="#63b8ff" d="M990.62,-329.82C973.57,-307.36 924.42,-247.22 868,-220 636.36,-108.26 547.17,-175.91 290.01,-129.05"/>
<polygon fill="#63b8ff" stroke="#63b8ff" points="290.48,-125.58 280.01,-127.19 289.2,-132.46 290.48,-125.58"/>
</a>
</g>
</g>
<!-- Node21 -->
<g id="Node000021" class="node">
<title>Node21</title>
<g id="a_Node000021"><a xlink:title=" ">
<polygon fill="#e0e0e0" stroke="#999999" points="1531.5,-294 1468.5,-294 1468.5,-275 1531.5,-275 1531.5,-294"/>
<text text-anchor="middle" x="1500" y="-282" font-family="Helvetica,sans-Serif" font-size="10.00">esp_log.h</text>
</a>
</g>
</g>
<!-- Node1&#45;&gt;Node21 -->
<g id="edge30_Node000001_Node000021" class="edge">
<title>Node1&#45;&gt;Node21</title>
<g id="a_edge30_Node000001_Node000021"><a xlink:title=" ">
<path fill="none" stroke="#63b8ff" d="M1047.81,-335.41C1131.29,-329.95 1302.84,-317.06 1458.08,-293.97"/>
<polygon fill="#63b8ff" stroke="#63b8ff" points="1458.91,-297.38 1468.28,-292.43 1457.87,-290.46 1458.91,-297.38"/>
</a>
</g>
</g>
<!-- Node22 -->
<g id="Node000022" class="node">
<title>Node22</title>
<g id="a_Node000022"><a xlink:href="sevetest30__touch_8h.html" target="_top" xlink:title=" ">
<polygon fill="white" stroke="#666666" points="1929,-294 1817,-294 1817,-275 1929,-275 1929,-294"/>
<text text-anchor="middle" x="1873" y="-282" font-family="Helvetica,sans-Serif" font-size="10.00">sevetest30_touch.h</text>
</a>
</g>
</g>
<!-- Node1&#45;&gt;Node22 -->
<g id="edge31_Node000001_Node000022" class="edge">
<title>Node1&#45;&gt;Node22</title>
<g id="a_edge31_Node000001_Node000022"><a xlink:title=" ">
<path fill="none" stroke="#63b8ff" d="M1047.56,-335.44C1197.28,-326.38 1638.32,-299.7 1806.67,-289.51"/>
<polygon fill="#63b8ff" stroke="#63b8ff" points="1807.11,-292.99 1816.88,-288.9 1806.68,-286.01 1807.11,-292.99"/>
</a>
</g>
</g>
<!-- Node25 -->
<g id="Node000025" class="node">
<title>Node25</title>
<g id="a_Node000025"><a xlink:href="sevetest30___b_w_e_d_a_8h.html" target="_top" xlink:title=" ">
<polygon fill="white" stroke="#666666" points="122,-74 0,-74 0,-55 122,-55 122,-74"/>
<text text-anchor="middle" x="61" y="-62" font-family="Helvetica,sans-Serif" font-size="10.00">sevetest30_BWEDA.h</text>
</a>
</g>
</g>
<!-- Node1&#45;&gt;Node25 -->
<g id="edge34_Node000001_Node000025" class="edge">
<title>Node1&#45;&gt;Node25</title>
<g id="a_edge34_Node000001_Node000025"><a xlink:title=" ">
<path fill="none" stroke="#63b8ff" d="M946.18,-338.04C750.69,-335.63 58,-320.7 58,-230.5 58,-230.5 58,-230.5 58,-173.5 58,-142.18 59.28,-105.77 60.16,-84.23"/>
<polygon fill="#63b8ff" stroke="#63b8ff" points="63.66,-84.32 60.6,-74.18 56.67,-84.02 63.66,-84.32"/>
</a>
</g>
</g>
<!-- Node26 -->
<g id="Node000026" class="node">
<title>Node26</title>
<g id="a_Node000026"><a xlink:href="sevetest30___led_array_8h.html" target="_top" xlink:title=" ">
<polygon fill="white" stroke="#666666" points="1379.5,-294 1252.5,-294 1252.5,-275 1379.5,-275 1379.5,-294"/>
<text text-anchor="middle" x="1316" y="-282" font-family="Helvetica,sans-Serif" font-size="10.00">sevetest30_LedArray.h</text>
</a>
</g>
</g>
<!-- Node1&#45;&gt;Node26 -->
<g id="edge36_Node000001_Node000026" class="edge">
<title>Node1&#45;&gt;Node26</title>
<g id="a_edge36_Node000001_Node000026"><a xlink:title=" ">
<path fill="none" stroke="#63b8ff" d="M1047.55,-330.1C1103.68,-320.78 1194.3,-305.72 1254.5,-295.72"/>
<polygon fill="#63b8ff" stroke="#63b8ff" points="1255.34,-299.13 1264.63,-294.03 1254.2,-292.22 1255.34,-299.13"/>
</a>
</g>
</g>
<!-- Node3 -->
<g id="Node000003" class="node">
<title>Node3</title>
<g id="a_Node000003"><a xlink:title=" ">
<polygon fill="#e0e0e0" stroke="#999999" points="768.5,-74 693.5,-74 693.5,-55 768.5,-55 768.5,-74"/>
<text text-anchor="middle" x="731" y="-62" font-family="Helvetica,sans-Serif" font-size="10.00">esp_types.h</text>
</a>
</g>
</g>
<!-- Node2&#45;&gt;Node3 -->
<g id="edge2_Node000002_Node000003" class="edge">
<title>Node2&#45;&gt;Node3</title>
<g id="a_edge2_Node000002_Node000003"><a xlink:title=" ">
<path fill="none" stroke="#63b8ff" d="M914.95,-166.34C858.31,-155.26 756.07,-134.64 750,-129 737.76,-117.63 733.29,-98.73 731.72,-84.5"/>
<polygon fill="#63b8ff" stroke="#63b8ff" points="735.19,-84.05 730.98,-74.32 728.21,-84.55 735.19,-84.05"/>
</a>
</g>
</g>
<!-- Node4 -->
<g id="Node000004" class="node">
<title>Node4</title>
<g id="a_Node000004"><a xlink:title=" ">
<polygon fill="#e0e0e0" stroke="#999999" points="1598.5,-19 1545.5,-19 1545.5,0 1598.5,0 1598.5,-19"/>
<text text-anchor="middle" x="1572" y="-7" font-family="Helvetica,sans-Serif" font-size="10.00">string.h</text>
</a>
</g>
</g>
<!-- Node2&#45;&gt;Node4 -->
<g id="edge3_Node000002_Node000004" class="edge">
<title>Node2&#45;&gt;Node4</title>
<g id="a_edge3_Node000002_Node000004"><a xlink:title=" ">
<path fill="none" stroke="#63b8ff" d="M989.24,-170.85C1041.78,-166.32 1140.15,-154.94 1220,-129 1237.96,-123.17 1240.5,-117.1 1258,-110 1355.98,-70.26 1476.23,-36.02 1535.46,-20.07"/>
<polygon fill="#63b8ff" stroke="#63b8ff" points="1536.7,-23.36 1545.46,-17.39 1534.89,-16.6 1536.7,-23.36"/>
</a>
</g>
</g>
<!-- Node2&#45;&gt;Node5 -->
<g id="edge4_Node000002_Node000005" class="edge">
<title>Node2&#45;&gt;Node5</title>
<g id="a_edge4_Node000002_Node000005"><a xlink:title=" ">
<path fill="none" stroke="#63b8ff" d="M989.1,-168.24C1045.96,-160.13 1158.03,-143.93 1253,-129 1254.27,-128.8 1255.56,-128.6 1256.86,-128.39"/>
<polygon fill="#63b8ff" stroke="#63b8ff" points="1257.65,-131.81 1266.97,-126.75 1256.54,-124.9 1257.65,-131.81"/>
</a>
</g>
</g>
<!-- Node6 -->
<g id="Node000006" class="node">
<title>Node6</title>
<g id="a_Node000006"><a xlink:title=" ">
<polygon fill="#e0e0e0" stroke="#999999" points="492.5,-129 419.5,-129 419.5,-110 492.5,-110 492.5,-129"/>
<text text-anchor="middle" x="456" y="-117" font-family="Helvetica,sans-Serif" font-size="10.00">audio_hal.h</text>
</a>
</g>
</g>
<!-- Node2&#45;&gt;Node6 -->
<g id="edge5_Node000002_Node000006" class="edge">
<title>Node2&#45;&gt;Node6</title>
<g id="a_edge5_Node000002_Node000006"><a xlink:title=" ">
<path fill="none" stroke="#63b8ff" d="M914.72,-166.95C910.11,-166.24 905.45,-165.57 901,-165 727.24,-142.73 679.55,-153.19 502.95,-129.15"/>
<polygon fill="#63b8ff" stroke="#63b8ff" points="503.17,-125.65 492.79,-127.75 502.22,-132.58 503.17,-125.65"/>
</a>
</g>
</g>
<!-- Node7 -->
<g id="Node000007" class="node">
<title>Node7</title>
<g id="a_Node000007"><a xlink:title=" ">
<polygon fill="#e0e0e0" stroke="#999999" points="613.5,-129 510.5,-129 510.5,-110 613.5,-110 613.5,-129"/>
<text text-anchor="middle" x="562" y="-117" font-family="Helvetica,sans-Serif" font-size="10.00">esxxx_common.h</text>
</a>
</g>
</g>
<!-- Node2&#45;&gt;Node7 -->
<g id="edge6_Node000002_Node000007" class="edge">
<title>Node2&#45;&gt;Node7</title>
<g id="a_edge6_Node000002_Node000007"><a xlink:title=" ">
<path fill="none" stroke="#63b8ff" d="M914.98,-167.17C910.28,-166.41 905.53,-165.67 901,-165 780.58,-147.2 747.62,-145.83 623.96,-129.25"/>
<polygon fill="#63b8ff" stroke="#63b8ff" points="624.08,-125.73 613.7,-127.87 623.15,-132.67 624.08,-125.73"/>
</a>
</g>
</g>
<!-- Node8 -->
<g id="Node000008" class="node">
<title>Node8</title>
<g id="a_Node000008"><a xlink:href="sevetest30__gpio_8h.html" target="_top" xlink:title=" ">
<polygon fill="white" stroke="#666666" points="1211,-129 1105,-129 1105,-110 1211,-110 1211,-129"/>
<text text-anchor="middle" x="1158" y="-117" font-family="Helvetica,sans-Serif" font-size="10.00">sevetest30_gpio.h</text>
</a>
</g>
</g>
<!-- Node2&#45;&gt;Node8 -->
<g id="edge7_Node000002_Node000008" class="edge">
<title>Node2&#45;&gt;Node8</title>
<g id="a_edge7_Node000002_Node000008"><a xlink:title=" ">
<path fill="none" stroke="#63b8ff" d="M985.1,-164.98C1020.28,-155.93 1076.07,-141.58 1114.72,-131.64"/>
<polygon fill="#63b8ff" stroke="#63b8ff" points="1115.83,-134.96 1124.64,-129.08 1114.09,-128.18 1115.83,-134.96"/>
</a>
</g>
</g>
<!-- Node12 -->
<g id="Node000012" class="node">
<title>Node12</title>
<g id="a_Node000012"><a xlink:title=" ">
<polygon fill="#e0e0e0" stroke="#999999" points="702.5,-129 631.5,-129 631.5,-110 702.5,-110 702.5,-129"/>
<text text-anchor="middle" x="667" y="-117" font-family="Helvetica,sans-Serif" font-size="10.00">driver/i2c.h</text>
</a>
</g>
</g>
<!-- Node2&#45;&gt;Node12 -->
<g id="edge12_Node000002_Node000012" class="edge">
<title>Node2&#45;&gt;Node12</title>
<g id="a_edge12_Node000002_Node000012"><a xlink:title=" ">
<path fill="none" stroke="#63b8ff" d="M914.74,-166.57C862.9,-156.93 769.06,-139.48 712.94,-129.04"/>
<polygon fill="#63b8ff" stroke="#63b8ff" points="713.39,-125.57 702.92,-127.18 712.11,-132.45 713.39,-125.57"/>
</a>
</g>
</g>
<!-- Node13 -->
<g id="Node000013" class="node">
<title>Node13</title>
<g id="a_Node000013"><a xlink:title=" ">
<polygon fill="#e0e0e0" stroke="#999999" points="878.5,-129 759.5,-129 759.5,-110 878.5,-110 878.5,-129"/>
<text text-anchor="middle" x="819" y="-117" font-family="Helvetica,sans-Serif" font-size="10.00">driver/spi_common.h</text>
</a>
</g>
</g>
<!-- Node2&#45;&gt;Node13 -->
<g id="edge13_Node000002_Node000013" class="edge">
<title>Node2&#45;&gt;Node13</title>
<g id="a_edge13_Node000002_Node000013"><a xlink:title=" ">
<path fill="none" stroke="#63b8ff" d="M930.63,-164.98C908.85,-156.3 874.84,-142.75 850.08,-132.88"/>
<polygon fill="#63b8ff" stroke="#63b8ff" points="851.34,-129.62 840.76,-129.17 848.75,-136.12 851.34,-129.62"/>
</a>
</g>
</g>
<!-- Node14 -->
<g id="Node000014" class="node">
<title>Node14</title>
<g id="a_Node000014"><a xlink:title=" ">
<polygon fill="#e0e0e0" stroke="#999999" points="1007,-129 897,-129 897,-110 1007,-110 1007,-129"/>
<text text-anchor="middle" x="952" y="-117" font-family="Helvetica,sans-Serif" font-size="10.00">driver/spi_master.h</text>
</a>
</g>
</g>
<!-- Node2&#45;&gt;Node14 -->
<g id="edge14_Node000002_Node000014" class="edge">
<title>Node2&#45;&gt;Node14</title>
<g id="a_edge14_Node000002_Node000014"><a xlink:title=" ">
<path fill="none" stroke="#63b8ff" d="M952,-164.75C952,-157.8 952,-147.85 952,-139.13"/>
<polygon fill="#63b8ff" stroke="#63b8ff" points="955.5,-139.09 952,-129.09 948.5,-139.09 955.5,-139.09"/>
</a>
</g>
</g>
<!-- Node15 -->
<g id="Node000015" class="node">
<title>Node15</title>
<g id="a_Node000015"><a xlink:title=" ">
<polygon fill="#e0e0e0" stroke="#999999" points="401.5,-129 298.5,-129 298.5,-110 401.5,-110 401.5,-129"/>
<text text-anchor="middle" x="350" y="-117" font-family="Helvetica,sans-Serif" font-size="10.00">esp_peripherals.h</text>
</a>
</g>
</g>
<!-- Node2&#45;&gt;Node15 -->
<g id="edge15_Node000002_Node000015" class="edge">
<title>Node2&#45;&gt;Node15</title>
<g id="a_edge15_Node000002_Node000015"><a xlink:title=" ">
<path fill="none" stroke="#63b8ff" d="M914.73,-166.88C910.12,-166.18 905.46,-165.53 901,-165 687.03,-139.38 629.3,-151.96 411.82,-129.13"/>
<polygon fill="#63b8ff" stroke="#63b8ff" points="412,-125.62 401.68,-128.05 411.26,-132.59 412,-125.62"/>
</a>
</g>
</g>
<!-- Node16 -->
<g id="Node000016" class="node">
<title>Node16</title>
<g id="a_Node000016"><a xlink:href="_b_l5372_8h.html" target="_top" xlink:title=" ">
<polygon fill="white" stroke="#666666" points="1087,-129 1025,-129 1025,-110 1087,-110 1087,-129"/>
<text text-anchor="middle" x="1056" y="-117" font-family="Helvetica,sans-Serif" font-size="10.00">BL5372.h</text>
</a>
</g>
</g>
<!-- Node2&#45;&gt;Node16 -->
<g id="edge16_Node000002_Node000016" class="edge">
<title>Node2&#45;&gt;Node16</title>
<g id="a_edge16_Node000002_Node000016"><a xlink:title=" ">
<path fill="none" stroke="#63b8ff" d="M968.71,-164.98C985.21,-156.57 1010.7,-143.59 1029.88,-133.81"/>
<polygon fill="#63b8ff" stroke="#63b8ff" points="1031.67,-136.83 1038.99,-129.17 1028.49,-130.59 1031.67,-136.83"/>
</a>
</g>
</g>
<!-- Node9 -->
<g id="Node000009" class="node">
<title>Node9</title>
<g id="a_Node000009"><a xlink:href="_t_c_a6416_a_8h.html" target="_top" xlink:title=" ">
<polygon fill="white" stroke="#666666" points="1264.5,-74 1189.5,-74 1189.5,-55 1264.5,-55 1264.5,-74"/>
<text text-anchor="middle" x="1227" y="-62" font-family="Helvetica,sans-Serif" font-size="10.00">TCA6416A.h</text>
</a>
</g>
</g>
<!-- Node8&#45;&gt;Node9 -->
<g id="edge8_Node000008_Node000009" class="edge">
<title>Node8&#45;&gt;Node9</title>
<g id="a_edge8_Node000008_Node000009"><a xlink:title=" ">
<path fill="none" stroke="#63b8ff" d="M1169.09,-109.98C1179.49,-102 1195.26,-89.88 1207.72,-80.31"/>
<polygon fill="#63b8ff" stroke="#63b8ff" points="1209.91,-83.04 1215.71,-74.17 1205.65,-77.49 1209.91,-83.04"/>
</a>
</g>
</g>
<!-- Node9&#45;&gt;Node4 -->
<g id="edge9_Node000009_Node000004" class="edge">
<title>Node9&#45;&gt;Node4</title>
<g id="a_edge9_Node000009_Node000004"><a xlink:title=" ">
<path fill="none" stroke="#63b8ff" d="M1264.77,-57.28C1269.56,-56.5 1274.39,-55.73 1279,-55 1371.15,-40.47 1479.75,-24.2 1535.27,-15.94"/>
<polygon fill="#63b8ff" stroke="#63b8ff" points="1535.94,-19.38 1545.32,-14.45 1534.92,-12.46 1535.94,-19.38"/>
</a>
</g>
</g>
<!-- Node10 -->
<g id="Node000010" class="node">
<title>Node10</title>
<g id="a_Node000010"><a xlink:title=" ">
<polygon fill="#e0e0e0" stroke="#999999" points="1365,-19 1303,-19 1303,0 1365,0 1365,-19"/>
<text text-anchor="middle" x="1334" y="-7" font-family="Helvetica,sans-Serif" font-size="10.00">stdbool.h</text>
</a>
</g>
</g>
<!-- Node9&#45;&gt;Node10 -->
<g id="edge10_Node000009_Node000010" class="edge">
<title>Node9&#45;&gt;Node10</title>
<g id="a_edge10_Node000009_Node000010"><a xlink:title=" ">
<path fill="none" stroke="#63b8ff" d="M1244.19,-54.98C1261.25,-46.54 1287.63,-33.47 1307.4,-23.68"/>
<polygon fill="#63b8ff" stroke="#63b8ff" points="1309.09,-26.75 1316.5,-19.17 1305.98,-20.47 1309.09,-26.75"/>
</a>
</g>
</g>
<!-- Node11 -->
<g id="Node000011" class="node">
<title>Node11</title>
<g id="a_Node000011"><a xlink:title=" ">
<polygon fill="#e0e0e0" stroke="#999999" points="281.5,-19 220.5,-19 220.5,0 281.5,0 281.5,-19"/>
<text text-anchor="middle" x="251" y="-7" font-family="Helvetica,sans-Serif" font-size="10.00">esp_err.h</text>
</a>
</g>
</g>
<!-- Node9&#45;&gt;Node11 -->
<g id="edge11_Node000009_Node000011" class="edge">
<title>Node9&#45;&gt;Node11</title>
<g id="a_edge11_Node000009_Node000011"><a xlink:title=" ">
<path fill="none" stroke="#63b8ff" d="M1189.29,-56.82C1184.49,-56.12 1179.64,-55.49 1175,-55 835.17,-19.16 421.95,-12.16 292.08,-10.81"/>
<polygon fill="#63b8ff" stroke="#63b8ff" points="291.84,-7.31 281.81,-10.71 291.77,-14.31 291.84,-7.31"/>
</a>
</g>
</g>
<!-- Node16&#45;&gt;Node3 -->
<g id="edge17_Node000016_Node000003" class="edge">
<title>Node16&#45;&gt;Node3</title>
<g id="a_edge17_Node000016_Node000003"><a xlink:title=" ">
<path fill="none" stroke="#63b8ff" d="M1024.59,-111.66C1021.69,-111.08 1018.79,-110.51 1016,-110 933.01,-94.71 835.79,-80.27 779.03,-72.18"/>
<polygon fill="#63b8ff" stroke="#63b8ff" points="779.31,-68.69 768.91,-70.75 778.32,-75.62 779.31,-68.69"/>
</a>
</g>
</g>
<!-- Node16&#45;&gt;Node11 -->
<g id="edge18_Node000016_Node000011" class="edge">
<title>Node16&#45;&gt;Node11</title>
<g id="a_edge18_Node000016_Node000011"><a xlink:title=" ">
<path fill="none" stroke="#63b8ff" d="M1024.89,-109.92C973.64,-96.13 868.06,-69.14 777,-55 597.52,-27.12 380.67,-15.74 291.89,-12.02"/>
<polygon fill="#63b8ff" stroke="#63b8ff" points="291.85,-8.51 281.71,-11.6 291.56,-15.51 291.85,-8.51"/>
</a>
</g>
</g>
<!-- Node18&#45;&gt;Node2 -->
<g id="edge23_Node000018_Node000002" class="edge">
<title>Node18&#45;&gt;Node2</title>
<g id="a_edge23_Node000018_Node000002"><a xlink:title=" ">
<path fill="none" stroke="#63b8ff" d="M835.33,-219.98C858.2,-211.27 893.96,-197.63 919.86,-187.75"/>
<polygon fill="#63b8ff" stroke="#63b8ff" points="921.16,-191 929.26,-184.17 918.67,-184.46 921.16,-191"/>
</a>
</g>
</g>
<!-- Node18&#45;&gt;Node11 -->
<g id="edge22_Node000018_Node000011" class="edge">
<title>Node18&#45;&gt;Node11</title>
<g id="a_edge22_Node000018_Node000011"><a xlink:title=" ">
<path fill="none" stroke="#63b8ff" d="M766.97,-228.18C639.11,-226.22 284.36,-213.16 213,-129 187.62,-99.06 217.4,-51.93 236.84,-27.09"/>
<polygon fill="#63b8ff" stroke="#63b8ff" points="239.81,-28.99 243.41,-19.02 234.38,-24.57 239.81,-28.99"/>
</a>
</g>
</g>
<!-- Node19&#45;&gt;Node3 -->
<g id="edge25_Node000019_Node000003" class="edge">
<title>Node19&#45;&gt;Node3</title>
<g id="a_edge25_Node000019_Node000003"><a xlink:title=" ">
<path fill="none" stroke="#63b8ff" d="M166.27,-114.47C180.97,-113.02 197.74,-111.4 213,-110 386.1,-94.11 591.9,-76.94 683.25,-69.41"/>
<polygon fill="#63b8ff" stroke="#63b8ff" points="683.61,-72.9 693.29,-68.59 683.04,-65.92 683.61,-72.9"/>
</a>
</g>
</g>
<!-- Node19&#45;&gt;Node11 -->
<g id="edge26_Node000019_Node000011" class="edge">
<title>Node19&#45;&gt;Node11</title>
<g id="a_edge26_Node000019_Node000011"><a xlink:title=" ">
<path fill="none" stroke="#63b8ff" d="M131.93,-109.97C141.19,-97.05 160.08,-72.23 180,-55 193.77,-43.09 211.04,-32.2 225.1,-24.16"/>
<polygon fill="#63b8ff" stroke="#63b8ff" points="227.2,-27 234.24,-19.09 223.8,-20.88 227.2,-27"/>
</a>
</g>
</g>
<!-- Node20&#45;&gt;Node3 -->
<g id="edge28_Node000020_Node000003" class="edge">
<title>Node20&#45;&gt;Node3</title>
<g id="a_edge28_Node000020_Node000003"><a xlink:title=" ">
<path fill="none" stroke="#63b8ff" d="M280.39,-111.56C283.29,-110.99 286.2,-110.45 289,-110 431.27,-87.01 601.34,-73.87 682.83,-68.45"/>
<polygon fill="#63b8ff" stroke="#63b8ff" points="683.51,-71.92 693.26,-67.77 683.05,-64.93 683.51,-71.92"/>
</a>
</g>
</g>
<!-- Node20&#45;&gt;Node11 -->
<g id="edge29_Node000020_Node000011" class="edge">
<title>Node20&#45;&gt;Node11</title>
<g id="a_edge29_Node000020_Node000011"><a xlink:title=" ">
<path fill="none" stroke="#63b8ff" d="M251,-109.66C251,-92.17 251,-52.8 251,-29.27"/>
<polygon fill="#63b8ff" stroke="#63b8ff" points="254.5,-29.16 251,-19.16 247.5,-29.16 254.5,-29.16"/>
</a>
</g>
</g>
<!-- Node23 -->
<g id="Node000023" class="node">
<title>Node23</title>
<g id="a_Node000023"><a xlink:title=" ">
<polygon fill="#e0e0e0" stroke="#999999" points="1921.5,-239 1824.5,-239 1824.5,-220 1921.5,-220 1921.5,-239"/>
<text text-anchor="middle" x="1873" y="-227" font-family="Helvetica,sans-Serif" font-size="10.00">hal/gpio_types.h</text>
</a>
</g>
</g>
<!-- Node22&#45;&gt;Node23 -->
<g id="edge32_Node000022_Node000023" class="edge">
<title>Node22&#45;&gt;Node23</title>
<g id="a_edge32_Node000022_Node000023"><a xlink:title=" ">
<path fill="none" stroke="#63b8ff" d="M1873,-274.75C1873,-267.8 1873,-257.85 1873,-249.13"/>
<polygon fill="#63b8ff" stroke="#63b8ff" points="1876.5,-249.09 1873,-239.09 1869.5,-249.09 1876.5,-249.09"/>
</a>
</g>
</g>
<!-- Node24 -->
<g id="Node000024" class="node">
<title>Node24</title>
<g id="a_Node000024"><a xlink:title=" ">
<polygon fill="#e0e0e0" stroke="#999999" points="2036,-239 1940,-239 1940,-220 2036,-220 2036,-239"/>
<text text-anchor="middle" x="1988" y="-227" font-family="Helvetica,sans-Serif" font-size="10.00">driver/mcpwm.h</text>
</a>
</g>
</g>
<!-- Node22&#45;&gt;Node24 -->
<g id="edge33_Node000022_Node000024" class="edge">
<title>Node22&#45;&gt;Node24</title>
<g id="a_edge33_Node000022_Node000024"><a xlink:title=" ">
<path fill="none" stroke="#63b8ff" d="M1891.48,-274.98C1909.98,-266.46 1938.68,-253.23 1959.98,-243.41"/>
<polygon fill="#63b8ff" stroke="#63b8ff" points="1961.57,-246.53 1969.19,-239.17 1958.64,-240.18 1961.57,-246.53"/>
</a>
</g>
</g>
<!-- Node25&#45;&gt;Node11 -->
<g id="edge35_Node000025_Node000011" class="edge">
<title>Node25&#45;&gt;Node11</title>
<g id="a_edge35_Node000025_Node000011"><a xlink:title=" ">
<path fill="none" stroke="#63b8ff" d="M91.53,-54.98C123.7,-46.01 174.56,-31.82 210.17,-21.89"/>
<polygon fill="#63b8ff" stroke="#63b8ff" points="211.54,-25.14 220.23,-19.08 209.66,-18.4 211.54,-25.14"/>
</a>
</g>
</g>
<!-- Node26&#45;&gt;Node3 -->
<g id="edge47_Node000026_Node000003" class="edge">
<title>Node26&#45;&gt;Node3</title>
<g id="a_edge47_Node000026_Node000003"><a xlink:title=" ">
<path fill="none" stroke="#63b8ff" d="M1317.54,-274.83C1321.07,-255.19 1330.21,-205.82 1340,-165 1345.79,-140.84 1366.93,-128.19 1350,-110 1311.37,-68.49 917.69,-65.16 779.02,-65.28"/>
<polygon fill="#63b8ff" stroke="#63b8ff" points="778.71,-61.78 768.71,-65.3 778.72,-68.78 778.71,-61.78"/>
</a>
</g>
</g>
<!-- Node26&#45;&gt;Node4 -->
<g id="edge37_Node000026_Node000004" class="edge">
<title>Node26&#45;&gt;Node4</title>
<g id="a_edge37_Node000026_Node000004"><a xlink:title=" ">
<path fill="none" stroke="#63b8ff" d="M1379.74,-275.77C1510.31,-259.06 1796,-217.67 1796,-175.5 1796,-175.5 1796,-175.5 1796,-118.5 1796,-36.3 1672.09,-16.63 1608.59,-11.95"/>
<polygon fill="#63b8ff" stroke="#63b8ff" points="1608.78,-8.45 1598.58,-11.3 1608.33,-15.44 1608.78,-8.45"/>
</a>
</g>
</g>
<!-- Node27 -->
<g id="Node000027" class="node">
<title>Node27</title>
<g id="a_Node000027"><a xlink:title=" ">
<polygon fill="#e0e0e0" stroke="#999999" points="1592,-239 1492,-239 1492,-220 1592,-220 1592,-239"/>
<text text-anchor="middle" x="1542" y="-227" font-family="Helvetica,sans-Serif" font-size="10.00">led_strip_types.h</text>
</a>
</g>
</g>
<!-- Node26&#45;&gt;Node27 -->
<g id="edge38_Node000026_Node000027" class="edge">
<title>Node26&#45;&gt;Node27</title>
<g id="a_edge38_Node000026_Node000027"><a xlink:title=" ">
<path fill="none" stroke="#63b8ff" d="M1352.31,-274.98C1391.24,-265.86 1453.16,-251.33 1495.6,-241.38"/>
<polygon fill="#63b8ff" stroke="#63b8ff" points="1496.47,-244.77 1505.4,-239.08 1494.87,-237.96 1496.47,-244.77"/>
</a>
</g>
</g>
<!-- Node28 -->
<g id="Node000028" class="node">
<title>Node28</title>
<g id="a_Node000028"><a xlink:href="sevetest30___u_i_8h.html" target="_top" xlink:title=" ">
<polygon fill="white" stroke="#666666" points="1473.5,-239 1378.5,-239 1378.5,-220 1473.5,-220 1473.5,-239"/>
<text text-anchor="middle" x="1426" y="-227" font-family="Helvetica,sans-Serif" font-size="10.00">sevetest30_UI.h</text>
</a>
</g>
</g>
<!-- Node26&#45;&gt;Node28 -->
<g id="edge39_Node000026_Node000028" class="edge">
<title>Node26&#45;&gt;Node28</title>
<g id="a_edge39_Node000026_Node000028"><a xlink:title=" ">
<path fill="none" stroke="#63b8ff" d="M1333.67,-274.98C1351.29,-266.5 1378.58,-253.35 1398.93,-243.54"/>
<polygon fill="#63b8ff" stroke="#63b8ff" points="1400.52,-246.66 1408.01,-239.17 1397.48,-240.36 1400.52,-246.66"/>
</a>
</g>
</g>
<!-- Node28&#45;&gt;Node2 -->
<g id="edge46_Node000028_Node000002" class="edge">
<title>Node28&#45;&gt;Node2</title>
<g id="a_edge46_Node000028_Node000002"><a xlink:title=" ">
<path fill="none" stroke="#63b8ff" d="M1378.38,-223.18C1287.39,-213 1089.84,-190.91 999.19,-180.78"/>
<polygon fill="#63b8ff" stroke="#63b8ff" points="999.53,-177.29 989.2,-179.66 998.75,-184.25 999.53,-177.29"/>
</a>
</g>
</g>
<!-- Node28&#45;&gt;Node4 -->
<g id="edge40_Node000028_Node000004" class="edge">
<title>Node28&#45;&gt;Node4</title>
<g id="a_edge40_Node000028_Node000004"><a xlink:title=" ">
<path fill="none" stroke="#63b8ff" d="M1473.14,-219.94C1523.64,-210.3 1597.72,-194.58 1606,-184 1642.68,-137.15 1604.31,-61.76 1583.52,-27.92"/>
<polygon fill="#63b8ff" stroke="#63b8ff" points="1586.28,-25.75 1577.97,-19.18 1580.38,-29.5 1586.28,-25.75"/>
</a>
</g>
</g>
<!-- Node28&#45;&gt;Node10 -->
<g id="edge41_Node000028_Node000010" class="edge">
<title>Node28&#45;&gt;Node10</title>
<g id="a_edge41_Node000028_Node000010"><a xlink:title=" ">
<path fill="none" stroke="#63b8ff" d="M1442.58,-219.87C1455.17,-212.3 1471.54,-200.01 1479,-184 1482.57,-176.35 1482.11,-172.85 1479,-165 1453.9,-101.57 1389.09,-48.97 1355.26,-24.79"/>
<polygon fill="#63b8ff" stroke="#63b8ff" points="1357.18,-21.86 1346.98,-19 1353.17,-27.6 1357.18,-21.86"/>
</a>
</g>
</g>
<!-- Node28&#45;&gt;Node11 -->
<g id="edge42_Node000028_Node000011" class="edge">
<title>Node28&#45;&gt;Node11</title>
<g id="a_edge42_Node000028_Node000011"><a xlink:title=" ">
<path fill="none" stroke="#63b8ff" d="M1409.96,-219.89C1397.51,-212.25 1381.05,-199.85 1373,-184 1358.07,-154.61 1390.88,-133.73 1368,-110 1329.83,-70.41 488.75,-23.19 291.94,-12.65"/>
<polygon fill="#63b8ff" stroke="#63b8ff" points="291.91,-9.15 281.74,-12.11 291.54,-16.14 291.91,-9.15"/>
</a>
</g>
</g>
<!-- Node29 -->
<g id="Node000029" class="node">
<title>Node29</title>
<g id="a_Node000029"><a xlink:title=" ">
<polygon fill="#e0e0e0" stroke="#999999" points="1767.5,-184 1654.5,-184 1654.5,-165 1767.5,-165 1767.5,-184"/>
<text text-anchor="middle" x="1711" y="-172" font-family="Helvetica,sans-Serif" font-size="10.00">freertos/FreeRTOS.h</text>
</a>
</g>
</g>
<!-- Node28&#45;&gt;Node29 -->
<g id="edge43_Node000028_Node000029" class="edge">
<title>Node28&#45;&gt;Node29</title>
<g id="a_edge43_Node000028_Node000029"><a xlink:title=" ">
<path fill="none" stroke="#63b8ff" d="M1471.79,-219.98C1521.61,-210.72 1601.28,-195.9 1654.84,-185.94"/>
<polygon fill="#63b8ff" stroke="#63b8ff" points="1655.66,-189.35 1664.85,-184.08 1654.38,-182.47 1655.66,-189.35"/>
</a>
</g>
</g>
<!-- Node30 -->
<g id="Node000030" class="node">
<title>Node30</title>
<g id="a_Node000030"><a xlink:title=" ">
<polygon fill="#e0e0e0" stroke="#999999" points="1470,-184 1382,-184 1382,-165 1470,-165 1470,-184"/>
<text text-anchor="middle" x="1426" y="-172" font-family="Helvetica,sans-Serif" font-size="10.00">freertos/task.h</text>
</a>
</g>
</g>
<!-- Node28&#45;&gt;Node30 -->
<g id="edge44_Node000028_Node000030" class="edge">
<title>Node28&#45;&gt;Node30</title>
<g id="a_edge44_Node000028_Node000030"><a xlink:title=" ">
<path fill="none" stroke="#63b8ff" d="M1426,-219.75C1426,-212.8 1426,-202.85 1426,-194.13"/>
<polygon fill="#63b8ff" stroke="#63b8ff" points="1429.5,-194.09 1426,-184.09 1422.5,-194.09 1429.5,-194.09"/>
</a>
</g>
</g>
<!-- Node31 -->
<g id="Node000031" class="node">
<title>Node31</title>
<g id="a_Node000031"><a xlink:title=" ">
<polygon fill="#e0e0e0" stroke="#999999" points="1597.5,-184 1526.5,-184 1526.5,-165 1597.5,-165 1597.5,-184"/>
<text text-anchor="middle" x="1562" y="-172" font-family="Helvetica,sans-Serif" font-size="10.00">driver/i2s.h</text>
</a>
</g>
</g>
<!-- Node28&#45;&gt;Node31 -->
<g id="edge45_Node000028_Node000031" class="edge">
<title>Node28&#45;&gt;Node31</title>
<g id="a_edge45_Node000028_Node000031"><a xlink:title=" ">
<path fill="none" stroke="#63b8ff" d="M1447.85,-219.98C1470.12,-211.3 1504.9,-197.75 1530.22,-187.88"/>
<polygon fill="#63b8ff" stroke="#63b8ff" points="1531.71,-191.06 1539.75,-184.17 1529.16,-184.54 1531.71,-191.06"/>
</a>
</g>
</g>
</g>
</svg>
