<?xml version="1.0" encoding="UTF-8" standalone="no"?>
<!DOCTYPE svg PUBLIC "-//W3C//DTD SVG 1.1//EN"
 "http://www.w3.org/Graphics/SVG/1.1/DTD/svg11.dtd">
<!-- Generated by graphviz version 2.43.0 (0)
 -->
<!-- Title: main/calibration_tools.c Pages: 1 -->
<svg width="1450pt" height="192pt"
 viewBox="0.00 0.00 1450.40 192.00" xmlns="http://www.w3.org/2000/svg" xmlns:xlink="http://www.w3.org/1999/xlink">
<g id="graph0" class="graph" transform="scale(1 1) rotate(0) translate(4 188)">
<title>main/calibration_tools.c</title>
<!-- Node1 -->
<g id="Node000001" class="node">
<title>Node1</title>
<g id="a_Node000001"><a xlink:title=" ">
<polygon fill="#999999" stroke="#666666" points="823.9,-184 689.9,-184 689.9,-165 823.9,-165 823.9,-184"/>
<text text-anchor="middle" x="756.9" y="-172" font-family="Helvetica,sans-Serif" font-size="10.00">main/calibration_tools.c</text>
</a>
</g>
</g>
<!-- Node2 -->
<g id="Node000002" class="node">
<title>Node2</title>
<g id="a_Node000002"><a xlink:href="calibration__tools_8h.html" target="_top" xlink:title=" ">
<polygon fill="white" stroke="#666666" points="162.4,-129 55.4,-129 55.4,-110 162.4,-110 162.4,-129"/>
<text text-anchor="middle" x="108.9" y="-117" font-family="Helvetica,sans-Serif" font-size="10.00">calibration_tools.h</text>
</a>
</g>
</g>
<!-- Node1&#45;&gt;Node2 -->
<g id="edge1_Node000001_Node000002" class="edge">
<title>Node1&#45;&gt;Node2</title>
<g id="a_edge1_Node000001_Node000002"><a xlink:title=" ">
<path fill="none" stroke="#63b8ff" d="M689.83,-169.4C581.72,-162.55 362.29,-147.69 176.9,-129 175.6,-128.87 174.29,-128.73 172.97,-128.59"/>
<polygon fill="#63b8ff" stroke="#63b8ff" points="173.02,-125.08 162.7,-127.47 172.26,-132.04 173.02,-125.08"/>
</a>
</g>
</g>
<!-- Node3 -->
<g id="Node000003" class="node">
<title>Node3</title>
<g id="a_Node000003"><a xlink:title=" ">
<polygon fill="#e0e0e0" stroke="#999999" points="226.4,-74 113.4,-74 113.4,-55 226.4,-55 226.4,-74"/>
<text text-anchor="middle" x="169.9" y="-62" font-family="Helvetica,sans-Serif" font-size="10.00">freertos/FreeRTOS.h</text>
</a>
</g>
</g>
<!-- Node1&#45;&gt;Node3 -->
<g id="edge18_Node000001_Node000003" class="edge">
<title>Node1&#45;&gt;Node3</title>
<g id="a_edge18_Node000001_Node000003"><a xlink:title=" ">
<path fill="none" stroke="#63b8ff" d="M689.79,-171.38C552.71,-166.58 250.06,-153.34 209.9,-129 193.23,-118.89 182.38,-98.9 176.24,-84.03"/>
<polygon fill="#63b8ff" stroke="#63b8ff" points="179.39,-82.46 172.59,-74.33 172.84,-84.92 179.39,-82.46"/>
</a>
</g>
</g>
<!-- Node7 -->
<g id="Node000007" class="node">
<title>Node7</title>
<g id="a_Node000007"><a xlink:title=" ">
<polygon fill="#e0e0e0" stroke="#999999" points="403.4,-129 350.4,-129 350.4,-110 403.4,-110 403.4,-129"/>
<text text-anchor="middle" x="376.9" y="-117" font-family="Helvetica,sans-Serif" font-size="10.00">string.h</text>
</a>
</g>
</g>
<!-- Node1&#45;&gt;Node7 -->
<g id="edge7_Node000001_Node000007" class="edge">
<title>Node1&#45;&gt;Node7</title>
<g id="a_edge7_Node000001_Node000007"><a xlink:title=" ">
<path fill="none" stroke="#63b8ff" d="M689.67,-166.88C622.28,-159.77 515.37,-147.22 413.42,-128.91"/>
<polygon fill="#63b8ff" stroke="#63b8ff" points="414.04,-125.47 403.57,-127.12 412.79,-132.35 414.04,-125.47"/>
</a>
</g>
</g>
<!-- Node8 -->
<g id="Node000008" class="node">
<title>Node8</title>
<g id="a_Node000008"><a xlink:title=" ">
<polygon fill="#e0e0e0" stroke="#999999" points="489.9,-129 421.9,-129 421.9,-110 489.9,-110 489.9,-129"/>
<text text-anchor="middle" x="455.9" y="-117" font-family="Helvetica,sans-Serif" font-size="10.00">sys/time.h</text>
</a>
</g>
</g>
<!-- Node1&#45;&gt;Node8 -->
<g id="edge8_Node000001_Node000008" class="edge">
<title>Node1&#45;&gt;Node8</title>
<g id="a_edge8_Node000001_Node000008"><a xlink:title=" ">
<path fill="none" stroke="#63b8ff" d="M704.95,-164.92C654.94,-156.58 576.92,-143.33 500.01,-129.17"/>
<polygon fill="#63b8ff" stroke="#63b8ff" points="500.63,-125.72 490.16,-127.35 499.35,-132.61 500.63,-125.72"/>
</a>
</g>
</g>
<!-- Node9 -->
<g id="Node000009" class="node">
<title>Node9</title>
<g id="a_Node000009"><a xlink:href="math__tools_8h.html" target="_top" xlink:title=" ">
<polygon fill="white" stroke="#666666" points="587.9,-129 507.9,-129 507.9,-110 587.9,-110 587.9,-129"/>
<text text-anchor="middle" x="547.9" y="-117" font-family="Helvetica,sans-Serif" font-size="10.00">math_tools.h</text>
</a>
</g>
</g>
<!-- Node1&#45;&gt;Node9 -->
<g id="edge9_Node000001_Node000009" class="edge">
<title>Node1&#45;&gt;Node9</title>
<g id="a_edge9_Node000001_Node000009"><a xlink:title=" ">
<path fill="none" stroke="#63b8ff" d="M723.32,-164.98C687.55,-155.91 630.79,-141.52 591.56,-131.57"/>
<polygon fill="#63b8ff" stroke="#63b8ff" points="592.3,-128.15 581.75,-129.08 590.58,-134.93 592.3,-128.15"/>
</a>
</g>
</g>
<!-- Node11 -->
<g id="Node000011" class="node">
<title>Node11</title>
<g id="a_Node000011"><a xlink:href="math__tools__fp64_8h.html" target="_top" xlink:title=" ">
<polygon fill="white" stroke="#666666" points="713.4,-129 606.4,-129 606.4,-110 713.4,-110 713.4,-129"/>
<text text-anchor="middle" x="659.9" y="-117" font-family="Helvetica,sans-Serif" font-size="10.00">math_tools_fp64.h</text>
</a>
</g>
</g>
<!-- Node1&#45;&gt;Node11 -->
<g id="edge11_Node000001_Node000011" class="edge">
<title>Node1&#45;&gt;Node11</title>
<g id="a_edge11_Node000001_Node000011"><a xlink:title=" ">
<path fill="none" stroke="#63b8ff" d="M741.32,-164.98C726.14,-156.69 702.81,-143.94 685,-134.22"/>
<polygon fill="#63b8ff" stroke="#63b8ff" points="686.23,-130.89 675.77,-129.17 682.87,-137.04 686.23,-130.89"/>
</a>
</g>
</g>
<!-- Node12 -->
<g id="Node000012" class="node">
<title>Node12</title>
<g id="a_Node000012"><a xlink:title=" ">
<polygon fill="#e0e0e0" stroke="#999999" points="782.4,-129 731.4,-129 731.4,-110 782.4,-110 782.4,-129"/>
<text text-anchor="middle" x="756.9" y="-117" font-family="Helvetica,sans-Serif" font-size="10.00">math.h</text>
</a>
</g>
</g>
<!-- Node1&#45;&gt;Node12 -->
<g id="edge13_Node000001_Node000012" class="edge">
<title>Node1&#45;&gt;Node12</title>
<g id="a_edge13_Node000001_Node000012"><a xlink:title=" ">
<path fill="none" stroke="#63b8ff" d="M756.9,-164.75C756.9,-157.8 756.9,-147.85 756.9,-139.13"/>
<polygon fill="#63b8ff" stroke="#63b8ff" points="760.4,-139.09 756.9,-129.09 753.4,-139.09 760.4,-139.09"/>
</a>
</g>
</g>
<!-- Node13 -->
<g id="Node000013" class="node">
<title>Node13</title>
<g id="a_Node000013"><a xlink:title=" ">
<polygon fill="#e0e0e0" stroke="#999999" points="869.4,-129 800.4,-129 800.4,-110 869.4,-110 869.4,-129"/>
<text text-anchor="middle" x="834.9" y="-117" font-family="Helvetica,sans-Serif" font-size="10.00">esp_sntp.h</text>
</a>
</g>
</g>
<!-- Node1&#45;&gt;Node13 -->
<g id="edge14_Node000001_Node000013" class="edge">
<title>Node1&#45;&gt;Node13</title>
<g id="a_edge14_Node000001_Node000013"><a xlink:title=" ">
<path fill="none" stroke="#63b8ff" d="M769.44,-164.98C781.3,-156.92 799.37,-144.65 813.52,-135.03"/>
<polygon fill="#63b8ff" stroke="#63b8ff" points="815.84,-137.69 822.14,-129.17 811.9,-131.9 815.84,-137.69"/>
</a>
</g>
</g>
<!-- Node14 -->
<g id="Node000014" class="node">
<title>Node14</title>
<g id="a_Node000014"><a xlink:title=" ">
<polygon fill="#e0e0e0" stroke="#999999" points="961.9,-129 887.9,-129 887.9,-110 961.9,-110 961.9,-129"/>
<text text-anchor="middle" x="924.9" y="-117" font-family="Helvetica,sans-Serif" font-size="10.00">esp_timer.h</text>
</a>
</g>
</g>
<!-- Node1&#45;&gt;Node14 -->
<g id="edge15_Node000001_Node000014" class="edge">
<title>Node1&#45;&gt;Node14</title>
<g id="a_edge15_Node000001_Node000014"><a xlink:title=" ">
<path fill="none" stroke="#63b8ff" d="M783.9,-164.98C812.1,-156.09 856.54,-142.07 887.98,-132.15"/>
<polygon fill="#63b8ff" stroke="#63b8ff" points="889.22,-135.43 897.7,-129.08 887.11,-128.75 889.22,-135.43"/>
</a>
</g>
</g>
<!-- Node15 -->
<g id="Node000015" class="node">
<title>Node15</title>
<g id="a_Node000015"><a xlink:title=" ">
<polygon fill="#e0e0e0" stroke="#999999" points="1057.4,-129 980.4,-129 980.4,-110 1057.4,-110 1057.4,-129"/>
<text text-anchor="middle" x="1018.9" y="-117" font-family="Helvetica,sans-Serif" font-size="10.00">esp_check.h</text>
</a>
</g>
</g>
<!-- Node1&#45;&gt;Node15 -->
<g id="edge16_Node000001_Node000015" class="edge">
<title>Node1&#45;&gt;Node15</title>
<g id="a_edge16_Node000001_Node000015"><a xlink:title=" ">
<path fill="none" stroke="#63b8ff" d="M799,-164.98C845.72,-155.53 921.02,-140.3 970.24,-130.34"/>
<polygon fill="#63b8ff" stroke="#63b8ff" points="971.22,-133.72 980.33,-128.3 969.83,-126.86 971.22,-133.72"/>
</a>
</g>
</g>
<!-- Node16 -->
<g id="Node000016" class="node">
<title>Node16</title>
<g id="a_Node000016"><a xlink:title=" ">
<polygon fill="#e0e0e0" stroke="#999999" points="1138.4,-129 1075.4,-129 1075.4,-110 1138.4,-110 1138.4,-129"/>
<text text-anchor="middle" x="1106.9" y="-117" font-family="Helvetica,sans-Serif" font-size="10.00">esp_log.h</text>
</a>
</g>
</g>
<!-- Node1&#45;&gt;Node16 -->
<g id="edge17_Node000001_Node000016" class="edge">
<title>Node1&#45;&gt;Node16</title>
<g id="a_edge17_Node000001_Node000016"><a xlink:title=" ">
<path fill="none" stroke="#63b8ff" d="M823.93,-165.19C884.58,-157.38 976.59,-144.78 1065.12,-129.23"/>
<polygon fill="#63b8ff" stroke="#63b8ff" points="1065.83,-132.66 1075.06,-127.47 1064.61,-125.76 1065.83,-132.66"/>
</a>
</g>
</g>
<!-- Node17 -->
<g id="Node000017" class="node">
<title>Node17</title>
<g id="a_Node000017"><a xlink:title=" ">
<polygon fill="#e0e0e0" stroke="#999999" points="1244.9,-129 1156.9,-129 1156.9,-110 1244.9,-110 1244.9,-129"/>
<text text-anchor="middle" x="1200.9" y="-117" font-family="Helvetica,sans-Serif" font-size="10.00">freertos/task.h</text>
</a>
</g>
</g>
<!-- Node1&#45;&gt;Node17 -->
<g id="edge19_Node000001_Node000017" class="edge">
<title>Node1&#45;&gt;Node17</title>
<g id="a_edge19_Node000001_Node000017"><a xlink:title=" ">
<path fill="none" stroke="#63b8ff" d="M824.13,-166.79C899.99,-159.01 1027.33,-145.31 1146.64,-129.12"/>
<polygon fill="#63b8ff" stroke="#63b8ff" points="1147.24,-132.57 1156.68,-127.75 1146.3,-125.63 1147.24,-132.57"/>
</a>
</g>
</g>
<!-- Node18 -->
<g id="Node000018" class="node">
<title>Node18</title>
<g id="a_Node000018"><a xlink:title=" ">
<polygon fill="#e0e0e0" stroke="#999999" points="1369.4,-129 1262.4,-129 1262.4,-110 1369.4,-110 1369.4,-129"/>
<text text-anchor="middle" x="1315.9" y="-117" font-family="Helvetica,sans-Serif" font-size="10.00">freertos/projdefs.h</text>
</a>
</g>
</g>
<!-- Node1&#45;&gt;Node18 -->
<g id="edge20_Node000001_Node000018" class="edge">
<title>Node1&#45;&gt;Node18</title>
<g id="a_edge20_Node000001_Node000018"><a xlink:title=" ">
<path fill="none" stroke="#63b8ff" d="M824.13,-168.49C917.79,-161.28 1093.09,-146.98 1252.18,-129.15"/>
<polygon fill="#63b8ff" stroke="#63b8ff" points="1252.61,-132.62 1262.15,-128.03 1251.82,-125.67 1252.61,-132.62"/>
</a>
</g>
</g>
<!-- Node19 -->
<g id="Node000019" class="node">
<title>Node19</title>
<g id="a_Node000019"><a xlink:href="_ps_p2_p___d_m__for__idf_8h.html" target="_top" xlink:title=" ">
<polygon fill="white" stroke="#666666" points="332.4,-129 219.4,-129 219.4,-110 332.4,-110 332.4,-129"/>
<text text-anchor="middle" x="275.9" y="-117" font-family="Helvetica,sans-Serif" font-size="10.00">PsP2P_DM_for_idf.h</text>
</a>
</g>
</g>
<!-- Node1&#45;&gt;Node19 -->
<g id="edge21_Node000001_Node000019" class="edge">
<title>Node1&#45;&gt;Node19</title>
<g id="a_edge21_Node000001_Node000019"><a xlink:title=" ">
<path fill="none" stroke="#63b8ff" d="M689.84,-166.82C609.66,-158.71 471.14,-144.37 342.64,-129.18"/>
<polygon fill="#63b8ff" stroke="#63b8ff" points="342.96,-125.7 332.61,-128 342.13,-132.65 342.96,-125.7"/>
</a>
</g>
</g>
<!-- Node21 -->
<g id="Node000021" class="node">
<title>Node21</title>
<g id="a_Node000021"><a xlink:title=" ">
<polygon fill="#e0e0e0" stroke="#999999" points="1442.4,-129 1387.4,-129 1387.4,-110 1442.4,-110 1442.4,-129"/>
<text text-anchor="middle" x="1414.9" y="-117" font-family="Helvetica,sans-Serif" font-size="10.00">cJSON.h</text>
</a>
</g>
</g>
<!-- Node1&#45;&gt;Node21 -->
<g id="edge26_Node000001_Node000021" class="edge">
<title>Node1&#45;&gt;Node21</title>
<g id="a_edge26_Node000001_Node000021"><a xlink:title=" ">
<path fill="none" stroke="#63b8ff" d="M824.03,-172.22C936.65,-169.3 1170.81,-159.93 1376.98,-129.07"/>
<polygon fill="#63b8ff" stroke="#63b8ff" points="1377.72,-132.5 1387.08,-127.53 1376.67,-125.57 1377.72,-132.5"/>
</a>
</g>
</g>
<!-- Node2&#45;&gt;Node3 -->
<g id="edge2_Node000002_Node000003" class="edge">
<title>Node2&#45;&gt;Node3</title>
<g id="a_edge2_Node000002_Node000003"><a xlink:title=" ">
<path fill="none" stroke="#63b8ff" d="M118.7,-109.98C127.72,-102.15 141.31,-90.34 152.22,-80.86"/>
<polygon fill="#63b8ff" stroke="#63b8ff" points="154.67,-83.37 159.92,-74.17 150.08,-78.09 154.67,-83.37"/>
</a>
</g>
</g>
<!-- Node4 -->
<g id="Node000004" class="node">
<title>Node4</title>
<g id="a_Node000004"><a xlink:href="hscdtd008a_8h.html" target="_top" xlink:title=" ">
<polygon fill="white" stroke="#666666" points="94.9,-74 12.9,-74 12.9,-55 94.9,-55 94.9,-74"/>
<text text-anchor="middle" x="53.9" y="-62" font-family="Helvetica,sans-Serif" font-size="10.00">hscdtd008a.h</text>
</a>
</g>
</g>
<!-- Node2&#45;&gt;Node4 -->
<g id="edge3_Node000002_Node000004" class="edge">
<title>Node2&#45;&gt;Node4</title>
<g id="a_edge3_Node000002_Node000004"><a xlink:title=" ">
<path fill="none" stroke="#63b8ff" d="M99.82,-109.75C91.81,-102.03 79.95,-90.6 70.28,-81.28"/>
<polygon fill="#63b8ff" stroke="#63b8ff" points="72.45,-78.51 62.82,-74.09 67.59,-83.55 72.45,-78.51"/>
</a>
</g>
</g>
<!-- Node5 -->
<g id="Node000005" class="node">
<title>Node5</title>
<g id="a_Node000005"><a xlink:title=" ">
<polygon fill="#e0e0e0" stroke="#999999" points="84.4,-19 23.4,-19 23.4,0 84.4,0 84.4,-19"/>
<text text-anchor="middle" x="53.9" y="-7" font-family="Helvetica,sans-Serif" font-size="10.00">esp_err.h</text>
</a>
</g>
</g>
<!-- Node2&#45;&gt;Node5 -->
<g id="edge6_Node000002_Node000005" class="edge">
<title>Node2&#45;&gt;Node5</title>
<g id="a_edge6_Node000002_Node000005"><a xlink:title=" ">
<path fill="none" stroke="#63b8ff" d="M59.33,-109.98C38.55,-103.7 16.37,-92.82 3.9,-74 -7.82,-56.31 11.77,-37.35 29.75,-24.81"/>
<polygon fill="#63b8ff" stroke="#63b8ff" points="31.87,-27.61 38.31,-19.2 28.03,-21.75 31.87,-27.61"/>
</a>
</g>
</g>
<!-- Node6 -->
<g id="Node000006" class="node">
<title>Node6</title>
<g id="a_Node000006"><a xlink:title=" ">
<polygon fill="#e0e0e0" stroke="#999999" points="306.9,-74 244.9,-74 244.9,-55 306.9,-55 306.9,-74"/>
<text text-anchor="middle" x="275.9" y="-62" font-family="Helvetica,sans-Serif" font-size="10.00">stdbool.h</text>
</a>
</g>
</g>
<!-- Node2&#45;&gt;Node6 -->
<g id="edge5_Node000002_Node000006" class="edge">
<title>Node2&#45;&gt;Node6</title>
<g id="a_edge5_Node000002_Node000006"><a xlink:title=" ">
<path fill="none" stroke="#63b8ff" d="M135.73,-109.98C163.77,-101.09 207.95,-87.07 239.2,-77.15"/>
<polygon fill="#63b8ff" stroke="#63b8ff" points="240.39,-80.44 248.86,-74.08 238.27,-73.77 240.39,-80.44"/>
</a>
</g>
</g>
<!-- Node4&#45;&gt;Node5 -->
<g id="edge4_Node000004_Node000005" class="edge">
<title>Node4&#45;&gt;Node5</title>
<g id="a_edge4_Node000004_Node000005"><a xlink:title=" ">
<path fill="none" stroke="#63b8ff" d="M53.9,-54.75C53.9,-47.8 53.9,-37.85 53.9,-29.13"/>
<polygon fill="#63b8ff" stroke="#63b8ff" points="57.4,-29.09 53.9,-19.09 50.4,-29.09 57.4,-29.09"/>
</a>
</g>
</g>
<!-- Node10 -->
<g id="Node000010" class="node">
<title>Node10</title>
<g id="a_Node000010"><a xlink:title=" ">
<polygon fill="#e0e0e0" stroke="#999999" points="653.9,-74 553.9,-74 553.9,-55 653.9,-55 653.9,-74"/>
<text text-anchor="middle" x="603.9" y="-62" font-family="Helvetica,sans-Serif" font-size="10.00">esp_heap_caps.h</text>
</a>
</g>
</g>
<!-- Node9&#45;&gt;Node10 -->
<g id="edge10_Node000009_Node000010" class="edge">
<title>Node9&#45;&gt;Node10</title>
<g id="a_edge10_Node000009_Node000010"><a xlink:title=" ">
<path fill="none" stroke="#63b8ff" d="M556.9,-109.98C565.1,-102.23 577.41,-90.58 587.38,-81.14"/>
<polygon fill="#63b8ff" stroke="#63b8ff" points="589.88,-83.59 594.74,-74.17 585.07,-78.5 589.88,-83.59"/>
</a>
</g>
</g>
<!-- Node11&#45;&gt;Node10 -->
<g id="edge12_Node000011_Node000010" class="edge">
<title>Node11&#45;&gt;Node10</title>
<g id="a_edge12_Node000011_Node000010"><a xlink:title=" ">
<path fill="none" stroke="#63b8ff" d="M650.91,-109.98C642.71,-102.23 630.4,-90.58 620.43,-81.14"/>
<polygon fill="#63b8ff" stroke="#63b8ff" points="622.73,-78.5 613.06,-74.17 617.92,-83.59 622.73,-78.5"/>
</a>
</g>
</g>
<!-- Node19&#45;&gt;Node3 -->
<g id="edge22_Node000019_Node000003" class="edge">
<title>Node19&#45;&gt;Node3</title>
<g id="a_edge22_Node000019_Node000003"><a xlink:title=" ">
<path fill="none" stroke="#63b8ff" d="M258.87,-109.98C241.97,-101.54 215.84,-88.47 196.26,-78.68"/>
<polygon fill="#63b8ff" stroke="#63b8ff" points="197.75,-75.51 187.24,-74.17 194.62,-81.77 197.75,-75.51"/>
</a>
</g>
</g>
<!-- Node19&#45;&gt;Node5 -->
<g id="edge25_Node000019_Node000005" class="edge">
<title>Node19&#45;&gt;Node5</title>
<g id="a_edge25_Node000019_Node000005"><a xlink:title=" ">
<path fill="none" stroke="#63b8ff" d="M288.11,-109.98C304.82,-97.3 331.12,-73.02 315.9,-55 288.07,-22.04 161.11,-13.49 94.68,-11.27"/>
<polygon fill="#63b8ff" stroke="#63b8ff" points="94.67,-7.77 84.57,-10.97 94.46,-14.77 94.67,-7.77"/>
</a>
</g>
</g>
<!-- Node19&#45;&gt;Node6 -->
<g id="edge24_Node000019_Node000006" class="edge">
<title>Node19&#45;&gt;Node6</title>
<g id="a_edge24_Node000019_Node000006"><a xlink:title=" ">
<path fill="none" stroke="#63b8ff" d="M275.9,-109.75C275.9,-102.8 275.9,-92.85 275.9,-84.13"/>
<polygon fill="#63b8ff" stroke="#63b8ff" points="279.4,-84.09 275.9,-74.09 272.4,-84.09 279.4,-84.09"/>
</a>
</g>
</g>
<!-- Node20 -->
<g id="Node000020" class="node">
<title>Node20</title>
<g id="a_Node000020"><a xlink:title=" ">
<polygon fill="#e0e0e0" stroke="#999999" points="460.4,-74 363.4,-74 363.4,-55 460.4,-55 460.4,-74"/>
<text text-anchor="middle" x="411.9" y="-62" font-family="Helvetica,sans-Serif" font-size="10.00">freertos/queue.h</text>
</a>
</g>
</g>
<!-- Node19&#45;&gt;Node20 -->
<g id="edge23_Node000019_Node000020" class="edge">
<title>Node19&#45;&gt;Node20</title>
<g id="a_edge23_Node000019_Node000020"><a xlink:title=" ">
<path fill="none" stroke="#63b8ff" d="M297.75,-109.98C320.03,-101.3 354.8,-87.75 380.12,-77.88"/>
<polygon fill="#63b8ff" stroke="#63b8ff" points="381.61,-81.06 389.65,-74.17 379.07,-74.54 381.61,-81.06"/>
</a>
</g>
</g>
</g>
</svg>
