<?xml version="1.0" encoding="UTF-8" standalone="no"?>
<!DOCTYPE svg PUBLIC "-//W3C//DTD SVG 1.1//EN"
 "http://www.w3.org/Graphics/SVG/1.1/DTD/svg11.dtd">
<!-- Generated by graphviz version 2.43.0 (0)
 -->
<!-- Title: components/sevetest30_board/include/calibration_tools.h Pages: 1 -->
<svg width="340pt" height="159pt"
 viewBox="0.00 0.00 339.50 159.00" xmlns="http://www.w3.org/2000/svg" xmlns:xlink="http://www.w3.org/1999/xlink">
<g id="graph0" class="graph" transform="scale(1 1) rotate(0) translate(4 155)">
<title>components/sevetest30_board/include/calibration_tools.h</title>
<!-- Node1 -->
<g id="Node000001" class="node">
<title>Node1</title>
<g id="a_Node000001"><a xlink:title=" ">
<polygon fill="#999999" stroke="#666666" points="278,-151 135,-151 135,-110 278,-110 278,-151"/>
<text text-anchor="start" x="143" y="-139" font-family="Helvetica,sans-Serif" font-size="10.00">components/sevetest30</text>
<text text-anchor="start" x="143" y="-128" font-family="Helvetica,sans-Serif" font-size="10.00">_board/include/calibration</text>
<text text-anchor="middle" x="206.5" y="-117" font-family="Helvetica,sans-Serif" font-size="10.00">_tools.h</text>
</a>
</g>
</g>
<!-- Node2 -->
<g id="Node000002" class="node">
<title>Node2</title>
<g id="a_Node000002"><a xlink:title=" ">
<polygon fill="#e0e0e0" stroke="#999999" points="113,-74 0,-74 0,-55 113,-55 113,-74"/>
<text text-anchor="middle" x="56.5" y="-62" font-family="Helvetica,sans-Serif" font-size="10.00">freertos/FreeRTOS.h</text>
</a>
</g>
</g>
<!-- Node1&#45;&gt;Node2 -->
<g id="edge1_Node000001_Node000002" class="edge">
<title>Node1&#45;&gt;Node2</title>
<g id="a_edge1_Node000001_Node000002"><a xlink:title=" ">
<path fill="none" stroke="#63b8ff" d="M160.68,-109.95C136.43,-99.6 107.37,-87.2 86.1,-78.13"/>
<polygon fill="#63b8ff" stroke="#63b8ff" points="87.21,-74.8 76.64,-74.09 84.46,-81.24 87.21,-74.8"/>
</a>
</g>
</g>
<!-- Node3 -->
<g id="Node000003" class="node">
<title>Node3</title>
<g id="a_Node000003"><a xlink:href="hscdtd008a_8h.html" target="_top" xlink:title=" ">
<polygon fill="white" stroke="#666666" points="213.5,-74 131.5,-74 131.5,-55 213.5,-55 213.5,-74"/>
<text text-anchor="middle" x="172.5" y="-62" font-family="Helvetica,sans-Serif" font-size="10.00">hscdtd008a.h</text>
</a>
</g>
</g>
<!-- Node1&#45;&gt;Node3 -->
<g id="edge2_Node000001_Node000003" class="edge">
<title>Node1&#45;&gt;Node3</title>
<g id="a_edge2_Node000001_Node000003"><a xlink:title=" ">
<path fill="none" stroke="#63b8ff" d="M196.11,-109.95C191.57,-101.39 186.27,-91.42 181.85,-83.1"/>
<polygon fill="#63b8ff" stroke="#63b8ff" points="184.94,-81.45 177.15,-74.26 178.75,-84.73 184.94,-81.45"/>
</a>
</g>
</g>
<!-- Node4 -->
<g id="Node000004" class="node">
<title>Node4</title>
<g id="a_Node000004"><a xlink:title=" ">
<polygon fill="#e0e0e0" stroke="#999999" points="237,-19 176,-19 176,0 237,0 237,-19"/>
<text text-anchor="middle" x="206.5" y="-7" font-family="Helvetica,sans-Serif" font-size="10.00">esp_err.h</text>
</a>
</g>
</g>
<!-- Node1&#45;&gt;Node4 -->
<g id="edge5_Node000001_Node000004" class="edge">
<title>Node1&#45;&gt;Node4</title>
<g id="a_edge5_Node000001_Node000004"><a xlink:title=" ">
<path fill="none" stroke="#63b8ff" d="M214.89,-109.97C220.3,-94.99 225.77,-73.77 222.5,-55 220.93,-46 217.7,-36.42 214.56,-28.46"/>
<polygon fill="#63b8ff" stroke="#63b8ff" points="217.73,-26.97 210.61,-19.12 211.28,-29.69 217.73,-26.97"/>
</a>
</g>
</g>
<!-- Node5 -->
<g id="Node000005" class="node">
<title>Node5</title>
<g id="a_Node000005"><a xlink:title=" ">
<polygon fill="#e0e0e0" stroke="#999999" points="331.5,-74 269.5,-74 269.5,-55 331.5,-55 331.5,-74"/>
<text text-anchor="middle" x="300.5" y="-62" font-family="Helvetica,sans-Serif" font-size="10.00">stdbool.h</text>
</a>
</g>
</g>
<!-- Node1&#45;&gt;Node5 -->
<g id="edge4_Node000001_Node000005" class="edge">
<title>Node1&#45;&gt;Node5</title>
<g id="a_edge4_Node000001_Node000005"><a xlink:title=" ">
<path fill="none" stroke="#63b8ff" d="M235.21,-109.95C249.43,-100.27 266.28,-88.8 279.31,-79.93"/>
<polygon fill="#63b8ff" stroke="#63b8ff" points="281.34,-82.78 287.63,-74.26 277.4,-77 281.34,-82.78"/>
</a>
</g>
</g>
<!-- Node3&#45;&gt;Node4 -->
<g id="edge3_Node000003_Node000004" class="edge">
<title>Node3&#45;&gt;Node4</title>
<g id="a_edge3_Node000003_Node000004"><a xlink:title=" ">
<path fill="none" stroke="#63b8ff" d="M178.11,-54.75C182.82,-47.42 189.67,-36.73 195.47,-27.7"/>
<polygon fill="#63b8ff" stroke="#63b8ff" points="198.54,-29.4 200.99,-19.09 192.64,-25.62 198.54,-29.4"/>
</a>
</g>
</g>
</g>
</svg>
