<?xml version="1.0" encoding="UTF-8" standalone="no"?>
<!DOCTYPE svg PUBLIC "-//W3C//DTD SVG 1.1//EN"
 "http://www.w3.org/Graphics/SVG/1.1/DTD/svg11.dtd">
<!-- Generated by graphviz version 2.43.0 (0)
 -->
<!-- Title: main/gt32l32s0140.c Pages: 1 -->
<svg width="1083pt" height="302pt"
 viewBox="0.00 0.00 1083.11 302.00" xmlns="http://www.w3.org/2000/svg" xmlns:xlink="http://www.w3.org/1999/xlink">
<g id="graph0" class="graph" transform="scale(1 1) rotate(0) translate(4 298)">
<title>main/gt32l32s0140.c</title>
<!-- Node1 -->
<g id="Node000001" class="node">
<title>Node1</title>
<g id="a_Node000001"><a xlink:title=" ">
<polygon fill="#999999" stroke="#666666" points="625.11,-294 506.11,-294 506.11,-275 625.11,-275 625.11,-294"/>
<text text-anchor="middle" x="565.61" y="-282" font-family="Helvetica,sans-Serif" font-size="10.00">main/gt32l32s0140.c</text>
</a>
</g>
</g>
<!-- Node2 -->
<g id="Node000002" class="node">
<title>Node2</title>
<g id="a_Node000002"><a xlink:href="gt32l32s0140_8h.html" target="_top" xlink:title=" ">
<polygon fill="white" stroke="#666666" points="395.61,-239 303.61,-239 303.61,-220 395.61,-220 395.61,-239"/>
<text text-anchor="middle" x="349.61" y="-227" font-family="Helvetica,sans-Serif" font-size="10.00">gt32l32s0140.h</text>
</a>
</g>
</g>
<!-- Node1&#45;&gt;Node2 -->
<g id="edge1_Node000001_Node000002" class="edge">
<title>Node1&#45;&gt;Node2</title>
<g id="a_edge1_Node000001_Node000002"><a xlink:title=" ">
<path fill="none" stroke="#63b8ff" d="M530.9,-274.98C493.85,-265.89 435.02,-251.46 394.47,-241.51"/>
<polygon fill="#63b8ff" stroke="#63b8ff" points="395.13,-238.07 384.58,-239.08 393.46,-244.86 395.13,-238.07"/>
</a>
</g>
</g>
<!-- Node4 -->
<g id="Node000004" class="node">
<title>Node4</title>
<g id="a_Node000004"><a xlink:href="board__ctrl_8h.html" target="_top" xlink:title=" ">
<polygon fill="white" stroke="#666666" points="460.61,-184 386.61,-184 386.61,-165 460.61,-165 460.61,-184"/>
<text text-anchor="middle" x="423.61" y="-172" font-family="Helvetica,sans-Serif" font-size="10.00">board_ctrl.h</text>
</a>
</g>
</g>
<!-- Node1&#45;&gt;Node4 -->
<g id="edge22_Node000001_Node000004" class="edge">
<title>Node1&#45;&gt;Node4</title>
<g id="a_edge22_Node000001_Node000004"><a xlink:title=" ">
<path fill="none" stroke="#63b8ff" d="M510.47,-274.98C486.73,-268.7 460.39,-257.81 442.61,-239 431.13,-226.86 426.56,-208.06 424.76,-194.07"/>
<polygon fill="#63b8ff" stroke="#63b8ff" points="428.24,-193.72 423.82,-184.09 421.27,-194.37 428.24,-193.72"/>
</a>
</g>
</g>
<!-- Node18 -->
<g id="Node000018" class="node">
<title>Node18</title>
<g id="a_Node000018"><a xlink:title=" ">
<polygon fill="#e0e0e0" stroke="#999999" points="565.11,-239 452.11,-239 452.11,-220 565.11,-220 565.11,-239"/>
<text text-anchor="middle" x="508.61" y="-227" font-family="Helvetica,sans-Serif" font-size="10.00">board_pins_config.h</text>
</a>
</g>
</g>
<!-- Node1&#45;&gt;Node18 -->
<g id="edge21_Node000001_Node000018" class="edge">
<title>Node1&#45;&gt;Node18</title>
<g id="a_edge21_Node000001_Node000018"><a xlink:title=" ">
<path fill="none" stroke="#63b8ff" d="M556.45,-274.98C548.11,-267.23 535.58,-255.58 525.43,-246.14"/>
<polygon fill="#63b8ff" stroke="#63b8ff" points="527.64,-243.42 517.93,-239.17 522.87,-248.54 527.64,-243.42"/>
</a>
</g>
</g>
<!-- Node19 -->
<g id="Node000019" class="node">
<title>Node19</title>
<g id="a_Node000019"><a xlink:title=" ">
<polygon fill="#e0e0e0" stroke="#999999" points="661.61,-239 583.61,-239 583.61,-220 661.61,-220 661.61,-239"/>
<text text-anchor="middle" x="622.61" y="-227" font-family="Helvetica,sans-Serif" font-size="10.00">driver/gpio.h</text>
</a>
</g>
</g>
<!-- Node1&#45;&gt;Node19 -->
<g id="edge23_Node000001_Node000019" class="edge">
<title>Node1&#45;&gt;Node19</title>
<g id="a_edge23_Node000001_Node000019"><a xlink:title=" ">
<path fill="none" stroke="#63b8ff" d="M574.77,-274.98C583.11,-267.23 595.64,-255.58 605.78,-246.14"/>
<polygon fill="#63b8ff" stroke="#63b8ff" points="608.34,-248.54 613.28,-239.17 603.58,-243.42 608.34,-248.54"/>
</a>
</g>
</g>
<!-- Node20 -->
<g id="Node000020" class="node">
<title>Node20</title>
<g id="a_Node000020"><a xlink:title=" ">
<polygon fill="#e0e0e0" stroke="#999999" points="773.11,-239 680.11,-239 680.11,-220 773.11,-220 773.11,-239"/>
<text text-anchor="middle" x="726.61" y="-227" font-family="Helvetica,sans-Serif" font-size="10.00">esp_intr_alloc.h</text>
</a>
</g>
</g>
<!-- Node1&#45;&gt;Node20 -->
<g id="edge24_Node000001_Node000020" class="edge">
<title>Node1&#45;&gt;Node20</title>
<g id="a_edge24_Node000001_Node000020"><a xlink:title=" ">
<path fill="none" stroke="#63b8ff" d="M591.48,-274.98C618.39,-266.13 660.73,-252.19 690.84,-242.28"/>
<polygon fill="#63b8ff" stroke="#63b8ff" points="692.13,-245.53 700.54,-239.08 689.94,-238.88 692.13,-245.53"/>
</a>
</g>
</g>
<!-- Node21 -->
<g id="Node000021" class="node">
<title>Node21</title>
<g id="a_Node000021"><a xlink:title=" ">
<polygon fill="#e0e0e0" stroke="#999999" points="854.11,-239 791.11,-239 791.11,-220 854.11,-220 854.11,-239"/>
<text text-anchor="middle" x="822.61" y="-227" font-family="Helvetica,sans-Serif" font-size="10.00">esp_log.h</text>
</a>
</g>
</g>
<!-- Node1&#45;&gt;Node21 -->
<g id="edge25_Node000001_Node000021" class="edge">
<title>Node1&#45;&gt;Node21</title>
<g id="a_edge25_Node000001_Node000021"><a xlink:title=" ">
<path fill="none" stroke="#63b8ff" d="M607.63,-274.97C649.22,-266.52 714.99,-253.09 780.63,-239.4"/>
<polygon fill="#63b8ff" stroke="#63b8ff" points="781.66,-242.76 790.74,-237.29 780.23,-235.91 781.66,-242.76"/>
</a>
</g>
</g>
<!-- Node3 -->
<g id="Node000003" class="node">
<title>Node3</title>
<g id="a_Node000003"><a xlink:title=" ">
<polygon fill="#e0e0e0" stroke="#999999" points="73.11,-19 12.11,-19 12.11,0 73.11,0 73.11,-19"/>
<text text-anchor="middle" x="42.61" y="-7" font-family="Helvetica,sans-Serif" font-size="10.00">esp_err.h</text>
</a>
</g>
</g>
<!-- Node2&#45;&gt;Node3 -->
<g id="edge2_Node000002_Node000003" class="edge">
<title>Node2&#45;&gt;Node3</title>
<g id="a_edge2_Node000002_Node000003"><a xlink:title=" ">
<path fill="none" stroke="#63b8ff" d="M303.45,-221.86C219.01,-208.68 45.06,-176.31 9.61,-129 -13.44,-98.24 12.24,-52.15 29.52,-27.5"/>
<polygon fill="#63b8ff" stroke="#63b8ff" points="32.53,-29.31 35.61,-19.17 26.88,-25.18 32.53,-29.31"/>
</a>
</g>
</g>
<!-- Node2&#45;&gt;Node4 -->
<g id="edge3_Node000002_Node000004" class="edge">
<title>Node2&#45;&gt;Node4</title>
<g id="a_edge3_Node000002_Node000004"><a xlink:title=" ">
<path fill="none" stroke="#63b8ff" d="M361.5,-219.98C372.76,-211.92 389.89,-199.65 403.32,-190.03"/>
<polygon fill="#63b8ff" stroke="#63b8ff" points="405.41,-192.84 411.5,-184.17 401.33,-187.15 405.41,-192.84"/>
</a>
</g>
</g>
<!-- Node5 -->
<g id="Node000005" class="node">
<title>Node5</title>
<g id="a_Node000005"><a xlink:title=" ">
<polygon fill="#e0e0e0" stroke="#999999" points="146.11,-74 71.11,-74 71.11,-55 146.11,-55 146.11,-74"/>
<text text-anchor="middle" x="108.61" y="-62" font-family="Helvetica,sans-Serif" font-size="10.00">esp_types.h</text>
</a>
</g>
</g>
<!-- Node4&#45;&gt;Node5 -->
<g id="edge4_Node000004_Node000005" class="edge">
<title>Node4&#45;&gt;Node5</title>
<g id="a_edge4_Node000004_Node000005"><a xlink:title=" ">
<path fill="none" stroke="#63b8ff" d="M386.36,-172.74C315.65,-170.53 165.63,-161.99 127.61,-129 114.85,-117.93 110.48,-98.68 109.07,-84.27"/>
<polygon fill="#63b8ff" stroke="#63b8ff" points="112.54,-83.78 108.47,-74 105.55,-84.19 112.54,-83.78"/>
</a>
</g>
</g>
<!-- Node6 -->
<g id="Node000006" class="node">
<title>Node6</title>
<g id="a_Node000006"><a xlink:title=" ">
<polygon fill="#e0e0e0" stroke="#999999" points="1075.11,-19 1022.11,-19 1022.11,0 1075.11,0 1075.11,-19"/>
<text text-anchor="middle" x="1048.61" y="-7" font-family="Helvetica,sans-Serif" font-size="10.00">string.h</text>
</a>
</g>
</g>
<!-- Node4&#45;&gt;Node6 -->
<g id="edge5_Node000004_Node000006" class="edge">
<title>Node4&#45;&gt;Node6</title>
<g id="a_edge5_Node000004_Node000006"><a xlink:title=" ">
<path fill="none" stroke="#63b8ff" d="M460.95,-173.45C586.96,-172.93 990.96,-168.17 1032.61,-129 1059.73,-103.49 1056.7,-55.55 1052.46,-29.14"/>
<polygon fill="#63b8ff" stroke="#63b8ff" points="1055.89,-28.47 1050.65,-19.26 1049.01,-29.73 1055.89,-28.47"/>
</a>
</g>
</g>
<!-- Node7 -->
<g id="Node000007" class="node">
<title>Node7</title>
<g id="a_Node000007"><a xlink:title=" ">
<polygon fill="#e0e0e0" stroke="#999999" points="210.61,-129 136.61,-129 136.61,-110 210.61,-110 210.61,-129"/>
<text text-anchor="middle" x="173.61" y="-117" font-family="Helvetica,sans-Serif" font-size="10.00">board_def.h</text>
</a>
</g>
</g>
<!-- Node4&#45;&gt;Node7 -->
<g id="edge6_Node000004_Node000007" class="edge">
<title>Node4&#45;&gt;Node7</title>
<g id="a_edge6_Node000004_Node000007"><a xlink:title=" ">
<path fill="none" stroke="#63b8ff" d="M386.45,-165.62C342.39,-156.28 268.87,-140.7 220.82,-130.51"/>
<polygon fill="#63b8ff" stroke="#63b8ff" points="221.48,-127.07 210.97,-128.42 220.03,-133.92 221.48,-127.07"/>
</a>
</g>
</g>
<!-- Node8 -->
<g id="Node000008" class="node">
<title>Node8</title>
<g id="a_Node000008"><a xlink:title=" ">
<polygon fill="#e0e0e0" stroke="#999999" points="302.11,-129 229.11,-129 229.11,-110 302.11,-110 302.11,-129"/>
<text text-anchor="middle" x="265.61" y="-117" font-family="Helvetica,sans-Serif" font-size="10.00">audio_hal.h</text>
</a>
</g>
</g>
<!-- Node4&#45;&gt;Node8 -->
<g id="edge7_Node000004_Node000008" class="edge">
<title>Node4&#45;&gt;Node8</title>
<g id="a_edge7_Node000004_Node000008"><a xlink:title=" ">
<path fill="none" stroke="#63b8ff" d="M398.22,-164.98C371.81,-156.13 330.26,-142.19 300.71,-132.28"/>
<polygon fill="#63b8ff" stroke="#63b8ff" points="301.79,-128.94 291.19,-129.08 299.56,-135.58 301.79,-128.94"/>
</a>
</g>
</g>
<!-- Node9 -->
<g id="Node000009" class="node">
<title>Node9</title>
<g id="a_Node000009"><a xlink:title=" ">
<polygon fill="#e0e0e0" stroke="#999999" points="423.11,-129 320.11,-129 320.11,-110 423.11,-110 423.11,-129"/>
<text text-anchor="middle" x="371.61" y="-117" font-family="Helvetica,sans-Serif" font-size="10.00">esxxx_common.h</text>
</a>
</g>
</g>
<!-- Node4&#45;&gt;Node9 -->
<g id="edge8_Node000004_Node000009" class="edge">
<title>Node4&#45;&gt;Node9</title>
<g id="a_edge8_Node000004_Node000009"><a xlink:title=" ">
<path fill="none" stroke="#63b8ff" d="M415.02,-164.75C407.45,-157.03 396.23,-145.6 387.09,-136.28"/>
<polygon fill="#63b8ff" stroke="#63b8ff" points="389.54,-133.78 380.03,-129.09 384.54,-138.68 389.54,-133.78"/>
</a>
</g>
</g>
<!-- Node10 -->
<g id="Node000010" class="node">
<title>Node10</title>
<g id="a_Node000010"><a xlink:href="sevetest30__gpio_8h.html" target="_top" xlink:title=" ">
<polygon fill="white" stroke="#666666" points="1023.61,-129 917.61,-129 917.61,-110 1023.61,-110 1023.61,-129"/>
<text text-anchor="middle" x="970.61" y="-117" font-family="Helvetica,sans-Serif" font-size="10.00">sevetest30_gpio.h</text>
</a>
</g>
</g>
<!-- Node4&#45;&gt;Node10 -->
<g id="edge9_Node000004_Node000010" class="edge">
<title>Node4&#45;&gt;Node10</title>
<g id="a_edge9_Node000004_Node000010"><a xlink:title=" ">
<path fill="none" stroke="#63b8ff" d="M460.78,-170.66C540.55,-164.44 734.29,-148.69 907.47,-129.08"/>
<polygon fill="#63b8ff" stroke="#63b8ff" points="907.99,-132.55 917.53,-127.94 907.2,-125.59 907.99,-132.55"/>
</a>
</g>
</g>
<!-- Node13 -->
<g id="Node000013" class="node">
<title>Node13</title>
<g id="a_Node000013"><a xlink:title=" ">
<polygon fill="#e0e0e0" stroke="#999999" points="512.11,-129 441.11,-129 441.11,-110 512.11,-110 512.11,-129"/>
<text text-anchor="middle" x="476.61" y="-117" font-family="Helvetica,sans-Serif" font-size="10.00">driver/i2c.h</text>
</a>
</g>
</g>
<!-- Node4&#45;&gt;Node13 -->
<g id="edge14_Node000004_Node000013" class="edge">
<title>Node4&#45;&gt;Node13</title>
<g id="a_edge14_Node000004_Node000013"><a xlink:title=" ">
<path fill="none" stroke="#63b8ff" d="M432.36,-164.75C440.08,-157.03 451.51,-145.6 460.82,-136.28"/>
<polygon fill="#63b8ff" stroke="#63b8ff" points="463.42,-138.64 468.02,-129.09 458.47,-133.69 463.42,-138.64"/>
</a>
</g>
</g>
<!-- Node14 -->
<g id="Node000014" class="node">
<title>Node14</title>
<g id="a_Node000014"><a xlink:title=" ">
<polygon fill="#e0e0e0" stroke="#999999" points="649.11,-129 530.11,-129 530.11,-110 649.11,-110 649.11,-129"/>
<text text-anchor="middle" x="589.61" y="-117" font-family="Helvetica,sans-Serif" font-size="10.00">driver/spi_common.h</text>
</a>
</g>
</g>
<!-- Node4&#45;&gt;Node14 -->
<g id="edge15_Node000004_Node000014" class="edge">
<title>Node4&#45;&gt;Node14</title>
<g id="a_edge15_Node000004_Node000014"><a xlink:title=" ">
<path fill="none" stroke="#63b8ff" d="M450.28,-164.98C478.15,-156.09 522.06,-142.07 553.13,-132.15"/>
<polygon fill="#63b8ff" stroke="#63b8ff" points="554.27,-135.46 562.73,-129.08 552.14,-128.79 554.27,-135.46"/>
</a>
</g>
</g>
<!-- Node15 -->
<g id="Node000015" class="node">
<title>Node15</title>
<g id="a_Node000015"><a xlink:title=" ">
<polygon fill="#e0e0e0" stroke="#999999" points="777.61,-129 667.61,-129 667.61,-110 777.61,-110 777.61,-129"/>
<text text-anchor="middle" x="722.61" y="-117" font-family="Helvetica,sans-Serif" font-size="10.00">driver/spi_master.h</text>
</a>
</g>
</g>
<!-- Node4&#45;&gt;Node15 -->
<g id="edge16_Node000004_Node000015" class="edge">
<title>Node4&#45;&gt;Node15</title>
<g id="a_edge16_Node000004_Node000015"><a xlink:title=" ">
<path fill="none" stroke="#63b8ff" d="M460.87,-166.89C511.93,-157.84 604.14,-141.5 664.36,-130.83"/>
<polygon fill="#63b8ff" stroke="#63b8ff" points="665.24,-134.22 674.47,-129.03 664.02,-127.33 665.24,-134.22"/>
</a>
</g>
</g>
<!-- Node16 -->
<g id="Node000016" class="node">
<title>Node16</title>
<g id="a_Node000016"><a xlink:title=" ">
<polygon fill="#e0e0e0" stroke="#999999" points="899.11,-129 796.11,-129 796.11,-110 899.11,-110 899.11,-129"/>
<text text-anchor="middle" x="847.61" y="-117" font-family="Helvetica,sans-Serif" font-size="10.00">esp_peripherals.h</text>
</a>
</g>
</g>
<!-- Node4&#45;&gt;Node16 -->
<g id="edge17_Node000004_Node000016" class="edge">
<title>Node4&#45;&gt;Node16</title>
<g id="a_edge17_Node000004_Node000016"><a xlink:title=" ">
<path fill="none" stroke="#63b8ff" d="M460.74,-169.15C524.74,-161.62 660.23,-145.46 785.85,-129.08"/>
<polygon fill="#63b8ff" stroke="#63b8ff" points="786.57,-132.51 796.03,-127.75 785.66,-125.57 786.57,-132.51"/>
</a>
</g>
</g>
<!-- Node17 -->
<g id="Node000017" class="node">
<title>Node17</title>
<g id="a_Node000017"><a xlink:href="_b_l5372_8h.html" target="_top" xlink:title=" ">
<polygon fill="white" stroke="#666666" points="80.61,-129 18.61,-129 18.61,-110 80.61,-110 80.61,-129"/>
<text text-anchor="middle" x="49.61" y="-117" font-family="Helvetica,sans-Serif" font-size="10.00">BL5372.h</text>
</a>
</g>
</g>
<!-- Node4&#45;&gt;Node17 -->
<g id="edge18_Node000004_Node000017" class="edge">
<title>Node4&#45;&gt;Node17</title>
<g id="a_edge18_Node000004_Node000017"><a xlink:title=" ">
<path fill="none" stroke="#63b8ff" d="M386.51,-169.12C325.48,-161.78 200.15,-146.09 94.61,-129 93.51,-128.82 92.4,-128.64 91.27,-128.45"/>
<polygon fill="#63b8ff" stroke="#63b8ff" points="91.5,-124.94 81.04,-126.65 90.29,-131.83 91.5,-124.94"/>
</a>
</g>
</g>
<!-- Node11 -->
<g id="Node000011" class="node">
<title>Node11</title>
<g id="a_Node000011"><a xlink:href="_t_c_a6416_a_8h.html" target="_top" xlink:title=" ">
<polygon fill="white" stroke="#666666" points="1008.11,-74 933.11,-74 933.11,-55 1008.11,-55 1008.11,-74"/>
<text text-anchor="middle" x="970.61" y="-62" font-family="Helvetica,sans-Serif" font-size="10.00">TCA6416A.h</text>
</a>
</g>
</g>
<!-- Node10&#45;&gt;Node11 -->
<g id="edge10_Node000010_Node000011" class="edge">
<title>Node10&#45;&gt;Node11</title>
<g id="a_edge10_Node000010_Node000011"><a xlink:title=" ">
<path fill="none" stroke="#63b8ff" d="M970.61,-109.75C970.61,-102.8 970.61,-92.85 970.61,-84.13"/>
<polygon fill="#63b8ff" stroke="#63b8ff" points="974.11,-84.09 970.61,-74.09 967.11,-84.09 974.11,-84.09"/>
</a>
</g>
</g>
<!-- Node11&#45;&gt;Node3 -->
<g id="edge13_Node000011_Node000003" class="edge">
<title>Node11&#45;&gt;Node3</title>
<g id="a_edge13_Node000011_Node000003"><a xlink:title=" ">
<path fill="none" stroke="#63b8ff" d="M933.08,-61.36C784.41,-52.87 237.41,-21.63 83.28,-12.82"/>
<polygon fill="#63b8ff" stroke="#63b8ff" points="83.47,-9.33 73.28,-12.25 83.07,-16.32 83.47,-9.33"/>
</a>
</g>
</g>
<!-- Node11&#45;&gt;Node6 -->
<g id="edge11_Node000011_Node000006" class="edge">
<title>Node11&#45;&gt;Node6</title>
<g id="a_edge11_Node000011_Node000006"><a xlink:title=" ">
<path fill="none" stroke="#63b8ff" d="M983.14,-54.98C995.01,-46.92 1013.07,-34.65 1027.22,-25.03"/>
<polygon fill="#63b8ff" stroke="#63b8ff" points="1029.54,-27.69 1035.85,-19.17 1025.61,-21.9 1029.54,-27.69"/>
</a>
</g>
</g>
<!-- Node12 -->
<g id="Node000012" class="node">
<title>Node12</title>
<g id="a_Node000012"><a xlink:title=" ">
<polygon fill="#e0e0e0" stroke="#999999" points="1001.61,-19 939.61,-19 939.61,0 1001.61,0 1001.61,-19"/>
<text text-anchor="middle" x="970.61" y="-7" font-family="Helvetica,sans-Serif" font-size="10.00">stdbool.h</text>
</a>
</g>
</g>
<!-- Node11&#45;&gt;Node12 -->
<g id="edge12_Node000011_Node000012" class="edge">
<title>Node11&#45;&gt;Node12</title>
<g id="a_edge12_Node000011_Node000012"><a xlink:title=" ">
<path fill="none" stroke="#63b8ff" d="M970.61,-54.75C970.61,-47.8 970.61,-37.85 970.61,-29.13"/>
<polygon fill="#63b8ff" stroke="#63b8ff" points="974.11,-29.09 970.61,-19.09 967.11,-29.09 974.11,-29.09"/>
</a>
</g>
</g>
<!-- Node17&#45;&gt;Node3 -->
<g id="edge20_Node000017_Node000003" class="edge">
<title>Node17&#45;&gt;Node3</title>
<g id="a_edge20_Node000017_Node000003"><a xlink:title=" ">
<path fill="none" stroke="#63b8ff" d="M49.03,-109.66C47.9,-92.17 45.35,-52.8 43.82,-29.27"/>
<polygon fill="#63b8ff" stroke="#63b8ff" points="47.31,-28.91 43.17,-19.16 40.32,-29.36 47.31,-28.91"/>
</a>
</g>
</g>
<!-- Node17&#45;&gt;Node5 -->
<g id="edge19_Node000017_Node000005" class="edge">
<title>Node17&#45;&gt;Node5</title>
<g id="a_edge19_Node000017_Node000005"><a xlink:title=" ">
<path fill="none" stroke="#63b8ff" d="M59.09,-109.98C67.81,-102.15 80.95,-90.34 91.51,-80.86"/>
<polygon fill="#63b8ff" stroke="#63b8ff" points="93.86,-83.46 98.96,-74.17 89.18,-78.25 93.86,-83.46"/>
</a>
</g>
</g>
</g>
</svg>
