<?xml version="1.0" encoding="UTF-8" standalone="no"?>
<!DOCTYPE svg PUBLIC "-//W3C//DTD SVG 1.1//EN"
 "http://www.w3.org/Graphics/SVG/1.1/DTD/svg11.dtd">
<!-- Generated by graphviz version 2.43.0 (0)
 -->
<!-- Title: components/sevetest30_board/include/gt32l32s0140.h Pages: 1 -->
<svg width="1081pt" height="258pt"
 viewBox="0.00 0.00 1080.54 258.00" xmlns="http://www.w3.org/2000/svg" xmlns:xlink="http://www.w3.org/1999/xlink">
<g id="graph0" class="graph" transform="scale(1 1) rotate(0) translate(4 254)">
<title>components/sevetest30_board/include/gt32l32s0140.h</title>
<!-- Node1 -->
<g id="Node000001" class="node">
<title>Node1</title>
<g id="a_Node000001"><a xlink:title=" ">
<polygon fill="#999999" stroke="#666666" points="261.04,-250 95.04,-250 95.04,-220 261.04,-220 261.04,-250"/>
<text text-anchor="start" x="103.04" y="-238" font-family="Helvetica,sans-Serif" font-size="10.00">components/sevetest30</text>
<text text-anchor="middle" x="178.04" y="-227" font-family="Helvetica,sans-Serif" font-size="10.00">_board/include/gt32l32s0140.h</text>
</a>
</g>
</g>
<!-- Node2 -->
<g id="Node000002" class="node">
<title>Node2</title>
<g id="a_Node000002"><a xlink:title=" ">
<polygon fill="#e0e0e0" stroke="#999999" points="70.54,-19 9.54,-19 9.54,0 70.54,0 70.54,-19"/>
<text text-anchor="middle" x="40.04" y="-7" font-family="Helvetica,sans-Serif" font-size="10.00">esp_err.h</text>
</a>
</g>
</g>
<!-- Node1&#45;&gt;Node2 -->
<g id="edge1_Node000001_Node000002" class="edge">
<title>Node1&#45;&gt;Node2</title>
<g id="a_edge1_Node000001_Node000002"><a xlink:title=" ">
<path fill="none" stroke="#63b8ff" d="M131.5,-219.87C90.53,-204.68 33.4,-176.12 7.04,-129 -11.56,-95.76 11.77,-51.33 27.63,-27.43"/>
<polygon fill="#63b8ff" stroke="#63b8ff" points="30.61,-29.28 33.44,-19.07 24.86,-25.28 30.61,-29.28"/>
</a>
</g>
</g>
<!-- Node3 -->
<g id="Node000003" class="node">
<title>Node3</title>
<g id="a_Node000003"><a xlink:href="board__ctrl_8h.html" target="_top" xlink:title=" ">
<polygon fill="white" stroke="#666666" points="458.04,-184 384.04,-184 384.04,-165 458.04,-165 458.04,-184"/>
<text text-anchor="middle" x="421.04" y="-172" font-family="Helvetica,sans-Serif" font-size="10.00">board_ctrl.h</text>
</a>
</g>
</g>
<!-- Node1&#45;&gt;Node3 -->
<g id="edge2_Node000001_Node000003" class="edge">
<title>Node1&#45;&gt;Node3</title>
<g id="a_edge2_Node000001_Node000003"><a xlink:title=" ">
<path fill="none" stroke="#63b8ff" d="M236.24,-219.99C279,-209.7 336.26,-195.91 375.65,-186.43"/>
<polygon fill="#63b8ff" stroke="#63b8ff" points="376.6,-189.8 385.51,-184.05 374.97,-182.99 376.6,-189.8"/>
</a>
</g>
</g>
<!-- Node4 -->
<g id="Node000004" class="node">
<title>Node4</title>
<g id="a_Node000004"><a xlink:title=" ">
<polygon fill="#e0e0e0" stroke="#999999" points="143.54,-74 68.54,-74 68.54,-55 143.54,-55 143.54,-74"/>
<text text-anchor="middle" x="106.04" y="-62" font-family="Helvetica,sans-Serif" font-size="10.00">esp_types.h</text>
</a>
</g>
</g>
<!-- Node3&#45;&gt;Node4 -->
<g id="edge3_Node000003_Node000004" class="edge">
<title>Node3&#45;&gt;Node4</title>
<g id="a_edge3_Node000003_Node000004"><a xlink:title=" ">
<path fill="none" stroke="#63b8ff" d="M383.79,-172.74C313.08,-170.53 163.06,-161.99 125.04,-129 112.28,-117.93 107.91,-98.68 106.5,-84.27"/>
<polygon fill="#63b8ff" stroke="#63b8ff" points="109.97,-83.78 105.9,-74 102.98,-84.19 109.97,-83.78"/>
</a>
</g>
</g>
<!-- Node5 -->
<g id="Node000005" class="node">
<title>Node5</title>
<g id="a_Node000005"><a xlink:title=" ">
<polygon fill="#e0e0e0" stroke="#999999" points="1072.54,-19 1019.54,-19 1019.54,0 1072.54,0 1072.54,-19"/>
<text text-anchor="middle" x="1046.04" y="-7" font-family="Helvetica,sans-Serif" font-size="10.00">string.h</text>
</a>
</g>
</g>
<!-- Node3&#45;&gt;Node5 -->
<g id="edge4_Node000003_Node000005" class="edge">
<title>Node3&#45;&gt;Node5</title>
<g id="a_edge4_Node000003_Node000005"><a xlink:title=" ">
<path fill="none" stroke="#63b8ff" d="M458.38,-173.45C584.39,-172.93 988.39,-168.17 1030.04,-129 1057.16,-103.49 1054.13,-55.55 1049.89,-29.14"/>
<polygon fill="#63b8ff" stroke="#63b8ff" points="1053.32,-28.47 1048.08,-19.26 1046.44,-29.73 1053.32,-28.47"/>
</a>
</g>
</g>
<!-- Node6 -->
<g id="Node000006" class="node">
<title>Node6</title>
<g id="a_Node000006"><a xlink:title=" ">
<polygon fill="#e0e0e0" stroke="#999999" points="208.04,-129 134.04,-129 134.04,-110 208.04,-110 208.04,-129"/>
<text text-anchor="middle" x="171.04" y="-117" font-family="Helvetica,sans-Serif" font-size="10.00">board_def.h</text>
</a>
</g>
</g>
<!-- Node3&#45;&gt;Node6 -->
<g id="edge5_Node000003_Node000006" class="edge">
<title>Node3&#45;&gt;Node6</title>
<g id="a_edge5_Node000003_Node000006"><a xlink:title=" ">
<path fill="none" stroke="#63b8ff" d="M383.88,-165.62C339.82,-156.28 266.3,-140.7 218.25,-130.51"/>
<polygon fill="#63b8ff" stroke="#63b8ff" points="218.91,-127.07 208.4,-128.42 217.46,-133.92 218.91,-127.07"/>
</a>
</g>
</g>
<!-- Node7 -->
<g id="Node000007" class="node">
<title>Node7</title>
<g id="a_Node000007"><a xlink:title=" ">
<polygon fill="#e0e0e0" stroke="#999999" points="299.54,-129 226.54,-129 226.54,-110 299.54,-110 299.54,-129"/>
<text text-anchor="middle" x="263.04" y="-117" font-family="Helvetica,sans-Serif" font-size="10.00">audio_hal.h</text>
</a>
</g>
</g>
<!-- Node3&#45;&gt;Node7 -->
<g id="edge6_Node000003_Node000007" class="edge">
<title>Node3&#45;&gt;Node7</title>
<g id="a_edge6_Node000003_Node000007"><a xlink:title=" ">
<path fill="none" stroke="#63b8ff" d="M395.65,-164.98C369.24,-156.13 327.69,-142.19 298.14,-132.28"/>
<polygon fill="#63b8ff" stroke="#63b8ff" points="299.22,-128.94 288.62,-129.08 296.99,-135.58 299.22,-128.94"/>
</a>
</g>
</g>
<!-- Node8 -->
<g id="Node000008" class="node">
<title>Node8</title>
<g id="a_Node000008"><a xlink:title=" ">
<polygon fill="#e0e0e0" stroke="#999999" points="420.54,-129 317.54,-129 317.54,-110 420.54,-110 420.54,-129"/>
<text text-anchor="middle" x="369.04" y="-117" font-family="Helvetica,sans-Serif" font-size="10.00">esxxx_common.h</text>
</a>
</g>
</g>
<!-- Node3&#45;&gt;Node8 -->
<g id="edge7_Node000003_Node000008" class="edge">
<title>Node3&#45;&gt;Node8</title>
<g id="a_edge7_Node000003_Node000008"><a xlink:title=" ">
<path fill="none" stroke="#63b8ff" d="M412.45,-164.75C404.88,-157.03 393.66,-145.6 384.52,-136.28"/>
<polygon fill="#63b8ff" stroke="#63b8ff" points="386.97,-133.78 377.46,-129.09 381.97,-138.68 386.97,-133.78"/>
</a>
</g>
</g>
<!-- Node9 -->
<g id="Node000009" class="node">
<title>Node9</title>
<g id="a_Node000009"><a xlink:href="sevetest30__gpio_8h.html" target="_top" xlink:title=" ">
<polygon fill="white" stroke="#666666" points="1021.04,-129 915.04,-129 915.04,-110 1021.04,-110 1021.04,-129"/>
<text text-anchor="middle" x="968.04" y="-117" font-family="Helvetica,sans-Serif" font-size="10.00">sevetest30_gpio.h</text>
</a>
</g>
</g>
<!-- Node3&#45;&gt;Node9 -->
<g id="edge8_Node000003_Node000009" class="edge">
<title>Node3&#45;&gt;Node9</title>
<g id="a_edge8_Node000003_Node000009"><a xlink:title=" ">
<path fill="none" stroke="#63b8ff" d="M458.21,-170.66C537.98,-164.44 731.72,-148.69 904.9,-129.08"/>
<polygon fill="#63b8ff" stroke="#63b8ff" points="905.42,-132.55 914.96,-127.94 904.63,-125.59 905.42,-132.55"/>
</a>
</g>
</g>
<!-- Node12 -->
<g id="Node000012" class="node">
<title>Node12</title>
<g id="a_Node000012"><a xlink:title=" ">
<polygon fill="#e0e0e0" stroke="#999999" points="509.54,-129 438.54,-129 438.54,-110 509.54,-110 509.54,-129"/>
<text text-anchor="middle" x="474.04" y="-117" font-family="Helvetica,sans-Serif" font-size="10.00">driver/i2c.h</text>
</a>
</g>
</g>
<!-- Node3&#45;&gt;Node12 -->
<g id="edge13_Node000003_Node000012" class="edge">
<title>Node3&#45;&gt;Node12</title>
<g id="a_edge13_Node000003_Node000012"><a xlink:title=" ">
<path fill="none" stroke="#63b8ff" d="M429.79,-164.75C437.51,-157.03 448.94,-145.6 458.25,-136.28"/>
<polygon fill="#63b8ff" stroke="#63b8ff" points="460.85,-138.64 465.45,-129.09 455.9,-133.69 460.85,-138.64"/>
</a>
</g>
</g>
<!-- Node13 -->
<g id="Node000013" class="node">
<title>Node13</title>
<g id="a_Node000013"><a xlink:title=" ">
<polygon fill="#e0e0e0" stroke="#999999" points="646.54,-129 527.54,-129 527.54,-110 646.54,-110 646.54,-129"/>
<text text-anchor="middle" x="587.04" y="-117" font-family="Helvetica,sans-Serif" font-size="10.00">driver/spi_common.h</text>
</a>
</g>
</g>
<!-- Node3&#45;&gt;Node13 -->
<g id="edge14_Node000003_Node000013" class="edge">
<title>Node3&#45;&gt;Node13</title>
<g id="a_edge14_Node000003_Node000013"><a xlink:title=" ">
<path fill="none" stroke="#63b8ff" d="M447.71,-164.98C475.58,-156.09 519.49,-142.07 550.56,-132.15"/>
<polygon fill="#63b8ff" stroke="#63b8ff" points="551.7,-135.46 560.16,-129.08 549.57,-128.79 551.7,-135.46"/>
</a>
</g>
</g>
<!-- Node14 -->
<g id="Node000014" class="node">
<title>Node14</title>
<g id="a_Node000014"><a xlink:title=" ">
<polygon fill="#e0e0e0" stroke="#999999" points="775.04,-129 665.04,-129 665.04,-110 775.04,-110 775.04,-129"/>
<text text-anchor="middle" x="720.04" y="-117" font-family="Helvetica,sans-Serif" font-size="10.00">driver/spi_master.h</text>
</a>
</g>
</g>
<!-- Node3&#45;&gt;Node14 -->
<g id="edge15_Node000003_Node000014" class="edge">
<title>Node3&#45;&gt;Node14</title>
<g id="a_edge15_Node000003_Node000014"><a xlink:title=" ">
<path fill="none" stroke="#63b8ff" d="M458.3,-166.89C509.36,-157.84 601.57,-141.5 661.79,-130.83"/>
<polygon fill="#63b8ff" stroke="#63b8ff" points="662.67,-134.22 671.9,-129.03 661.45,-127.33 662.67,-134.22"/>
</a>
</g>
</g>
<!-- Node15 -->
<g id="Node000015" class="node">
<title>Node15</title>
<g id="a_Node000015"><a xlink:title=" ">
<polygon fill="#e0e0e0" stroke="#999999" points="896.54,-129 793.54,-129 793.54,-110 896.54,-110 896.54,-129"/>
<text text-anchor="middle" x="845.04" y="-117" font-family="Helvetica,sans-Serif" font-size="10.00">esp_peripherals.h</text>
</a>
</g>
</g>
<!-- Node3&#45;&gt;Node15 -->
<g id="edge16_Node000003_Node000015" class="edge">
<title>Node3&#45;&gt;Node15</title>
<g id="a_edge16_Node000003_Node000015"><a xlink:title=" ">
<path fill="none" stroke="#63b8ff" d="M458.17,-169.15C522.17,-161.62 657.66,-145.46 783.28,-129.08"/>
<polygon fill="#63b8ff" stroke="#63b8ff" points="784,-132.51 793.46,-127.75 783.09,-125.57 784,-132.51"/>
</a>
</g>
</g>
<!-- Node16 -->
<g id="Node000016" class="node">
<title>Node16</title>
<g id="a_Node000016"><a xlink:href="_b_l5372_8h.html" target="_top" xlink:title=" ">
<polygon fill="white" stroke="#666666" points="78.04,-129 16.04,-129 16.04,-110 78.04,-110 78.04,-129"/>
<text text-anchor="middle" x="47.04" y="-117" font-family="Helvetica,sans-Serif" font-size="10.00">BL5372.h</text>
</a>
</g>
</g>
<!-- Node3&#45;&gt;Node16 -->
<g id="edge17_Node000003_Node000016" class="edge">
<title>Node3&#45;&gt;Node16</title>
<g id="a_edge17_Node000003_Node000016"><a xlink:title=" ">
<path fill="none" stroke="#63b8ff" d="M383.94,-169.12C322.91,-161.78 197.58,-146.09 92.04,-129 90.94,-128.82 89.83,-128.64 88.7,-128.45"/>
<polygon fill="#63b8ff" stroke="#63b8ff" points="88.93,-124.94 78.47,-126.65 87.72,-131.83 88.93,-124.94"/>
</a>
</g>
</g>
<!-- Node10 -->
<g id="Node000010" class="node">
<title>Node10</title>
<g id="a_Node000010"><a xlink:href="_t_c_a6416_a_8h.html" target="_top" xlink:title=" ">
<polygon fill="white" stroke="#666666" points="1005.54,-74 930.54,-74 930.54,-55 1005.54,-55 1005.54,-74"/>
<text text-anchor="middle" x="968.04" y="-62" font-family="Helvetica,sans-Serif" font-size="10.00">TCA6416A.h</text>
</a>
</g>
</g>
<!-- Node9&#45;&gt;Node10 -->
<g id="edge9_Node000009_Node000010" class="edge">
<title>Node9&#45;&gt;Node10</title>
<g id="a_edge9_Node000009_Node000010"><a xlink:title=" ">
<path fill="none" stroke="#63b8ff" d="M968.04,-109.75C968.04,-102.8 968.04,-92.85 968.04,-84.13"/>
<polygon fill="#63b8ff" stroke="#63b8ff" points="971.54,-84.09 968.04,-74.09 964.54,-84.09 971.54,-84.09"/>
</a>
</g>
</g>
<!-- Node10&#45;&gt;Node2 -->
<g id="edge12_Node000010_Node000002" class="edge">
<title>Node10&#45;&gt;Node2</title>
<g id="a_edge12_Node000010_Node000002"><a xlink:title=" ">
<path fill="none" stroke="#63b8ff" d="M930.51,-61.36C781.84,-52.87 234.84,-21.63 80.71,-12.82"/>
<polygon fill="#63b8ff" stroke="#63b8ff" points="80.9,-9.33 70.71,-12.25 80.5,-16.32 80.9,-9.33"/>
</a>
</g>
</g>
<!-- Node10&#45;&gt;Node5 -->
<g id="edge10_Node000010_Node000005" class="edge">
<title>Node10&#45;&gt;Node5</title>
<g id="a_edge10_Node000010_Node000005"><a xlink:title=" ">
<path fill="none" stroke="#63b8ff" d="M980.57,-54.98C992.44,-46.92 1010.5,-34.65 1024.65,-25.03"/>
<polygon fill="#63b8ff" stroke="#63b8ff" points="1026.97,-27.69 1033.28,-19.17 1023.04,-21.9 1026.97,-27.69"/>
</a>
</g>
</g>
<!-- Node11 -->
<g id="Node000011" class="node">
<title>Node11</title>
<g id="a_Node000011"><a xlink:title=" ">
<polygon fill="#e0e0e0" stroke="#999999" points="999.04,-19 937.04,-19 937.04,0 999.04,0 999.04,-19"/>
<text text-anchor="middle" x="968.04" y="-7" font-family="Helvetica,sans-Serif" font-size="10.00">stdbool.h</text>
</a>
</g>
</g>
<!-- Node10&#45;&gt;Node11 -->
<g id="edge11_Node000010_Node000011" class="edge">
<title>Node10&#45;&gt;Node11</title>
<g id="a_edge11_Node000010_Node000011"><a xlink:title=" ">
<path fill="none" stroke="#63b8ff" d="M968.04,-54.75C968.04,-47.8 968.04,-37.85 968.04,-29.13"/>
<polygon fill="#63b8ff" stroke="#63b8ff" points="971.54,-29.09 968.04,-19.09 964.54,-29.09 971.54,-29.09"/>
</a>
</g>
</g>
<!-- Node16&#45;&gt;Node2 -->
<g id="edge19_Node000016_Node000002" class="edge">
<title>Node16&#45;&gt;Node2</title>
<g id="a_edge19_Node000016_Node000002"><a xlink:title=" ">
<path fill="none" stroke="#63b8ff" d="M46.46,-109.66C45.33,-92.17 42.78,-52.8 41.25,-29.27"/>
<polygon fill="#63b8ff" stroke="#63b8ff" points="44.74,-28.91 40.6,-19.16 37.75,-29.36 44.74,-28.91"/>
</a>
</g>
</g>
<!-- Node16&#45;&gt;Node4 -->
<g id="edge18_Node000016_Node000004" class="edge">
<title>Node16&#45;&gt;Node4</title>
<g id="a_edge18_Node000016_Node000004"><a xlink:title=" ">
<path fill="none" stroke="#63b8ff" d="M56.52,-109.98C65.24,-102.15 78.38,-90.34 88.94,-80.86"/>
<polygon fill="#63b8ff" stroke="#63b8ff" points="91.29,-83.46 96.39,-74.17 86.61,-78.25 91.29,-83.46"/>
</a>
</g>
</g>
</g>
</svg>
