<?xml version="1.0" encoding="UTF-8" standalone="no"?>
<!DOCTYPE svg PUBLIC "-//W3C//DTD SVG 1.1//EN"
 "http://www.w3.org/Graphics/SVG/1.1/DTD/svg11.dtd">
<!-- Generated by graphviz version 2.43.0 (0)
 -->
<!-- Title: components/sevetest30_board/include/gt32l32s0140.h Pages: 1 -->
<svg width="514pt" height="93pt"
 viewBox="0.00 0.00 513.50 93.00" xmlns="http://www.w3.org/2000/svg" xmlns:xlink="http://www.w3.org/1999/xlink">
<g id="graph0" class="graph" transform="scale(1 1) rotate(0) translate(4 89)">
<title>components/sevetest30_board/include/gt32l32s0140.h</title>
<!-- Node1 -->
<g id="Node000001" class="node">
<title>Node1</title>
<g id="a_Node000001"><a xlink:title=" ">
<polygon fill="#999999" stroke="#666666" points="319.5,-85 153.5,-85 153.5,-55 319.5,-55 319.5,-85"/>
<text text-anchor="start" x="161.5" y="-73" font-family="Helvetica,sans-Serif" font-size="10.00">components/sevetest30</text>
<text text-anchor="middle" x="236.5" y="-62" font-family="Helvetica,sans-Serif" font-size="10.00">_board/include/gt32l32s0140.h</text>
</a>
</g>
</g>
<!-- Node2 -->
<g id="Node000002" class="node">
<title>Node2</title>
<g id="a_Node000002"><a xlink:href="board__ctrl_8c.html" target="_top" xlink:title=" ">
<polygon fill="white" stroke="#666666" points="101,-19 0,-19 0,0 101,0 101,-19"/>
<text text-anchor="middle" x="50.5" y="-7" font-family="Helvetica,sans-Serif" font-size="10.00">main/board_ctrl.c</text>
</a>
</g>
</g>
<!-- Node1&#45;&gt;Node2 -->
<g id="edge1_Node000001_Node000002" class="edge">
<title>Node1&#45;&gt;Node2</title>
<g id="a_edge1_Node000001_Node000002"><a xlink:title=" ">
<path fill="none" stroke="#63b8ff" d="M182.07,-51.88C147.78,-41.09 104.99,-27.64 77.7,-19.05"/>
<polygon fill="#63b8ff" stroke="#63b8ff" points="181.36,-55.33 191.95,-54.99 183.46,-48.65 181.36,-55.33"/>
</a>
</g>
</g>
<!-- Node3 -->
<g id="Node000003" class="node">
<title>Node3</title>
<g id="a_Node000003"><a xlink:href="gt32l32s0140_8c.html" target="_top" xlink:title=" ">
<polygon fill="white" stroke="#666666" points="238,-19 119,-19 119,0 238,0 238,-19"/>
<text text-anchor="middle" x="178.5" y="-7" font-family="Helvetica,sans-Serif" font-size="10.00">main/gt32l32s0140.c</text>
</a>
</g>
</g>
<!-- Node1&#45;&gt;Node3 -->
<g id="edge2_Node000001_Node000003" class="edge">
<title>Node1&#45;&gt;Node3</title>
<g id="a_edge2_Node000001_Node000003"><a xlink:title=" ">
<path fill="none" stroke="#63b8ff" d="M215.35,-47.67C205.62,-37.86 194.62,-26.76 187.19,-19.27"/>
<polygon fill="#63b8ff" stroke="#63b8ff" points="212.93,-50.2 222.46,-54.84 217.9,-45.27 212.93,-50.2"/>
</a>
</g>
</g>
<!-- Node4 -->
<g id="Node000004" class="node">
<title>Node4</title>
<g id="a_Node000004"><a xlink:href="main_8c.html" target="_top" xlink:title=" ">
<polygon fill="white" stroke="#666666" points="333,-19 256,-19 256,0 333,0 333,-19"/>
<text text-anchor="middle" x="294.5" y="-7" font-family="Helvetica,sans-Serif" font-size="10.00">main/main.c</text>
</a>
</g>
</g>
<!-- Node1&#45;&gt;Node4 -->
<g id="edge3_Node000001_Node000004" class="edge">
<title>Node1&#45;&gt;Node4</title>
<g id="a_edge3_Node000001_Node000004"><a xlink:title=" ">
<path fill="none" stroke="#63b8ff" d="M257.65,-47.67C267.38,-37.86 278.38,-26.76 285.81,-19.27"/>
<polygon fill="#63b8ff" stroke="#63b8ff" points="255.1,-45.27 250.54,-54.84 260.07,-50.2 255.1,-45.27"/>
</a>
</g>
</g>
<!-- Node5 -->
<g id="Node000005" class="node">
<title>Node5</title>
<g id="a_Node000005"><a xlink:href="sevetest30___led_array_8c.html" target="_top" xlink:title=" ">
<polygon fill="white" stroke="#666666" points="505.5,-19 351.5,-19 351.5,0 505.5,0 505.5,-19"/>
<text text-anchor="middle" x="428.5" y="-7" font-family="Helvetica,sans-Serif" font-size="10.00">main/sevetest30_LedArray.c</text>
</a>
</g>
</g>
<!-- Node1&#45;&gt;Node5 -->
<g id="edge4_Node000001_Node000005" class="edge">
<title>Node1&#45;&gt;Node5</title>
<g id="a_edge4_Node000001_Node000005"><a xlink:title=" ">
<path fill="none" stroke="#63b8ff" d="M292.24,-52.02C327.71,-41.21 372.14,-27.67 400.43,-19.05"/>
<polygon fill="#63b8ff" stroke="#63b8ff" points="291.03,-48.73 282.49,-54.99 293.07,-55.42 291.03,-48.73"/>
</a>
</g>
</g>
</g>
</svg>
