<?xml version="1.0" encoding="UTF-8" standalone="no"?>
<!DOCTYPE svg PUBLIC "-//W3C//DTD SVG 1.1//EN"
 "http://www.w3.org/Graphics/SVG/1.1/DTD/svg11.dtd">
<!-- Generated by graphviz version 2.43.0 (0)
 -->
<!-- Title: components/sevetest30_board/include/hscdtd008a.h Pages: 1 -->
<svg width="337pt" height="170pt"
 viewBox="0.00 0.00 336.50 170.00" xmlns="http://www.w3.org/2000/svg" xmlns:xlink="http://www.w3.org/1999/xlink">
<g id="graph0" class="graph" transform="scale(1 1) rotate(0) translate(4 166)">
<title>components/sevetest30_board/include/hscdtd008a.h</title>
<!-- Node1 -->
<g id="Node000001" class="node">
<title>Node1</title>
<g id="a_Node000001"><a xlink:title=" ">
<polygon fill="#999999" stroke="#666666" points="269,-162 113,-162 113,-132 269,-132 269,-162"/>
<text text-anchor="start" x="121" y="-150" font-family="Helvetica,sans-Serif" font-size="10.00">components/sevetest30</text>
<text text-anchor="middle" x="191" y="-139" font-family="Helvetica,sans-Serif" font-size="10.00">_board/include/hscdtd008a.h</text>
</a>
</g>
</g>
<!-- Node2 -->
<g id="Node000002" class="node">
<title>Node2</title>
<g id="a_Node000002"><a xlink:href="calibration__tools_8h.html" target="_top" xlink:title=" ">
<polygon fill="white" stroke="#666666" points="162.5,-96 19.5,-96 19.5,-55 162.5,-55 162.5,-96"/>
<text text-anchor="start" x="27.5" y="-84" font-family="Helvetica,sans-Serif" font-size="10.00">components/sevetest30</text>
<text text-anchor="start" x="27.5" y="-73" font-family="Helvetica,sans-Serif" font-size="10.00">_board/include/calibration</text>
<text text-anchor="middle" x="91" y="-62" font-family="Helvetica,sans-Serif" font-size="10.00">_tools.h</text>
</a>
</g>
</g>
<!-- Node1&#45;&gt;Node2 -->
<g id="edge1_Node000001_Node000002" class="edge">
<title>Node1&#45;&gt;Node2</title>
<g id="a_edge1_Node000001_Node000002"><a xlink:title=" ">
<path fill="none" stroke="#63b8ff" d="M162.29,-126.04C148.74,-116.63 132.64,-105.44 119.16,-96.07"/>
<polygon fill="#63b8ff" stroke="#63b8ff" points="160.55,-129.1 170.76,-131.94 164.55,-123.35 160.55,-129.1"/>
</a>
</g>
</g>
<!-- Node4 -->
<g id="Node000004" class="node">
<title>Node4</title>
<g id="a_Node000004"><a xlink:href="main_8c.html" target="_top" xlink:title=" ">
<polygon fill="white" stroke="#666666" points="229.5,-19 152.5,-19 152.5,0 229.5,0 229.5,-19"/>
<text text-anchor="middle" x="191" y="-7" font-family="Helvetica,sans-Serif" font-size="10.00">main/main.c</text>
</a>
</g>
</g>
<!-- Node1&#45;&gt;Node4 -->
<g id="edge5_Node000001_Node000004" class="edge">
<title>Node1&#45;&gt;Node4</title>
<g id="a_edge5_Node000001_Node000004"><a xlink:title=" ">
<path fill="none" stroke="#63b8ff" d="M191,-121.41C191,-90.55 191,-39.23 191,-19.03"/>
<polygon fill="#63b8ff" stroke="#63b8ff" points="187.5,-121.76 191,-131.76 194.5,-121.76 187.5,-121.76"/>
</a>
</g>
</g>
<!-- Node5 -->
<g id="Node000005" class="node">
<title>Node5</title>
<g id="a_Node000005"><a xlink:href="hscdtd008a_8c.html" target="_top" xlink:title=" ">
<polygon fill="white" stroke="#666666" points="328.5,-85 219.5,-85 219.5,-66 328.5,-66 328.5,-85"/>
<text text-anchor="middle" x="274" y="-73" font-family="Helvetica,sans-Serif" font-size="10.00">main/hscdtd008a.c</text>
</a>
</g>
</g>
<!-- Node1&#45;&gt;Node5 -->
<g id="edge4_Node000001_Node000005" class="edge">
<title>Node1&#45;&gt;Node5</title>
<g id="a_edge4_Node000001_Node000005"><a xlink:title=" ">
<path fill="none" stroke="#63b8ff" d="M215.71,-125.31C231.66,-111.95 251.59,-95.26 263.53,-85.27"/>
<polygon fill="#63b8ff" stroke="#63b8ff" points="213.22,-122.83 207.8,-131.94 217.71,-128.2 213.22,-122.83"/>
</a>
</g>
</g>
<!-- Node3 -->
<g id="Node000003" class="node">
<title>Node3</title>
<g id="a_Node000003"><a xlink:href="calibration__tools_8c.html" target="_top" xlink:title=" ">
<polygon fill="white" stroke="#666666" points="134,-19 0,-19 0,0 134,0 134,-19"/>
<text text-anchor="middle" x="67" y="-7" font-family="Helvetica,sans-Serif" font-size="10.00">main/calibration_tools.c</text>
</a>
</g>
</g>
<!-- Node2&#45;&gt;Node3 -->
<g id="edge2_Node000002_Node000003" class="edge">
<title>Node2&#45;&gt;Node3</title>
<g id="a_edge2_Node000002_Node000003"><a xlink:title=" ">
<path fill="none" stroke="#63b8ff" d="M80.06,-45.34C76.51,-35.86 72.83,-26.05 70.29,-19.26"/>
<polygon fill="#63b8ff" stroke="#63b8ff" points="76.88,-46.82 83.67,-54.95 83.43,-44.36 76.88,-46.82"/>
</a>
</g>
</g>
<!-- Node2&#45;&gt;Node4 -->
<g id="edge3_Node000002_Node000004" class="edge">
<title>Node2&#45;&gt;Node4</title>
<g id="a_edge3_Node000002_Node000004"><a xlink:title=" ">
<path fill="none" stroke="#63b8ff" d="M130.13,-49.46C146.92,-38.71 165.43,-26.87 177.58,-19.09"/>
<polygon fill="#63b8ff" stroke="#63b8ff" points="128.08,-46.61 121.55,-54.95 131.86,-52.51 128.08,-46.61"/>
</a>
</g>
</g>
</g>
</svg>
