<?xml version="1.0" encoding="UTF-8" standalone="no"?>
<!DOCTYPE svg PUBLIC "-//W3C//DTD SVG 1.1//EN"
 "http://www.w3.org/Graphics/SVG/1.1/DTD/svg11.dtd">
<!-- Generated by graphviz version 2.43.0 (0)
 -->
<!-- Title: components/sevetest30_board/include/lsm6ds3trc.h Pages: 1 -->
<svg width="494pt" height="170pt"
 viewBox="0.00 0.00 494.00 170.00" xmlns="http://www.w3.org/2000/svg" xmlns:xlink="http://www.w3.org/1999/xlink">
<g id="graph0" class="graph" transform="scale(1 1) rotate(0) translate(4 166)">
<title>components/sevetest30_board/include/lsm6ds3trc.h</title>
<!-- Node1 -->
<g id="Node000001" class="node">
<title>Node1</title>
<g id="a_Node000001"><a xlink:title=" ">
<polygon fill="#999999" stroke="#666666" points="387.5,-162 233.5,-162 233.5,-132 387.5,-132 387.5,-162"/>
<text text-anchor="start" x="241.5" y="-150" font-family="Helvetica,sans-Serif" font-size="10.00">components/sevetest30</text>
<text text-anchor="middle" x="310.5" y="-139" font-family="Helvetica,sans-Serif" font-size="10.00">_board/include/lsm6ds3trc.h</text>
</a>
</g>
</g>
<!-- Node2 -->
<g id="Node000002" class="node">
<title>Node2</title>
<g id="a_Node000002"><a xlink:href="sevetest30___s_w_e_d_a_8h.html" target="_top" xlink:title=" ">
<polygon fill="white" stroke="#666666" points="242,-96 97,-96 97,-55 242,-55 242,-96"/>
<text text-anchor="start" x="105" y="-84" font-family="Helvetica,sans-Serif" font-size="10.00">components/sevetest30</text>
<text text-anchor="start" x="105" y="-73" font-family="Helvetica,sans-Serif" font-size="10.00">_board/include/sevetest30</text>
<text text-anchor="middle" x="169.5" y="-62" font-family="Helvetica,sans-Serif" font-size="10.00">_SWEDA.h</text>
</a>
</g>
</g>
<!-- Node1&#45;&gt;Node2 -->
<g id="edge1_Node000001_Node000002" class="edge">
<title>Node1&#45;&gt;Node2</title>
<g id="a_edge1_Node000001_Node000002"><a xlink:title=" ">
<path fill="none" stroke="#63b8ff" d="M272.98,-127.51C253.31,-117.81 229.2,-105.93 209.21,-96.07"/>
<polygon fill="#63b8ff" stroke="#63b8ff" points="271.45,-130.65 281.97,-131.94 274.54,-124.38 271.45,-130.65"/>
</a>
</g>
</g>
<!-- Node6 -->
<g id="Node000006" class="node">
<title>Node6</title>
<g id="a_Node000006"><a xlink:href="board__ctrl_8c.html" target="_top" xlink:title=" ">
<polygon fill="white" stroke="#666666" points="361,-85 260,-85 260,-66 361,-66 361,-85"/>
<text text-anchor="middle" x="310.5" y="-73" font-family="Helvetica,sans-Serif" font-size="10.00">main/board_ctrl.c</text>
</a>
</g>
</g>
<!-- Node1&#45;&gt;Node6 -->
<g id="edge5_Node000001_Node000006" class="edge">
<title>Node1&#45;&gt;Node6</title>
<g id="a_edge5_Node000001_Node000006"><a xlink:title=" ">
<path fill="none" stroke="#63b8ff" d="M310.5,-121.56C310.5,-108.95 310.5,-94.35 310.5,-85.27"/>
<polygon fill="#63b8ff" stroke="#63b8ff" points="307,-121.94 310.5,-131.94 314,-121.94 307,-121.94"/>
</a>
</g>
</g>
<!-- Node7 -->
<g id="Node000007" class="node">
<title>Node7</title>
<g id="a_Node000007"><a xlink:href="lsm6ds3trc_8c.html" target="_top" xlink:title=" ">
<polygon fill="white" stroke="#666666" points="486,-85 379,-85 379,-66 486,-66 486,-85"/>
<text text-anchor="middle" x="432.5" y="-73" font-family="Helvetica,sans-Serif" font-size="10.00">main/lsm6ds3trc.c</text>
</a>
</g>
</g>
<!-- Node1&#45;&gt;Node7 -->
<g id="edge6_Node000001_Node000007" class="edge">
<title>Node1&#45;&gt;Node7</title>
<g id="a_edge6_Node000001_Node000007"><a xlink:title=" ">
<path fill="none" stroke="#63b8ff" d="M344,-126.92C368.03,-113.23 399.25,-95.44 417.46,-85.07"/>
<polygon fill="#63b8ff" stroke="#63b8ff" points="342.15,-123.94 335.19,-131.94 345.61,-130.03 342.15,-123.94"/>
</a>
</g>
</g>
<!-- Node3 -->
<g id="Node000003" class="node">
<title>Node3</title>
<g id="a_Node000003"><a xlink:href="main_8c.html" target="_top" xlink:title=" ">
<polygon fill="white" stroke="#666666" points="77,-19 0,-19 0,0 77,0 77,-19"/>
<text text-anchor="middle" x="38.5" y="-7" font-family="Helvetica,sans-Serif" font-size="10.00">main/main.c</text>
</a>
</g>
</g>
<!-- Node2&#45;&gt;Node3 -->
<g id="edge2_Node000002_Node000003" class="edge">
<title>Node2&#45;&gt;Node3</title>
<g id="a_edge2_Node000002_Node000003"><a xlink:title=" ">
<path fill="none" stroke="#63b8ff" d="M120.35,-50.49C97.81,-39.48 72.51,-27.12 56.09,-19.09"/>
<polygon fill="#63b8ff" stroke="#63b8ff" points="118.96,-53.71 129.48,-54.95 122.04,-47.42 118.96,-53.71"/>
</a>
</g>
</g>
<!-- Node4 -->
<g id="Node000004" class="node">
<title>Node4</title>
<g id="a_Node000004"><a xlink:href="sevetest30___s_w_e_d_a_8c.html" target="_top" xlink:title=" ">
<polygon fill="white" stroke="#666666" points="243.5,-19 95.5,-19 95.5,0 243.5,0 243.5,-19"/>
<text text-anchor="middle" x="169.5" y="-7" font-family="Helvetica,sans-Serif" font-size="10.00">main/sevetest30_SWEDA.c</text>
</a>
</g>
</g>
<!-- Node2&#45;&gt;Node4 -->
<g id="edge3_Node000002_Node000004" class="edge">
<title>Node2&#45;&gt;Node4</title>
<g id="a_edge3_Node000002_Node000004"><a xlink:title=" ">
<path fill="none" stroke="#63b8ff" d="M169.5,-44.74C169.5,-35.45 169.5,-25.9 169.5,-19.26"/>
<polygon fill="#63b8ff" stroke="#63b8ff" points="166,-44.95 169.5,-54.95 173,-44.95 166,-44.95"/>
</a>
</g>
</g>
<!-- Node5 -->
<g id="Node000005" class="node">
<title>Node5</title>
<g id="a_Node000005"><a xlink:href="sevetest30___u_i_8c.html" target="_top" xlink:title=" ">
<polygon fill="white" stroke="#666666" points="383.5,-19 261.5,-19 261.5,0 383.5,0 383.5,-19"/>
<text text-anchor="middle" x="322.5" y="-7" font-family="Helvetica,sans-Serif" font-size="10.00">main/sevetest30_UI.c</text>
</a>
</g>
</g>
<!-- Node2&#45;&gt;Node5 -->
<g id="edge4_Node000002_Node000005" class="edge">
<title>Node2&#45;&gt;Node5</title>
<g id="a_edge4_Node000002_Node000005"><a xlink:title=" ">
<path fill="none" stroke="#63b8ff" d="M225.5,-51.08C252.17,-39.92 282.43,-27.26 301.96,-19.09"/>
<polygon fill="#63b8ff" stroke="#63b8ff" points="224.11,-47.86 216.24,-54.95 226.81,-54.32 224.11,-47.86"/>
</a>
</g>
</g>
</g>
</svg>
