<?xml version="1.0" encoding="UTF-8" standalone="no"?>
<!DOCTYPE svg PUBLIC "-//W3C//DTD SVG 1.1//EN"
 "http://www.w3.org/Graphics/SVG/1.1/DTD/svg11.dtd">
<!-- Generated by graphviz version 2.43.0 (0)
 -->
<!-- Title: main/math_tools_fp64.c Pages: 1 -->
<svg width="860pt" height="137pt"
 viewBox="0.00 0.00 860.00 137.00" xmlns="http://www.w3.org/2000/svg" xmlns:xlink="http://www.w3.org/1999/xlink">
<g id="graph0" class="graph" transform="scale(1 1) rotate(0) translate(4 133)">
<title>main/math_tools_fp64.c</title>
<!-- Node1 -->
<g id="Node000001" class="node">
<title>Node1</title>
<g id="a_Node000001"><a xlink:title=" ">
<polygon fill="#999999" stroke="#666666" points="520.5,-129 386.5,-129 386.5,-110 520.5,-110 520.5,-129"/>
<text text-anchor="middle" x="453.5" y="-117" font-family="Helvetica,sans-Serif" font-size="10.00">main/math_tools_fp64.c</text>
</a>
</g>
</g>
<!-- Node2 -->
<g id="Node000002" class="node">
<title>Node2</title>
<g id="a_Node000002"><a xlink:href="math__tools__fp64_8h.html" target="_top" xlink:title=" ">
<polygon fill="white" stroke="#666666" points="107,-74 0,-74 0,-55 107,-55 107,-74"/>
<text text-anchor="middle" x="53.5" y="-62" font-family="Helvetica,sans-Serif" font-size="10.00">math_tools_fp64.h</text>
</a>
</g>
</g>
<!-- Node1&#45;&gt;Node2 -->
<g id="edge1_Node000001_Node000002" class="edge">
<title>Node1&#45;&gt;Node2</title>
<g id="a_edge1_Node000001_Node000002"><a xlink:title=" ">
<path fill="none" stroke="#63b8ff" d="M388.57,-109.98C322.89,-101.35 218.14,-87.55 117.19,-74.09"/>
<polygon fill="#63b8ff" stroke="#63b8ff" points="117.49,-70.6 107.11,-72.74 116.56,-77.54 117.49,-70.6"/>
</a>
</g>
</g>
<!-- Node4 -->
<g id="Node000004" class="node">
<title>Node4</title>
<g id="a_Node000004"><a xlink:title=" ">
<polygon fill="#e0e0e0" stroke="#999999" points="186,-74 125,-74 125,-55 186,-55 186,-74"/>
<text text-anchor="middle" x="155.5" y="-62" font-family="Helvetica,sans-Serif" font-size="10.00">esp_err.h</text>
</a>
</g>
</g>
<!-- Node1&#45;&gt;Node4 -->
<g id="edge3_Node000001_Node000004" class="edge">
<title>Node1&#45;&gt;Node4</title>
<g id="a_edge3_Node000001_Node000004"><a xlink:title=" ">
<path fill="none" stroke="#63b8ff" d="M400.52,-109.98C350.43,-101.78 272.93,-88.74 195.93,-74.02"/>
<polygon fill="#63b8ff" stroke="#63b8ff" points="196.53,-70.57 186.05,-72.12 195.21,-77.44 196.53,-70.57"/>
</a>
</g>
</g>
<!-- Node5 -->
<g id="Node000005" class="node">
<title>Node5</title>
<g id="a_Node000005"><a xlink:title=" ">
<polygon fill="#e0e0e0" stroke="#999999" points="281,-74 204,-74 204,-55 281,-55 281,-74"/>
<text text-anchor="middle" x="242.5" y="-62" font-family="Helvetica,sans-Serif" font-size="10.00">esp_check.h</text>
</a>
</g>
</g>
<!-- Node1&#45;&gt;Node5 -->
<g id="edge4_Node000001_Node000005" class="edge">
<title>Node1&#45;&gt;Node5</title>
<g id="a_edge4_Node000001_Node000005"><a xlink:title=" ">
<path fill="none" stroke="#63b8ff" d="M419.6,-109.98C383.48,-100.91 326.18,-86.52 286.58,-76.57"/>
<polygon fill="#63b8ff" stroke="#63b8ff" points="287.22,-73.12 276.67,-74.08 285.51,-79.91 287.22,-73.12"/>
</a>
</g>
</g>
<!-- Node6 -->
<g id="Node000006" class="node">
<title>Node6</title>
<g id="a_Node000006"><a xlink:title=" ">
<polygon fill="#e0e0e0" stroke="#999999" points="362,-74 299,-74 299,-55 362,-55 362,-74"/>
<text text-anchor="middle" x="330.5" y="-62" font-family="Helvetica,sans-Serif" font-size="10.00">esp_log.h</text>
</a>
</g>
</g>
<!-- Node1&#45;&gt;Node6 -->
<g id="edge5_Node000001_Node000006" class="edge">
<title>Node1&#45;&gt;Node6</title>
<g id="a_edge5_Node000001_Node000006"><a xlink:title=" ">
<path fill="none" stroke="#63b8ff" d="M433.74,-109.98C413.77,-101.38 382.7,-87.99 359.85,-78.15"/>
<polygon fill="#63b8ff" stroke="#63b8ff" points="361.19,-74.91 350.62,-74.17 358.42,-81.34 361.19,-74.91"/>
</a>
</g>
</g>
<!-- Node7 -->
<g id="Node000007" class="node">
<title>Node7</title>
<g id="a_Node000007"><a xlink:title=" ">
<polygon fill="#e0e0e0" stroke="#999999" points="445,-74 380,-74 380,-55 445,-55 445,-74"/>
<text text-anchor="middle" x="412.5" y="-62" font-family="Helvetica,sans-Serif" font-size="10.00">esp_dsp.h</text>
</a>
</g>
</g>
<!-- Node1&#45;&gt;Node7 -->
<g id="edge6_Node000001_Node000007" class="edge">
<title>Node1&#45;&gt;Node7</title>
<g id="a_edge6_Node000001_Node000007"><a xlink:title=" ">
<path fill="none" stroke="#63b8ff" d="M446.73,-109.75C440.94,-102.26 432.44,-91.28 425.36,-82.13"/>
<polygon fill="#63b8ff" stroke="#63b8ff" points="428.03,-79.86 419.14,-74.09 422.49,-84.14 428.03,-79.86"/>
</a>
</g>
</g>
<!-- Node8 -->
<g id="Node000008" class="node">
<title>Node8</title>
<g id="a_Node000008"><a xlink:title=" ">
<polygon fill="#e0e0e0" stroke="#999999" points="528,-74 463,-74 463,-55 528,-55 528,-74"/>
<text text-anchor="middle" x="495.5" y="-62" font-family="Helvetica,sans-Serif" font-size="10.00">esp_cpu.h</text>
</a>
</g>
</g>
<!-- Node1&#45;&gt;Node8 -->
<g id="edge7_Node000001_Node000008" class="edge">
<title>Node1&#45;&gt;Node8</title>
<g id="a_edge7_Node000001_Node000008"><a xlink:title=" ">
<path fill="none" stroke="#63b8ff" d="M460.44,-109.75C466.37,-102.26 475.07,-91.28 482.32,-82.13"/>
<polygon fill="#63b8ff" stroke="#63b8ff" points="485.23,-84.1 488.69,-74.09 479.74,-79.75 485.23,-84.1"/>
</a>
</g>
</g>
<!-- Node9 -->
<g id="Node000009" class="node">
<title>Node9</title>
<g id="a_Node000009"><a xlink:title=" ">
<polygon fill="#e0e0e0" stroke="#999999" points="608.5,-74 546.5,-74 546.5,-55 608.5,-55 608.5,-74"/>
<text text-anchor="middle" x="577.5" y="-62" font-family="Helvetica,sans-Serif" font-size="10.00">stdbool.h</text>
</a>
</g>
</g>
<!-- Node1&#45;&gt;Node9 -->
<g id="edge8_Node000001_Node000009" class="edge">
<title>Node1&#45;&gt;Node9</title>
<g id="a_edge8_Node000001_Node000009"><a xlink:title=" ">
<path fill="none" stroke="#63b8ff" d="M473.42,-109.98C493.55,-101.38 524.88,-87.99 547.91,-78.15"/>
<polygon fill="#63b8ff" stroke="#63b8ff" points="549.4,-81.32 557.21,-74.17 546.64,-74.88 549.4,-81.32"/>
</a>
</g>
</g>
<!-- Node10 -->
<g id="Node000010" class="node">
<title>Node10</title>
<g id="a_Node000010"><a xlink:title=" ">
<polygon fill="#e0e0e0" stroke="#999999" points="680,-74 627,-74 627,-55 680,-55 680,-74"/>
<text text-anchor="middle" x="653.5" y="-62" font-family="Helvetica,sans-Serif" font-size="10.00">string.h</text>
</a>
</g>
</g>
<!-- Node1&#45;&gt;Node10 -->
<g id="edge9_Node000001_Node000010" class="edge">
<title>Node1&#45;&gt;Node10</title>
<g id="a_edge9_Node000001_Node000010"><a xlink:title=" ">
<path fill="none" stroke="#63b8ff" d="M485.63,-109.98C521.46,-100.49 579.3,-85.16 616.86,-75.21"/>
<polygon fill="#63b8ff" stroke="#63b8ff" points="618.12,-78.5 626.89,-72.55 616.32,-71.73 618.12,-78.5"/>
</a>
</g>
</g>
<!-- Node11 -->
<g id="Node000011" class="node">
<title>Node11</title>
<g id="a_Node000011"><a xlink:title=" ">
<polygon fill="#e0e0e0" stroke="#999999" points="749,-74 698,-74 698,-55 749,-55 749,-74"/>
<text text-anchor="middle" x="723.5" y="-62" font-family="Helvetica,sans-Serif" font-size="10.00">math.h</text>
</a>
</g>
</g>
<!-- Node1&#45;&gt;Node11 -->
<g id="edge10_Node000001_Node000011" class="edge">
<title>Node1&#45;&gt;Node11</title>
<g id="a_edge10_Node000001_Node000011"><a xlink:title=" ">
<path fill="none" stroke="#63b8ff" d="M503.4,-109.97C549.04,-101.97 618.65,-89.27 687.73,-74.29"/>
<polygon fill="#63b8ff" stroke="#63b8ff" points="688.9,-77.62 697.92,-72.07 687.4,-70.78 688.9,-77.62"/>
</a>
</g>
</g>
<!-- Node12 -->
<g id="Node000012" class="node">
<title>Node12</title>
<g id="a_Node000012"><a xlink:title=" ">
<polygon fill="#e0e0e0" stroke="#999999" points="852,-74 767,-74 767,-55 852,-55 852,-74"/>
<text text-anchor="middle" x="809.5" y="-62" font-family="Helvetica,sans-Serif" font-size="10.00">matrix_fp64.h</text>
</a>
</g>
</g>
<!-- Node1&#45;&gt;Node12 -->
<g id="edge11_Node000001_Node000012" class="edge">
<title>Node1&#45;&gt;Node12</title>
<g id="a_edge11_Node000001_Node000012"><a xlink:title=" ">
<path fill="none" stroke="#63b8ff" d="M514.32,-110C573.69,-101.61 666.87,-88.23 756.83,-74.24"/>
<polygon fill="#63b8ff" stroke="#63b8ff" points="757.59,-77.66 766.93,-72.66 756.51,-70.74 757.59,-77.66"/>
</a>
</g>
</g>
<!-- Node3 -->
<g id="Node000003" class="node">
<title>Node3</title>
<g id="a_Node000003"><a xlink:title=" ">
<polygon fill="#e0e0e0" stroke="#999999" points="103.5,-19 3.5,-19 3.5,0 103.5,0 103.5,-19"/>
<text text-anchor="middle" x="53.5" y="-7" font-family="Helvetica,sans-Serif" font-size="10.00">esp_heap_caps.h</text>
</a>
</g>
</g>
<!-- Node2&#45;&gt;Node3 -->
<g id="edge2_Node000002_Node000003" class="edge">
<title>Node2&#45;&gt;Node3</title>
<g id="a_edge2_Node000002_Node000003"><a xlink:title=" ">
<path fill="none" stroke="#63b8ff" d="M53.5,-54.75C53.5,-47.8 53.5,-37.85 53.5,-29.13"/>
<polygon fill="#63b8ff" stroke="#63b8ff" points="57,-29.09 53.5,-19.09 50,-29.09 57,-29.09"/>
</a>
</g>
</g>
</g>
</svg>
