<?xml version="1.0" encoding="UTF-8" standalone="no"?>
<!DOCTYPE svg PUBLIC "-//W3C//DTD SVG 1.1//EN"
 "http://www.w3.org/Graphics/SVG/1.1/DTD/svg11.dtd">
<!-- Generated by graphviz version 2.43.0 (0)
 -->
<!-- Title: components/sevetest30_board/include/sdkconfig.h Pages: 1 -->
<svg width="312pt" height="93pt"
 viewBox="0.00 0.00 312.00 93.00" xmlns="http://www.w3.org/2000/svg" xmlns:xlink="http://www.w3.org/1999/xlink">
<g id="graph0" class="graph" transform="scale(1 1) rotate(0) translate(4 89)">
<title>components/sevetest30_board/include/sdkconfig.h</title>
<!-- Node1 -->
<g id="Node000001" class="node">
<title>Node1</title>
<g id="a_Node000001"><a xlink:title=" ">
<polygon fill="#999999" stroke="#666666" points="225.5,-85 79.5,-85 79.5,-55 225.5,-55 225.5,-85"/>
<text text-anchor="start" x="87.5" y="-73" font-family="Helvetica,sans-Serif" font-size="10.00">components/sevetest30</text>
<text text-anchor="middle" x="152.5" y="-62" font-family="Helvetica,sans-Serif" font-size="10.00">_board/include/sdkconfig.h</text>
</a>
</g>
</g>
<!-- Node2 -->
<g id="Node000002" class="node">
<title>Node2</title>
<g id="a_Node000002"><a xlink:href="sevetest30___i_w_e_d_a_8c.html" target="_top" xlink:title=" ">
<polygon fill="white" stroke="#666666" points="145,-19 0,-19 0,0 145,0 145,-19"/>
<text text-anchor="middle" x="72.5" y="-7" font-family="Helvetica,sans-Serif" font-size="10.00">main/sevetest30_IWEDA.c</text>
</a>
</g>
</g>
<!-- Node1&#45;&gt;Node2 -->
<g id="edge1_Node000001_Node000002" class="edge">
<title>Node1&#45;&gt;Node2</title>
<g id="a_edge1_Node000001_Node000002"><a xlink:title=" ">
<path fill="none" stroke="#63b8ff" d="M124.9,-48.82C111.11,-38.73 95.14,-27.05 84.49,-19.27"/>
<polygon fill="#63b8ff" stroke="#63b8ff" points="123,-51.76 133.13,-54.84 127.13,-46.11 123,-51.76"/>
</a>
</g>
</g>
<!-- Node3 -->
<g id="Node000003" class="node">
<title>Node3</title>
<g id="a_Node000003"><a xlink:href="sevetest30__sound_8c.html" target="_top" xlink:title=" ">
<polygon fill="white" stroke="#666666" points="304,-19 163,-19 163,0 304,0 304,-19"/>
<text text-anchor="middle" x="233.5" y="-7" font-family="Helvetica,sans-Serif" font-size="10.00">main/sevetest30_sound.c</text>
</a>
</g>
</g>
<!-- Node1&#45;&gt;Node3 -->
<g id="edge2_Node000001_Node000003" class="edge">
<title>Node1&#45;&gt;Node3</title>
<g id="a_edge2_Node000001_Node000003"><a xlink:title=" ">
<path fill="none" stroke="#63b8ff" d="M180.45,-48.82C194.41,-38.73 210.58,-27.05 221.36,-19.27"/>
<polygon fill="#63b8ff" stroke="#63b8ff" points="178.17,-46.15 172.11,-54.84 182.26,-51.82 178.17,-46.15"/>
</a>
</g>
</g>
</g>
</svg>
