<?xml version="1.0" encoding="UTF-8" standalone="no"?>
<!DOCTYPE svg PUBLIC "-//W3C//DTD SVG 1.1//EN"
 "http://www.w3.org/Graphics/SVG/1.1/DTD/svg11.dtd">
<!-- Generated by graphviz version 2.43.0 (0)
 -->
<!-- Title: main/sevetest30_sound.c Pages: 1 -->
<svg width="3990pt" height="302pt"
 viewBox="0.00 0.00 3989.50 302.00" xmlns="http://www.w3.org/2000/svg" xmlns:xlink="http://www.w3.org/1999/xlink">
<g id="graph0" class="graph" transform="scale(1 1) rotate(0) translate(4 298)">
<title>main/sevetest30_sound.c</title>
<!-- Node1 -->
<g id="Node000001" class="node">
<title>Node1</title>
<g id="a_Node000001"><a xlink:title=" ">
<polygon fill="#999999" stroke="#666666" points="2172,-294 2031,-294 2031,-275 2172,-275 2172,-294"/>
<text text-anchor="middle" x="2101.5" y="-282" font-family="Helvetica,sans-Serif" font-size="10.00">main/sevetest30_sound.c</text>
</a>
</g>
</g>
<!-- Node2 -->
<g id="Node000002" class="node">
<title>Node2</title>
<g id="a_Node000002"><a xlink:href="sevetest30__sound_8h.html" target="_top" xlink:title=" ">
<polygon fill="white" stroke="#666666" points="577.5,-239 463.5,-239 463.5,-220 577.5,-220 577.5,-239"/>
<text text-anchor="middle" x="520.5" y="-227" font-family="Helvetica,sans-Serif" font-size="10.00">sevetest30_sound.h</text>
</a>
</g>
</g>
<!-- Node1&#45;&gt;Node2 -->
<g id="edge1_Node000001_Node000002" class="edge">
<title>Node1&#45;&gt;Node2</title>
<g id="a_edge1_Node000001_Node000002"><a xlink:title=" ">
<path fill="none" stroke="#63b8ff" d="M2030.96,-281.45C1828.09,-275.49 1225.59,-257.45 725.5,-239 679.66,-237.31 628.05,-235.17 588.09,-233.46"/>
<polygon fill="#63b8ff" stroke="#63b8ff" points="588.07,-229.95 577.93,-233.02 587.77,-236.95 588.07,-229.95"/>
</a>
</g>
</g>
<!-- Node6 -->
<g id="Node000006" class="node">
<title>Node6</title>
<g id="a_Node000006"><a xlink:title=" ">
<polygon fill="#e0e0e0" stroke="#999999" points="407,-184 292,-184 292,-165 407,-165 407,-184"/>
<text text-anchor="middle" x="349.5" y="-172" font-family="Helvetica,sans-Serif" font-size="10.00">audio_event_iface.h</text>
</a>
</g>
</g>
<!-- Node1&#45;&gt;Node6 -->
<g id="edge44_Node000001_Node000006" class="edge">
<title>Node1&#45;&gt;Node6</title>
<g id="a_edge44_Node000001_Node000006"><a xlink:title=" ">
<path fill="none" stroke="#63b8ff" d="M2030.62,-283.72C1734.8,-284.34 606.91,-283.73 454.5,-239 421.02,-229.18 387.41,-205.93 367.53,-190.46"/>
<polygon fill="#63b8ff" stroke="#63b8ff" points="369.65,-187.68 359.66,-184.17 365.29,-193.15 369.65,-187.68"/>
</a>
</g>
</g>
<!-- Node7 -->
<g id="Node000007" class="node">
<title>Node7</title>
<g id="a_Node000007"><a xlink:href="sevetest30___i_w_e_d_a_8h.html" target="_top" xlink:title=" ">
<polygon fill="white" stroke="#666666" points="204.5,-239 86.5,-239 86.5,-220 204.5,-220 204.5,-239"/>
<text text-anchor="middle" x="145.5" y="-227" font-family="Helvetica,sans-Serif" font-size="10.00">sevetest30_IWEDA.h</text>
</a>
</g>
</g>
<!-- Node1&#45;&gt;Node7 -->
<g id="edge6_Node000001_Node000007" class="edge">
<title>Node1&#45;&gt;Node7</title>
<g id="a_edge6_Node000001_Node000007"><a xlink:title=" ">
<path fill="none" stroke="#63b8ff" d="M2030.72,-282.51C1789.05,-278.95 974.23,-265.64 301.5,-239 273.14,-237.88 241.9,-236.25 214.88,-234.72"/>
<polygon fill="#63b8ff" stroke="#63b8ff" points="214.93,-231.22 204.74,-234.14 214.53,-238.21 214.93,-231.22"/>
</a>
</g>
</g>
<!-- Node8 -->
<g id="Node000008" class="node">
<title>Node8</title>
<g id="a_Node000008"><a xlink:title=" ">
<polygon fill="#e0e0e0" stroke="#999999" points="79,-184 0,-184 0,-165 79,-165 79,-184"/>
<text text-anchor="middle" x="39.5" y="-172" font-family="Helvetica,sans-Serif" font-size="10.00">periph_wifi.h</text>
</a>
</g>
</g>
<!-- Node1&#45;&gt;Node8 -->
<g id="edge62_Node000001_Node000008" class="edge">
<title>Node1&#45;&gt;Node8</title>
<g id="a_edge62_Node000001_Node000008"><a xlink:title=" ">
<path fill="none" stroke="#63b8ff" d="M2030.83,-282.88C1677.82,-279.66 120.59,-264.06 77.5,-239 60.88,-229.33 50.7,-209.26 45.12,-194.26"/>
<polygon fill="#63b8ff" stroke="#63b8ff" points="48.33,-192.82 41.84,-184.45 41.69,-195.05 48.33,-192.82"/>
</a>
</g>
</g>
<!-- Node9 -->
<g id="Node000009" class="node">
<title>Node9</title>
<g id="a_Node000009"><a xlink:title=" ">
<polygon fill="#e0e0e0" stroke="#999999" points="273.5,-184 173.5,-184 173.5,-165 273.5,-165 273.5,-184"/>
<text text-anchor="middle" x="223.5" y="-172" font-family="Helvetica,sans-Serif" font-size="10.00">esp_http_client.h</text>
</a>
</g>
</g>
<!-- Node1&#45;&gt;Node9 -->
<g id="edge63_Node000001_Node000009" class="edge">
<title>Node1&#45;&gt;Node9</title>
<g id="a_edge63_Node000001_Node000009"><a xlink:title=" ">
<path fill="none" stroke="#63b8ff" d="M2030.89,-282.91C1730.83,-280.23 569.54,-268.05 408.5,-239 350.92,-228.61 287.04,-203.44 251.43,-188.09"/>
<polygon fill="#63b8ff" stroke="#63b8ff" points="252.73,-184.84 242.16,-184.05 249.93,-191.26 252.73,-184.84"/>
</a>
</g>
</g>
<!-- Node10 -->
<g id="Node000010" class="node">
<title>Node10</title>
<g id="a_Node000010"><a xlink:title=" ">
<polygon fill="#e0e0e0" stroke="#999999" points="746,-19 685,-19 685,0 746,0 746,-19"/>
<text text-anchor="middle" x="715.5" y="-7" font-family="Helvetica,sans-Serif" font-size="10.00">esp_err.h</text>
</a>
</g>
</g>
<!-- Node1&#45;&gt;Node10 -->
<g id="edge39_Node000001_Node000010" class="edge">
<title>Node1&#45;&gt;Node10</title>
<g id="a_edge39_Node000001_Node000010"><a xlink:title=" ">
<path fill="none" stroke="#63b8ff" d="M2030.95,-283.75C1883.23,-283.42 1530.87,-278.18 1238.5,-239 1210.09,-235.19 754.19,-149.82 734.5,-129 708.94,-101.97 709.79,-54.99 712.65,-29.04"/>
<polygon fill="#63b8ff" stroke="#63b8ff" points="716.13,-29.41 713.97,-19.04 709.19,-28.5 716.13,-29.41"/>
</a>
</g>
</g>
<!-- Node11 -->
<g id="Node000011" class="node">
<title>Node11</title>
<g id="a_Node000011"><a xlink:href="sevetest30___u_i_8h.html" target="_top" xlink:title=" ">
<polygon fill="white" stroke="#666666" points="829,-239 734,-239 734,-220 829,-220 829,-239"/>
<text text-anchor="middle" x="781.5" y="-227" font-family="Helvetica,sans-Serif" font-size="10.00">sevetest30_UI.h</text>
</a>
</g>
</g>
<!-- Node1&#45;&gt;Node11 -->
<g id="edge11_Node000001_Node000011" class="edge">
<title>Node1&#45;&gt;Node11</title>
<g id="a_edge11_Node000001_Node000011"><a xlink:title=" ">
<path fill="none" stroke="#63b8ff" d="M2030.79,-281.71C1845.42,-276.83 1330.08,-262.12 901.5,-239 881.17,-237.9 858.91,-236.41 839.15,-234.98"/>
<polygon fill="#63b8ff" stroke="#63b8ff" points="839.3,-231.48 829.07,-234.24 838.79,-238.46 839.3,-231.48"/>
</a>
</g>
</g>
<!-- Node12 -->
<g id="Node000012" class="node">
<title>Node12</title>
<g id="a_Node000012"><a xlink:title=" ">
<polygon fill="#e0e0e0" stroke="#999999" points="1267,-19 1214,-19 1214,0 1267,0 1267,-19"/>
<text text-anchor="middle" x="1240.5" y="-7" font-family="Helvetica,sans-Serif" font-size="10.00">string.h</text>
</a>
</g>
</g>
<!-- Node1&#45;&gt;Node12 -->
<g id="edge52_Node000001_Node000012" class="edge">
<title>Node1&#45;&gt;Node12</title>
<g id="a_edge52_Node000001_Node000012"><a xlink:title=" ">
<path fill="none" stroke="#63b8ff" d="M2030.9,-282C1845.64,-277.72 1358.2,-264.12 1334.5,-239 1328.7,-232.86 1329.09,-226.48 1334.5,-220 1370.68,-176.64 1798.32,-172.36 1834.5,-129 1839.91,-122.52 1839.76,-116.61 1834.5,-110 1764.73,-22.35 1395.58,-11.72 1277.12,-10.58"/>
<polygon fill="#63b8ff" stroke="#63b8ff" points="1277.12,-7.08 1267.1,-10.5 1277.07,-14.08 1277.12,-7.08"/>
</a>
</g>
</g>
<!-- Node14 -->
<g id="Node000014" class="node">
<title>Node14</title>
<g id="a_Node000014"><a xlink:href="board__ctrl_8h.html" target="_top" xlink:title=" ">
<polygon fill="white" stroke="#666666" points="1256.5,-184 1182.5,-184 1182.5,-165 1256.5,-165 1256.5,-184"/>
<text text-anchor="middle" x="1219.5" y="-172" font-family="Helvetica,sans-Serif" font-size="10.00">board_ctrl.h</text>
</a>
</g>
</g>
<!-- Node1&#45;&gt;Node14 -->
<g id="edge40_Node000001_Node000014" class="edge">
<title>Node1&#45;&gt;Node14</title>
<g id="a_edge40_Node000001_Node000014"><a xlink:title=" ">
<path fill="none" stroke="#63b8ff" d="M2030.8,-283.28C1840.9,-282.21 1329.62,-275.89 1263.5,-239 1245.8,-229.12 1233.66,-208.78 1226.69,-193.77"/>
<polygon fill="#63b8ff" stroke="#63b8ff" points="1229.84,-192.23 1222.68,-184.42 1223.41,-194.99 1229.84,-192.23"/>
</a>
</g>
</g>
<!-- Node24 -->
<g id="Node000024" class="node">
<title>Node24</title>
<g id="a_Node000024"><a xlink:title=" ">
<polygon fill="#e0e0e0" stroke="#999999" points="1825,-129 1722,-129 1722,-110 1825,-110 1825,-129"/>
<text text-anchor="middle" x="1773.5" y="-117" font-family="Helvetica,sans-Serif" font-size="10.00">esp_peripherals.h</text>
</a>
</g>
</g>
<!-- Node1&#45;&gt;Node24 -->
<g id="edge61_Node000001_Node000024" class="edge">
<title>Node1&#45;&gt;Node24</title>
<g id="a_edge61_Node000001_Node000024"><a xlink:title=" ">
<path fill="none" stroke="#63b8ff" d="M2030.98,-282.18C1840.18,-278.26 1326.38,-265.31 1301.5,-239 1295.7,-232.87 1296.18,-226.56 1301.5,-220 1314.6,-203.85 1591.62,-152.84 1715.05,-130.81"/>
<polygon fill="#63b8ff" stroke="#63b8ff" points="1715.85,-134.22 1725.09,-129.02 1714.63,-127.33 1715.85,-134.22"/>
</a>
</g>
</g>
<!-- Node26 -->
<g id="Node000026" class="node">
<title>Node26</title>
<g id="a_Node000026"><a xlink:title=" ">
<polygon fill="#e0e0e0" stroke="#999999" points="1427.5,-239 1343.5,-239 1343.5,-220 1427.5,-220 1427.5,-239"/>
<text text-anchor="middle" x="1385.5" y="-227" font-family="Helvetica,sans-Serif" font-size="10.00">esp_system.h</text>
</a>
</g>
</g>
<!-- Node1&#45;&gt;Node26 -->
<g id="edge36_Node000001_Node000026" class="edge">
<title>Node1&#45;&gt;Node26</title>
<g id="a_edge36_Node000001_Node000026"><a xlink:title=" ">
<path fill="none" stroke="#63b8ff" d="M2030.55,-280.96C1910.71,-276.19 1660.44,-264.12 1437.98,-238.92"/>
<polygon fill="#63b8ff" stroke="#63b8ff" points="1438.07,-235.41 1427.74,-237.75 1437.28,-242.36 1438.07,-235.41"/>
</a>
</g>
</g>
<!-- Node27 -->
<g id="Node000027" class="node">
<title>Node27</title>
<g id="a_Node000027"><a xlink:title=" ">
<polygon fill="#e0e0e0" stroke="#999999" points="1515,-239 1446,-239 1446,-220 1515,-220 1515,-239"/>
<text text-anchor="middle" x="1480.5" y="-227" font-family="Helvetica,sans-Serif" font-size="10.00">esp_mac.h</text>
</a>
</g>
</g>
<!-- Node1&#45;&gt;Node27 -->
<g id="edge37_Node000001_Node000027" class="edge">
<title>Node1&#45;&gt;Node27</title>
<g id="a_edge37_Node000001_Node000027"><a xlink:title=" ">
<path fill="none" stroke="#63b8ff" d="M2030.61,-280.63C1923.41,-275.73 1713.51,-263.87 1525.12,-238.91"/>
<polygon fill="#63b8ff" stroke="#63b8ff" points="1525.4,-235.41 1515.03,-237.55 1524.47,-242.35 1525.4,-235.41"/>
</a>
</g>
</g>
<!-- Node28 -->
<g id="Node000028" class="node">
<title>Node28</title>
<g id="a_Node000028"><a xlink:title=" ">
<polygon fill="#e0e0e0" stroke="#999999" points="1596,-239 1533,-239 1533,-220 1596,-220 1596,-239"/>
<text text-anchor="middle" x="1564.5" y="-227" font-family="Helvetica,sans-Serif" font-size="10.00">esp_log.h</text>
</a>
</g>
</g>
<!-- Node1&#45;&gt;Node28 -->
<g id="edge38_Node000001_Node000028" class="edge">
<title>Node1&#45;&gt;Node28</title>
<g id="a_edge38_Node000001_Node000028"><a xlink:title=" ">
<path fill="none" stroke="#63b8ff" d="M2030.97,-279.73C1936.59,-274.12 1763.86,-261.85 1606.56,-238.97"/>
<polygon fill="#63b8ff" stroke="#63b8ff" points="1606.62,-235.45 1596.22,-237.45 1605.6,-242.37 1606.62,-235.45"/>
</a>
</g>
</g>
<!-- Node29 -->
<g id="Node000029" class="node">
<title>Node29</title>
<g id="a_Node000029"><a xlink:href="sdkconfig_8h.html" target="_top" xlink:title=" ">
<polygon fill="white" stroke="#666666" points="1686.5,-239 1614.5,-239 1614.5,-220 1686.5,-220 1686.5,-239"/>
<text text-anchor="middle" x="1650.5" y="-227" font-family="Helvetica,sans-Serif" font-size="10.00">sdkconfig.h</text>
</a>
</g>
</g>
<!-- Node1&#45;&gt;Node29 -->
<g id="edge41_Node000001_Node000029" class="edge">
<title>Node1&#45;&gt;Node29</title>
<g id="a_edge41_Node000001_Node000029"><a xlink:title=" ">
<path fill="none" stroke="#63b8ff" d="M2030.87,-277.43C1951.85,-270.27 1819.81,-257.17 1696.78,-239.09"/>
<polygon fill="#63b8ff" stroke="#63b8ff" points="1697.21,-235.61 1686.81,-237.61 1696.19,-242.54 1697.21,-235.61"/>
</a>
</g>
</g>
<!-- Node30 -->
<g id="Node000030" class="node">
<title>Node30</title>
<g id="a_Node000030"><a xlink:title=" ">
<polygon fill="#e0e0e0" stroke="#999999" points="1802.5,-239 1704.5,-239 1704.5,-220 1802.5,-220 1802.5,-239"/>
<text text-anchor="middle" x="1753.5" y="-227" font-family="Helvetica,sans-Serif" font-size="10.00">audio_element.h</text>
</a>
</g>
</g>
<!-- Node1&#45;&gt;Node30 -->
<g id="edge42_Node000001_Node000030" class="edge">
<title>Node1&#45;&gt;Node30</title>
<g id="a_edge42_Node000001_Node000030"><a xlink:title=" ">
<path fill="none" stroke="#63b8ff" d="M2045.59,-274.98C1981.76,-265.26 1877.78,-249.43 1812.63,-239.51"/>
<polygon fill="#63b8ff" stroke="#63b8ff" points="1812.94,-236.01 1802.52,-237.97 1811.88,-242.93 1812.94,-236.01"/>
</a>
</g>
</g>
<!-- Node31 -->
<g id="Node000031" class="node">
<title>Node31</title>
<g id="a_Node000031"><a xlink:title=" ">
<polygon fill="#e0e0e0" stroke="#999999" points="1918,-239 1821,-239 1821,-220 1918,-220 1918,-239"/>
<text text-anchor="middle" x="1869.5" y="-227" font-family="Helvetica,sans-Serif" font-size="10.00">audio_pipeline.h</text>
</a>
</g>
</g>
<!-- Node1&#45;&gt;Node31 -->
<g id="edge43_Node000001_Node000031" class="edge">
<title>Node1&#45;&gt;Node31</title>
<g id="a_edge43_Node000001_Node000031"><a xlink:title=" ">
<path fill="none" stroke="#63b8ff" d="M2064.23,-274.98C2024.18,-265.84 1960.43,-251.27 1916.86,-241.32"/>
<polygon fill="#63b8ff" stroke="#63b8ff" points="1917.6,-237.9 1907.07,-239.08 1916.04,-244.72 1917.6,-237.9"/>
</a>
</g>
</g>
<!-- Node32 -->
<g id="Node000032" class="node">
<title>Node32</title>
<g id="a_Node000032"><a xlink:title=" ">
<polygon fill="#e0e0e0" stroke="#999999" points="2037,-239 1936,-239 1936,-220 2037,-220 2037,-239"/>
<text text-anchor="middle" x="1986.5" y="-227" font-family="Helvetica,sans-Serif" font-size="10.00">audio_common.h</text>
</a>
</g>
</g>
<!-- Node1&#45;&gt;Node32 -->
<g id="edge45_Node000001_Node000032" class="edge">
<title>Node1&#45;&gt;Node32</title>
<g id="a_edge45_Node000001_Node000032"><a xlink:title=" ">
<path fill="none" stroke="#63b8ff" d="M2083.02,-274.98C2064.52,-266.46 2035.82,-253.23 2014.52,-243.41"/>
<polygon fill="#63b8ff" stroke="#63b8ff" points="2015.86,-240.18 2005.31,-239.17 2012.93,-246.53 2015.86,-240.18"/>
</a>
</g>
</g>
<!-- Node33 -->
<g id="Node000033" class="node">
<title>Node33</title>
<g id="a_Node000033"><a xlink:title=" ">
<polygon fill="#e0e0e0" stroke="#999999" points="2147.5,-239 2055.5,-239 2055.5,-220 2147.5,-220 2147.5,-239"/>
<text text-anchor="middle" x="2101.5" y="-227" font-family="Helvetica,sans-Serif" font-size="10.00">esp_wn_iface.h</text>
</a>
</g>
</g>
<!-- Node1&#45;&gt;Node33 -->
<g id="edge46_Node000001_Node000033" class="edge">
<title>Node1&#45;&gt;Node33</title>
<g id="a_edge46_Node000001_Node000033"><a xlink:title=" ">
<path fill="none" stroke="#63b8ff" d="M2101.5,-274.75C2101.5,-267.8 2101.5,-257.85 2101.5,-249.13"/>
<polygon fill="#63b8ff" stroke="#63b8ff" points="2105,-249.09 2101.5,-239.09 2098,-249.09 2105,-249.09"/>
</a>
</g>
</g>
<!-- Node34 -->
<g id="Node000034" class="node">
<title>Node34</title>
<g id="a_Node000034"><a xlink:title=" ">
<polygon fill="#e0e0e0" stroke="#999999" points="2269.5,-239 2165.5,-239 2165.5,-220 2269.5,-220 2269.5,-239"/>
<text text-anchor="middle" x="2217.5" y="-227" font-family="Helvetica,sans-Serif" font-size="10.00">esp_wn_models.h</text>
</a>
</g>
</g>
<!-- Node1&#45;&gt;Node34 -->
<g id="edge47_Node000001_Node000034" class="edge">
<title>Node1&#45;&gt;Node34</title>
<g id="a_edge47_Node000001_Node000034"><a xlink:title=" ">
<path fill="none" stroke="#63b8ff" d="M2120.14,-274.98C2138.8,-266.46 2167.75,-253.23 2189.24,-243.41"/>
<polygon fill="#63b8ff" stroke="#63b8ff" points="2190.88,-246.51 2198.52,-239.17 2187.97,-240.14 2190.88,-246.51"/>
</a>
</g>
</g>
<!-- Node35 -->
<g id="Node000035" class="node">
<title>Node35</title>
<g id="a_Node000035"><a xlink:title=" ">
<polygon fill="#e0e0e0" stroke="#999999" points="2407,-239 2288,-239 2288,-220 2407,-220 2407,-239"/>
<text text-anchor="middle" x="2347.5" y="-227" font-family="Helvetica,sans-Serif" font-size="10.00">esp_afe_sr_models.h</text>
</a>
</g>
</g>
<!-- Node1&#45;&gt;Node35 -->
<g id="edge48_Node000001_Node000035" class="edge">
<title>Node1&#45;&gt;Node35</title>
<g id="a_edge48_Node000001_Node000035"><a xlink:title=" ">
<path fill="none" stroke="#63b8ff" d="M2141.02,-274.98C2183.67,-265.8 2251.65,-251.15 2297.86,-241.19"/>
<polygon fill="#63b8ff" stroke="#63b8ff" points="2298.63,-244.61 2307.67,-239.08 2297.15,-237.77 2298.63,-244.61"/>
</a>
</g>
</g>
<!-- Node36 -->
<g id="Node000036" class="node">
<title>Node36</title>
<g id="a_Node000036"><a xlink:title=" ">
<polygon fill="#e0e0e0" stroke="#999999" points="2518,-239 2425,-239 2425,-220 2518,-220 2518,-239"/>
<text text-anchor="middle" x="2471.5" y="-227" font-family="Helvetica,sans-Serif" font-size="10.00">esp_mn_iface.h</text>
</a>
</g>
</g>
<!-- Node1&#45;&gt;Node36 -->
<g id="edge49_Node000001_Node000036" class="edge">
<title>Node1&#45;&gt;Node36</title>
<g id="a_edge49_Node000001_Node000036"><a xlink:title=" ">
<path fill="none" stroke="#63b8ff" d="M2163.4,-275C2224.77,-266.51 2321.76,-252.96 2415.1,-239.19"/>
<polygon fill="#63b8ff" stroke="#63b8ff" points="2415.61,-242.65 2425,-237.73 2414.59,-235.73 2415.61,-242.65"/>
</a>
</g>
</g>
<!-- Node37 -->
<g id="Node000037" class="node">
<title>Node37</title>
<g id="a_Node000037"><a xlink:title=" ">
<polygon fill="#e0e0e0" stroke="#999999" points="2641,-239 2536,-239 2536,-220 2641,-220 2641,-239"/>
<text text-anchor="middle" x="2588.5" y="-227" font-family="Helvetica,sans-Serif" font-size="10.00">esp_mn_models.h</text>
</a>
</g>
</g>
<!-- Node1&#45;&gt;Node37 -->
<g id="edge50_Node000001_Node000037" class="edge">
<title>Node1&#45;&gt;Node37</title>
<g id="a_edge50_Node000001_Node000037"><a xlink:title=" ">
<path fill="none" stroke="#63b8ff" d="M2172.06,-276.88C2254.48,-268.98 2395.2,-254.96 2525.76,-239.18"/>
<polygon fill="#63b8ff" stroke="#63b8ff" points="2526.44,-242.62 2535.94,-237.94 2525.59,-235.67 2526.44,-242.62"/>
</a>
</g>
</g>
<!-- Node38 -->
<g id="Node000038" class="node">
<title>Node38</title>
<g id="a_Node000038"><a xlink:title=" ">
<polygon fill="#e0e0e0" stroke="#999999" points="2742,-239 2659,-239 2659,-220 2742,-220 2742,-239"/>
<text text-anchor="middle" x="2700.5" y="-227" font-family="Helvetica,sans-Serif" font-size="10.00">model_path.h</text>
</a>
</g>
</g>
<!-- Node1&#45;&gt;Node38 -->
<g id="edge51_Node000001_Node000038" class="edge">
<title>Node1&#45;&gt;Node38</title>
<g id="a_edge51_Node000001_Node000038"><a xlink:title=" ">
<path fill="none" stroke="#63b8ff" d="M2172.33,-279.75C2275.17,-273.85 2472,-260.92 2648.79,-239.12"/>
<polygon fill="#63b8ff" stroke="#63b8ff" points="2649.31,-242.58 2658.8,-237.87 2648.44,-235.63 2649.31,-242.58"/>
</a>
</g>
</g>
<!-- Node39 -->
<g id="Node000039" class="node">
<title>Node39</title>
<g id="a_Node000039"><a xlink:title=" ">
<polygon fill="#e0e0e0" stroke="#999999" points="2845,-239 2760,-239 2760,-220 2845,-220 2845,-239"/>
<text text-anchor="middle" x="2802.5" y="-227" font-family="Helvetica,sans-Serif" font-size="10.00">http_stream.h</text>
</a>
</g>
</g>
<!-- Node1&#45;&gt;Node39 -->
<g id="edge53_Node000001_Node000039" class="edge">
<title>Node1&#45;&gt;Node39</title>
<g id="a_edge53_Node000001_Node000039"><a xlink:title=" ">
<path fill="none" stroke="#63b8ff" d="M2172.4,-280.89C2290.22,-276.07 2533.93,-263.99 2749.71,-239.1"/>
<polygon fill="#63b8ff" stroke="#63b8ff" points="2750.44,-242.54 2759.97,-237.91 2749.63,-235.59 2750.44,-242.54"/>
</a>
</g>
</g>
<!-- Node40 -->
<g id="Node000040" class="node">
<title>Node40</title>
<g id="a_Node000040"><a xlink:title=" ">
<polygon fill="#e0e0e0" stroke="#999999" points="2943.5,-239 2863.5,-239 2863.5,-220 2943.5,-220 2943.5,-239"/>
<text text-anchor="middle" x="2903.5" y="-227" font-family="Helvetica,sans-Serif" font-size="10.00">i2s_stream.h</text>
</a>
</g>
</g>
<!-- Node1&#45;&gt;Node40 -->
<g id="edge54_Node000001_Node000040" class="edge">
<title>Node1&#45;&gt;Node40</title>
<g id="a_edge54_Node000001_Node000040"><a xlink:title=" ">
<path fill="none" stroke="#63b8ff" d="M2172.06,-281.98C2303.9,-278.57 2596.72,-268.25 2853.18,-239.01"/>
<polygon fill="#63b8ff" stroke="#63b8ff" points="2853.91,-242.45 2863.44,-237.83 2853.11,-235.5 2853.91,-242.45"/>
</a>
</g>
</g>
<!-- Node41 -->
<g id="Node000041" class="node">
<title>Node41</title>
<g id="a_Node000041"><a xlink:title=" ">
<polygon fill="#e0e0e0" stroke="#999999" points="3053,-239 2962,-239 2962,-220 3053,-220 3053,-239"/>
<text text-anchor="middle" x="3007.5" y="-227" font-family="Helvetica,sans-Serif" font-size="10.00">mp3_decoder.h</text>
</a>
</g>
</g>
<!-- Node1&#45;&gt;Node41 -->
<g id="edge55_Node000001_Node000041" class="edge">
<title>Node1&#45;&gt;Node41</title>
<g id="a_edge55_Node000001_Node000041"><a xlink:title=" ">
<path fill="none" stroke="#63b8ff" d="M2172.01,-282.22C2316.37,-279.08 2656.13,-269 2951.87,-238.94"/>
<polygon fill="#63b8ff" stroke="#63b8ff" points="2952.34,-242.41 2961.93,-237.91 2951.62,-235.45 2952.34,-242.41"/>
</a>
</g>
</g>
<!-- Node42 -->
<g id="Node000042" class="node">
<title>Node42</title>
<g id="a_Node000042"><a xlink:title=" ">
<polygon fill="#e0e0e0" stroke="#999999" points="3154,-239 3071,-239 3071,-220 3154,-220 3154,-239"/>
<text text-anchor="middle" x="3112.5" y="-227" font-family="Helvetica,sans-Serif" font-size="10.00">raw_stream.h</text>
</a>
</g>
</g>
<!-- Node1&#45;&gt;Node42 -->
<g id="edge56_Node000001_Node000042" class="edge">
<title>Node1&#45;&gt;Node42</title>
<g id="a_edge56_Node000001_Node000042"><a xlink:title=" ">
<path fill="none" stroke="#63b8ff" d="M2172.26,-283.18C2330.09,-281.81 2723.03,-274.88 3060.83,-239.05"/>
<polygon fill="#63b8ff" stroke="#63b8ff" points="3061.24,-242.52 3070.81,-237.98 3060.5,-235.56 3061.24,-242.52"/>
</a>
</g>
</g>
<!-- Node43 -->
<g id="Node000043" class="node">
<title>Node43</title>
<g id="a_Node000043"><a xlink:title=" ">
<polygon fill="#e0e0e0" stroke="#999999" points="3271,-239 3172,-239 3172,-220 3271,-220 3271,-239"/>
<text text-anchor="middle" x="3221.5" y="-227" font-family="Helvetica,sans-Serif" font-size="10.00">filter_resample.h</text>
</a>
</g>
</g>
<!-- Node1&#45;&gt;Node43 -->
<g id="edge57_Node000001_Node000043" class="edge">
<title>Node1&#45;&gt;Node43</title>
<g id="a_edge57_Node000001_Node000043"><a xlink:title=" ">
<path fill="none" stroke="#63b8ff" d="M2172.2,-283.07C2341.44,-281.48 2783.36,-274.11 3161.81,-239.06"/>
<polygon fill="#63b8ff" stroke="#63b8ff" points="3162.24,-242.53 3171.87,-238.12 3161.58,-235.56 3162.24,-242.53"/>
</a>
</g>
</g>
<!-- Node44 -->
<g id="Node000044" class="node">
<title>Node44</title>
<g id="a_Node000044"><a xlink:title=" ">
<polygon fill="#e0e0e0" stroke="#999999" points="3342,-239 3289,-239 3289,-220 3342,-220 3342,-239"/>
<text text-anchor="middle" x="3315.5" y="-227" font-family="Helvetica,sans-Serif" font-size="10.00">board.h</text>
</a>
</g>
</g>
<!-- Node1&#45;&gt;Node44 -->
<g id="edge58_Node000001_Node000044" class="edge">
<title>Node1&#45;&gt;Node44</title>
<g id="a_edge58_Node000001_Node000044"><a xlink:title=" ">
<path fill="none" stroke="#63b8ff" d="M2172.22,-282.69C2389.28,-279.91 3044.96,-269.31 3278.71,-238.92"/>
<polygon fill="#63b8ff" stroke="#63b8ff" points="3279.41,-242.36 3288.85,-237.55 3278.47,-235.42 3279.41,-242.36"/>
</a>
</g>
</g>
<!-- Node45 -->
<g id="Node000045" class="node">
<title>Node45</title>
<g id="a_Node000045"><a xlink:title=" ">
<polygon fill="#e0e0e0" stroke="#999999" points="3443,-239 3360,-239 3360,-220 3443,-220 3443,-239"/>
<text text-anchor="middle" x="3401.5" y="-227" font-family="Helvetica,sans-Serif" font-size="10.00">audio_mem.h</text>
</a>
</g>
</g>
<!-- Node1&#45;&gt;Node45 -->
<g id="edge59_Node000001_Node000045" class="edge">
<title>Node1&#45;&gt;Node45</title>
<g id="a_edge59_Node000001_Node000045"><a xlink:title=" ">
<path fill="none" stroke="#63b8ff" d="M2172.33,-282.22C2398.2,-277.94 3100.65,-263.08 3349.72,-239.02"/>
<polygon fill="#63b8ff" stroke="#63b8ff" points="3350.21,-242.49 3359.81,-238.01 3349.52,-235.52 3350.21,-242.49"/>
</a>
</g>
</g>
<!-- Node46 -->
<g id="Node000046" class="node">
<title>Node46</title>
<g id="a_Node000046"><a xlink:title=" ">
<polygon fill="#e0e0e0" stroke="#999999" points="3527.5,-239 3461.5,-239 3461.5,-220 3527.5,-220 3527.5,-239"/>
<text text-anchor="middle" x="3494.5" y="-227" font-family="Helvetica,sans-Serif" font-size="10.00">esp_vad.h</text>
</a>
</g>
</g>
<!-- Node1&#45;&gt;Node46 -->
<g id="edge60_Node000001_Node000046" class="edge">
<title>Node1&#45;&gt;Node46</title>
<g id="a_edge60_Node000001_Node000046"><a xlink:title=" ">
<path fill="none" stroke="#63b8ff" d="M2172.12,-282.73C2409.89,-279.89 3180.99,-268.68 3450.95,-238.94"/>
<polygon fill="#63b8ff" stroke="#63b8ff" points="3451.57,-242.39 3461.11,-237.78 3450.78,-235.43 3451.57,-242.39"/>
</a>
</g>
</g>
<!-- Node47 -->
<g id="Node000047" class="node">
<title>Node47</title>
<g id="a_Node000047"><a xlink:title=" ">
<polygon fill="#e0e0e0" stroke="#999999" points="3669,-239 3546,-239 3546,-220 3669,-220 3669,-239"/>
<text text-anchor="middle" x="3607.5" y="-227" font-family="Helvetica,sans-Serif" font-size="10.00">baidu_access_token.h</text>
</a>
</g>
</g>
<!-- Node1&#45;&gt;Node47 -->
<g id="edge64_Node000001_Node000047" class="edge">
<title>Node1&#45;&gt;Node47</title>
<g id="a_edge64_Node000001_Node000047"><a xlink:title=" ">
<path fill="none" stroke="#63b8ff" d="M2172.17,-283.51C2379.71,-283.07 3005.6,-278.39 3535.81,-238.96"/>
<polygon fill="#63b8ff" stroke="#63b8ff" points="3536.25,-242.44 3545.96,-238.2 3535.73,-235.46 3536.25,-242.44"/>
</a>
</g>
</g>
<!-- Node48 -->
<g id="Node000048" class="node">
<title>Node48</title>
<g id="a_Node000048"><a xlink:title=" ">
<polygon fill="#e0e0e0" stroke="#999999" points="3763.5,-239 3687.5,-239 3687.5,-220 3763.5,-220 3763.5,-239"/>
<text text-anchor="middle" x="3725.5" y="-227" font-family="Helvetica,sans-Serif" font-size="10.00">base64_re.h</text>
</a>
</g>
</g>
<!-- Node1&#45;&gt;Node48 -->
<g id="edge65_Node000001_Node000048" class="edge">
<title>Node1&#45;&gt;Node48</title>
<g id="a_edge65_Node000001_Node000048"><a xlink:title=" ">
<path fill="none" stroke="#63b8ff" d="M2172.11,-282.92C2435.32,-280.55 3360.03,-270.23 3677.23,-238.92"/>
<polygon fill="#63b8ff" stroke="#63b8ff" points="3677.75,-242.39 3687.35,-237.9 3677.05,-235.42 3677.75,-242.39"/>
</a>
</g>
</g>
<!-- Node49 -->
<g id="Node000049" class="node">
<title>Node49</title>
<g id="a_Node000049"><a xlink:title=" ">
<polygon fill="#e0e0e0" stroke="#999999" points="3893.5,-239 3781.5,-239 3781.5,-220 3893.5,-220 3893.5,-239"/>
<text text-anchor="middle" x="3837.5" y="-227" font-family="Helvetica,sans-Serif" font-size="10.00">audio_idf_version.h</text>
</a>
</g>
</g>
<!-- Node1&#45;&gt;Node49 -->
<g id="edge66_Node000001_Node000049" class="edge">
<title>Node1&#45;&gt;Node49</title>
<g id="a_edge66_Node000001_Node000049"><a xlink:title=" ">
<path fill="none" stroke="#63b8ff" d="M2172.46,-282.59C2446.08,-278.93 3433.71,-264.28 3770.9,-239.02"/>
<polygon fill="#63b8ff" stroke="#63b8ff" points="3771.46,-242.48 3781.17,-238.23 3770.93,-235.5 3771.46,-242.48"/>
</a>
</g>
</g>
<!-- Node50 -->
<g id="Node000050" class="node">
<title>Node50</title>
<g id="a_Node000050"><a xlink:title=" ">
<polygon fill="#e0e0e0" stroke="#999999" points="3981.5,-239 3911.5,-239 3911.5,-220 3981.5,-220 3981.5,-239"/>
<text text-anchor="middle" x="3946.5" y="-227" font-family="Helvetica,sans-Serif" font-size="10.00">esp_netif.h</text>
</a>
</g>
</g>
<!-- Node1&#45;&gt;Node50 -->
<g id="edge67_Node000001_Node000050" class="edge">
<title>Node1&#45;&gt;Node50</title>
<g id="a_edge67_Node000001_Node000050"><a xlink:title=" ">
<path fill="none" stroke="#63b8ff" d="M2172.05,-283.32C2458.71,-282.37 3537.84,-276.37 3901.02,-238.94"/>
<polygon fill="#63b8ff" stroke="#63b8ff" points="3901.46,-242.41 3911.04,-237.88 3900.72,-235.45 3901.46,-242.41"/>
</a>
</g>
</g>
<!-- Node3 -->
<g id="Node000003" class="node">
<title>Node3</title>
<g id="a_Node000003"><a xlink:title=" ">
<polygon fill="#e0e0e0" stroke="#999999" points="517.5,-19 455.5,-19 455.5,0 517.5,0 517.5,-19"/>
<text text-anchor="middle" x="486.5" y="-7" font-family="Helvetica,sans-Serif" font-size="10.00">stdbool.h</text>
</a>
</g>
</g>
<!-- Node2&#45;&gt;Node3 -->
<g id="edge2_Node000002_Node000003" class="edge">
<title>Node2&#45;&gt;Node3</title>
<g id="a_edge2_Node000002_Node000003"><a xlink:title=" ">
<path fill="none" stroke="#63b8ff" d="M497.72,-219.89C482.47,-212.79 463.58,-201.08 454.5,-184 426.87,-132.04 458.73,-60.35 476.36,-27.81"/>
<polygon fill="#63b8ff" stroke="#63b8ff" points="479.44,-29.47 481.29,-19.03 473.34,-26.04 479.44,-29.47"/>
</a>
</g>
</g>
<!-- Node4 -->
<g id="Node000004" class="node">
<title>Node4</title>
<g id="a_Node000004"><a xlink:title=" ">
<polygon fill="#e0e0e0" stroke="#999999" points="577,-184 464,-184 464,-165 577,-165 577,-184"/>
<text text-anchor="middle" x="520.5" y="-172" font-family="Helvetica,sans-Serif" font-size="10.00">freertos/FreeRTOS.h</text>
</a>
</g>
</g>
<!-- Node2&#45;&gt;Node4 -->
<g id="edge3_Node000002_Node000004" class="edge">
<title>Node2&#45;&gt;Node4</title>
<g id="a_edge3_Node000002_Node000004"><a xlink:title=" ">
<path fill="none" stroke="#63b8ff" d="M520.5,-219.75C520.5,-212.8 520.5,-202.85 520.5,-194.13"/>
<polygon fill="#63b8ff" stroke="#63b8ff" points="524,-194.09 520.5,-184.09 517,-194.09 524,-194.09"/>
</a>
</g>
</g>
<!-- Node5 -->
<g id="Node000005" class="node">
<title>Node5</title>
<g id="a_Node000005"><a xlink:title=" ">
<polygon fill="#e0e0e0" stroke="#999999" points="683.5,-184 595.5,-184 595.5,-165 683.5,-165 683.5,-184"/>
<text text-anchor="middle" x="639.5" y="-172" font-family="Helvetica,sans-Serif" font-size="10.00">freertos/task.h</text>
</a>
</g>
</g>
<!-- Node2&#45;&gt;Node5 -->
<g id="edge4_Node000002_Node000005" class="edge">
<title>Node2&#45;&gt;Node5</title>
<g id="a_edge4_Node000002_Node000005"><a xlink:title=" ">
<path fill="none" stroke="#63b8ff" d="M539.62,-219.98C558.85,-211.42 588.73,-198.11 610.81,-188.28"/>
<polygon fill="#63b8ff" stroke="#63b8ff" points="612.32,-191.44 620.03,-184.17 609.47,-185.04 612.32,-191.44"/>
</a>
</g>
</g>
<!-- Node2&#45;&gt;Node6 -->
<g id="edge5_Node000002_Node000006" class="edge">
<title>Node2&#45;&gt;Node6</title>
<g id="a_edge5_Node000002_Node000006"><a xlink:title=" ">
<path fill="none" stroke="#63b8ff" d="M493.03,-219.98C464.32,-211.09 419.08,-197.07 387.08,-187.15"/>
<polygon fill="#63b8ff" stroke="#63b8ff" points="387.78,-183.7 377.19,-184.08 385.7,-190.39 387.78,-183.7"/>
</a>
</g>
</g>
<!-- Node7&#45;&gt;Node3 -->
<g id="edge10_Node000007_Node000003" class="edge">
<title>Node7&#45;&gt;Node3</title>
<g id="a_edge10_Node000007_Node000003"><a xlink:title=" ">
<path fill="none" stroke="#63b8ff" d="M139.84,-219.96C132.06,-207.03 120.24,-182.18 131.5,-165 202.49,-56.68 367.74,-23.89 445.13,-14.3"/>
<polygon fill="#63b8ff" stroke="#63b8ff" points="445.92,-17.73 455.44,-13.09 445.11,-10.78 445.92,-17.73"/>
</a>
</g>
</g>
<!-- Node7&#45;&gt;Node8 -->
<g id="edge7_Node000007_Node000008" class="edge">
<title>Node7&#45;&gt;Node8</title>
<g id="a_edge7_Node000007_Node000008"><a xlink:title=" ">
<path fill="none" stroke="#63b8ff" d="M128.47,-219.98C111.57,-211.54 85.44,-198.47 65.86,-188.68"/>
<polygon fill="#63b8ff" stroke="#63b8ff" points="67.35,-185.51 56.84,-184.17 64.22,-191.77 67.35,-185.51"/>
</a>
</g>
</g>
<!-- Node7&#45;&gt;Node9 -->
<g id="edge8_Node000007_Node000009" class="edge">
<title>Node7&#45;&gt;Node9</title>
<g id="a_edge8_Node000007_Node000009"><a xlink:title=" ">
<path fill="none" stroke="#63b8ff" d="M158.03,-219.98C169.9,-211.92 187.96,-199.65 202.11,-190.03"/>
<polygon fill="#63b8ff" stroke="#63b8ff" points="204.44,-192.69 210.74,-184.17 200.5,-186.9 204.44,-192.69"/>
</a>
</g>
</g>
<!-- Node7&#45;&gt;Node10 -->
<g id="edge9_Node000007_Node000010" class="edge">
<title>Node7&#45;&gt;Node10</title>
<g id="a_edge9_Node000007_Node000010"><a xlink:title=" ">
<path fill="none" stroke="#63b8ff" d="M145.58,-219.78C146.19,-206.15 149.4,-179.84 164.5,-165 238.71,-92.07 560.36,-35.05 674.85,-16.73"/>
<polygon fill="#63b8ff" stroke="#63b8ff" points="675.62,-20.15 684.95,-15.13 674.53,-13.24 675.62,-20.15"/>
</a>
</g>
</g>
<!-- Node11&#45;&gt;Node3 -->
<g id="edge13_Node000011_Node000003" class="edge">
<title>Node11&#45;&gt;Node3</title>
<g id="a_edge13_Node000011_Node000003"><a xlink:title=" ">
<path fill="none" stroke="#63b8ff" d="M769.94,-219.95C725.24,-186.93 563.47,-67.38 506.51,-25.29"/>
<polygon fill="#63b8ff" stroke="#63b8ff" points="508.43,-22.35 498.3,-19.22 504.27,-27.98 508.43,-22.35"/>
</a>
</g>
</g>
<!-- Node11&#45;&gt;Node4 -->
<g id="edge15_Node000011_Node000004" class="edge">
<title>Node11&#45;&gt;Node4</title>
<g id="a_edge15_Node000011_Node000004"><a xlink:title=" ">
<path fill="none" stroke="#63b8ff" d="M739.57,-219.98C694.23,-210.78 621.89,-196.09 572.85,-186.13"/>
<polygon fill="#63b8ff" stroke="#63b8ff" points="573.26,-182.64 562.76,-184.08 571.87,-189.5 573.26,-182.64"/>
</a>
</g>
</g>
<!-- Node11&#45;&gt;Node5 -->
<g id="edge16_Node000011_Node000005" class="edge">
<title>Node11&#45;&gt;Node5</title>
<g id="a_edge16_Node000011_Node000005"><a xlink:title=" ">
<path fill="none" stroke="#63b8ff" d="M758.69,-219.98C735.33,-211.27 698.8,-197.63 672.33,-187.75"/>
<polygon fill="#63b8ff" stroke="#63b8ff" points="673.32,-184.39 662.73,-184.17 670.87,-190.95 673.32,-184.39"/>
</a>
</g>
</g>
<!-- Node11&#45;&gt;Node10 -->
<g id="edge14_Node000011_Node000010" class="edge">
<title>Node11&#45;&gt;Node10</title>
<g id="a_edge14_Node000011_Node000010"><a xlink:title=" ">
<path fill="none" stroke="#63b8ff" d="M773.97,-219.83C754.78,-197.63 705.29,-139.77 701.5,-129 689.51,-94.94 700.34,-52.33 708.47,-28.6"/>
<polygon fill="#63b8ff" stroke="#63b8ff" points="711.79,-29.71 711.92,-19.12 705.21,-27.32 711.79,-29.71"/>
</a>
</g>
</g>
<!-- Node11&#45;&gt;Node12 -->
<g id="edge12_Node000011_Node000012" class="edge">
<title>Node11&#45;&gt;Node12</title>
<g id="a_edge12_Node000011_Node000012"><a xlink:title=" ">
<path fill="none" stroke="#63b8ff" d="M803.28,-219.91C820.03,-212.44 842.87,-200.25 858.5,-184 884.27,-157.2 868.73,-133.55 897.5,-110 989.27,-34.89 1135.38,-16.47 1203.4,-11.96"/>
<polygon fill="#63b8ff" stroke="#63b8ff" points="1203.85,-15.44 1213.63,-11.35 1203.44,-8.45 1203.85,-15.44"/>
</a>
</g>
</g>
<!-- Node13 -->
<g id="Node000013" class="node">
<title>Node13</title>
<g id="a_Node000013"><a xlink:title=" ">
<polygon fill="#e0e0e0" stroke="#999999" points="849,-184 778,-184 778,-165 849,-165 849,-184"/>
<text text-anchor="middle" x="813.5" y="-172" font-family="Helvetica,sans-Serif" font-size="10.00">driver/i2s.h</text>
</a>
</g>
</g>
<!-- Node11&#45;&gt;Node13 -->
<g id="edge17_Node000011_Node000013" class="edge">
<title>Node11&#45;&gt;Node13</title>
<g id="a_edge17_Node000011_Node000013"><a xlink:title=" ">
<path fill="none" stroke="#63b8ff" d="M786.78,-219.75C791.21,-212.42 797.66,-201.73 803.12,-192.7"/>
<polygon fill="#63b8ff" stroke="#63b8ff" points="806.14,-194.46 808.31,-184.09 800.15,-190.84 806.14,-194.46"/>
</a>
</g>
</g>
<!-- Node11&#45;&gt;Node14 -->
<g id="edge18_Node000011_Node000014" class="edge">
<title>Node11&#45;&gt;Node14</title>
<g id="a_edge18_Node000011_Node000014"><a xlink:title=" ">
<path fill="none" stroke="#63b8ff" d="M829.21,-222.73C913.6,-212.52 1088.21,-191.39 1172.27,-181.22"/>
<polygon fill="#63b8ff" stroke="#63b8ff" points="1172.79,-184.68 1182.3,-180 1171.95,-177.73 1172.79,-184.68"/>
</a>
</g>
</g>
<!-- Node14&#45;&gt;Node12 -->
<g id="edge20_Node000014_Node000012" class="edge">
<title>Node14&#45;&gt;Node12</title>
<g id="a_edge20_Node000014_Node000012"><a xlink:title=" ">
<path fill="none" stroke="#63b8ff" d="M1256.51,-167.1C1261.22,-166.36 1265.97,-165.64 1270.5,-165 1340.27,-155.21 1538.59,-181.57 1585.5,-129 1674.36,-29.4 1383.06,-13.48 1277.34,-10.96"/>
<polygon fill="#63b8ff" stroke="#63b8ff" points="1277.2,-7.46 1267.12,-10.75 1277.05,-14.46 1277.2,-7.46"/>
</a>
</g>
</g>
<!-- Node15 -->
<g id="Node000015" class="node">
<title>Node15</title>
<g id="a_Node000015"><a xlink:title=" ">
<polygon fill="#e0e0e0" stroke="#999999" points="1168,-74 1093,-74 1093,-55 1168,-55 1168,-74"/>
<text text-anchor="middle" x="1130.5" y="-62" font-family="Helvetica,sans-Serif" font-size="10.00">esp_types.h</text>
</a>
</g>
</g>
<!-- Node14&#45;&gt;Node15 -->
<g id="edge19_Node000014_Node000015" class="edge">
<title>Node14&#45;&gt;Node15</title>
<g id="a_edge19_Node000014_Node000015"><a xlink:title=" ">
<path fill="none" stroke="#63b8ff" d="M1227.51,-164.65C1238.17,-151.76 1254.35,-127.46 1242.5,-110 1228.05,-88.72 1201.65,-77.61 1178.11,-71.82"/>
<polygon fill="#63b8ff" stroke="#63b8ff" points="1178.76,-68.38 1168.24,-69.65 1177.26,-75.21 1178.76,-68.38"/>
</a>
</g>
</g>
<!-- Node16 -->
<g id="Node000016" class="node">
<title>Node16</title>
<g id="a_Node000016"><a xlink:title=" ">
<polygon fill="#e0e0e0" stroke="#999999" points="1363.5,-129 1289.5,-129 1289.5,-110 1363.5,-110 1363.5,-129"/>
<text text-anchor="middle" x="1326.5" y="-117" font-family="Helvetica,sans-Serif" font-size="10.00">board_def.h</text>
</a>
</g>
</g>
<!-- Node14&#45;&gt;Node16 -->
<g id="edge21_Node000014_Node000016" class="edge">
<title>Node14&#45;&gt;Node16</title>
<g id="a_edge21_Node000014_Node000016"><a xlink:title=" ">
<path fill="none" stroke="#63b8ff" d="M1236.69,-164.98C1253.75,-156.54 1280.13,-143.47 1299.9,-133.68"/>
<polygon fill="#63b8ff" stroke="#63b8ff" points="1301.59,-136.75 1309,-129.17 1298.48,-130.47 1301.59,-136.75"/>
</a>
</g>
</g>
<!-- Node17 -->
<g id="Node000017" class="node">
<title>Node17</title>
<g id="a_Node000017"><a xlink:title=" ">
<polygon fill="#e0e0e0" stroke="#999999" points="1455,-129 1382,-129 1382,-110 1455,-110 1455,-129"/>
<text text-anchor="middle" x="1418.5" y="-117" font-family="Helvetica,sans-Serif" font-size="10.00">audio_hal.h</text>
</a>
</g>
</g>
<!-- Node14&#45;&gt;Node17 -->
<g id="edge22_Node000014_Node000017" class="edge">
<title>Node14&#45;&gt;Node17</title>
<g id="a_edge22_Node000014_Node000017"><a xlink:title=" ">
<path fill="none" stroke="#63b8ff" d="M1251.47,-164.98C1285.32,-155.97 1338.9,-141.7 1376.21,-131.76"/>
<polygon fill="#63b8ff" stroke="#63b8ff" points="1377.51,-135.04 1386.28,-129.08 1375.71,-128.27 1377.51,-135.04"/>
</a>
</g>
</g>
<!-- Node18 -->
<g id="Node000018" class="node">
<title>Node18</title>
<g id="a_Node000018"><a xlink:title=" ">
<polygon fill="#e0e0e0" stroke="#999999" points="1576,-129 1473,-129 1473,-110 1576,-110 1576,-129"/>
<text text-anchor="middle" x="1524.5" y="-117" font-family="Helvetica,sans-Serif" font-size="10.00">esxxx_common.h</text>
</a>
</g>
</g>
<!-- Node14&#45;&gt;Node18 -->
<g id="edge23_Node000014_Node000018" class="edge">
<title>Node14&#45;&gt;Node18</title>
<g id="a_edge23_Node000014_Node000018"><a xlink:title=" ">
<path fill="none" stroke="#63b8ff" d="M1256.59,-167.05C1308.55,-158.03 1403.55,-141.52 1465.34,-130.78"/>
<polygon fill="#63b8ff" stroke="#63b8ff" points="1466.08,-134.2 1475.33,-129.04 1464.88,-127.31 1466.08,-134.2"/>
</a>
</g>
</g>
<!-- Node19 -->
<g id="Node000019" class="node">
<title>Node19</title>
<g id="a_Node000019"><a xlink:href="sevetest30__gpio_8h.html" target="_top" xlink:title=" ">
<polygon fill="white" stroke="#666666" points="849.5,-129 743.5,-129 743.5,-110 849.5,-110 849.5,-129"/>
<text text-anchor="middle" x="796.5" y="-117" font-family="Helvetica,sans-Serif" font-size="10.00">sevetest30_gpio.h</text>
</a>
</g>
</g>
<!-- Node14&#45;&gt;Node19 -->
<g id="edge24_Node000014_Node000019" class="edge">
<title>Node14&#45;&gt;Node19</title>
<g id="a_edge24_Node000014_Node000019"><a xlink:title=" ">
<path fill="none" stroke="#63b8ff" d="M1182.33,-168.84C1109.93,-159.77 949.24,-139.64 859.76,-128.43"/>
<polygon fill="#63b8ff" stroke="#63b8ff" points="860.1,-124.94 849.74,-127.17 859.23,-131.89 860.1,-124.94"/>
</a>
</g>
</g>
<!-- Node21 -->
<g id="Node000021" class="node">
<title>Node21</title>
<g id="a_Node000021"><a xlink:title=" ">
<polygon fill="#e0e0e0" stroke="#999999" points="1704,-129 1633,-129 1633,-110 1704,-110 1704,-129"/>
<text text-anchor="middle" x="1668.5" y="-117" font-family="Helvetica,sans-Serif" font-size="10.00">driver/i2c.h</text>
</a>
</g>
</g>
<!-- Node14&#45;&gt;Node21 -->
<g id="edge29_Node000014_Node000021" class="edge">
<title>Node14&#45;&gt;Node21</title>
<g id="a_edge29_Node000014_Node000021"><a xlink:title=" ">
<path fill="none" stroke="#63b8ff" d="M1256.51,-167.06C1261.21,-166.32 1265.96,-165.61 1270.5,-165 1424.6,-144.21 1464.44,-150.04 1618.5,-129 1619.8,-128.82 1621.12,-128.64 1622.45,-128.44"/>
<polygon fill="#63b8ff" stroke="#63b8ff" points="1623.41,-131.84 1632.76,-126.87 1622.35,-124.92 1623.41,-131.84"/>
</a>
</g>
</g>
<!-- Node22 -->
<g id="Node000022" class="node">
<title>Node22</title>
<g id="a_Node000022"><a xlink:title=" ">
<polygon fill="#e0e0e0" stroke="#999999" points="1025,-129 906,-129 906,-110 1025,-110 1025,-129"/>
<text text-anchor="middle" x="965.5" y="-117" font-family="Helvetica,sans-Serif" font-size="10.00">driver/spi_common.h</text>
</a>
</g>
</g>
<!-- Node14&#45;&gt;Node22 -->
<g id="edge30_Node000014_Node000022" class="edge">
<title>Node14&#45;&gt;Node22</title>
<g id="a_edge30_Node000014_Node000022"><a xlink:title=" ">
<path fill="none" stroke="#63b8ff" d="M1182.29,-165.74C1138.56,-156.61 1065.72,-141.41 1016.68,-131.18"/>
<polygon fill="#63b8ff" stroke="#63b8ff" points="1017.1,-127.69 1006.6,-129.08 1015.67,-134.54 1017.1,-127.69"/>
</a>
</g>
</g>
<!-- Node23 -->
<g id="Node000023" class="node">
<title>Node23</title>
<g id="a_Node000023"><a xlink:title=" ">
<polygon fill="#e0e0e0" stroke="#999999" points="1233.5,-129 1123.5,-129 1123.5,-110 1233.5,-110 1233.5,-129"/>
<text text-anchor="middle" x="1178.5" y="-117" font-family="Helvetica,sans-Serif" font-size="10.00">driver/spi_master.h</text>
</a>
</g>
</g>
<!-- Node14&#45;&gt;Node23 -->
<g id="edge31_Node000014_Node000023" class="edge">
<title>Node14&#45;&gt;Node23</title>
<g id="a_edge31_Node000014_Node000023"><a xlink:title=" ">
<path fill="none" stroke="#63b8ff" d="M1212.73,-164.75C1206.94,-157.26 1198.44,-146.28 1191.36,-137.13"/>
<polygon fill="#63b8ff" stroke="#63b8ff" points="1194.03,-134.86 1185.14,-129.09 1188.49,-139.14 1194.03,-134.86"/>
</a>
</g>
</g>
<!-- Node14&#45;&gt;Node24 -->
<g id="edge32_Node000014_Node000024" class="edge">
<title>Node14&#45;&gt;Node24</title>
<g id="a_edge32_Node000014_Node000024"><a xlink:title=" ">
<path fill="none" stroke="#63b8ff" d="M1256.77,-166.92C1261.39,-166.21 1266.05,-165.55 1270.5,-165 1463.29,-141.14 1515.45,-150.54 1711.75,-129.13"/>
<polygon fill="#63b8ff" stroke="#63b8ff" points="1712.26,-132.6 1721.81,-128.02 1711.49,-125.64 1712.26,-132.6"/>
</a>
</g>
</g>
<!-- Node25 -->
<g id="Node000025" class="node">
<title>Node25</title>
<g id="a_Node000025"><a xlink:href="_b_l5372_8h.html" target="_top" xlink:title=" ">
<polygon fill="white" stroke="#666666" points="1105.5,-129 1043.5,-129 1043.5,-110 1105.5,-110 1105.5,-129"/>
<text text-anchor="middle" x="1074.5" y="-117" font-family="Helvetica,sans-Serif" font-size="10.00">BL5372.h</text>
</a>
</g>
</g>
<!-- Node14&#45;&gt;Node25 -->
<g id="edge33_Node000014_Node000025" class="edge">
<title>Node14&#45;&gt;Node25</title>
<g id="a_edge33_Node000014_Node000025"><a xlink:title=" ">
<path fill="none" stroke="#63b8ff" d="M1196.2,-164.98C1172.25,-156.23 1134.72,-142.51 1107.67,-132.62"/>
<polygon fill="#63b8ff" stroke="#63b8ff" points="1108.81,-129.32 1098.22,-129.17 1106.41,-135.89 1108.81,-129.32"/>
</a>
</g>
</g>
<!-- Node20 -->
<g id="Node000020" class="node">
<title>Node20</title>
<g id="a_Node000020"><a xlink:href="_t_c_a6416_a_8h.html" target="_top" xlink:title=" ">
<polygon fill="white" stroke="#666666" points="827,-74 752,-74 752,-55 827,-55 827,-74"/>
<text text-anchor="middle" x="789.5" y="-62" font-family="Helvetica,sans-Serif" font-size="10.00">TCA6416A.h</text>
</a>
</g>
</g>
<!-- Node19&#45;&gt;Node20 -->
<g id="edge25_Node000019_Node000020" class="edge">
<title>Node19&#45;&gt;Node20</title>
<g id="a_edge25_Node000019_Node000020"><a xlink:title=" ">
<path fill="none" stroke="#63b8ff" d="M795.34,-109.75C794.43,-102.8 793.11,-92.85 791.96,-84.13"/>
<polygon fill="#63b8ff" stroke="#63b8ff" points="795.41,-83.54 790.63,-74.09 788.47,-84.46 795.41,-83.54"/>
</a>
</g>
</g>
<!-- Node20&#45;&gt;Node3 -->
<g id="edge27_Node000020_Node000003" class="edge">
<title>Node20&#45;&gt;Node3</title>
<g id="a_edge27_Node000020_Node000003"><a xlink:title=" ">
<path fill="none" stroke="#63b8ff" d="M751.74,-56.89C694.72,-46.92 587.05,-28.09 527.94,-17.75"/>
<polygon fill="#63b8ff" stroke="#63b8ff" points="528.29,-14.26 517.83,-15.98 527.08,-21.15 528.29,-14.26"/>
</a>
</g>
</g>
<!-- Node20&#45;&gt;Node10 -->
<g id="edge28_Node000020_Node000010" class="edge">
<title>Node20&#45;&gt;Node10</title>
<g id="a_edge28_Node000020_Node000010"><a xlink:title=" ">
<path fill="none" stroke="#63b8ff" d="M777.61,-54.98C766.35,-46.92 749.21,-34.65 735.79,-25.03"/>
<polygon fill="#63b8ff" stroke="#63b8ff" points="737.77,-22.15 727.61,-19.17 733.7,-27.84 737.77,-22.15"/>
</a>
</g>
</g>
<!-- Node20&#45;&gt;Node12 -->
<g id="edge26_Node000020_Node000012" class="edge">
<title>Node20&#45;&gt;Node12</title>
<g id="a_edge26_Node000020_Node000012"><a xlink:title=" ">
<path fill="none" stroke="#63b8ff" d="M827.18,-59.07C912.45,-49.05 1119.34,-24.74 1203.74,-14.82"/>
<polygon fill="#63b8ff" stroke="#63b8ff" points="1204.35,-18.27 1213.87,-13.63 1203.53,-11.32 1204.35,-18.27"/>
</a>
</g>
</g>
<!-- Node25&#45;&gt;Node10 -->
<g id="edge35_Node000025_Node000010" class="edge">
<title>Node25&#45;&gt;Node10</title>
<g id="a_edge35_Node000025_Node000010"><a xlink:title=" ">
<path fill="none" stroke="#63b8ff" d="M1046.03,-109.94C981.88,-90.64 826.01,-43.74 753.62,-21.97"/>
<polygon fill="#63b8ff" stroke="#63b8ff" points="754.56,-18.6 743.97,-19.07 752.54,-25.3 754.56,-18.6"/>
</a>
</g>
</g>
<!-- Node25&#45;&gt;Node15 -->
<g id="edge34_Node000025_Node000015" class="edge">
<title>Node25&#45;&gt;Node15</title>
<g id="a_edge34_Node000025_Node000015"><a xlink:title=" ">
<path fill="none" stroke="#63b8ff" d="M1083.5,-109.98C1091.69,-102.23 1104.01,-90.58 1113.97,-81.14"/>
<polygon fill="#63b8ff" stroke="#63b8ff" points="1116.48,-83.59 1121.34,-74.17 1111.67,-78.5 1116.48,-83.59"/>
</a>
</g>
</g>
</g>
</svg>
