<?xml version="1.0" encoding="UTF-8" standalone="no"?>
<!DOCTYPE svg PUBLIC "-//W3C//DTD SVG 1.1//EN"
 "http://www.w3.org/Graphics/SVG/1.1/DTD/svg11.dtd">
<!-- Generated by graphviz version 2.43.0 (0)
 -->
<!-- Title: components/sevetest30_board/include/sevetest30_LedArray.h Pages: 1 -->
<svg width="1312pt" height="324pt"
 viewBox="0.00 0.00 1312.00 324.00" xmlns="http://www.w3.org/2000/svg" xmlns:xlink="http://www.w3.org/1999/xlink">
<g id="graph0" class="graph" transform="scale(1 1) rotate(0) translate(4 320)">
<title>components/sevetest30_board/include/sevetest30_LedArray.h</title>
<!-- Node1 -->
<g id="Node000001" class="node">
<title>Node1</title>
<g id="a_Node000001"><a xlink:title=" ">
<polygon fill="#999999" stroke="#666666" points="920.5,-316 775.5,-316 775.5,-275 920.5,-275 920.5,-316"/>
<text text-anchor="start" x="783.5" y="-304" font-family="Helvetica,sans-Serif" font-size="10.00">components/sevetest30</text>
<text text-anchor="start" x="783.5" y="-293" font-family="Helvetica,sans-Serif" font-size="10.00">_board/include/sevetest30</text>
<text text-anchor="middle" x="848" y="-282" font-family="Helvetica,sans-Serif" font-size="10.00">_LedArray.h</text>
</a>
</g>
</g>
<!-- Node2 -->
<g id="Node000002" class="node">
<title>Node2</title>
<g id="a_Node000002"><a xlink:title=" ">
<polygon fill="#e0e0e0" stroke="#999999" points="102.5,-19 49.5,-19 49.5,0 102.5,0 102.5,-19"/>
<text text-anchor="middle" x="76" y="-7" font-family="Helvetica,sans-Serif" font-size="10.00">string.h</text>
</a>
</g>
</g>
<!-- Node1&#45;&gt;Node2 -->
<g id="edge1_Node000001_Node000002" class="edge">
<title>Node1&#45;&gt;Node2</title>
<g id="a_edge1_Node000001_Node000002"><a xlink:title=" ">
<path fill="none" stroke="#63b8ff" d="M775.33,-291.9C569.95,-283.59 0,-253.5 0,-175.5 0,-175.5 0,-175.5 0,-118.5 0,-79.47 33.61,-44.58 56.13,-25.6"/>
<polygon fill="#63b8ff" stroke="#63b8ff" points="58.56,-28.14 64.12,-19.12 54.15,-22.7 58.56,-28.14"/>
</a>
</g>
</g>
<!-- Node3 -->
<g id="Node000003" class="node">
<title>Node3</title>
<g id="a_Node000003"><a xlink:title=" ">
<polygon fill="#e0e0e0" stroke="#999999" points="1304,-239 1204,-239 1204,-220 1304,-220 1304,-239"/>
<text text-anchor="middle" x="1254" y="-227" font-family="Helvetica,sans-Serif" font-size="10.00">led_strip_types.h</text>
</a>
</g>
</g>
<!-- Node1&#45;&gt;Node3 -->
<g id="edge2_Node000001_Node000003" class="edge">
<title>Node1&#45;&gt;Node3</title>
<g id="a_edge2_Node000001_Node000003"><a xlink:title=" ">
<path fill="none" stroke="#63b8ff" d="M920.58,-283.06C998.57,-270.76 1121.09,-251.45 1193.88,-239.98"/>
<polygon fill="#63b8ff" stroke="#63b8ff" points="1194.48,-243.43 1203.82,-238.41 1193.39,-236.51 1194.48,-243.43"/>
</a>
</g>
</g>
<!-- Node4 -->
<g id="Node000004" class="node">
<title>Node4</title>
<g id="a_Node000004"><a xlink:href="sevetest30___u_i_8h.html" target="_top" xlink:title=" ">
<polygon fill="white" stroke="#666666" points="443.5,-239 348.5,-239 348.5,-220 443.5,-220 443.5,-239"/>
<text text-anchor="middle" x="396" y="-227" font-family="Helvetica,sans-Serif" font-size="10.00">sevetest30_UI.h</text>
</a>
</g>
</g>
<!-- Node1&#45;&gt;Node4 -->
<g id="edge3_Node000001_Node000004" class="edge">
<title>Node1&#45;&gt;Node4</title>
<g id="a_edge3_Node000001_Node000004"><a xlink:title=" ">
<path fill="none" stroke="#63b8ff" d="M775.38,-284.22C685.99,-271.56 536,-250.32 453.95,-238.71"/>
<polygon fill="#63b8ff" stroke="#63b8ff" points="454.19,-235.21 443.8,-237.27 453.21,-242.14 454.19,-235.21"/>
</a>
</g>
</g>
<!-- Node11 -->
<g id="Node000011" class="node">
<title>Node11</title>
<g id="a_Node000011"><a xlink:title=" ">
<polygon fill="#e0e0e0" stroke="#999999" points="1178.5,-74 1103.5,-74 1103.5,-55 1178.5,-55 1178.5,-74"/>
<text text-anchor="middle" x="1141" y="-62" font-family="Helvetica,sans-Serif" font-size="10.00">esp_types.h</text>
</a>
</g>
</g>
<!-- Node1&#45;&gt;Node11 -->
<g id="edge28_Node000001_Node000011" class="edge">
<title>Node1&#45;&gt;Node11</title>
<g id="a_edge28_Node000001_Node000011"><a xlink:title=" ">
<path fill="none" stroke="#63b8ff" d="M920.8,-275.42C990.27,-252.96 1091.21,-208.26 1139,-129 1147.1,-115.57 1146.82,-97.47 1144.97,-84.03"/>
<polygon fill="#63b8ff" stroke="#63b8ff" points="1148.39,-83.27 1143.19,-74.04 1141.5,-84.5 1148.39,-83.27"/>
</a>
</g>
</g>
<!-- Node4&#45;&gt;Node2 -->
<g id="edge4_Node000004_Node000002" class="edge">
<title>Node4&#45;&gt;Node2</title>
<g id="a_edge4_Node000004_Node000002"><a xlink:title=" ">
<path fill="none" stroke="#63b8ff" d="M348.29,-225.68C259.45,-219.93 75.91,-205.56 57,-184 18.24,-139.82 49.11,-63.01 66.36,-28.36"/>
<polygon fill="#63b8ff" stroke="#63b8ff" points="69.69,-29.53 71.18,-19.04 63.48,-26.31 69.69,-29.53"/>
</a>
</g>
</g>
<!-- Node5 -->
<g id="Node000005" class="node">
<title>Node5</title>
<g id="a_Node000005"><a xlink:title=" ">
<polygon fill="#e0e0e0" stroke="#999999" points="340,-19 278,-19 278,0 340,0 340,-19"/>
<text text-anchor="middle" x="309" y="-7" font-family="Helvetica,sans-Serif" font-size="10.00">stdbool.h</text>
</a>
</g>
</g>
<!-- Node4&#45;&gt;Node5 -->
<g id="edge5_Node000004_Node000005" class="edge">
<title>Node4&#45;&gt;Node5</title>
<g id="a_edge5_Node000004_Node000005"><a xlink:title=" ">
<path fill="none" stroke="#63b8ff" d="M378.55,-219.98C351.74,-207.08 298.63,-182.26 252,-165 200.18,-145.82 165.93,-173.37 133,-129 92.05,-73.83 204.2,-36.15 268.1,-19.76"/>
<polygon fill="#63b8ff" stroke="#63b8ff" points="269.05,-23.13 277.91,-17.31 267.36,-16.33 269.05,-23.13"/>
</a>
</g>
</g>
<!-- Node6 -->
<g id="Node000006" class="node">
<title>Node6</title>
<g id="a_Node000006"><a xlink:title=" ">
<polygon fill="#e0e0e0" stroke="#999999" points="1105.5,-19 1044.5,-19 1044.5,0 1105.5,0 1105.5,-19"/>
<text text-anchor="middle" x="1075" y="-7" font-family="Helvetica,sans-Serif" font-size="10.00">esp_err.h</text>
</a>
</g>
</g>
<!-- Node4&#45;&gt;Node6 -->
<g id="edge6_Node000004_Node000006" class="edge">
<title>Node4&#45;&gt;Node6</title>
<g id="a_edge6_Node000004_Node000006"><a xlink:title=" ">
<path fill="none" stroke="#63b8ff" d="M443.5,-226.43C587.57,-219.47 1017.15,-193.69 1139,-129 1173.84,-110.5 1210.2,-87.6 1188,-55 1171.89,-31.33 1141.07,-20.25 1115.69,-15.07"/>
<polygon fill="#63b8ff" stroke="#63b8ff" points="1116.02,-11.57 1105.56,-13.24 1114.78,-18.46 1116.02,-11.57"/>
</a>
</g>
</g>
<!-- Node7 -->
<g id="Node000007" class="node">
<title>Node7</title>
<g id="a_Node000007"><a xlink:title=" ">
<polygon fill="#e0e0e0" stroke="#999999" points="689.5,-184 576.5,-184 576.5,-165 689.5,-165 689.5,-184"/>
<text text-anchor="middle" x="633" y="-172" font-family="Helvetica,sans-Serif" font-size="10.00">freertos/FreeRTOS.h</text>
</a>
</g>
</g>
<!-- Node4&#45;&gt;Node7 -->
<g id="edge7_Node000004_Node000007" class="edge">
<title>Node4&#45;&gt;Node7</title>
<g id="a_edge7_Node000004_Node000007"><a xlink:title=" ">
<path fill="none" stroke="#63b8ff" d="M434.08,-219.98C474.99,-210.84 540.11,-196.27 584.62,-186.32"/>
<polygon fill="#63b8ff" stroke="#63b8ff" points="585.63,-189.68 594.62,-184.08 584.1,-182.85 585.63,-189.68"/>
</a>
</g>
</g>
<!-- Node8 -->
<g id="Node000008" class="node">
<title>Node8</title>
<g id="a_Node000008"><a xlink:title=" ">
<polygon fill="#e0e0e0" stroke="#999999" points="154,-184 66,-184 66,-165 154,-165 154,-184"/>
<text text-anchor="middle" x="110" y="-172" font-family="Helvetica,sans-Serif" font-size="10.00">freertos/task.h</text>
</a>
</g>
</g>
<!-- Node4&#45;&gt;Node8 -->
<g id="edge8_Node000004_Node000008" class="edge">
<title>Node4&#45;&gt;Node8</title>
<g id="a_edge8_Node000004_Node000008"><a xlink:title=" ">
<path fill="none" stroke="#63b8ff" d="M350.05,-219.98C299.46,-210.61 218.2,-195.55 164.46,-185.59"/>
<polygon fill="#63b8ff" stroke="#63b8ff" points="164.9,-182.11 154.43,-183.73 163.62,-189 164.9,-182.11"/>
</a>
</g>
</g>
<!-- Node9 -->
<g id="Node000009" class="node">
<title>Node9</title>
<g id="a_Node000009"><a xlink:title=" ">
<polygon fill="#e0e0e0" stroke="#999999" points="243.5,-184 172.5,-184 172.5,-165 243.5,-165 243.5,-184"/>
<text text-anchor="middle" x="208" y="-172" font-family="Helvetica,sans-Serif" font-size="10.00">driver/i2s.h</text>
</a>
</g>
</g>
<!-- Node4&#45;&gt;Node9 -->
<g id="edge9_Node000004_Node000009" class="edge">
<title>Node4&#45;&gt;Node9</title>
<g id="a_edge9_Node000004_Node000009"><a xlink:title=" ">
<path fill="none" stroke="#63b8ff" d="M365.79,-219.98C333.96,-211.01 283.64,-196.82 248.4,-186.89"/>
<polygon fill="#63b8ff" stroke="#63b8ff" points="249.02,-183.43 238.44,-184.08 247.12,-190.16 249.02,-183.43"/>
</a>
</g>
</g>
<!-- Node10 -->
<g id="Node000010" class="node">
<title>Node10</title>
<g id="a_Node000010"><a xlink:href="board__ctrl_8h.html" target="_top" xlink:title=" ">
<polygon fill="white" stroke="#666666" points="558,-184 484,-184 484,-165 558,-165 558,-184"/>
<text text-anchor="middle" x="521" y="-172" font-family="Helvetica,sans-Serif" font-size="10.00">board_ctrl.h</text>
</a>
</g>
</g>
<!-- Node4&#45;&gt;Node10 -->
<g id="edge10_Node000004_Node000010" class="edge">
<title>Node4&#45;&gt;Node10</title>
<g id="a_edge10_Node000004_Node000010"><a xlink:title=" ">
<path fill="none" stroke="#63b8ff" d="M416.08,-219.98C436.37,-211.38 467.96,-197.99 491.17,-188.15"/>
<polygon fill="#63b8ff" stroke="#63b8ff" points="492.71,-191.3 500.55,-184.17 489.98,-184.85 492.71,-191.3"/>
</a>
</g>
</g>
<!-- Node10&#45;&gt;Node2 -->
<g id="edge12_Node000010_Node000002" class="edge">
<title>Node10&#45;&gt;Node2</title>
<g id="a_edge12_Node000010_Node000002"><a xlink:title=" ">
<path fill="none" stroke="#63b8ff" d="M483.98,-171.28C392.52,-165.52 161.28,-149.12 133,-129 99.47,-105.15 84.9,-56.14 79.21,-29.22"/>
<polygon fill="#63b8ff" stroke="#63b8ff" points="82.61,-28.34 77.29,-19.18 75.73,-29.66 82.61,-28.34"/>
</a>
</g>
</g>
<!-- Node10&#45;&gt;Node11 -->
<g id="edge11_Node000010_Node000011" class="edge">
<title>Node10&#45;&gt;Node11</title>
<g id="a_edge11_Node000010_Node000011"><a xlink:title=" ">
<path fill="none" stroke="#63b8ff" d="M558.14,-166.38C561.47,-165.86 564.79,-165.39 568,-165 628.9,-157.53 1070.2,-166.19 1119,-129 1132.75,-118.52 1137.96,-98.89 1139.9,-84.22"/>
<polygon fill="#63b8ff" stroke="#63b8ff" points="1143.39,-84.48 1140.84,-74.2 1136.42,-83.83 1143.39,-84.48"/>
</a>
</g>
</g>
<!-- Node12 -->
<g id="Node000012" class="node">
<title>Node12</title>
<g id="a_Node000012"><a xlink:title=" ">
<polygon fill="#e0e0e0" stroke="#999999" points="466,-129 392,-129 392,-110 466,-110 466,-129"/>
<text text-anchor="middle" x="429" y="-117" font-family="Helvetica,sans-Serif" font-size="10.00">board_def.h</text>
</a>
</g>
</g>
<!-- Node10&#45;&gt;Node12 -->
<g id="edge13_Node000010_Node000012" class="edge">
<title>Node10&#45;&gt;Node12</title>
<g id="a_edge13_Node000010_Node000012"><a xlink:title=" ">
<path fill="none" stroke="#63b8ff" d="M506.22,-164.98C491.82,-156.69 469.69,-143.94 452.81,-134.22"/>
<polygon fill="#63b8ff" stroke="#63b8ff" points="454.46,-131.13 444.05,-129.17 450.97,-137.19 454.46,-131.13"/>
</a>
</g>
</g>
<!-- Node13 -->
<g id="Node000013" class="node">
<title>Node13</title>
<g id="a_Node000013"><a xlink:title=" ">
<polygon fill="#e0e0e0" stroke="#999999" points="557.5,-129 484.5,-129 484.5,-110 557.5,-110 557.5,-129"/>
<text text-anchor="middle" x="521" y="-117" font-family="Helvetica,sans-Serif" font-size="10.00">audio_hal.h</text>
</a>
</g>
</g>
<!-- Node10&#45;&gt;Node13 -->
<g id="edge14_Node000010_Node000013" class="edge">
<title>Node10&#45;&gt;Node13</title>
<g id="a_edge14_Node000010_Node000013"><a xlink:title=" ">
<path fill="none" stroke="#63b8ff" d="M521,-164.75C521,-157.8 521,-147.85 521,-139.13"/>
<polygon fill="#63b8ff" stroke="#63b8ff" points="524.5,-139.09 521,-129.09 517.5,-139.09 524.5,-139.09"/>
</a>
</g>
</g>
<!-- Node14 -->
<g id="Node000014" class="node">
<title>Node14</title>
<g id="a_Node000014"><a xlink:title=" ">
<polygon fill="#e0e0e0" stroke="#999999" points="678.5,-129 575.5,-129 575.5,-110 678.5,-110 678.5,-129"/>
<text text-anchor="middle" x="627" y="-117" font-family="Helvetica,sans-Serif" font-size="10.00">esxxx_common.h</text>
</a>
</g>
</g>
<!-- Node10&#45;&gt;Node14 -->
<g id="edge15_Node000010_Node000014" class="edge">
<title>Node10&#45;&gt;Node14</title>
<g id="a_edge15_Node000010_Node000014"><a xlink:title=" ">
<path fill="none" stroke="#63b8ff" d="M538.03,-164.98C554.93,-156.54 581.06,-143.47 600.64,-133.68"/>
<polygon fill="#63b8ff" stroke="#63b8ff" points="602.28,-136.77 609.66,-129.17 599.15,-130.51 602.28,-136.77"/>
</a>
</g>
</g>
<!-- Node15 -->
<g id="Node000015" class="node">
<title>Node15</title>
<g id="a_Node000015"><a xlink:href="sevetest30__gpio_8h.html" target="_top" xlink:title=" ">
<polygon fill="white" stroke="#666666" points="803,-129 697,-129 697,-110 803,-110 803,-129"/>
<text text-anchor="middle" x="750" y="-117" font-family="Helvetica,sans-Serif" font-size="10.00">sevetest30_gpio.h</text>
</a>
</g>
</g>
<!-- Node10&#45;&gt;Node15 -->
<g id="edge16_Node000010_Node000015" class="edge">
<title>Node10&#45;&gt;Node15</title>
<g id="a_edge16_Node000010_Node000015"><a xlink:title=" ">
<path fill="none" stroke="#63b8ff" d="M557.79,-164.98C597.24,-155.86 659.98,-141.33 702.98,-131.38"/>
<polygon fill="#63b8ff" stroke="#63b8ff" points="703.97,-134.75 712.92,-129.08 702.39,-127.93 703.97,-134.75"/>
</a>
</g>
</g>
<!-- Node17 -->
<g id="Node000017" class="node">
<title>Node17</title>
<g id="a_Node000017"><a xlink:title=" ">
<polygon fill="#e0e0e0" stroke="#999999" points="892.5,-129 821.5,-129 821.5,-110 892.5,-110 892.5,-129"/>
<text text-anchor="middle" x="857" y="-117" font-family="Helvetica,sans-Serif" font-size="10.00">driver/i2c.h</text>
</a>
</g>
</g>
<!-- Node10&#45;&gt;Node17 -->
<g id="edge21_Node000010_Node000017" class="edge">
<title>Node10&#45;&gt;Node17</title>
<g id="a_edge21_Node000010_Node000017"><a xlink:title=" ">
<path fill="none" stroke="#63b8ff" d="M558.18,-166.66C561.5,-166.09 564.81,-165.52 568,-165 673,-147.76 702.21,-147.2 811.08,-129.09"/>
<polygon fill="#63b8ff" stroke="#63b8ff" points="811.88,-132.51 821.16,-127.4 810.72,-125.6 811.88,-132.51"/>
</a>
</g>
</g>
<!-- Node18 -->
<g id="Node000018" class="node">
<title>Node18</title>
<g id="a_Node000018"><a xlink:title=" ">
<polygon fill="#e0e0e0" stroke="#999999" points="1029.5,-129 910.5,-129 910.5,-110 1029.5,-110 1029.5,-129"/>
<text text-anchor="middle" x="970" y="-117" font-family="Helvetica,sans-Serif" font-size="10.00">driver/spi_common.h</text>
</a>
</g>
</g>
<!-- Node10&#45;&gt;Node18 -->
<g id="edge22_Node000010_Node000018" class="edge">
<title>Node10&#45;&gt;Node18</title>
<g id="a_edge22_Node000010_Node000018"><a xlink:title=" ">
<path fill="none" stroke="#63b8ff" d="M558.16,-166.53C561.48,-165.98 564.8,-165.46 568,-165 712.46,-144.18 751.94,-146.16 899.93,-129.22"/>
<polygon fill="#63b8ff" stroke="#63b8ff" points="900.77,-132.64 910.3,-128.02 899.97,-125.69 900.77,-132.64"/>
</a>
</g>
</g>
<!-- Node19 -->
<g id="Node000019" class="node">
<title>Node19</title>
<g id="a_Node000019"><a xlink:title=" ">
<polygon fill="#e0e0e0" stroke="#999999" points="252,-129 142,-129 142,-110 252,-110 252,-129"/>
<text text-anchor="middle" x="197" y="-117" font-family="Helvetica,sans-Serif" font-size="10.00">driver/spi_master.h</text>
</a>
</g>
</g>
<!-- Node10&#45;&gt;Node19 -->
<g id="edge23_Node000010_Node000019" class="edge">
<title>Node10&#45;&gt;Node19</title>
<g id="a_edge23_Node000010_Node000019"><a xlink:title=" ">
<path fill="none" stroke="#63b8ff" d="M483.83,-167.42C428.97,-158.45 325.64,-141.54 259.14,-130.66"/>
<polygon fill="#63b8ff" stroke="#63b8ff" points="259.63,-127.2 249.2,-129.04 258.5,-134.11 259.63,-127.2"/>
</a>
</g>
</g>
<!-- Node20 -->
<g id="Node000020" class="node">
<title>Node20</title>
<g id="a_Node000020"><a xlink:title=" ">
<polygon fill="#e0e0e0" stroke="#999999" points="373.5,-129 270.5,-129 270.5,-110 373.5,-110 373.5,-129"/>
<text text-anchor="middle" x="322" y="-117" font-family="Helvetica,sans-Serif" font-size="10.00">esp_peripherals.h</text>
</a>
</g>
</g>
<!-- Node10&#45;&gt;Node20 -->
<g id="edge24_Node000010_Node000020" class="edge">
<title>Node10&#45;&gt;Node20</title>
<g id="a_edge24_Node000010_Node000020"><a xlink:title=" ">
<path fill="none" stroke="#63b8ff" d="M489.03,-164.98C455.18,-155.97 401.6,-141.7 364.29,-131.76"/>
<polygon fill="#63b8ff" stroke="#63b8ff" points="364.79,-128.27 354.22,-129.08 362.99,-135.04 364.79,-128.27"/>
</a>
</g>
</g>
<!-- Node21 -->
<g id="Node000021" class="node">
<title>Node21</title>
<g id="a_Node000021"><a xlink:href="_b_l5372_8h.html" target="_top" xlink:title=" ">
<polygon fill="white" stroke="#666666" points="1110,-129 1048,-129 1048,-110 1110,-110 1110,-129"/>
<text text-anchor="middle" x="1079" y="-117" font-family="Helvetica,sans-Serif" font-size="10.00">BL5372.h</text>
</a>
</g>
</g>
<!-- Node10&#45;&gt;Node21 -->
<g id="edge25_Node000010_Node000021" class="edge">
<title>Node10&#45;&gt;Node21</title>
<g id="a_edge25_Node000010_Node000021"><a xlink:title=" ">
<path fill="none" stroke="#63b8ff" d="M558.15,-166.42C561.47,-165.89 564.79,-165.41 568,-165 772.98,-138.7 829.44,-158.25 1037.6,-129.01"/>
<polygon fill="#63b8ff" stroke="#63b8ff" points="1038.22,-132.46 1047.63,-127.58 1037.23,-125.53 1038.22,-132.46"/>
</a>
</g>
</g>
<!-- Node16 -->
<g id="Node000016" class="node">
<title>Node16</title>
<g id="a_Node000016"><a xlink:href="_t_c_a6416_a_8h.html" target="_top" xlink:title=" ">
<polygon fill="white" stroke="#666666" points="502.5,-74 427.5,-74 427.5,-55 502.5,-55 502.5,-74"/>
<text text-anchor="middle" x="465" y="-62" font-family="Helvetica,sans-Serif" font-size="10.00">TCA6416A.h</text>
</a>
</g>
</g>
<!-- Node15&#45;&gt;Node16 -->
<g id="edge17_Node000015_Node000016" class="edge">
<title>Node15&#45;&gt;Node16</title>
<g id="a_edge17_Node000015_Node000016"><a xlink:title=" ">
<path fill="none" stroke="#63b8ff" d="M704.21,-109.98C651.73,-100.23 566.13,-84.31 512.81,-74.39"/>
<polygon fill="#63b8ff" stroke="#63b8ff" points="513.4,-70.94 502.93,-72.55 512.12,-77.82 513.4,-70.94"/>
</a>
</g>
</g>
<!-- Node16&#45;&gt;Node2 -->
<g id="edge18_Node000016_Node000002" class="edge">
<title>Node16&#45;&gt;Node2</title>
<g id="a_edge18_Node000016_Node000002"><a xlink:title=" ">
<path fill="none" stroke="#63b8ff" d="M427.35,-58.37C352.84,-48.22 187.39,-25.68 113.23,-15.57"/>
<polygon fill="#63b8ff" stroke="#63b8ff" points="113.35,-12.06 102.97,-14.17 112.41,-18.99 113.35,-12.06"/>
</a>
</g>
</g>
<!-- Node16&#45;&gt;Node5 -->
<g id="edge19_Node000016_Node000005" class="edge">
<title>Node16&#45;&gt;Node5</title>
<g id="a_edge19_Node000016_Node000005"><a xlink:title=" ">
<path fill="none" stroke="#63b8ff" d="M439.94,-54.98C413.97,-46.16 373.19,-32.31 344.04,-22.41"/>
<polygon fill="#63b8ff" stroke="#63b8ff" points="344.85,-18.99 334.26,-19.08 342.6,-25.61 344.85,-18.99"/>
</a>
</g>
</g>
<!-- Node16&#45;&gt;Node6 -->
<g id="edge20_Node000016_Node000006" class="edge">
<title>Node16&#45;&gt;Node6</title>
<g id="a_edge20_Node000016_Node000006"><a xlink:title=" ">
<path fill="none" stroke="#63b8ff" d="M502.7,-60.22C610.9,-50.82 921.87,-23.8 1034.04,-14.06"/>
<polygon fill="#63b8ff" stroke="#63b8ff" points="1034.6,-17.52 1044.26,-13.17 1033.99,-10.55 1034.6,-17.52"/>
</a>
</g>
</g>
<!-- Node21&#45;&gt;Node6 -->
<g id="edge27_Node000021_Node000006" class="edge">
<title>Node21&#45;&gt;Node6</title>
<g id="a_edge27_Node000021_Node000006"><a xlink:title=" ">
<path fill="none" stroke="#63b8ff" d="M1078.67,-109.66C1078.02,-92.17 1076.57,-52.8 1075.7,-29.27"/>
<polygon fill="#63b8ff" stroke="#63b8ff" points="1079.19,-29.02 1075.32,-19.16 1072.19,-29.28 1079.19,-29.02"/>
</a>
</g>
</g>
<!-- Node21&#45;&gt;Node11 -->
<g id="edge26_Node000021_Node000011" class="edge">
<title>Node21&#45;&gt;Node11</title>
<g id="a_edge26_Node000021_Node000011"><a xlink:title=" ">
<path fill="none" stroke="#63b8ff" d="M1088.96,-109.98C1098.13,-102.15 1111.94,-90.34 1123.03,-80.86"/>
<polygon fill="#63b8ff" stroke="#63b8ff" points="1125.53,-83.33 1130.86,-74.17 1120.98,-78.01 1125.53,-83.33"/>
</a>
</g>
</g>
</g>
</svg>
