<?xml version="1.0" encoding="UTF-8" standalone="no"?>
<!DOCTYPE svg PUBLIC "-//W3C//DTD SVG 1.1//EN"
 "http://www.w3.org/Graphics/SVG/1.1/DTD/svg11.dtd">
<!-- Generated by graphviz version 2.43.0 (0)
 -->
<!-- Title: main/sevetest30_SWEDA.c Pages: 1 -->
<svg width="715pt" height="192pt"
 viewBox="0.00 0.00 715.00 192.00" xmlns="http://www.w3.org/2000/svg" xmlns:xlink="http://www.w3.org/1999/xlink">
<g id="graph0" class="graph" transform="scale(1 1) rotate(0) translate(4 188)">
<title>main/sevetest30_SWEDA.c</title>
<!-- Node1 -->
<g id="Node000001" class="node">
<title>Node1</title>
<g id="a_Node000001"><a xlink:title=" ">
<polygon fill="#999999" stroke="#666666" points="511.5,-184 363.5,-184 363.5,-165 511.5,-165 511.5,-184"/>
<text text-anchor="middle" x="437.5" y="-172" font-family="Helvetica,sans-Serif" font-size="10.00">main/sevetest30_SWEDA.c</text>
</a>
</g>
</g>
<!-- Node2 -->
<g id="Node000002" class="node">
<title>Node2</title>
<g id="a_Node000002"><a xlink:href="sevetest30___s_w_e_d_a_8h.html" target="_top" xlink:title=" ">
<polygon fill="white" stroke="#666666" points="343,-129 222,-129 222,-110 343,-110 343,-129"/>
<text text-anchor="middle" x="282.5" y="-117" font-family="Helvetica,sans-Serif" font-size="10.00">sevetest30_SWEDA.h</text>
</a>
</g>
</g>
<!-- Node1&#45;&gt;Node2 -->
<g id="edge1_Node000001_Node000002" class="edge">
<title>Node1&#45;&gt;Node2</title>
<g id="a_edge1_Node000001_Node000002"><a xlink:title=" ">
<path fill="none" stroke="#63b8ff" d="M412.6,-164.98C386.8,-156.16 346.28,-142.31 317.32,-132.41"/>
<polygon fill="#63b8ff" stroke="#63b8ff" points="318.19,-129.01 307.6,-129.08 315.93,-135.63 318.19,-129.01"/>
</a>
</g>
</g>
<!-- Node12 -->
<g id="Node000012" class="node">
<title>Node12</title>
<g id="a_Node000012"><a xlink:title=" ">
<polygon fill="#e0e0e0" stroke="#999999" points="430,-129 361,-129 361,-110 430,-110 430,-129"/>
<text text-anchor="middle" x="395.5" y="-117" font-family="Helvetica,sans-Serif" font-size="10.00">esp_sntp.h</text>
</a>
</g>
</g>
<!-- Node1&#45;&gt;Node12 -->
<g id="edge17_Node000001_Node000012" class="edge">
<title>Node1&#45;&gt;Node12</title>
<g id="a_edge17_Node000001_Node000012"><a xlink:title=" ">
<path fill="none" stroke="#63b8ff" d="M430.56,-164.75C424.63,-157.26 415.93,-146.28 408.68,-137.13"/>
<polygon fill="#63b8ff" stroke="#63b8ff" points="411.26,-134.75 402.31,-129.09 405.77,-139.1 411.26,-134.75"/>
</a>
</g>
</g>
<!-- Node13 -->
<g id="Node000013" class="node">
<title>Node13</title>
<g id="a_Node000013"><a xlink:title=" ">
<polygon fill="#e0e0e0" stroke="#999999" points="511,-129 448,-129 448,-110 511,-110 511,-129"/>
<text text-anchor="middle" x="479.5" y="-117" font-family="Helvetica,sans-Serif" font-size="10.00">esp_log.h</text>
</a>
</g>
</g>
<!-- Node1&#45;&gt;Node13 -->
<g id="edge18_Node000001_Node000013" class="edge">
<title>Node1&#45;&gt;Node13</title>
<g id="a_edge18_Node000001_Node000013"><a xlink:title=" ">
<path fill="none" stroke="#63b8ff" d="M444.44,-164.75C450.37,-157.26 459.07,-146.28 466.32,-137.13"/>
<polygon fill="#63b8ff" stroke="#63b8ff" points="469.23,-139.1 472.69,-129.09 463.74,-134.75 469.23,-139.1"/>
</a>
</g>
</g>
<!-- Node14 -->
<g id="Node000014" class="node">
<title>Node14</title>
<g id="a_Node000014"><a xlink:title=" ">
<polygon fill="#e0e0e0" stroke="#999999" points="603.5,-129 529.5,-129 529.5,-110 603.5,-110 603.5,-129"/>
<text text-anchor="middle" x="566.5" y="-117" font-family="Helvetica,sans-Serif" font-size="10.00">driver/adc.h</text>
</a>
</g>
</g>
<!-- Node1&#45;&gt;Node14 -->
<g id="edge19_Node000001_Node000014" class="edge">
<title>Node1&#45;&gt;Node14</title>
<g id="a_edge19_Node000001_Node000014"><a xlink:title=" ">
<path fill="none" stroke="#63b8ff" d="M458.23,-164.98C479.26,-156.34 512.05,-142.87 536.04,-133.02"/>
<polygon fill="#63b8ff" stroke="#63b8ff" points="537.48,-136.21 545.4,-129.17 534.82,-129.73 537.48,-136.21"/>
</a>
</g>
</g>
<!-- Node15 -->
<g id="Node000015" class="node">
<title>Node15</title>
<g id="a_Node000015"><a xlink:title=" ">
<polygon fill="#e0e0e0" stroke="#999999" points="707,-129 622,-129 622,-110 707,-110 707,-129"/>
<text text-anchor="middle" x="664.5" y="-117" font-family="Helvetica,sans-Serif" font-size="10.00">esp_adc_cal.h</text>
</a>
</g>
</g>
<!-- Node1&#45;&gt;Node15 -->
<g id="edge20_Node000001_Node000015" class="edge">
<title>Node1&#45;&gt;Node15</title>
<g id="a_edge20_Node000001_Node000015"><a xlink:title=" ">
<path fill="none" stroke="#63b8ff" d="M473.97,-164.98C513.07,-155.86 575.27,-141.33 617.89,-131.38"/>
<polygon fill="#63b8ff" stroke="#63b8ff" points="618.8,-134.76 627.74,-129.08 617.21,-127.95 618.8,-134.76"/>
</a>
</g>
</g>
<!-- Node16 -->
<g id="Node000016" class="node">
<title>Node16</title>
<g id="a_Node000016"><a xlink:href="sevetest30__gpio_8h.html" target="_top" xlink:title=" ">
<polygon fill="white" stroke="#666666" points="169.5,-129 63.5,-129 63.5,-110 169.5,-110 169.5,-129"/>
<text text-anchor="middle" x="116.5" y="-117" font-family="Helvetica,sans-Serif" font-size="10.00">sevetest30_gpio.h</text>
</a>
</g>
</g>
<!-- Node1&#45;&gt;Node16 -->
<g id="edge21_Node000001_Node000016" class="edge">
<title>Node1&#45;&gt;Node16</title>
<g id="a_edge21_Node000001_Node000016"><a xlink:title=" ">
<path fill="none" stroke="#63b8ff" d="M385.93,-164.98C329.38,-155.65 238.69,-140.67 178.36,-130.71"/>
<polygon fill="#63b8ff" stroke="#63b8ff" points="178.65,-127.21 168.21,-129.04 177.51,-134.12 178.65,-127.21"/>
</a>
</g>
</g>
<!-- Node3 -->
<g id="Node000003" class="node">
<title>Node3</title>
<g id="a_Node000003"><a xlink:title=" ">
<polygon fill="#e0e0e0" stroke="#999999" points="435.5,-74 385.5,-74 385.5,-55 435.5,-55 435.5,-74"/>
<text text-anchor="middle" x="410.5" y="-62" font-family="Helvetica,sans-Serif" font-size="10.00">stdio.h</text>
</a>
</g>
</g>
<!-- Node2&#45;&gt;Node3 -->
<g id="edge2_Node000002_Node000003" class="edge">
<title>Node2&#45;&gt;Node3</title>
<g id="a_edge2_Node000002_Node000003"><a xlink:title=" ">
<path fill="none" stroke="#63b8ff" d="M303.07,-109.98C323.93,-101.34 356.47,-87.87 380.27,-78.02"/>
<polygon fill="#63b8ff" stroke="#63b8ff" points="381.66,-81.23 389.56,-74.17 378.98,-74.76 381.66,-81.23"/>
</a>
</g>
</g>
<!-- Node4 -->
<g id="Node000004" class="node">
<title>Node4</title>
<g id="a_Node000004"><a xlink:title=" ">
<polygon fill="#e0e0e0" stroke="#999999" points="134.5,-19 72.5,-19 72.5,0 134.5,0 134.5,-19"/>
<text text-anchor="middle" x="103.5" y="-7" font-family="Helvetica,sans-Serif" font-size="10.00">stdbool.h</text>
</a>
</g>
</g>
<!-- Node2&#45;&gt;Node4 -->
<g id="edge3_Node000002_Node000004" class="edge">
<title>Node2&#45;&gt;Node4</title>
<g id="a_edge3_Node000002_Node000004"><a xlink:title=" ">
<path fill="none" stroke="#63b8ff" d="M221.87,-115.58C188.54,-110.88 148.75,-99.74 122.5,-74 110.57,-62.3 106.06,-43.45 104.39,-29.32"/>
<polygon fill="#63b8ff" stroke="#63b8ff" points="107.87,-28.91 103.58,-19.23 100.89,-29.48 107.87,-28.91"/>
</a>
</g>
</g>
<!-- Node5 -->
<g id="Node000005" class="node">
<title>Node5</title>
<g id="a_Node000005"><a xlink:title=" ">
<polygon fill="#e0e0e0" stroke="#999999" points="547.5,-19 473.5,-19 473.5,0 547.5,0 547.5,-19"/>
<text text-anchor="middle" x="510.5" y="-7" font-family="Helvetica,sans-Serif" font-size="10.00">board_def.h</text>
</a>
</g>
</g>
<!-- Node2&#45;&gt;Node5 -->
<g id="edge4_Node000002_Node000005" class="edge">
<title>Node2&#45;&gt;Node5</title>
<g id="a_edge4_Node000002_Node000005"><a xlink:title=" ">
<path fill="none" stroke="#63b8ff" d="M343.24,-111.19C409.95,-102.55 509.2,-87.6 520.5,-74 530.94,-61.43 526.16,-42.46 520.16,-28.52"/>
<polygon fill="#63b8ff" stroke="#63b8ff" points="523.27,-26.92 515.78,-19.43 516.97,-29.96 523.27,-26.92"/>
</a>
</g>
</g>
<!-- Node6 -->
<g id="Node000006" class="node">
<title>Node6</title>
<g id="a_Node000006"><a xlink:href="_a_h_t21_8h.html" target="_top" xlink:title=" ">
<polygon fill="white" stroke="#666666" points="189.5,-74 131.5,-74 131.5,-55 189.5,-55 189.5,-74"/>
<text text-anchor="middle" x="160.5" y="-62" font-family="Helvetica,sans-Serif" font-size="10.00">AHT21.h</text>
</a>
</g>
</g>
<!-- Node2&#45;&gt;Node6 -->
<g id="edge5_Node000002_Node000006" class="edge">
<title>Node2&#45;&gt;Node6</title>
<g id="a_edge5_Node000002_Node000006"><a xlink:title=" ">
<path fill="none" stroke="#63b8ff" d="M262.9,-109.98C243.18,-101.42 212.55,-88.11 189.92,-78.28"/>
<polygon fill="#63b8ff" stroke="#63b8ff" points="191.02,-74.94 180.46,-74.17 188.24,-81.37 191.02,-74.94"/>
</a>
</g>
</g>
<!-- Node9 -->
<g id="Node000009" class="node">
<title>Node9</title>
<g id="a_Node000009"><a xlink:href="_a_g_s10_8h.html" target="_top" xlink:title=" ">
<polygon fill="white" stroke="#666666" points="511.5,-74 453.5,-74 453.5,-55 511.5,-55 511.5,-74"/>
<text text-anchor="middle" x="482.5" y="-62" font-family="Helvetica,sans-Serif" font-size="10.00">AGS10.h</text>
</a>
</g>
</g>
<!-- Node2&#45;&gt;Node9 -->
<g id="edge8_Node000002_Node000009" class="edge">
<title>Node2&#45;&gt;Node9</title>
<g id="a_edge8_Node000002_Node000009"><a xlink:title=" ">
<path fill="none" stroke="#63b8ff" d="M314.63,-109.98C349.66,-100.7 405.71,-85.85 443.29,-75.89"/>
<polygon fill="#63b8ff" stroke="#63b8ff" points="444.6,-79.16 453.37,-73.22 442.81,-72.4 444.6,-79.16"/>
</a>
</g>
</g>
<!-- Node10 -->
<g id="Node000010" class="node">
<title>Node10</title>
<g id="a_Node000010"><a xlink:href="_b_l5372_8h.html" target="_top" xlink:title=" ">
<polygon fill="white" stroke="#666666" points="269.5,-74 207.5,-74 207.5,-55 269.5,-55 269.5,-74"/>
<text text-anchor="middle" x="238.5" y="-62" font-family="Helvetica,sans-Serif" font-size="10.00">BL5372.h</text>
</a>
</g>
</g>
<!-- Node2&#45;&gt;Node10 -->
<g id="edge11_Node000002_Node000010" class="edge">
<title>Node2&#45;&gt;Node10</title>
<g id="a_edge11_Node000002_Node000010"><a xlink:title=" ">
<path fill="none" stroke="#63b8ff" d="M275.23,-109.75C268.96,-102.18 259.71,-91.05 252.07,-81.84"/>
<polygon fill="#63b8ff" stroke="#63b8ff" points="254.71,-79.55 245.63,-74.09 249.33,-84.02 254.71,-79.55"/>
</a>
</g>
</g>
<!-- Node11 -->
<g id="Node000011" class="node">
<title>Node11</title>
<g id="a_Node000011"><a xlink:href="lsm6ds3trc_8h.html" target="_top" xlink:title=" ">
<polygon fill="white" stroke="#666666" points="367.5,-74 287.5,-74 287.5,-55 367.5,-55 367.5,-74"/>
<text text-anchor="middle" x="327.5" y="-62" font-family="Helvetica,sans-Serif" font-size="10.00">lsm6ds3trc.h</text>
</a>
</g>
</g>
<!-- Node2&#45;&gt;Node11 -->
<g id="edge14_Node000002_Node000011" class="edge">
<title>Node2&#45;&gt;Node11</title>
<g id="a_edge14_Node000002_Node000011"><a xlink:title=" ">
<path fill="none" stroke="#63b8ff" d="M289.93,-109.75C296.35,-102.18 305.81,-91.05 313.62,-81.84"/>
<polygon fill="#63b8ff" stroke="#63b8ff" points="316.4,-83.98 320.21,-74.09 311.07,-79.45 316.4,-83.98"/>
</a>
</g>
</g>
<!-- Node7 -->
<g id="Node000007" class="node">
<title>Node7</title>
<g id="a_Node000007"><a xlink:title=" ">
<polygon fill="#e0e0e0" stroke="#999999" points="350,-19 275,-19 275,0 350,0 350,-19"/>
<text text-anchor="middle" x="312.5" y="-7" font-family="Helvetica,sans-Serif" font-size="10.00">esp_types.h</text>
</a>
</g>
</g>
<!-- Node6&#45;&gt;Node7 -->
<g id="edge6_Node000006_Node000007" class="edge">
<title>Node6&#45;&gt;Node7</title>
<g id="a_edge6_Node000006_Node000007"><a xlink:title=" ">
<path fill="none" stroke="#63b8ff" d="M184.92,-54.98C210.22,-46.16 249.95,-32.31 278.36,-22.41"/>
<polygon fill="#63b8ff" stroke="#63b8ff" points="279.6,-25.68 287.89,-19.08 277.29,-19.07 279.6,-25.68"/>
</a>
</g>
</g>
<!-- Node8 -->
<g id="Node000008" class="node">
<title>Node8</title>
<g id="a_Node000008"><a xlink:title=" ">
<polygon fill="#e0e0e0" stroke="#999999" points="242,-19 181,-19 181,0 242,0 242,-19"/>
<text text-anchor="middle" x="211.5" y="-7" font-family="Helvetica,sans-Serif" font-size="10.00">esp_err.h</text>
</a>
</g>
</g>
<!-- Node6&#45;&gt;Node8 -->
<g id="edge7_Node000006_Node000008" class="edge">
<title>Node6&#45;&gt;Node8</title>
<g id="a_edge7_Node000006_Node000008"><a xlink:title=" ">
<path fill="none" stroke="#63b8ff" d="M168.92,-54.75C176.27,-47.11 187.13,-35.82 196.04,-26.56"/>
<polygon fill="#63b8ff" stroke="#63b8ff" points="198.82,-28.72 203.24,-19.09 193.78,-23.87 198.82,-28.72"/>
</a>
</g>
</g>
<!-- Node9&#45;&gt;Node5 -->
<g id="edge10_Node000009_Node000005" class="edge">
<title>Node9&#45;&gt;Node5</title>
<g id="a_edge10_Node000009_Node000005"><a xlink:title=" ">
<path fill="none" stroke="#63b8ff" d="M487.12,-54.75C490.96,-47.49 496.52,-36.95 501.26,-27.98"/>
<polygon fill="#63b8ff" stroke="#63b8ff" points="504.39,-29.57 505.96,-19.09 498.2,-26.3 504.39,-29.57"/>
</a>
</g>
</g>
<!-- Node9&#45;&gt;Node7 -->
<g id="edge9_Node000009_Node000007" class="edge">
<title>Node9&#45;&gt;Node7</title>
<g id="a_edge9_Node000009_Node000007"><a xlink:title=" ">
<path fill="none" stroke="#63b8ff" d="M455.19,-54.98C426.65,-46.09 381.67,-32.07 349.86,-22.15"/>
<polygon fill="#63b8ff" stroke="#63b8ff" points="350.62,-18.72 340.03,-19.08 348.53,-25.4 350.62,-18.72"/>
</a>
</g>
</g>
<!-- Node10&#45;&gt;Node7 -->
<g id="edge12_Node000010_Node000007" class="edge">
<title>Node10&#45;&gt;Node7</title>
<g id="a_edge12_Node000010_Node000007"><a xlink:title=" ">
<path fill="none" stroke="#63b8ff" d="M250.39,-54.98C261.65,-46.92 278.79,-34.65 292.21,-25.03"/>
<polygon fill="#63b8ff" stroke="#63b8ff" points="294.3,-27.84 300.39,-19.17 290.23,-22.15 294.3,-27.84"/>
</a>
</g>
</g>
<!-- Node10&#45;&gt;Node8 -->
<g id="edge13_Node000010_Node000008" class="edge">
<title>Node10&#45;&gt;Node8</title>
<g id="a_edge13_Node000010_Node000008"><a xlink:title=" ">
<path fill="none" stroke="#63b8ff" d="M234.04,-54.75C230.38,-47.57 225.09,-37.18 220.55,-28.27"/>
<polygon fill="#63b8ff" stroke="#63b8ff" points="223.53,-26.41 215.88,-19.09 217.3,-29.59 223.53,-26.41"/>
</a>
</g>
</g>
<!-- Node11&#45;&gt;Node7 -->
<g id="edge15_Node000011_Node000007" class="edge">
<title>Node11&#45;&gt;Node7</title>
<g id="a_edge15_Node000011_Node000007"><a xlink:title=" ">
<path fill="none" stroke="#63b8ff" d="M325.02,-54.75C323.04,-47.72 320.18,-37.62 317.69,-28.84"/>
<polygon fill="#63b8ff" stroke="#63b8ff" points="321.02,-27.76 314.93,-19.09 314.29,-29.66 321.02,-27.76"/>
</a>
</g>
</g>
<!-- Node11&#45;&gt;Node8 -->
<g id="edge16_Node000011_Node000008" class="edge">
<title>Node11&#45;&gt;Node8</title>
<g id="a_edge16_Node000011_Node000008"><a xlink:title=" ">
<path fill="none" stroke="#63b8ff" d="M308.86,-54.98C290.2,-46.46 261.25,-33.23 239.76,-23.41"/>
<polygon fill="#63b8ff" stroke="#63b8ff" points="241.03,-20.14 230.48,-19.17 238.12,-26.51 241.03,-20.14"/>
</a>
</g>
</g>
<!-- Node17 -->
<g id="Node000017" class="node">
<title>Node17</title>
<g id="a_Node000017"><a xlink:href="_t_c_a6416_a_8h.html" target="_top" xlink:title=" ">
<polygon fill="white" stroke="#666666" points="75,-74 0,-74 0,-55 75,-55 75,-74"/>
<text text-anchor="middle" x="37.5" y="-62" font-family="Helvetica,sans-Serif" font-size="10.00">TCA6416A.h</text>
</a>
</g>
</g>
<!-- Node16&#45;&gt;Node17 -->
<g id="edge22_Node000016_Node000017" class="edge">
<title>Node16&#45;&gt;Node17</title>
<g id="a_edge22_Node000016_Node000017"><a xlink:title=" ">
<path fill="none" stroke="#63b8ff" d="M103.81,-109.98C91.67,-101.84 73.14,-89.41 58.75,-79.76"/>
<polygon fill="#63b8ff" stroke="#63b8ff" points="60.68,-76.84 50.42,-74.17 56.78,-82.65 60.68,-76.84"/>
</a>
</g>
</g>
<!-- Node17&#45;&gt;Node4 -->
<g id="edge24_Node000017_Node000004" class="edge">
<title>Node17&#45;&gt;Node4</title>
<g id="a_edge24_Node000017_Node000004"><a xlink:title=" ">
<path fill="none" stroke="#63b8ff" d="M48.1,-54.98C57.96,-47.07 72.85,-35.11 84.72,-25.58"/>
<polygon fill="#63b8ff" stroke="#63b8ff" points="87.1,-28.16 92.7,-19.17 82.71,-22.7 87.1,-28.16"/>
</a>
</g>
</g>
<!-- Node17&#45;&gt;Node8 -->
<g id="edge25_Node000017_Node000008" class="edge">
<title>Node17&#45;&gt;Node8</title>
<g id="a_edge25_Node000017_Node000008"><a xlink:title=" ">
<path fill="none" stroke="#63b8ff" d="M65.46,-54.98C94.8,-46.05 141.1,-31.94 173.69,-22.02"/>
<polygon fill="#63b8ff" stroke="#63b8ff" points="174.78,-25.34 183.32,-19.08 172.74,-18.65 174.78,-25.34"/>
</a>
</g>
</g>
<!-- Node18 -->
<g id="Node000018" class="node">
<title>Node18</title>
<g id="a_Node000018"><a xlink:title=" ">
<polygon fill="#e0e0e0" stroke="#999999" points="54,-19 1,-19 1,0 54,0 54,-19"/>
<text text-anchor="middle" x="27.5" y="-7" font-family="Helvetica,sans-Serif" font-size="10.00">string.h</text>
</a>
</g>
</g>
<!-- Node17&#45;&gt;Node18 -->
<g id="edge23_Node000017_Node000018" class="edge">
<title>Node17&#45;&gt;Node18</title>
<g id="a_edge23_Node000017_Node000018"><a xlink:title=" ">
<path fill="none" stroke="#63b8ff" d="M35.85,-54.75C34.54,-47.8 32.66,-37.85 31.02,-29.13"/>
<polygon fill="#63b8ff" stroke="#63b8ff" points="34.41,-28.27 29.12,-19.09 27.54,-29.56 34.41,-28.27"/>
</a>
</g>
</g>
</g>
</svg>
