<?xml version="1.0" encoding="UTF-8" standalone="no"?>
<!DOCTYPE svg PUBLIC "-//W3C//DTD SVG 1.1//EN"
 "http://www.w3.org/Graphics/SVG/1.1/DTD/svg11.dtd">
<!-- Generated by graphviz version 2.43.0 (0)
 -->
<!-- Title: components/sevetest30_board/include/sevetest30_gpio.h Pages: 1 -->
<svg width="999pt" height="313pt"
 viewBox="0.00 0.00 999.00 313.00" xmlns="http://www.w3.org/2000/svg" xmlns:xlink="http://www.w3.org/1999/xlink">
<g id="graph0" class="graph" transform="scale(1 1) rotate(0) translate(4 309)">
<title>components/sevetest30_board/include/sevetest30_gpio.h</title>
<!-- Node1 -->
<g id="Node000001" class="node">
<title>Node1</title>
<g id="a_Node000001"><a xlink:title=" ">
<polygon fill="#999999" stroke="#666666" points="666,-305 521,-305 521,-264 666,-264 666,-305"/>
<text text-anchor="start" x="529" y="-293" font-family="Helvetica,sans-Serif" font-size="10.00">components/sevetest30</text>
<text text-anchor="start" x="529" y="-282" font-family="Helvetica,sans-Serif" font-size="10.00">_board/include/sevetest30</text>
<text text-anchor="middle" x="593.5" y="-271" font-family="Helvetica,sans-Serif" font-size="10.00">_gpio.h</text>
</a>
</g>
</g>
<!-- Node2 -->
<g id="Node000002" class="node">
<title>Node2</title>
<g id="a_Node000002"><a xlink:href="board__ctrl_8h.html" target="_top" xlink:title=" ">
<polygon fill="white" stroke="#666666" points="501.5,-228 367.5,-228 367.5,-198 501.5,-198 501.5,-228"/>
<text text-anchor="start" x="375.5" y="-216" font-family="Helvetica,sans-Serif" font-size="10.00">components/sevetest30</text>
<text text-anchor="middle" x="434.5" y="-205" font-family="Helvetica,sans-Serif" font-size="10.00">_board/board_ctrl.h</text>
</a>
</g>
</g>
<!-- Node1&#45;&gt;Node2 -->
<g id="edge1_Node000001_Node000002" class="edge">
<title>Node1&#45;&gt;Node2</title>
<g id="a_edge1_Node000001_Node000002"><a xlink:title=" ">
<path fill="none" stroke="#63b8ff" d="M539.38,-259.85C515.25,-249.3 487.62,-237.22 466.79,-228.11"/>
<polygon fill="#63b8ff" stroke="#63b8ff" points="538.22,-263.16 548.79,-263.96 541.03,-256.74 538.22,-263.16"/>
</a>
</g>
</g>
<!-- Node15 -->
<g id="Node000015" class="node">
<title>Node15</title>
<g id="a_Node000015"><a xlink:href="sevetest30___s_w_e_d_a_8c.html" target="_top" xlink:title=" ">
<polygon fill="white" stroke="#666666" points="667.5,-222.5 519.5,-222.5 519.5,-203.5 667.5,-203.5 667.5,-222.5"/>
<text text-anchor="middle" x="593.5" y="-210.5" font-family="Helvetica,sans-Serif" font-size="10.00">main/sevetest30_SWEDA.c</text>
</a>
</g>
</g>
<!-- Node1&#45;&gt;Node15 -->
<g id="edge24_Node000001_Node000015" class="edge">
<title>Node1&#45;&gt;Node15</title>
<g id="a_edge24_Node000001_Node000015"><a xlink:title=" ">
<path fill="none" stroke="#63b8ff" d="M593.5,-253.47C593.5,-242.35 593.5,-230.58 593.5,-222.82"/>
<polygon fill="#63b8ff" stroke="#63b8ff" points="590,-253.77 593.5,-263.77 597,-253.77 590,-253.77"/>
</a>
</g>
</g>
<!-- Node16 -->
<g id="Node000016" class="node">
<title>Node16</title>
<g id="a_Node000016"><a xlink:href="sevetest30__gpio_8c.html" target="_top" xlink:title=" ">
<polygon fill="white" stroke="#666666" points="819,-222.5 686,-222.5 686,-203.5 819,-203.5 819,-222.5"/>
<text text-anchor="middle" x="752.5" y="-210.5" font-family="Helvetica,sans-Serif" font-size="10.00">main/sevetest30_gpio.c</text>
</a>
</g>
</g>
<!-- Node1&#45;&gt;Node16 -->
<g id="edge25_Node000001_Node000016" class="edge">
<title>Node1&#45;&gt;Node16</title>
<g id="a_edge25_Node000001_Node000016"><a xlink:title=" ">
<path fill="none" stroke="#63b8ff" d="M647.59,-259.86C677.13,-246.95 711.88,-231.75 733.05,-222.5"/>
<polygon fill="#63b8ff" stroke="#63b8ff" points="645.97,-256.74 638.21,-263.96 648.78,-263.16 645.97,-256.74"/>
</a>
</g>
</g>
<!-- Node3 -->
<g id="Node000003" class="node">
<title>Node3</title>
<g id="a_Node000003"><a xlink:href="gt32l32s0140_8h.html" target="_top" xlink:title=" ">
<polygon fill="white" stroke="#666666" points="280.5,-90.5 114.5,-90.5 114.5,-60.5 280.5,-60.5 280.5,-90.5"/>
<text text-anchor="start" x="122.5" y="-78.5" font-family="Helvetica,sans-Serif" font-size="10.00">components/sevetest30</text>
<text text-anchor="middle" x="197.5" y="-67.5" font-family="Helvetica,sans-Serif" font-size="10.00">_board/include/gt32l32s0140.h</text>
</a>
</g>
</g>
<!-- Node2&#45;&gt;Node3 -->
<g id="edge2_Node000002_Node000003" class="edge">
<title>Node2&#45;&gt;Node3</title>
<g id="a_edge2_Node000002_Node000003"><a xlink:title=" ">
<path fill="none" stroke="#63b8ff" d="M370.86,-194.92C346.09,-186.84 318.05,-175.89 294.5,-162 260.66,-142.05 227.76,-109.42 210.32,-90.77"/>
<polygon fill="#63b8ff" stroke="#63b8ff" points="369.94,-198.3 380.53,-197.98 372.06,-191.62 369.94,-198.3"/>
</a>
</g>
</g>
<!-- Node4 -->
<g id="Node000004" class="node">
<title>Node4</title>
<g id="a_Node000004"><a xlink:href="board__ctrl_8c.html" target="_top" xlink:title=" ">
<polygon fill="white" stroke="#666666" points="248,-19 147,-19 147,0 248,0 248,-19"/>
<text text-anchor="middle" x="197.5" y="-7" font-family="Helvetica,sans-Serif" font-size="10.00">main/board_ctrl.c</text>
</a>
</g>
</g>
<!-- Node2&#45;&gt;Node4 -->
<g id="edge18_Node000002_Node000004" class="edge">
<title>Node2&#45;&gt;Node4</title>
<g id="a_edge18_Node000002_Node000004"><a xlink:title=" ">
<path fill="none" stroke="#63b8ff" d="M356.85,-210.06C277.6,-203.32 158.9,-178.98 105.5,-96 95.64,-80.68 95.82,-70.44 105.5,-55 117.09,-36.51 138.79,-25.52 158.19,-19.08"/>
<polygon fill="#63b8ff" stroke="#63b8ff" points="357.03,-213.58 367.27,-210.86 357.57,-206.6 357.03,-213.58"/>
</a>
</g>
</g>
<!-- Node5 -->
<g id="Node000005" class="node">
<title>Node5</title>
<g id="a_Node000005"><a xlink:href="gt32l32s0140_8c.html" target="_top" xlink:title=" ">
<polygon fill="white" stroke="#666666" points="119,-19 0,-19 0,0 119,0 119,-19"/>
<text text-anchor="middle" x="59.5" y="-7" font-family="Helvetica,sans-Serif" font-size="10.00">main/gt32l32s0140.c</text>
</a>
</g>
</g>
<!-- Node2&#45;&gt;Node5 -->
<g id="edge19_Node000002_Node000005" class="edge">
<title>Node2&#45;&gt;Node5</title>
<g id="a_edge19_Node000002_Node000005"><a xlink:title=" ">
<path fill="none" stroke="#63b8ff" d="M357.43,-206.19C281.49,-199.21 171.87,-185.43 136.5,-162 84.36,-127.45 65.77,-46.23 60.92,-19.33"/>
<polygon fill="#63b8ff" stroke="#63b8ff" points="357.17,-209.68 367.45,-207.08 357.8,-202.7 357.17,-209.68"/>
</a>
</g>
</g>
<!-- Node6 -->
<g id="Node000006" class="node">
<title>Node6</title>
<g id="a_Node000006"><a xlink:href="main_8c.html" target="_top" xlink:title=" ">
<polygon fill="white" stroke="#666666" points="347,-19 270,-19 270,0 347,0 347,-19"/>
<text text-anchor="middle" x="308.5" y="-7" font-family="Helvetica,sans-Serif" font-size="10.00">main/main.c</text>
</a>
</g>
</g>
<!-- Node2&#45;&gt;Node6 -->
<g id="edge20_Node000002_Node000006" class="edge">
<title>Node2&#45;&gt;Node6</title>
<g id="a_edge20_Node000002_Node000006"><a xlink:title=" ">
<path fill="none" stroke="#63b8ff" d="M380.74,-193.44C365.71,-185.85 350.72,-175.58 340.5,-162 306.56,-116.89 306.77,-43.84 307.94,-19.05"/>
<polygon fill="#63b8ff" stroke="#63b8ff" points="379.53,-196.74 390.06,-197.83 382.51,-190.4 379.53,-196.74"/>
</a>
</g>
</g>
<!-- Node8 -->
<g id="Node000008" class="node">
<title>Node8</title>
<g id="a_Node000008"><a xlink:href="sevetest30___u_i_8h.html" target="_top" xlink:title=" ">
<polygon fill="white" stroke="#666666" points="519.5,-162 349.5,-162 349.5,-132 519.5,-132 519.5,-162"/>
<text text-anchor="start" x="357.5" y="-150" font-family="Helvetica,sans-Serif" font-size="10.00">components/sevetest30</text>
<text text-anchor="middle" x="434.5" y="-139" font-family="Helvetica,sans-Serif" font-size="10.00">_board/include/sevetest30_UI.h</text>
</a>
</g>
</g>
<!-- Node2&#45;&gt;Node8 -->
<g id="edge7_Node000002_Node000008" class="edge">
<title>Node2&#45;&gt;Node8</title>
<g id="a_edge7_Node000002_Node000008"><a xlink:title=" ">
<path fill="none" stroke="#63b8ff" d="M434.5,-187.54C434.5,-178.96 434.5,-169.61 434.5,-162.16"/>
<polygon fill="#63b8ff" stroke="#63b8ff" points="431,-187.8 434.5,-197.8 438,-187.8 431,-187.8"/>
</a>
</g>
</g>
<!-- Node11 -->
<g id="Node000011" class="node">
<title>Node11</title>
<g id="a_Node000011"><a xlink:href="sevetest30__sound_8c.html" target="_top" xlink:title=" ">
<polygon fill="white" stroke="#666666" points="756,-85 615,-85 615,-66 756,-66 756,-85"/>
<text text-anchor="middle" x="685.5" y="-73" font-family="Helvetica,sans-Serif" font-size="10.00">main/sevetest30_sound.c</text>
</a>
</g>
</g>
<!-- Node2&#45;&gt;Node11 -->
<g id="edge23_Node000002_Node000011" class="edge">
<title>Node2&#45;&gt;Node11</title>
<g id="a_edge23_Node000002_Node000011"><a xlink:title=" ">
<path fill="none" stroke="#63b8ff" d="M473.26,-193.23C490.55,-184.39 510.93,-173.32 528.5,-162 546.88,-150.16 548.83,-143.39 567.5,-132 599.39,-112.55 639.19,-95.12 663.46,-85.18"/>
<polygon fill="#63b8ff" stroke="#63b8ff" points="471.36,-190.27 464.01,-197.9 474.51,-196.51 471.36,-190.27"/>
</a>
</g>
</g>
<!-- Node12 -->
<g id="Node000012" class="node">
<title>Node12</title>
<g id="a_Node000012"><a xlink:href="_a_g_s10_8c.html" target="_top" xlink:title=" ">
<polygon fill="white" stroke="#666666" points="661,-156.5 576,-156.5 576,-137.5 661,-137.5 661,-156.5"/>
<text text-anchor="middle" x="618.5" y="-144.5" font-family="Helvetica,sans-Serif" font-size="10.00">main/AGS10.c</text>
</a>
</g>
</g>
<!-- Node2&#45;&gt;Node12 -->
<g id="edge17_Node000002_Node000012" class="edge">
<title>Node2&#45;&gt;Node12</title>
<g id="a_edge17_Node000002_Node000012"><a xlink:title=" ">
<path fill="none" stroke="#63b8ff" d="M484.59,-194.58C520.1,-182.23 566.21,-166.19 594.01,-156.52"/>
<polygon fill="#63b8ff" stroke="#63b8ff" points="483.17,-191.36 474.88,-197.95 485.47,-197.98 483.17,-191.36"/>
</a>
</g>
</g>
<!-- Node13 -->
<g id="Node000013" class="node">
<title>Node13</title>
<g id="a_Node000013"><a xlink:href="sevetest30___b_w_e_d_a_8c.html" target="_top" xlink:title=" ">
<polygon fill="white" stroke="#666666" points="828,-156.5 679,-156.5 679,-137.5 828,-137.5 828,-156.5"/>
<text text-anchor="middle" x="753.5" y="-144.5" font-family="Helvetica,sans-Serif" font-size="10.00">main/sevetest30_BWEDA.c</text>
</a>
</g>
</g>
<!-- Node2&#45;&gt;Node13 -->
<g id="edge21_Node000002_Node000013" class="edge">
<title>Node2&#45;&gt;Node13</title>
<g id="a_edge21_Node000002_Node000013"><a xlink:title=" ">
<path fill="none" stroke="#63b8ff" d="M511.59,-196.53C574.11,-183.99 659.92,-166.77 710.75,-156.58"/>
<polygon fill="#63b8ff" stroke="#63b8ff" points="510.88,-193.11 501.76,-198.51 512.26,-199.97 510.88,-193.11"/>
</a>
</g>
</g>
<!-- Node14 -->
<g id="Node000014" class="node">
<title>Node14</title>
<g id="a_Node000014"><a xlink:href="sevetest30___i_w_e_d_a_8c.html" target="_top" xlink:title=" ">
<polygon fill="white" stroke="#666666" points="991,-156.5 846,-156.5 846,-137.5 991,-137.5 991,-156.5"/>
<text text-anchor="middle" x="918.5" y="-144.5" font-family="Helvetica,sans-Serif" font-size="10.00">main/sevetest30_IWEDA.c</text>
</a>
</g>
</g>
<!-- Node2&#45;&gt;Node14 -->
<g id="edge22_Node000002_Node000014" class="edge">
<title>Node2&#45;&gt;Node14</title>
<g id="a_edge22_Node000002_Node000014"><a xlink:title=" ">
<path fill="none" stroke="#63b8ff" d="M511.77,-197.89C656.9,-176.99 695.98,-182 837.5,-162 848.66,-160.42 860.65,-158.49 871.89,-156.56"/>
<polygon fill="#63b8ff" stroke="#63b8ff" points="510.98,-194.46 501.59,-199.37 511.99,-201.39 510.98,-194.46"/>
</a>
</g>
</g>
<!-- Node3&#45;&gt;Node4 -->
<g id="edge3_Node000003_Node000004" class="edge">
<title>Node3&#45;&gt;Node4</title>
<g id="a_edge3_Node000003_Node000004"><a xlink:title=" ">
<path fill="none" stroke="#63b8ff" d="M197.5,-50.1C197.5,-39.3 197.5,-27.28 197.5,-19.34"/>
<polygon fill="#63b8ff" stroke="#63b8ff" points="194,-50.3 197.5,-60.3 201,-50.3 194,-50.3"/>
</a>
</g>
</g>
<!-- Node3&#45;&gt;Node5 -->
<g id="edge4_Node000003_Node000005" class="edge">
<title>Node3&#45;&gt;Node5</title>
<g id="a_edge4_Node000003_Node000005"><a xlink:title=" ">
<path fill="none" stroke="#63b8ff" d="M157.87,-56.12C131.53,-43.91 98.18,-28.44 77.87,-19.02"/>
<polygon fill="#63b8ff" stroke="#63b8ff" points="156.67,-59.42 167.22,-60.45 159.62,-53.07 156.67,-59.42"/>
</a>
</g>
</g>
<!-- Node3&#45;&gt;Node6 -->
<g id="edge5_Node000003_Node000006" class="edge">
<title>Node3&#45;&gt;Node6</title>
<g id="a_edge5_Node000003_Node000006"><a xlink:title=" ">
<path fill="none" stroke="#63b8ff" d="M230.78,-55.31C251.73,-43.23 277.74,-28.23 293.73,-19.02"/>
<polygon fill="#63b8ff" stroke="#63b8ff" points="228.77,-52.43 221.86,-60.45 232.27,-58.49 228.77,-52.43"/>
</a>
</g>
</g>
<!-- Node7 -->
<g id="Node000007" class="node">
<title>Node7</title>
<g id="a_Node000007"><a xlink:href="sevetest30___led_array_8c.html" target="_top" xlink:title=" ">
<polygon fill="white" stroke="#666666" points="519.5,-19 365.5,-19 365.5,0 519.5,0 519.5,-19"/>
<text text-anchor="middle" x="442.5" y="-7" font-family="Helvetica,sans-Serif" font-size="10.00">main/sevetest30_LedArray.c</text>
</a>
</g>
</g>
<!-- Node3&#45;&gt;Node7 -->
<g id="edge6_Node000003_Node000007" class="edge">
<title>Node3&#45;&gt;Node7</title>
<g id="a_edge6_Node000003_Node000007"><a xlink:title=" ">
<path fill="none" stroke="#63b8ff" d="M261.19,-57.86C308.85,-45.41 372.08,-28.9 409.89,-19.02"/>
<polygon fill="#63b8ff" stroke="#63b8ff" points="260.06,-54.54 251.27,-60.45 261.83,-61.31 260.06,-54.54"/>
</a>
</g>
</g>
<!-- Node8&#45;&gt;Node6 -->
<g id="edge13_Node000008_Node000006" class="edge">
<title>Node8&#45;&gt;Node6</title>
<g id="a_edge13_Node000008_Node000006"><a xlink:title=" ">
<path fill="none" stroke="#63b8ff" d="M402.18,-126.12C389.92,-117.7 376.31,-107.24 365.5,-96 341.76,-71.31 321.57,-35.56 312.95,-19.23"/>
<polygon fill="#63b8ff" stroke="#63b8ff" points="400.56,-129.24 410.82,-131.87 404.44,-123.41 400.56,-129.24"/>
</a>
</g>
</g>
<!-- Node8&#45;&gt;Node7 -->
<g id="edge14_Node000008_Node000007" class="edge">
<title>Node8&#45;&gt;Node7</title>
<g id="a_edge14_Node000008_Node000007"><a xlink:title=" ">
<path fill="none" stroke="#63b8ff" d="M493.51,-127.32C507.73,-119.9 521.2,-109.74 529.5,-96 538.92,-80.4 539.01,-70.54 529.5,-55 518.26,-36.62 496.76,-25.52 477.94,-19.01"/>
<polygon fill="#63b8ff" stroke="#63b8ff" points="491.62,-124.35 484.11,-131.82 494.64,-130.67 491.62,-124.35"/>
</a>
</g>
</g>
<!-- Node9 -->
<g id="Node000009" class="node">
<title>Node9</title>
<g id="a_Node000009"><a xlink:href="sevetest30___led_array_8h.html" target="_top" xlink:title=" ">
<polygon fill="white" stroke="#666666" points="520,-96 375,-96 375,-55 520,-55 520,-96"/>
<text text-anchor="start" x="383" y="-84" font-family="Helvetica,sans-Serif" font-size="10.00">components/sevetest30</text>
<text text-anchor="start" x="383" y="-73" font-family="Helvetica,sans-Serif" font-size="10.00">_board/include/sevetest30</text>
<text text-anchor="middle" x="447.5" y="-62" font-family="Helvetica,sans-Serif" font-size="10.00">_LedArray.h</text>
</a>
</g>
</g>
<!-- Node8&#45;&gt;Node9 -->
<g id="edge8_Node000008_Node000009" class="edge">
<title>Node8&#45;&gt;Node9</title>
<g id="a_edge8_Node000008_Node000009"><a xlink:title=" ">
<path fill="none" stroke="#63b8ff" d="M439.01,-121.91C440.58,-113.47 442.34,-104.1 443.84,-96.07"/>
<polygon fill="#63b8ff" stroke="#63b8ff" points="435.53,-121.46 437.13,-131.94 442.41,-122.75 435.53,-121.46"/>
</a>
</g>
</g>
<!-- Node10 -->
<g id="Node000010" class="node">
<title>Node10</title>
<g id="a_Node000010"><a xlink:href="sevetest30___u_i_8c.html" target="_top" xlink:title=" ">
<polygon fill="white" stroke="#666666" points="659.5,-19 537.5,-19 537.5,0 659.5,0 659.5,-19"/>
<text text-anchor="middle" x="598.5" y="-7" font-family="Helvetica,sans-Serif" font-size="10.00">main/sevetest30_UI.c</text>
</a>
</g>
</g>
<!-- Node8&#45;&gt;Node10 -->
<g id="edge15_Node000008_Node000010" class="edge">
<title>Node8&#45;&gt;Node10</title>
<g id="a_edge15_Node000008_Node000010"><a xlink:title=" ">
<path fill="none" stroke="#63b8ff" d="M491.71,-128.22C510.6,-120.44 530.78,-109.85 546.5,-96 571.79,-73.72 588.61,-36.11 595.28,-19.2"/>
<polygon fill="#63b8ff" stroke="#63b8ff" points="490.3,-125.02 482.28,-131.94 492.87,-131.53 490.3,-125.02"/>
</a>
</g>
</g>
<!-- Node8&#45;&gt;Node11 -->
<g id="edge16_Node000008_Node000011" class="edge">
<title>Node8&#45;&gt;Node11</title>
<g id="a_edge16_Node000008_Node000011"><a xlink:title=" ">
<path fill="none" stroke="#63b8ff" d="M495.09,-129.22C545.41,-115.29 614.94,-96.04 654.56,-85.07"/>
<polygon fill="#63b8ff" stroke="#63b8ff" points="494,-125.89 485.29,-131.94 495.86,-132.64 494,-125.89"/>
</a>
</g>
</g>
<!-- Node9&#45;&gt;Node4 -->
<g id="edge9_Node000009_Node000004" class="edge">
<title>Node9&#45;&gt;Node4</title>
<g id="a_edge9_Node000009_Node000004"><a xlink:title=" ">
<path fill="none" stroke="#63b8ff" d="M364.94,-53.36C319.2,-41.65 264.85,-27.74 230.76,-19.02"/>
<polygon fill="#63b8ff" stroke="#63b8ff" points="364.3,-56.81 374.85,-55.9 366.03,-50.03 364.3,-56.81"/>
</a>
</g>
</g>
<!-- Node9&#45;&gt;Node6 -->
<g id="edge10_Node000009_Node000006" class="edge">
<title>Node9&#45;&gt;Node6</title>
<g id="a_edge10_Node000009_Node000006"><a xlink:title=" ">
<path fill="none" stroke="#63b8ff" d="M395.67,-50.64C371.68,-39.59 344.67,-27.15 327.16,-19.09"/>
<polygon fill="#63b8ff" stroke="#63b8ff" points="394.49,-53.95 405.04,-54.95 397.42,-47.59 394.49,-53.95"/>
</a>
</g>
</g>
<!-- Node9&#45;&gt;Node7 -->
<g id="edge11_Node000009_Node000007" class="edge">
<title>Node9&#45;&gt;Node7</title>
<g id="a_edge11_Node000009_Node000007"><a xlink:title=" ">
<path fill="none" stroke="#63b8ff" d="M445.17,-44.74C444.45,-35.45 443.7,-25.9 443.18,-19.26"/>
<polygon fill="#63b8ff" stroke="#63b8ff" points="441.7,-45.25 445.97,-54.95 448.68,-44.71 441.7,-45.25"/>
</a>
</g>
</g>
<!-- Node9&#45;&gt;Node10 -->
<g id="edge12_Node000009_Node000010" class="edge">
<title>Node9&#45;&gt;Node10</title>
<g id="a_edge12_Node000009_Node000010"><a xlink:title=" ">
<path fill="none" stroke="#63b8ff" d="M503.11,-50.93C529.35,-39.81 559.04,-27.22 578.23,-19.09"/>
<polygon fill="#63b8ff" stroke="#63b8ff" points="501.47,-47.83 493.63,-54.95 504.2,-54.27 501.47,-47.83"/>
</a>
</g>
</g>
</g>
</svg>
