<?xml version="1.0" encoding="UTF-8" standalone="no"?>
<!DOCTYPE svg PUBLIC "-//W3C//DTD SVG 1.1//EN"
 "http://www.w3.org/Graphics/SVG/1.1/DTD/svg11.dtd">
<!-- Generated by graphviz version 2.43.0 (0)
 -->
<!-- Title: components/sevetest30_board/include/sevetest30_UI.h Pages: 1 -->
<svg width="1146pt" height="258pt"
 viewBox="0.00 0.00 1145.86 258.00" xmlns="http://www.w3.org/2000/svg" xmlns:xlink="http://www.w3.org/1999/xlink">
<g id="graph0" class="graph" transform="scale(1 1) rotate(0) translate(4 254)">
<title>components/sevetest30_board/include/sevetest30_UI.h</title>
<!-- Node1 -->
<g id="Node000001" class="node">
<title>Node1</title>
<g id="a_Node000001"><a xlink:title=" ">
<polygon fill="#999999" stroke="#666666" points="783,-250 613,-250 613,-220 783,-220 783,-250"/>
<text text-anchor="start" x="621" y="-238" font-family="Helvetica,sans-Serif" font-size="10.00">components/sevetest30</text>
<text text-anchor="middle" x="698" y="-227" font-family="Helvetica,sans-Serif" font-size="10.00">_board/include/sevetest30_UI.h</text>
</a>
</g>
</g>
<!-- Node2 -->
<g id="Node000002" class="node">
<title>Node2</title>
<g id="a_Node000002"><a xlink:title=" ">
<polygon fill="#e0e0e0" stroke="#999999" points="1045.5,-19 992.5,-19 992.5,0 1045.5,0 1045.5,-19"/>
<text text-anchor="middle" x="1019" y="-7" font-family="Helvetica,sans-Serif" font-size="10.00">string.h</text>
</a>
</g>
</g>
<!-- Node1&#45;&gt;Node2 -->
<g id="edge1_Node000001_Node000002" class="edge">
<title>Node1&#45;&gt;Node2</title>
<g id="a_edge1_Node000001_Node000002"><a xlink:title=" ">
<path fill="none" stroke="#63b8ff" d="M783.1,-226.11C897.06,-213.53 1089.64,-184.47 1130,-129 1160.53,-87.04 1089.76,-44.15 1047.59,-23.37"/>
<polygon fill="#63b8ff" stroke="#63b8ff" points="1049.1,-20.21 1038.57,-19.04 1046.07,-26.52 1049.1,-20.21"/>
</a>
</g>
</g>
<!-- Node3 -->
<g id="Node000003" class="node">
<title>Node3</title>
<g id="a_Node000003"><a xlink:title=" ">
<polygon fill="#e0e0e0" stroke="#999999" points="62,-19 0,-19 0,0 62,0 62,-19"/>
<text text-anchor="middle" x="31" y="-7" font-family="Helvetica,sans-Serif" font-size="10.00">stdbool.h</text>
</a>
</g>
</g>
<!-- Node1&#45;&gt;Node3 -->
<g id="edge2_Node000001_Node000003" class="edge">
<title>Node1&#45;&gt;Node3</title>
<g id="a_edge2_Node000001_Node000003"><a xlink:title=" ">
<path fill="none" stroke="#63b8ff" d="M612.86,-232.76C474.77,-229.72 208.68,-219.32 122,-184 86.32,-169.46 74.86,-162.01 55,-129 36.13,-97.64 31.83,-54.02 31.01,-29.39"/>
<polygon fill="#63b8ff" stroke="#63b8ff" points="34.51,-29.18 30.84,-19.24 27.51,-29.3 34.51,-29.18"/>
</a>
</g>
</g>
<!-- Node4 -->
<g id="Node000004" class="node">
<title>Node4</title>
<g id="a_Node000004"><a xlink:title=" ">
<polygon fill="#e0e0e0" stroke="#999999" points="160.5,-19 99.5,-19 99.5,0 160.5,0 160.5,-19"/>
<text text-anchor="middle" x="130" y="-7" font-family="Helvetica,sans-Serif" font-size="10.00">esp_err.h</text>
</a>
</g>
</g>
<!-- Node1&#45;&gt;Node4 -->
<g id="edge3_Node000001_Node000004" class="edge">
<title>Node1&#45;&gt;Node4</title>
<g id="a_edge3_Node000001_Node000004"><a xlink:title=" ">
<path fill="none" stroke="#63b8ff" d="M612.77,-232.83C457.19,-228.7 136.85,-210.28 68,-129 40.39,-96.41 84.48,-49.46 111.48,-25.62"/>
<polygon fill="#63b8ff" stroke="#63b8ff" points="113.89,-28.17 119.21,-19.01 109.34,-22.85 113.89,-28.17"/>
</a>
</g>
</g>
<!-- Node5 -->
<g id="Node000005" class="node">
<title>Node5</title>
<g id="a_Node000005"><a xlink:title=" ">
<polygon fill="#e0e0e0" stroke="#999999" points="754.5,-184 641.5,-184 641.5,-165 754.5,-165 754.5,-184"/>
<text text-anchor="middle" x="698" y="-172" font-family="Helvetica,sans-Serif" font-size="10.00">freertos/FreeRTOS.h</text>
</a>
</g>
</g>
<!-- Node1&#45;&gt;Node5 -->
<g id="edge4_Node000001_Node000005" class="edge">
<title>Node1&#45;&gt;Node5</title>
<g id="a_edge4_Node000001_Node000005"><a xlink:title=" ">
<path fill="none" stroke="#63b8ff" d="M698,-219.84C698,-212.21 698,-202.7 698,-194.45"/>
<polygon fill="#63b8ff" stroke="#63b8ff" points="701.5,-194.27 698,-184.27 694.5,-194.27 701.5,-194.27"/>
</a>
</g>
</g>
<!-- Node6 -->
<g id="Node000006" class="node">
<title>Node6</title>
<g id="a_Node000006"><a xlink:title=" ">
<polygon fill="#e0e0e0" stroke="#999999" points="861,-184 773,-184 773,-165 861,-165 861,-184"/>
<text text-anchor="middle" x="817" y="-172" font-family="Helvetica,sans-Serif" font-size="10.00">freertos/task.h</text>
</a>
</g>
</g>
<!-- Node1&#45;&gt;Node6 -->
<g id="edge5_Node000001_Node000006" class="edge">
<title>Node1&#45;&gt;Node6</title>
<g id="a_edge5_Node000001_Node000006"><a xlink:title=" ">
<path fill="none" stroke="#63b8ff" d="M726.5,-219.99C745.91,-210.45 771.43,-197.9 790.42,-188.57"/>
<polygon fill="#63b8ff" stroke="#63b8ff" points="792,-191.69 799.43,-184.14 788.91,-185.41 792,-191.69"/>
</a>
</g>
</g>
<!-- Node7 -->
<g id="Node000007" class="node">
<title>Node7</title>
<g id="a_Node000007"><a xlink:title=" ">
<polygon fill="#e0e0e0" stroke="#999999" points="950.5,-184 879.5,-184 879.5,-165 950.5,-165 950.5,-184"/>
<text text-anchor="middle" x="915" y="-172" font-family="Helvetica,sans-Serif" font-size="10.00">driver/i2s.h</text>
</a>
</g>
</g>
<!-- Node1&#45;&gt;Node7 -->
<g id="edge6_Node000001_Node000007" class="edge">
<title>Node1&#45;&gt;Node7</title>
<g id="a_edge6_Node000001_Node000007"><a xlink:title=" ">
<path fill="none" stroke="#63b8ff" d="M749.98,-219.99C787.75,-209.8 838.21,-196.2 873.34,-186.73"/>
<polygon fill="#63b8ff" stroke="#63b8ff" points="874.53,-190.04 883.27,-184.05 872.7,-183.28 874.53,-190.04"/>
</a>
</g>
</g>
<!-- Node8 -->
<g id="Node000008" class="node">
<title>Node8</title>
<g id="a_Node000008"><a xlink:href="board__ctrl_8h.html" target="_top" xlink:title=" ">
<polygon fill="white" stroke="#666666" points="623,-184 549,-184 549,-165 623,-165 623,-184"/>
<text text-anchor="middle" x="586" y="-172" font-family="Helvetica,sans-Serif" font-size="10.00">board_ctrl.h</text>
</a>
</g>
</g>
<!-- Node1&#45;&gt;Node8 -->
<g id="edge7_Node000001_Node000008" class="edge">
<title>Node1&#45;&gt;Node8</title>
<g id="a_edge7_Node000001_Node000008"><a xlink:title=" ">
<path fill="none" stroke="#63b8ff" d="M671.17,-219.99C653.15,-210.58 629.54,-198.24 611.75,-188.95"/>
<polygon fill="#63b8ff" stroke="#63b8ff" points="613.02,-185.67 602.54,-184.14 609.78,-191.87 613.02,-185.67"/>
</a>
</g>
</g>
<!-- Node8&#45;&gt;Node2 -->
<g id="edge9_Node000008_Node000002" class="edge">
<title>Node8&#45;&gt;Node2</title>
<g id="a_edge9_Node000008_Node000002"><a xlink:title=" ">
<path fill="none" stroke="#63b8ff" d="M623.16,-166.51C626.48,-165.97 629.8,-165.46 633,-165 709.31,-154.13 917.62,-176.92 978,-129 1008.6,-104.72 1016.45,-56.25 1018.4,-29.44"/>
<polygon fill="#63b8ff" stroke="#63b8ff" points="1021.92,-29.27 1018.94,-19.11 1014.93,-28.91 1021.92,-29.27"/>
</a>
</g>
</g>
<!-- Node9 -->
<g id="Node000009" class="node">
<title>Node9</title>
<g id="a_Node000009"><a xlink:title=" ">
<polygon fill="#e0e0e0" stroke="#999999" points="560.5,-74 485.5,-74 485.5,-55 560.5,-55 560.5,-74"/>
<text text-anchor="middle" x="523" y="-62" font-family="Helvetica,sans-Serif" font-size="10.00">esp_types.h</text>
</a>
</g>
</g>
<!-- Node8&#45;&gt;Node9 -->
<g id="edge8_Node000008_Node000009" class="edge">
<title>Node8&#45;&gt;Node9</title>
<g id="a_edge8_Node000008_Node000009"><a xlink:title=" ">
<path fill="none" stroke="#63b8ff" d="M623.16,-166.53C626.48,-165.98 629.8,-165.46 633,-165 706.36,-154.37 1011.7,-164.99 962,-110 936.13,-81.37 679,-70.24 570.7,-66.8"/>
<polygon fill="#63b8ff" stroke="#63b8ff" points="570.8,-63.3 560.7,-66.49 570.58,-70.3 570.8,-63.3"/>
</a>
</g>
</g>
<!-- Node10 -->
<g id="Node000010" class="node">
<title>Node10</title>
<g id="a_Node000010"><a xlink:title=" ">
<polygon fill="#e0e0e0" stroke="#999999" points="1121,-129 1047,-129 1047,-110 1121,-110 1121,-129"/>
<text text-anchor="middle" x="1084" y="-117" font-family="Helvetica,sans-Serif" font-size="10.00">board_def.h</text>
</a>
</g>
</g>
<!-- Node8&#45;&gt;Node10 -->
<g id="edge10_Node000008_Node000010" class="edge">
<title>Node8&#45;&gt;Node10</title>
<g id="a_edge10_Node000008_Node000010"><a xlink:title=" ">
<path fill="none" stroke="#63b8ff" d="M623.15,-166.47C626.48,-165.93 629.8,-165.43 633,-165 809.89,-141.09 855.95,-151.69 1033,-129 1034.25,-128.84 1035.52,-128.67 1036.8,-128.5"/>
<polygon fill="#63b8ff" stroke="#63b8ff" points="1037.34,-131.95 1046.72,-127.05 1036.32,-125.03 1037.34,-131.95"/>
</a>
</g>
</g>
<!-- Node11 -->
<g id="Node000011" class="node">
<title>Node11</title>
<g id="a_Node000011"><a xlink:title=" ">
<polygon fill="#e0e0e0" stroke="#999999" points="274.5,-129 201.5,-129 201.5,-110 274.5,-110 274.5,-129"/>
<text text-anchor="middle" x="238" y="-117" font-family="Helvetica,sans-Serif" font-size="10.00">audio_hal.h</text>
</a>
</g>
</g>
<!-- Node8&#45;&gt;Node11 -->
<g id="edge11_Node000008_Node000011" class="edge">
<title>Node8&#45;&gt;Node11</title>
<g id="a_edge11_Node000008_Node000011"><a xlink:title=" ">
<path fill="none" stroke="#63b8ff" d="M548.74,-168.45C493.49,-160.88 386.35,-145.81 284.76,-129.07"/>
<polygon fill="#63b8ff" stroke="#63b8ff" points="285.07,-125.58 274.64,-127.39 283.93,-132.48 285.07,-125.58"/>
</a>
</g>
</g>
<!-- Node12 -->
<g id="Node000012" class="node">
<title>Node12</title>
<g id="a_Node000012"><a xlink:title=" ">
<polygon fill="#e0e0e0" stroke="#999999" points="395.5,-129 292.5,-129 292.5,-110 395.5,-110 395.5,-129"/>
<text text-anchor="middle" x="344" y="-117" font-family="Helvetica,sans-Serif" font-size="10.00">esxxx_common.h</text>
</a>
</g>
</g>
<!-- Node8&#45;&gt;Node12 -->
<g id="edge12_Node000008_Node000012" class="edge">
<title>Node8&#45;&gt;Node12</title>
<g id="a_edge12_Node000008_Node000012"><a xlink:title=" ">
<path fill="none" stroke="#63b8ff" d="M548.98,-165.39C507.16,-156.23 438.94,-141.29 392.8,-131.19"/>
<polygon fill="#63b8ff" stroke="#63b8ff" points="393.54,-127.77 383.02,-129.05 392.04,-134.6 393.54,-127.77"/>
</a>
</g>
</g>
<!-- Node13 -->
<g id="Node000013" class="node">
<title>Node13</title>
<g id="a_Node000013"><a xlink:href="sevetest30__gpio_8h.html" target="_top" xlink:title=" ">
<polygon fill="white" stroke="#666666" points="183,-129 77,-129 77,-110 183,-110 183,-129"/>
<text text-anchor="middle" x="130" y="-117" font-family="Helvetica,sans-Serif" font-size="10.00">sevetest30_gpio.h</text>
</a>
</g>
</g>
<!-- Node8&#45;&gt;Node13 -->
<g id="edge13_Node000008_Node000013" class="edge">
<title>Node8&#45;&gt;Node13</title>
<g id="a_edge13_Node000008_Node000013"><a xlink:title=" ">
<path fill="none" stroke="#63b8ff" d="M548.85,-169.56C480.78,-162.29 331.2,-146.03 193.57,-129.04"/>
<polygon fill="#63b8ff" stroke="#63b8ff" points="193.62,-125.52 183.27,-127.77 192.76,-132.47 193.62,-125.52"/>
</a>
</g>
</g>
<!-- Node15 -->
<g id="Node000015" class="node">
<title>Node15</title>
<g id="a_Node000015"><a xlink:title=" ">
<polygon fill="#e0e0e0" stroke="#999999" points="565.5,-129 494.5,-129 494.5,-110 565.5,-110 565.5,-129"/>
<text text-anchor="middle" x="530" y="-117" font-family="Helvetica,sans-Serif" font-size="10.00">driver/i2c.h</text>
</a>
</g>
</g>
<!-- Node8&#45;&gt;Node15 -->
<g id="edge18_Node000008_Node000015" class="edge">
<title>Node8&#45;&gt;Node15</title>
<g id="a_edge18_Node000008_Node000015"><a xlink:title=" ">
<path fill="none" stroke="#63b8ff" d="M577,-164.98C568.81,-157.23 556.49,-145.58 546.53,-136.14"/>
<polygon fill="#63b8ff" stroke="#63b8ff" points="548.83,-133.5 539.16,-129.17 544.02,-138.59 548.83,-133.5"/>
</a>
</g>
</g>
<!-- Node16 -->
<g id="Node000016" class="node">
<title>Node16</title>
<g id="a_Node000016"><a xlink:title=" ">
<polygon fill="#e0e0e0" stroke="#999999" points="702.5,-129 583.5,-129 583.5,-110 702.5,-110 702.5,-129"/>
<text text-anchor="middle" x="643" y="-117" font-family="Helvetica,sans-Serif" font-size="10.00">driver/spi_common.h</text>
</a>
</g>
</g>
<!-- Node8&#45;&gt;Node16 -->
<g id="edge19_Node000008_Node000016" class="edge">
<title>Node8&#45;&gt;Node16</title>
<g id="a_edge19_Node000008_Node000016"><a xlink:title=" ">
<path fill="none" stroke="#63b8ff" d="M595.16,-164.98C603.5,-157.23 616.03,-145.58 626.18,-136.14"/>
<polygon fill="#63b8ff" stroke="#63b8ff" points="628.74,-138.54 633.68,-129.17 623.97,-133.42 628.74,-138.54"/>
</a>
</g>
</g>
<!-- Node17 -->
<g id="Node000017" class="node">
<title>Node17</title>
<g id="a_Node000017"><a xlink:title=" ">
<polygon fill="#e0e0e0" stroke="#999999" points="831,-129 721,-129 721,-110 831,-110 831,-129"/>
<text text-anchor="middle" x="776" y="-117" font-family="Helvetica,sans-Serif" font-size="10.00">driver/spi_master.h</text>
</a>
</g>
</g>
<!-- Node8&#45;&gt;Node17 -->
<g id="edge20_Node000008_Node000017" class="edge">
<title>Node8&#45;&gt;Node17</title>
<g id="a_edge20_Node000008_Node000017"><a xlink:title=" ">
<path fill="none" stroke="#63b8ff" d="M616.53,-164.98C648.7,-156.01 699.56,-141.82 735.17,-131.89"/>
<polygon fill="#63b8ff" stroke="#63b8ff" points="736.54,-135.14 745.23,-129.08 734.66,-128.4 736.54,-135.14"/>
</a>
</g>
</g>
<!-- Node18 -->
<g id="Node000018" class="node">
<title>Node18</title>
<g id="a_Node000018"><a xlink:title=" ">
<polygon fill="#e0e0e0" stroke="#999999" points="952.5,-129 849.5,-129 849.5,-110 952.5,-110 952.5,-129"/>
<text text-anchor="middle" x="901" y="-117" font-family="Helvetica,sans-Serif" font-size="10.00">esp_peripherals.h</text>
</a>
</g>
</g>
<!-- Node8&#45;&gt;Node18 -->
<g id="edge21_Node000008_Node000018" class="edge">
<title>Node8&#45;&gt;Node18</title>
<g id="a_edge21_Node000008_Node000018"><a xlink:title=" ">
<path fill="none" stroke="#63b8ff" d="M623.19,-166.72C626.51,-166.13 629.81,-165.55 633,-165 703.62,-152.75 784.83,-139.37 839.17,-130.51"/>
<polygon fill="#63b8ff" stroke="#63b8ff" points="840.03,-133.91 849.34,-128.85 838.9,-127.01 840.03,-133.91"/>
</a>
</g>
</g>
<!-- Node19 -->
<g id="Node000019" class="node">
<title>Node19</title>
<g id="a_Node000019"><a xlink:href="_b_l5372_8h.html" target="_top" xlink:title=" ">
<polygon fill="white" stroke="#666666" points="476,-129 414,-129 414,-110 476,-110 476,-129"/>
<text text-anchor="middle" x="445" y="-117" font-family="Helvetica,sans-Serif" font-size="10.00">BL5372.h</text>
</a>
</g>
</g>
<!-- Node8&#45;&gt;Node19 -->
<g id="edge22_Node000008_Node000019" class="edge">
<title>Node8&#45;&gt;Node19</title>
<g id="a_edge22_Node000008_Node000019"><a xlink:title=" ">
<path fill="none" stroke="#63b8ff" d="M563.35,-164.98C540.15,-156.27 503.88,-142.63 477.6,-132.75"/>
<polygon fill="#63b8ff" stroke="#63b8ff" points="478.66,-129.41 468.07,-129.17 476.2,-135.97 478.66,-129.41"/>
</a>
</g>
</g>
<!-- Node14 -->
<g id="Node000014" class="node">
<title>Node14</title>
<g id="a_Node000014"><a xlink:href="_t_c_a6416_a_8h.html" target="_top" xlink:title=" ">
<polygon fill="white" stroke="#666666" points="167.5,-74 92.5,-74 92.5,-55 167.5,-55 167.5,-74"/>
<text text-anchor="middle" x="130" y="-62" font-family="Helvetica,sans-Serif" font-size="10.00">TCA6416A.h</text>
</a>
</g>
</g>
<!-- Node13&#45;&gt;Node14 -->
<g id="edge14_Node000013_Node000014" class="edge">
<title>Node13&#45;&gt;Node14</title>
<g id="a_edge14_Node000013_Node000014"><a xlink:title=" ">
<path fill="none" stroke="#63b8ff" d="M130,-109.75C130,-102.8 130,-92.85 130,-84.13"/>
<polygon fill="#63b8ff" stroke="#63b8ff" points="133.5,-84.09 130,-74.09 126.5,-84.09 133.5,-84.09"/>
</a>
</g>
</g>
<!-- Node14&#45;&gt;Node2 -->
<g id="edge15_Node000014_Node000002" class="edge">
<title>Node14&#45;&gt;Node2</title>
<g id="a_edge15_Node000014_Node000002"><a xlink:title=" ">
<path fill="none" stroke="#63b8ff" d="M167.63,-61.26C313.2,-52.58 838.42,-21.27 982.32,-12.69"/>
<polygon fill="#63b8ff" stroke="#63b8ff" points="982.62,-16.17 992.4,-12.09 982.21,-9.19 982.62,-16.17"/>
</a>
</g>
</g>
<!-- Node14&#45;&gt;Node3 -->
<g id="edge16_Node000014_Node000003" class="edge">
<title>Node14&#45;&gt;Node3</title>
<g id="a_edge16_Node000014_Node000003"><a xlink:title=" ">
<path fill="none" stroke="#63b8ff" d="M114.09,-54.98C98.45,-46.61 74.34,-33.7 56.12,-23.95"/>
<polygon fill="#63b8ff" stroke="#63b8ff" points="57.66,-20.8 47.2,-19.17 54.36,-26.98 57.66,-20.8"/>
</a>
</g>
</g>
<!-- Node14&#45;&gt;Node4 -->
<g id="edge17_Node000014_Node000004" class="edge">
<title>Node14&#45;&gt;Node4</title>
<g id="a_edge17_Node000014_Node000004"><a xlink:title=" ">
<path fill="none" stroke="#63b8ff" d="M130,-54.75C130,-47.8 130,-37.85 130,-29.13"/>
<polygon fill="#63b8ff" stroke="#63b8ff" points="133.5,-29.09 130,-19.09 126.5,-29.09 133.5,-29.09"/>
</a>
</g>
</g>
<!-- Node19&#45;&gt;Node4 -->
<g id="edge24_Node000019_Node000004" class="edge">
<title>Node19&#45;&gt;Node4</title>
<g id="a_edge24_Node000019_Node000004"><a xlink:title=" ">
<path fill="none" stroke="#63b8ff" d="M420.02,-109.94C364.08,-90.76 228.64,-44.32 164.62,-22.37"/>
<polygon fill="#63b8ff" stroke="#63b8ff" points="165.58,-19 154.98,-19.07 163.31,-25.62 165.58,-19"/>
</a>
</g>
</g>
<!-- Node19&#45;&gt;Node9 -->
<g id="edge23_Node000019_Node000009" class="edge">
<title>Node19&#45;&gt;Node9</title>
<g id="a_edge23_Node000019_Node000009"><a xlink:title=" ">
<path fill="none" stroke="#63b8ff" d="M457.53,-109.98C469.4,-101.92 487.46,-89.65 501.61,-80.03"/>
<polygon fill="#63b8ff" stroke="#63b8ff" points="503.94,-82.69 510.24,-74.17 500,-76.9 503.94,-82.69"/>
</a>
</g>
</g>
</g>
</svg>
