<?xml version="1.0" encoding="UTF-8" standalone="no"?>
<!DOCTYPE svg PUBLIC "-//W3C//DTD SVG 1.1//EN"
 "http://www.w3.org/Graphics/SVG/1.1/DTD/svg11.dtd">
<!-- Generated by graphviz version 2.43.0 (0)
 -->
<!-- Title: main/sevetest30_LedArray.c Pages: 1 -->
<svg width="2415pt" height="357pt"
 viewBox="0.00 0.00 2414.50 357.00" xmlns="http://www.w3.org/2000/svg" xmlns:xlink="http://www.w3.org/1999/xlink">
<g id="graph0" class="graph" transform="scale(1 1) rotate(0) translate(4 353)">
<title>main/sevetest30_LedArray.c</title>
<!-- Node1 -->
<g id="Node000001" class="node">
<title>Node1</title>
<g id="a_Node000001"><a xlink:title=" ">
<polygon fill="#999999" stroke="#666666" points="1690,-349 1536,-349 1536,-330 1690,-330 1690,-349"/>
<text text-anchor="middle" x="1613" y="-337" font-family="Helvetica,sans-Serif" font-size="10.00">main/sevetest30_LedArray.c</text>
</a>
</g>
</g>
<!-- Node2 -->
<g id="Node000002" class="node">
<title>Node2</title>
<g id="a_Node000002"><a xlink:href="sevetest30___led_array_8h.html" target="_top" xlink:title=" ">
<polygon fill="white" stroke="#666666" points="1355.5,-294 1228.5,-294 1228.5,-275 1355.5,-275 1355.5,-294"/>
<text text-anchor="middle" x="1292" y="-282" font-family="Helvetica,sans-Serif" font-size="10.00">sevetest30_LedArray.h</text>
</a>
</g>
</g>
<!-- Node1&#45;&gt;Node2 -->
<g id="edge1_Node000001_Node000002" class="edge">
<title>Node1&#45;&gt;Node2</title>
<g id="a_edge1_Node000001_Node000002"><a xlink:title=" ">
<path fill="none" stroke="#63b8ff" d="M1561.43,-329.98C1504.88,-320.65 1414.19,-305.67 1353.86,-295.71"/>
<polygon fill="#63b8ff" stroke="#63b8ff" points="1354.15,-292.21 1343.71,-294.04 1353.01,-299.12 1354.15,-292.21"/>
</a>
</g>
</g>
<!-- Node3 -->
<g id="Node000003" class="node">
<title>Node3</title>
<g id="a_Node000003"><a xlink:title=" ">
<polygon fill="#e0e0e0" stroke="#999999" points="1410.5,-19 1357.5,-19 1357.5,0 1410.5,0 1410.5,-19"/>
<text text-anchor="middle" x="1384" y="-7" font-family="Helvetica,sans-Serif" font-size="10.00">string.h</text>
</a>
</g>
</g>
<!-- Node1&#45;&gt;Node3 -->
<g id="edge38_Node000001_Node000003" class="edge">
<title>Node1&#45;&gt;Node3</title>
<g id="a_edge38_Node000001_Node000003"><a xlink:title=" ">
<path fill="none" stroke="#63b8ff" d="M1547.66,-329.96C1504.78,-322.86 1454.26,-311.13 1441,-294 1435.83,-287.32 1440.2,-283.41 1441,-275 1445.24,-230.18 1460,-220.52 1460,-175.5 1460,-175.5 1460,-175.5 1460,-118.5 1460,-79.47 1426.39,-44.58 1403.87,-25.6"/>
<polygon fill="#63b8ff" stroke="#63b8ff" points="1405.85,-22.7 1395.88,-19.12 1401.44,-28.14 1405.85,-22.7"/>
</a>
</g>
</g>
<!-- Node5 -->
<g id="Node000005" class="node">
<title>Node5</title>
<g id="a_Node000005"><a xlink:href="sevetest30___u_i_8h.html" target="_top" xlink:title=" ">
<polygon fill="white" stroke="#666666" points="867.5,-239 772.5,-239 772.5,-220 867.5,-220 867.5,-239"/>
<text text-anchor="middle" x="820" y="-227" font-family="Helvetica,sans-Serif" font-size="10.00">sevetest30_UI.h</text>
</a>
</g>
</g>
<!-- Node1&#45;&gt;Node5 -->
<g id="edge30_Node000001_Node000005" class="edge">
<title>Node1&#45;&gt;Node5</title>
<g id="a_edge30_Node000001_Node000005"><a xlink:title=" ">
<path fill="none" stroke="#63b8ff" d="M1535.81,-334.37C1438.47,-328.52 1266.17,-315.99 1120,-294 1028.12,-280.18 922.09,-255.69 863.9,-241.5"/>
<polygon fill="#63b8ff" stroke="#63b8ff" points="864.5,-238.05 853.95,-239.06 862.83,-244.84 864.5,-238.05"/>
</a>
</g>
</g>
<!-- Node6 -->
<g id="Node000006" class="node">
<title>Node6</title>
<g id="a_Node000006"><a xlink:title=" ">
<polygon fill="#e0e0e0" stroke="#999999" points="201,-19 139,-19 139,0 201,0 201,-19"/>
<text text-anchor="middle" x="170" y="-7" font-family="Helvetica,sans-Serif" font-size="10.00">stdbool.h</text>
</a>
</g>
</g>
<!-- Node1&#45;&gt;Node6 -->
<g id="edge39_Node000001_Node000006" class="edge">
<title>Node1&#45;&gt;Node6</title>
<g id="a_edge39_Node000001_Node000006"><a xlink:title=" ">
<path fill="none" stroke="#63b8ff" d="M1535.75,-337.42C1214.37,-332.43 0,-308.43 0,-230.5 0,-230.5 0,-230.5 0,-118.5 0,-57.65 78.55,-29.63 128.86,-17.91"/>
<polygon fill="#63b8ff" stroke="#63b8ff" points="129.81,-21.29 138.82,-15.72 128.3,-14.45 129.81,-21.29"/>
</a>
</g>
</g>
<!-- Node8 -->
<g id="Node000008" class="node">
<title>Node8</title>
<g id="a_Node000008"><a xlink:title=" ">
<polygon fill="#e0e0e0" stroke="#999999" points="141.5,-184 28.5,-184 28.5,-165 141.5,-165 141.5,-184"/>
<text text-anchor="middle" x="85" y="-172" font-family="Helvetica,sans-Serif" font-size="10.00">freertos/FreeRTOS.h</text>
</a>
</g>
</g>
<!-- Node1&#45;&gt;Node8 -->
<g id="edge31_Node000001_Node000008" class="edge">
<title>Node1&#45;&gt;Node8</title>
<g id="a_edge31_Node000001_Node000008"><a xlink:title=" ">
<path fill="none" stroke="#63b8ff" d="M1535.74,-334.02C1421.99,-327.13 1202.83,-312.74 1017,-294 691.79,-261.21 304.62,-207.14 151.78,-185.2"/>
<polygon fill="#63b8ff" stroke="#63b8ff" points="152.02,-181.7 141.62,-183.74 151.02,-188.63 152.02,-181.7"/>
</a>
</g>
</g>
<!-- Node9 -->
<g id="Node000009" class="node">
<title>Node9</title>
<g id="a_Node000009"><a xlink:title=" ">
<polygon fill="#e0e0e0" stroke="#999999" points="1280,-184 1192,-184 1192,-165 1280,-165 1280,-184"/>
<text text-anchor="middle" x="1236" y="-172" font-family="Helvetica,sans-Serif" font-size="10.00">freertos/task.h</text>
</a>
</g>
</g>
<!-- Node1&#45;&gt;Node9 -->
<g id="edge32_Node000001_Node000009" class="edge">
<title>Node1&#45;&gt;Node9</title>
<g id="a_edge32_Node000001_Node000009"><a xlink:title=" ">
<path fill="none" stroke="#63b8ff" d="M1535.81,-336.51C1494.55,-332.02 1444.81,-320.79 1408,-294 1377.24,-271.62 1394.38,-244.16 1365,-220 1343.69,-202.47 1315.08,-191.69 1290.21,-185.13"/>
<polygon fill="#63b8ff" stroke="#63b8ff" points="1290.72,-181.65 1280.17,-182.66 1289.04,-188.45 1290.72,-181.65"/>
</a>
</g>
</g>
<!-- Node23 -->
<g id="Node000023" class="node">
<title>Node23</title>
<g id="a_Node000023"><a xlink:title=" ">
<polygon fill="#e0e0e0" stroke="#999999" points="1506,-294 1450,-294 1450,-275 1506,-275 1506,-294"/>
<text text-anchor="middle" x="1478" y="-282" font-family="Helvetica,sans-Serif" font-size="10.00">stdarg.h</text>
</a>
</g>
</g>
<!-- Node1&#45;&gt;Node23 -->
<g id="edge33_Node000001_Node000023" class="edge">
<title>Node1&#45;&gt;Node23</title>
<g id="a_edge33_Node000001_Node000023"><a xlink:title=" ">
<path fill="none" stroke="#63b8ff" d="M1591.31,-329.98C1569.2,-321.3 1534.68,-307.75 1509.55,-297.88"/>
<polygon fill="#63b8ff" stroke="#63b8ff" points="1510.67,-294.57 1500.08,-294.17 1508.11,-301.08 1510.67,-294.57"/>
</a>
</g>
</g>
<!-- Node24 -->
<g id="Node000024" class="node">
<title>Node24</title>
<g id="a_Node000024"><a xlink:title=" ">
<polygon fill="#e0e0e0" stroke="#999999" points="1592,-294 1524,-294 1524,-275 1592,-275 1592,-294"/>
<text text-anchor="middle" x="1558" y="-282" font-family="Helvetica,sans-Serif" font-size="10.00">led_strip.h</text>
</a>
</g>
</g>
<!-- Node1&#45;&gt;Node24 -->
<g id="edge34_Node000001_Node000024" class="edge">
<title>Node1&#45;&gt;Node24</title>
<g id="a_edge34_Node000001_Node000024"><a xlink:title=" ">
<path fill="none" stroke="#63b8ff" d="M1603.92,-329.75C1595.91,-322.03 1584.04,-310.6 1574.38,-301.28"/>
<polygon fill="#63b8ff" stroke="#63b8ff" points="1576.54,-298.51 1566.91,-294.09 1571.69,-303.55 1576.54,-298.51"/>
</a>
</g>
</g>
<!-- Node25 -->
<g id="Node000025" class="node">
<title>Node25</title>
<g id="a_Node000025"><a xlink:title=" ">
<polygon fill="#e0e0e0" stroke="#999999" points="1726,-294 1610,-294 1610,-275 1726,-275 1726,-294"/>
<text text-anchor="middle" x="1668" y="-282" font-family="Helvetica,sans-Serif" font-size="10.00">led_strip_interface.h</text>
</a>
</g>
</g>
<!-- Node1&#45;&gt;Node25 -->
<g id="edge35_Node000001_Node000025" class="edge">
<title>Node1&#45;&gt;Node25</title>
<g id="a_edge35_Node000001_Node000025"><a xlink:title=" ">
<path fill="none" stroke="#63b8ff" d="M1622.08,-329.75C1630.09,-322.03 1641.96,-310.6 1651.62,-301.28"/>
<polygon fill="#63b8ff" stroke="#63b8ff" points="1654.31,-303.55 1659.09,-294.09 1649.46,-298.51 1654.31,-303.55"/>
</a>
</g>
</g>
<!-- Node26 -->
<g id="Node000026" class="node">
<title>Node26</title>
<g id="a_Node000026"><a xlink:title=" ">
<polygon fill="#e0e0e0" stroke="#999999" points="1833.5,-294 1744.5,-294 1744.5,-275 1833.5,-275 1833.5,-294"/>
<text text-anchor="middle" x="1789" y="-282" font-family="Helvetica,sans-Serif" font-size="10.00">driver/rmt_tx.h</text>
</a>
</g>
</g>
<!-- Node1&#45;&gt;Node26 -->
<g id="edge36_Node000001_Node000026" class="edge">
<title>Node1&#45;&gt;Node26</title>
<g id="a_edge36_Node000001_Node000026"><a xlink:title=" ">
<path fill="none" stroke="#63b8ff" d="M1641.28,-329.98C1670.95,-321.05 1717.79,-306.94 1750.75,-297.02"/>
<polygon fill="#63b8ff" stroke="#63b8ff" points="1751.93,-300.32 1760.5,-294.08 1749.92,-293.61 1751.93,-300.32"/>
</a>
</g>
</g>
<!-- Node27 -->
<g id="Node000027" class="node">
<title>Node27</title>
<g id="a_Node000027"><a xlink:title=" ">
<polygon fill="#e0e0e0" stroke="#999999" points="1902.5,-294 1851.5,-294 1851.5,-275 1902.5,-275 1902.5,-294"/>
<text text-anchor="middle" x="1877" y="-282" font-family="Helvetica,sans-Serif" font-size="10.00">math.h</text>
</a>
</g>
</g>
<!-- Node1&#45;&gt;Node27 -->
<g id="edge37_Node000001_Node000027" class="edge">
<title>Node1&#45;&gt;Node27</title>
<g id="a_edge37_Node000001_Node000027"><a xlink:title=" ">
<path fill="none" stroke="#63b8ff" d="M1661.17,-329.96C1705.63,-321.9 1773.71,-309.13 1841.43,-294.26"/>
<polygon fill="#63b8ff" stroke="#63b8ff" points="1842.41,-297.63 1851.42,-292.05 1840.9,-290.79 1842.41,-297.63"/>
</a>
</g>
</g>
<!-- Node28 -->
<g id="Node000028" class="node">
<title>Node28</title>
<g id="a_Node000028"><a xlink:title=" ">
<polygon fill="#e0e0e0" stroke="#999999" points="1979.5,-294 1920.5,-294 1920.5,-275 1979.5,-275 1979.5,-294"/>
<text text-anchor="middle" x="1950" y="-282" font-family="Helvetica,sans-Serif" font-size="10.00">malloc.h</text>
</a>
</g>
</g>
<!-- Node1&#45;&gt;Node28 -->
<g id="edge40_Node000001_Node000028" class="edge">
<title>Node1&#45;&gt;Node28</title>
<g id="a_edge40_Node000001_Node000028"><a xlink:title=" ">
<path fill="none" stroke="#63b8ff" d="M1679.73,-329.97C1738.17,-322.19 1825.57,-309.77 1910.14,-294.24"/>
<polygon fill="#63b8ff" stroke="#63b8ff" points="1910.98,-297.65 1920.17,-292.39 1909.7,-290.77 1910.98,-297.65"/>
</a>
</g>
</g>
<!-- Node29 -->
<g id="Node000029" class="node">
<title>Node29</title>
<g id="a_Node000029"><a xlink:title=" ">
<polygon fill="#e0e0e0" stroke="#999999" points="2048,-294 1998,-294 1998,-275 2048,-275 2048,-294"/>
<text text-anchor="middle" x="2023" y="-282" font-family="Helvetica,sans-Serif" font-size="10.00">stdio.h</text>
</a>
</g>
</g>
<!-- Node1&#45;&gt;Node29 -->
<g id="edge41_Node000001_Node000029" class="edge">
<title>Node1&#45;&gt;Node29</title>
<g id="a_edge41_Node000001_Node000029"><a xlink:title=" ">
<path fill="none" stroke="#63b8ff" d="M1690.12,-332.26C1764.12,-325.62 1879.14,-313.58 1987.68,-294.03"/>
<polygon fill="#63b8ff" stroke="#63b8ff" points="1988.62,-297.41 1997.83,-292.17 1987.36,-290.53 1988.62,-297.41"/>
</a>
</g>
</g>
<!-- Node30 -->
<g id="Node000030" class="node">
<title>Node30</title>
<g id="a_Node000030"><a xlink:title=" ">
<polygon fill="#e0e0e0" stroke="#999999" points="2119.5,-294 2066.5,-294 2066.5,-275 2119.5,-275 2119.5,-294"/>
<text text-anchor="middle" x="2093" y="-282" font-family="Helvetica,sans-Serif" font-size="10.00">stdlib.h</text>
</a>
</g>
</g>
<!-- Node1&#45;&gt;Node30 -->
<g id="edge42_Node000001_Node000030" class="edge">
<title>Node1&#45;&gt;Node30</title>
<g id="a_edge42_Node000001_Node000030"><a xlink:title=" ">
<path fill="none" stroke="#63b8ff" d="M1690.01,-333.88C1776.72,-327.98 1921.91,-316 2056.28,-293.89"/>
<polygon fill="#63b8ff" stroke="#63b8ff" points="2057.06,-297.31 2066.34,-292.21 2055.9,-290.4 2057.06,-297.31"/>
</a>
</g>
</g>
<!-- Node31 -->
<g id="Node000031" class="node">
<title>Node31</title>
<g id="a_Node000031"><a xlink:title=" ">
<polygon fill="#e0e0e0" stroke="#999999" points="2200.5,-294 2137.5,-294 2137.5,-275 2200.5,-275 2200.5,-294"/>
<text text-anchor="middle" x="2169" y="-282" font-family="Helvetica,sans-Serif" font-size="10.00">esp_log.h</text>
</a>
</g>
</g>
<!-- Node1&#45;&gt;Node31 -->
<g id="edge43_Node000001_Node000031" class="edge">
<title>Node1&#45;&gt;Node31</title>
<g id="a_edge43_Node000001_Node000031"><a xlink:title=" ">
<path fill="none" stroke="#63b8ff" d="M1690.28,-334.81C1789.41,-329.42 1966.79,-317.53 2127.14,-294.12"/>
<polygon fill="#63b8ff" stroke="#63b8ff" points="2127.81,-297.56 2137.19,-292.63 2126.78,-290.63 2127.81,-297.56"/>
</a>
</g>
</g>
<!-- Node32 -->
<g id="Node000032" class="node">
<title>Node32</title>
<g id="a_Node000032"><a xlink:title=" ">
<polygon fill="#e0e0e0" stroke="#999999" points="2311.5,-294 2218.5,-294 2218.5,-275 2311.5,-275 2311.5,-294"/>
<text text-anchor="middle" x="2265" y="-282" font-family="Helvetica,sans-Serif" font-size="10.00">hal/rmt_types.h</text>
</a>
</g>
</g>
<!-- Node1&#45;&gt;Node32 -->
<g id="edge44_Node000001_Node000032" class="edge">
<title>Node1&#45;&gt;Node32</title>
<g id="a_edge44_Node000001_Node000032"><a xlink:title=" ">
<path fill="none" stroke="#63b8ff" d="M1690.46,-334.68C1802.54,-328.72 2016.66,-315.71 2208.25,-294.12"/>
<polygon fill="#63b8ff" stroke="#63b8ff" points="2208.69,-297.59 2218.23,-292.99 2207.89,-290.64 2208.69,-297.59"/>
</a>
</g>
</g>
<!-- Node33 -->
<g id="Node000033" class="node">
<title>Node33</title>
<g id="a_Node000033"><a xlink:href="gt32l32s0140_8h.html" target="_top" xlink:title=" ">
<polygon fill="white" stroke="#666666" points="978,-239 886,-239 886,-220 978,-220 978,-239"/>
<text text-anchor="middle" x="932" y="-227" font-family="Helvetica,sans-Serif" font-size="10.00">gt32l32s0140.h</text>
</a>
</g>
</g>
<!-- Node1&#45;&gt;Node33 -->
<g id="edge45_Node000001_Node000033" class="edge">
<title>Node1&#45;&gt;Node33</title>
<g id="a_edge45_Node000001_Node000033"><a xlink:title=" ">
<path fill="none" stroke="#63b8ff" d="M1535.86,-332.16C1456.38,-325.07 1329.05,-312.15 1220,-294 1132.51,-279.44 1031.56,-255.51 975.42,-241.56"/>
<polygon fill="#63b8ff" stroke="#63b8ff" points="976.03,-238.1 965.48,-239.07 974.33,-244.89 976.03,-238.1"/>
</a>
</g>
</g>
<!-- Node34 -->
<g id="Node000034" class="node">
<title>Node34</title>
<g id="a_Node000034"><a xlink:title=" ">
<polygon fill="#e0e0e0" stroke="#999999" points="2406.5,-294 2329.5,-294 2329.5,-275 2406.5,-275 2406.5,-294"/>
<text text-anchor="middle" x="2368" y="-282" font-family="Helvetica,sans-Serif" font-size="10.00">esp_check.h</text>
</a>
</g>
</g>
<!-- Node1&#45;&gt;Node34 -->
<g id="edge48_Node000001_Node000034" class="edge">
<title>Node1&#45;&gt;Node34</title>
<g id="a_edge48_Node000001_Node000034"><a xlink:title=" ">
<path fill="none" stroke="#63b8ff" d="M1690.01,-336.59C1818.5,-332.75 2084.84,-322.05 2319.25,-294.08"/>
<polygon fill="#63b8ff" stroke="#63b8ff" points="2319.82,-297.53 2329.33,-292.86 2318.98,-290.58 2319.82,-297.53"/>
</a>
</g>
</g>
<!-- Node2&#45;&gt;Node3 -->
<g id="edge2_Node000002_Node000003" class="edge">
<title>Node2&#45;&gt;Node3</title>
<g id="a_edge2_Node000002_Node000003"><a xlink:title=" ">
<path fill="none" stroke="#63b8ff" d="M1318.62,-274.91C1356.65,-260.78 1422,-228.76 1422,-175.5 1422,-175.5 1422,-175.5 1422,-118.5 1422,-85.02 1405.55,-48.84 1394.3,-28.01"/>
<polygon fill="#63b8ff" stroke="#63b8ff" points="1397.24,-26.1 1389.28,-19.1 1391.13,-29.53 1397.24,-26.1"/>
</a>
</g>
</g>
<!-- Node4 -->
<g id="Node000004" class="node">
<title>Node4</title>
<g id="a_Node000004"><a xlink:title=" ">
<polygon fill="#e0e0e0" stroke="#999999" points="1356,-239 1256,-239 1256,-220 1356,-220 1356,-239"/>
<text text-anchor="middle" x="1306" y="-227" font-family="Helvetica,sans-Serif" font-size="10.00">led_strip_types.h</text>
</a>
</g>
</g>
<!-- Node2&#45;&gt;Node4 -->
<g id="edge3_Node000002_Node000004" class="edge">
<title>Node2&#45;&gt;Node4</title>
<g id="a_edge3_Node000002_Node000004"><a xlink:title=" ">
<path fill="none" stroke="#63b8ff" d="M1294.31,-274.75C1296.17,-267.72 1298.84,-257.62 1301.15,-248.84"/>
<polygon fill="#63b8ff" stroke="#63b8ff" points="1304.56,-249.65 1303.73,-239.09 1297.79,-247.86 1304.56,-249.65"/>
</a>
</g>
</g>
<!-- Node2&#45;&gt;Node5 -->
<g id="edge4_Node000002_Node000005" class="edge">
<title>Node2&#45;&gt;Node5</title>
<g id="a_edge4_Node000002_Node000005"><a xlink:title=" ">
<path fill="none" stroke="#63b8ff" d="M1228.27,-277.49C1148.8,-269.81 1008.51,-255.65 877.76,-239.05"/>
<polygon fill="#63b8ff" stroke="#63b8ff" points="877.93,-235.54 867.57,-237.74 877.04,-242.48 877.93,-235.54"/>
</a>
</g>
</g>
<!-- Node12 -->
<g id="Node000012" class="node">
<title>Node12</title>
<g id="a_Node000012"><a xlink:title=" ">
<polygon fill="#e0e0e0" stroke="#999999" points="913.5,-74 838.5,-74 838.5,-55 913.5,-55 913.5,-74"/>
<text text-anchor="middle" x="876" y="-62" font-family="Helvetica,sans-Serif" font-size="10.00">esp_types.h</text>
</a>
</g>
</g>
<!-- Node2&#45;&gt;Node12 -->
<g id="edge29_Node000002_Node000012" class="edge">
<title>Node2&#45;&gt;Node12</title>
<g id="a_edge29_Node000002_Node000012"><a xlink:title=" ">
<path fill="none" stroke="#63b8ff" d="M1278.37,-274.9C1261.78,-263.27 1237.12,-241.48 1247,-220 1257.27,-197.66 1278.73,-206.34 1289,-184 1302.74,-154.12 1310.97,-134.47 1289,-110 1264.95,-83.22 1027.23,-71.15 923.74,-67.13"/>
<polygon fill="#63b8ff" stroke="#63b8ff" points="923.69,-63.62 913.56,-66.74 923.42,-70.62 923.69,-63.62"/>
</a>
</g>
</g>
<!-- Node5&#45;&gt;Node3 -->
<g id="edge5_Node000005_Node000003" class="edge">
<title>Node5&#45;&gt;Node3</title>
<g id="a_edge5_Node000005_Node000003"><a xlink:title=" ">
<path fill="none" stroke="#63b8ff" d="M867.8,-220.61C984.4,-201.12 1276.77,-150.72 1316,-129 1345.43,-112.7 1351.81,-103.49 1368,-74 1375.62,-60.13 1379.68,-42.56 1381.8,-29.43"/>
<polygon fill="#63b8ff" stroke="#63b8ff" points="1385.31,-29.61 1383.21,-19.22 1378.38,-28.65 1385.31,-29.61"/>
</a>
</g>
</g>
<!-- Node5&#45;&gt;Node6 -->
<g id="edge6_Node000005_Node000006" class="edge">
<title>Node5&#45;&gt;Node6</title>
<g id="a_edge6_Node000005_Node000006"><a xlink:title=" ">
<path fill="none" stroke="#63b8ff" d="M772.28,-226.84C628.15,-221.6 205.89,-204.55 185,-184 143.38,-143.05 156.02,-65.16 164.73,-29.36"/>
<polygon fill="#63b8ff" stroke="#63b8ff" points="168.22,-29.87 167.35,-19.31 161.44,-28.11 168.22,-29.87"/>
</a>
</g>
</g>
<!-- Node7 -->
<g id="Node000007" class="node">
<title>Node7</title>
<g id="a_Node000007"><a xlink:title=" ">
<polygon fill="#e0e0e0" stroke="#999999" points="315.5,-19 254.5,-19 254.5,0 315.5,0 315.5,-19"/>
<text text-anchor="middle" x="285" y="-7" font-family="Helvetica,sans-Serif" font-size="10.00">esp_err.h</text>
</a>
</g>
</g>
<!-- Node5&#45;&gt;Node7 -->
<g id="edge7_Node000005_Node000007" class="edge">
<title>Node5&#45;&gt;Node7</title>
<g id="a_edge7_Node000005_Node000007"><a xlink:title=" ">
<path fill="none" stroke="#63b8ff" d="M772.21,-226.67C634.51,-221.17 245.48,-203.91 227,-184 210.89,-166.64 145.68,-229.71 232,-55 238.15,-42.55 249.56,-32.26 260.22,-24.73"/>
<polygon fill="#63b8ff" stroke="#63b8ff" points="262.42,-27.47 268.87,-19.07 258.58,-21.62 262.42,-27.47"/>
</a>
</g>
</g>
<!-- Node5&#45;&gt;Node8 -->
<g id="edge8_Node000005_Node000008" class="edge">
<title>Node5&#45;&gt;Node8</title>
<g id="a_edge8_Node000005_Node000008"><a xlink:title=" ">
<path fill="none" stroke="#63b8ff" d="M772.43,-226.17C663.31,-220.63 386.65,-205.52 156,-184 154.53,-183.86 153.05,-183.72 151.55,-183.57"/>
<polygon fill="#63b8ff" stroke="#63b8ff" points="151.86,-180.09 141.55,-182.54 151.14,-187.05 151.86,-180.09"/>
</a>
</g>
</g>
<!-- Node5&#45;&gt;Node9 -->
<g id="edge9_Node000005_Node000009" class="edge">
<title>Node5&#45;&gt;Node9</title>
<g id="a_edge9_Node000005_Node000009"><a xlink:title=" ">
<path fill="none" stroke="#63b8ff" d="M867.57,-221.3C870.76,-220.85 873.93,-220.41 877,-220 1010.53,-202.06 1044.45,-201.77 1178,-184 1179.28,-183.83 1180.57,-183.66 1181.87,-183.48"/>
<polygon fill="#63b8ff" stroke="#63b8ff" points="1182.57,-186.92 1192,-182.07 1181.61,-179.98 1182.57,-186.92"/>
</a>
</g>
</g>
<!-- Node10 -->
<g id="Node000010" class="node">
<title>Node10</title>
<g id="a_Node000010"><a xlink:title=" ">
<polygon fill="#e0e0e0" stroke="#999999" points="307.5,-184 236.5,-184 236.5,-165 307.5,-165 307.5,-184"/>
<text text-anchor="middle" x="272" y="-172" font-family="Helvetica,sans-Serif" font-size="10.00">driver/i2s.h</text>
</a>
</g>
</g>
<!-- Node5&#45;&gt;Node10 -->
<g id="edge10_Node000005_Node000010" class="edge">
<title>Node5&#45;&gt;Node10</title>
<g id="a_edge10_Node000005_Node000010"><a xlink:title=" ">
<path fill="none" stroke="#63b8ff" d="M772.48,-225.51C683.74,-219.66 486.85,-205.34 322,-184 320.7,-183.83 319.38,-183.65 318.05,-183.47"/>
<polygon fill="#63b8ff" stroke="#63b8ff" points="318.13,-179.94 307.73,-181.93 317.1,-186.87 318.13,-179.94"/>
</a>
</g>
</g>
<!-- Node11 -->
<g id="Node000011" class="node">
<title>Node11</title>
<g id="a_Node000011"><a xlink:href="board__ctrl_8h.html" target="_top" xlink:title=" ">
<polygon fill="white" stroke="#666666" points="913,-184 839,-184 839,-165 913,-165 913,-184"/>
<text text-anchor="middle" x="876" y="-172" font-family="Helvetica,sans-Serif" font-size="10.00">board_ctrl.h</text>
</a>
</g>
</g>
<!-- Node5&#45;&gt;Node11 -->
<g id="edge11_Node000005_Node000011" class="edge">
<title>Node5&#45;&gt;Node11</title>
<g id="a_edge11_Node000005_Node000011"><a xlink:title=" ">
<path fill="none" stroke="#63b8ff" d="M829,-219.98C837.19,-212.23 849.51,-200.58 859.47,-191.14"/>
<polygon fill="#63b8ff" stroke="#63b8ff" points="861.98,-193.59 866.84,-184.17 857.17,-188.5 861.98,-193.59"/>
</a>
</g>
</g>
<!-- Node11&#45;&gt;Node3 -->
<g id="edge13_Node000011_Node000003" class="edge">
<title>Node11&#45;&gt;Node3</title>
<g id="a_edge13_Node000011_Node000003"><a xlink:title=" ">
<path fill="none" stroke="#63b8ff" d="M913.19,-173.1C1002.18,-171.56 1224.72,-164.21 1289,-129 1331.24,-105.86 1361.57,-55.41 1375.48,-28.41"/>
<polygon fill="#63b8ff" stroke="#63b8ff" points="1378.68,-29.82 1380,-19.31 1372.41,-26.71 1378.68,-29.82"/>
</a>
</g>
</g>
<!-- Node11&#45;&gt;Node12 -->
<g id="edge12_Node000011_Node000012" class="edge">
<title>Node11&#45;&gt;Node12</title>
<g id="a_edge12_Node000011_Node000012"><a xlink:title=" ">
<path fill="none" stroke="#63b8ff" d="M876,-164.66C876,-147.17 876,-107.8 876,-84.27"/>
<polygon fill="#63b8ff" stroke="#63b8ff" points="879.5,-84.16 876,-74.16 872.5,-84.16 879.5,-84.16"/>
</a>
</g>
</g>
<!-- Node13 -->
<g id="Node000013" class="node">
<title>Node13</title>
<g id="a_Node000013"><a xlink:title=" ">
<polygon fill="#e0e0e0" stroke="#999999" points="978,-129 904,-129 904,-110 978,-110 978,-129"/>
<text text-anchor="middle" x="941" y="-117" font-family="Helvetica,sans-Serif" font-size="10.00">board_def.h</text>
</a>
</g>
</g>
<!-- Node11&#45;&gt;Node13 -->
<g id="edge14_Node000011_Node000013" class="edge">
<title>Node11&#45;&gt;Node13</title>
<g id="a_edge14_Node000011_Node000013"><a xlink:title=" ">
<path fill="none" stroke="#63b8ff" d="M886.44,-164.98C896.15,-157.07 910.82,-145.11 922.5,-135.58"/>
<polygon fill="#63b8ff" stroke="#63b8ff" points="924.83,-138.2 930.37,-129.17 920.4,-132.78 924.83,-138.2"/>
</a>
</g>
</g>
<!-- Node14 -->
<g id="Node000014" class="node">
<title>Node14</title>
<g id="a_Node000014"><a xlink:title=" ">
<polygon fill="#e0e0e0" stroke="#999999" points="1069.5,-129 996.5,-129 996.5,-110 1069.5,-110 1069.5,-129"/>
<text text-anchor="middle" x="1033" y="-117" font-family="Helvetica,sans-Serif" font-size="10.00">audio_hal.h</text>
</a>
</g>
</g>
<!-- Node11&#45;&gt;Node14 -->
<g id="edge15_Node000011_Node000014" class="edge">
<title>Node11&#45;&gt;Node14</title>
<g id="a_edge15_Node000011_Node000014"><a xlink:title=" ">
<path fill="none" stroke="#63b8ff" d="M901.22,-164.98C927.36,-156.16 968.4,-142.31 997.73,-132.41"/>
<polygon fill="#63b8ff" stroke="#63b8ff" points="999.22,-135.6 1007.58,-129.08 996.98,-128.96 999.22,-135.6"/>
</a>
</g>
</g>
<!-- Node15 -->
<g id="Node000015" class="node">
<title>Node15</title>
<g id="a_Node000015"><a xlink:title=" ">
<polygon fill="#e0e0e0" stroke="#999999" points="1190.5,-129 1087.5,-129 1087.5,-110 1190.5,-110 1190.5,-129"/>
<text text-anchor="middle" x="1139" y="-117" font-family="Helvetica,sans-Serif" font-size="10.00">esxxx_common.h</text>
</a>
</g>
</g>
<!-- Node11&#45;&gt;Node15 -->
<g id="edge16_Node000011_Node000015" class="edge">
<title>Node11&#45;&gt;Node15</title>
<g id="a_edge16_Node000011_Node000015"><a xlink:title=" ">
<path fill="none" stroke="#63b8ff" d="M913.12,-166.02C958.39,-156.9 1035.19,-141.42 1086.5,-131.08"/>
<polygon fill="#63b8ff" stroke="#63b8ff" points="1087.29,-134.49 1096.4,-129.08 1085.91,-127.63 1087.29,-134.49"/>
</a>
</g>
</g>
<!-- Node16 -->
<g id="Node000016" class="node">
<title>Node16</title>
<g id="a_Node000016"><a xlink:href="sevetest30__gpio_8h.html" target="_top" xlink:title=" ">
<polygon fill="white" stroke="#666666" points="380,-129 274,-129 274,-110 380,-110 380,-129"/>
<text text-anchor="middle" x="327" y="-117" font-family="Helvetica,sans-Serif" font-size="10.00">sevetest30_gpio.h</text>
</a>
</g>
</g>
<!-- Node11&#45;&gt;Node16 -->
<g id="edge17_Node000011_Node000016" class="edge">
<title>Node11&#45;&gt;Node16</title>
<g id="a_edge17_Node000011_Node000016"><a xlink:title=" ">
<path fill="none" stroke="#63b8ff" d="M838.98,-170.69C759.07,-164.5 564.26,-148.76 390.19,-129.09"/>
<polygon fill="#63b8ff" stroke="#63b8ff" points="390.41,-125.59 380.08,-127.94 389.62,-132.54 390.41,-125.59"/>
</a>
</g>
</g>
<!-- Node18 -->
<g id="Node000018" class="node">
<title>Node18</title>
<g id="a_Node000018"><a xlink:title=" ">
<polygon fill="#e0e0e0" stroke="#999999" points="1279.5,-129 1208.5,-129 1208.5,-110 1279.5,-110 1279.5,-129"/>
<text text-anchor="middle" x="1244" y="-117" font-family="Helvetica,sans-Serif" font-size="10.00">driver/i2c.h</text>
</a>
</g>
</g>
<!-- Node11&#45;&gt;Node18 -->
<g id="edge22_Node000011_Node000018" class="edge">
<title>Node11&#45;&gt;Node18</title>
<g id="a_edge22_Node000011_Node000018"><a xlink:title=" ">
<path fill="none" stroke="#63b8ff" d="M913.03,-169.08C971.55,-161.95 1089.21,-147.02 1198.61,-129.16"/>
<polygon fill="#63b8ff" stroke="#63b8ff" points="1199.19,-132.61 1208.49,-127.53 1198.05,-125.7 1199.19,-132.61"/>
</a>
</g>
</g>
<!-- Node19 -->
<g id="Node000019" class="node">
<title>Node19</title>
<g id="a_Node000019"><a xlink:title=" ">
<polygon fill="#e0e0e0" stroke="#999999" points="517.5,-129 398.5,-129 398.5,-110 517.5,-110 517.5,-129"/>
<text text-anchor="middle" x="458" y="-117" font-family="Helvetica,sans-Serif" font-size="10.00">driver/spi_common.h</text>
</a>
</g>
</g>
<!-- Node11&#45;&gt;Node19 -->
<g id="edge23_Node000011_Node000019" class="edge">
<title>Node11&#45;&gt;Node19</title>
<g id="a_edge23_Node000011_Node000019"><a xlink:title=" ">
<path fill="none" stroke="#63b8ff" d="M838.91,-168.8C769.07,-159.94 617.06,-140.67 527.63,-129.33"/>
<polygon fill="#63b8ff" stroke="#63b8ff" points="527.93,-125.84 517.57,-128.05 527.05,-132.78 527.93,-125.84"/>
</a>
</g>
</g>
<!-- Node20 -->
<g id="Node000020" class="node">
<title>Node20</title>
<g id="a_Node000020"><a xlink:title=" ">
<polygon fill="#e0e0e0" stroke="#999999" points="646,-129 536,-129 536,-110 646,-110 646,-129"/>
<text text-anchor="middle" x="591" y="-117" font-family="Helvetica,sans-Serif" font-size="10.00">driver/spi_master.h</text>
</a>
</g>
</g>
<!-- Node11&#45;&gt;Node20 -->
<g id="edge24_Node000011_Node000020" class="edge">
<title>Node11&#45;&gt;Node20</title>
<g id="a_edge24_Node000011_Node000020"><a xlink:title=" ">
<path fill="none" stroke="#63b8ff" d="M838.74,-166.57C789.78,-157.47 703.36,-141.39 646.63,-130.85"/>
<polygon fill="#63b8ff" stroke="#63b8ff" points="647.22,-127.4 636.75,-129.01 645.94,-134.28 647.22,-127.4"/>
</a>
</g>
</g>
<!-- Node21 -->
<g id="Node000021" class="node">
<title>Node21</title>
<g id="a_Node000021"><a xlink:title=" ">
<polygon fill="#e0e0e0" stroke="#999999" points="847.5,-129 744.5,-129 744.5,-110 847.5,-110 847.5,-129"/>
<text text-anchor="middle" x="796" y="-117" font-family="Helvetica,sans-Serif" font-size="10.00">esp_peripherals.h</text>
</a>
</g>
</g>
<!-- Node11&#45;&gt;Node21 -->
<g id="edge25_Node000011_Node000021" class="edge">
<title>Node11&#45;&gt;Node21</title>
<g id="a_edge25_Node000011_Node000021"><a xlink:title=" ">
<path fill="none" stroke="#63b8ff" d="M863.15,-164.98C850.86,-156.84 832.09,-144.41 817.52,-134.76"/>
<polygon fill="#63b8ff" stroke="#63b8ff" points="819.36,-131.78 809.09,-129.17 815.49,-137.61 819.36,-131.78"/>
</a>
</g>
</g>
<!-- Node22 -->
<g id="Node000022" class="node">
<title>Node22</title>
<g id="a_Node000022"><a xlink:href="_b_l5372_8h.html" target="_top" xlink:title=" ">
<polygon fill="white" stroke="#666666" points="726,-129 664,-129 664,-110 726,-110 726,-129"/>
<text text-anchor="middle" x="695" y="-117" font-family="Helvetica,sans-Serif" font-size="10.00">BL5372.h</text>
</a>
</g>
</g>
<!-- Node11&#45;&gt;Node22 -->
<g id="edge26_Node000011_Node000022" class="edge">
<title>Node11&#45;&gt;Node22</title>
<g id="a_edge26_Node000011_Node000022"><a xlink:title=" ">
<path fill="none" stroke="#63b8ff" d="M846.92,-164.98C816.4,-156.05 768.24,-141.94 734.34,-132.02"/>
<polygon fill="#63b8ff" stroke="#63b8ff" points="734.89,-128.53 724.31,-129.08 732.92,-135.25 734.89,-128.53"/>
</a>
</g>
</g>
<!-- Node17 -->
<g id="Node000017" class="node">
<title>Node17</title>
<g id="a_Node000017"><a xlink:href="_t_c_a6416_a_8h.html" target="_top" xlink:title=" ">
<polygon fill="white" stroke="#666666" points="357.5,-74 282.5,-74 282.5,-55 357.5,-55 357.5,-74"/>
<text text-anchor="middle" x="320" y="-62" font-family="Helvetica,sans-Serif" font-size="10.00">TCA6416A.h</text>
</a>
</g>
</g>
<!-- Node16&#45;&gt;Node17 -->
<g id="edge18_Node000016_Node000017" class="edge">
<title>Node16&#45;&gt;Node17</title>
<g id="a_edge18_Node000016_Node000017"><a xlink:title=" ">
<path fill="none" stroke="#63b8ff" d="M325.84,-109.75C324.93,-102.8 323.61,-92.85 322.46,-84.13"/>
<polygon fill="#63b8ff" stroke="#63b8ff" points="325.91,-83.54 321.13,-74.09 318.97,-84.46 325.91,-83.54"/>
</a>
</g>
</g>
<!-- Node17&#45;&gt;Node3 -->
<g id="edge19_Node000017_Node000003" class="edge">
<title>Node17&#45;&gt;Node3</title>
<g id="a_edge19_Node000017_Node000003"><a xlink:title=" ">
<path fill="none" stroke="#63b8ff" d="M357.56,-61.63C522.75,-53.4 1183.78,-20.47 1347.28,-12.33"/>
<polygon fill="#63b8ff" stroke="#63b8ff" points="1347.51,-15.82 1357.32,-11.83 1347.16,-8.83 1347.51,-15.82"/>
</a>
</g>
</g>
<!-- Node17&#45;&gt;Node6 -->
<g id="edge20_Node000017_Node000006" class="edge">
<title>Node17&#45;&gt;Node6</title>
<g id="a_edge20_Node000017_Node000006"><a xlink:title=" ">
<path fill="none" stroke="#63b8ff" d="M295.9,-54.98C271.12,-46.23 232.3,-32.51 204.31,-22.62"/>
<polygon fill="#63b8ff" stroke="#63b8ff" points="205.13,-19.2 194.54,-19.17 202.8,-25.8 205.13,-19.2"/>
</a>
</g>
</g>
<!-- Node17&#45;&gt;Node7 -->
<g id="edge21_Node000017_Node000007" class="edge">
<title>Node17&#45;&gt;Node7</title>
<g id="a_edge21_Node000017_Node000007"><a xlink:title=" ">
<path fill="none" stroke="#63b8ff" d="M314.22,-54.75C309.38,-47.42 302.32,-36.73 296.36,-27.7"/>
<polygon fill="#63b8ff" stroke="#63b8ff" points="299.1,-25.5 290.67,-19.09 293.26,-29.36 299.1,-25.5"/>
</a>
</g>
</g>
<!-- Node22&#45;&gt;Node7 -->
<g id="edge28_Node000022_Node000007" class="edge">
<title>Node22&#45;&gt;Node7</title>
<g id="a_edge28_Node000022_Node000007"><a xlink:title=" ">
<path fill="none" stroke="#63b8ff" d="M663.85,-110.29C590.55,-90.99 407.23,-42.7 325.46,-21.16"/>
<polygon fill="#63b8ff" stroke="#63b8ff" points="326.11,-17.71 315.55,-18.55 324.33,-24.48 326.11,-17.71"/>
</a>
</g>
</g>
<!-- Node22&#45;&gt;Node12 -->
<g id="edge27_Node000022_Node000012" class="edge">
<title>Node22&#45;&gt;Node12</title>
<g id="a_edge27_Node000022_Node000012"><a xlink:title=" ">
<path fill="none" stroke="#63b8ff" d="M724.08,-109.98C754.6,-101.05 802.76,-86.94 836.66,-77.02"/>
<polygon fill="#63b8ff" stroke="#63b8ff" points="838.08,-80.25 846.69,-74.08 836.11,-73.53 838.08,-80.25"/>
</a>
</g>
</g>
<!-- Node33&#45;&gt;Node7 -->
<g id="edge46_Node000033_Node000007" class="edge">
<title>Node33&#45;&gt;Node7</title>
<g id="a_edge46_Node000033_Node000007"><a xlink:title=" ">
<path fill="none" stroke="#63b8ff" d="M885.86,-221.49C882.52,-220.98 879.21,-220.48 876,-220 740.25,-199.59 354.63,-232.97 265,-129 240.47,-100.54 260.35,-53.48 274.3,-28.07"/>
<polygon fill="#63b8ff" stroke="#63b8ff" points="277.45,-29.6 279.42,-19.19 271.39,-26.1 277.45,-29.6"/>
</a>
</g>
</g>
<!-- Node33&#45;&gt;Node11 -->
<g id="edge47_Node000033_Node000011" class="edge">
<title>Node33&#45;&gt;Node11</title>
<g id="a_edge47_Node000033_Node000011"><a xlink:title=" ">
<path fill="none" stroke="#63b8ff" d="M923,-219.98C914.81,-212.23 902.49,-200.58 892.53,-191.14"/>
<polygon fill="#63b8ff" stroke="#63b8ff" points="894.83,-188.5 885.16,-184.17 890.02,-193.59 894.83,-188.5"/>
</a>
</g>
</g>
</g>
</svg>
