<?xml version="1.0" encoding="UTF-8" standalone="no"?>
<!DOCTYPE svg PUBLIC "-//W3C//DTD SVG 1.1//EN"
 "http://www.w3.org/Graphics/SVG/1.1/DTD/svg11.dtd">
<!-- Generated by graphviz version 2.43.0 (0)
 -->
<!-- Title: components/sevetest30_board/include/sevetest30_touch.h Pages: 1 -->
<svg width="502pt" height="104pt"
 viewBox="0.00 0.00 502.00 104.00" xmlns="http://www.w3.org/2000/svg" xmlns:xlink="http://www.w3.org/1999/xlink">
<g id="graph0" class="graph" transform="scale(1 1) rotate(0) translate(4 100)">
<title>components/sevetest30_board/include/sevetest30_touch.h</title>
<!-- Node1 -->
<g id="Node000001" class="node">
<title>Node1</title>
<g id="a_Node000001"><a xlink:title=" ">
<polygon fill="#999999" stroke="#666666" points="289,-96 144,-96 144,-55 289,-55 289,-96"/>
<text text-anchor="start" x="152" y="-84" font-family="Helvetica,sans-Serif" font-size="10.00">components/sevetest30</text>
<text text-anchor="start" x="152" y="-73" font-family="Helvetica,sans-Serif" font-size="10.00">_board/include/sevetest30</text>
<text text-anchor="middle" x="216.5" y="-62" font-family="Helvetica,sans-Serif" font-size="10.00">_touch.h</text>
</a>
</g>
</g>
<!-- Node2 -->
<g id="Node000002" class="node">
<title>Node2</title>
<g id="a_Node000002"><a xlink:href="board__ctrl_8c.html" target="_top" xlink:title=" ">
<polygon fill="white" stroke="#666666" points="101,-19 0,-19 0,0 101,0 101,-19"/>
<text text-anchor="middle" x="50.5" y="-7" font-family="Helvetica,sans-Serif" font-size="10.00">main/board_ctrl.c</text>
</a>
</g>
</g>
<!-- Node1&#45;&gt;Node2 -->
<g id="edge1_Node000001_Node000002" class="edge">
<title>Node1&#45;&gt;Node2</title>
<g id="a_edge1_Node000001_Node000002"><a xlink:title=" ">
<path fill="none" stroke="#63b8ff" d="M156.12,-51.22C127.09,-40.03 94.06,-27.3 72.79,-19.09"/>
<polygon fill="#63b8ff" stroke="#63b8ff" points="155.2,-54.62 165.79,-54.95 157.72,-48.09 155.2,-54.62"/>
</a>
</g>
</g>
<!-- Node3 -->
<g id="Node000003" class="node">
<title>Node3</title>
<g id="a_Node000003"><a xlink:href="main_8c.html" target="_top" xlink:title=" ">
<polygon fill="white" stroke="#666666" points="196,-19 119,-19 119,0 196,0 196,-19"/>
<text text-anchor="middle" x="157.5" y="-7" font-family="Helvetica,sans-Serif" font-size="10.00">main/main.c</text>
</a>
</g>
</g>
<!-- Node1&#45;&gt;Node3 -->
<g id="edge2_Node000001_Node000003" class="edge">
<title>Node1&#45;&gt;Node3</title>
<g id="a_edge2_Node000001_Node000003"><a xlink:title=" ">
<path fill="none" stroke="#63b8ff" d="M191.54,-47.42C182.23,-37.32 172.29,-26.55 165.58,-19.26"/>
<polygon fill="#63b8ff" stroke="#63b8ff" points="189.13,-49.97 198.48,-54.95 194.27,-45.23 189.13,-49.97"/>
</a>
</g>
</g>
<!-- Node4 -->
<g id="Node000004" class="node">
<title>Node4</title>
<g id="a_Node000004"><a xlink:href="sevetest30___u_i_8c.html" target="_top" xlink:title=" ">
<polygon fill="white" stroke="#666666" points="336.5,-19 214.5,-19 214.5,0 336.5,0 336.5,-19"/>
<text text-anchor="middle" x="275.5" y="-7" font-family="Helvetica,sans-Serif" font-size="10.00">main/sevetest30_UI.c</text>
</a>
</g>
</g>
<!-- Node1&#45;&gt;Node4 -->
<g id="edge3_Node000001_Node000004" class="edge">
<title>Node1&#45;&gt;Node4</title>
<g id="a_edge3_Node000001_Node000004"><a xlink:title=" ">
<path fill="none" stroke="#63b8ff" d="M241.46,-47.42C250.77,-37.32 260.71,-26.55 267.42,-19.26"/>
<polygon fill="#63b8ff" stroke="#63b8ff" points="238.73,-45.23 234.52,-54.95 243.87,-49.97 238.73,-45.23"/>
</a>
</g>
</g>
<!-- Node5 -->
<g id="Node000005" class="node">
<title>Node5</title>
<g id="a_Node000005"><a xlink:href="sevetest30__touch_8c.html" target="_top" xlink:title=" ">
<polygon fill="white" stroke="#666666" points="494,-19 355,-19 355,0 494,0 494,-19"/>
<text text-anchor="middle" x="424.5" y="-7" font-family="Helvetica,sans-Serif" font-size="10.00">main/sevetest30_touch.c</text>
</a>
</g>
</g>
<!-- Node1&#45;&gt;Node5 -->
<g id="edge4_Node000001_Node000005" class="edge">
<title>Node1&#45;&gt;Node5</title>
<g id="a_edge4_Node000001_Node000005"><a xlink:title=" ">
<path fill="none" stroke="#63b8ff" d="M289.82,-51.94C326.87,-40.54 369.63,-27.38 396.85,-19.01"/>
<polygon fill="#63b8ff" stroke="#63b8ff" points="288.57,-48.66 280.04,-54.95 290.62,-55.35 288.57,-48.66"/>
</a>
</g>
</g>
</g>
</svg>
