<?xml version="1.0" encoding="UTF-8" standalone="no"?>
<!DOCTYPE svg PUBLIC "-//W3C//DTD SVG 1.1//EN"
 "http://www.w3.org/Graphics/SVG/1.1/DTD/svg11.dtd">
<!-- Generated by graphviz version 2.43.0 (0)
 -->
<!-- Title: components/sevetest30_board/include/sevetest30_UI.h Pages: 1 -->
<svg width="517pt" height="170pt"
 viewBox="0.00 0.00 516.50 170.00" xmlns="http://www.w3.org/2000/svg" xmlns:xlink="http://www.w3.org/1999/xlink">
<g id="graph0" class="graph" transform="scale(1 1) rotate(0) translate(4 166)">
<title>components/sevetest30_board/include/sevetest30_UI.h</title>
<!-- Node1 -->
<g id="Node000001" class="node">
<title>Node1</title>
<g id="a_Node000001"><a xlink:title=" ">
<polygon fill="#999999" stroke="#666666" points="376.5,-162 206.5,-162 206.5,-132 376.5,-132 376.5,-162"/>
<text text-anchor="start" x="214.5" y="-150" font-family="Helvetica,sans-Serif" font-size="10.00">components/sevetest30</text>
<text text-anchor="middle" x="291.5" y="-139" font-family="Helvetica,sans-Serif" font-size="10.00">_board/include/sevetest30_UI.h</text>
</a>
</g>
</g>
<!-- Node2 -->
<g id="Node000002" class="node">
<title>Node2</title>
<g id="a_Node000002"><a xlink:href="sevetest30___led_array_8h.html" target="_top" xlink:title=" ">
<polygon fill="white" stroke="#666666" points="263,-96 118,-96 118,-55 263,-55 263,-96"/>
<text text-anchor="start" x="126" y="-84" font-family="Helvetica,sans-Serif" font-size="10.00">components/sevetest30</text>
<text text-anchor="start" x="126" y="-73" font-family="Helvetica,sans-Serif" font-size="10.00">_board/include/sevetest30</text>
<text text-anchor="middle" x="190.5" y="-62" font-family="Helvetica,sans-Serif" font-size="10.00">_LedArray.h</text>
</a>
</g>
</g>
<!-- Node1&#45;&gt;Node2 -->
<g id="edge1_Node000001_Node000002" class="edge">
<title>Node1&#45;&gt;Node2</title>
<g id="a_edge1_Node000001_Node000002"><a xlink:title=" ">
<path fill="none" stroke="#63b8ff" d="M262.5,-126.04C248.82,-116.63 232.55,-105.44 218.94,-96.07"/>
<polygon fill="#63b8ff" stroke="#63b8ff" points="260.84,-129.15 271.06,-131.94 264.81,-123.38 260.84,-129.15"/>
</a>
</g>
</g>
<!-- Node4 -->
<g id="Node000004" class="node">
<title>Node4</title>
<g id="a_Node000004"><a xlink:href="main_8c.html" target="_top" xlink:title=" ">
<polygon fill="white" stroke="#666666" points="77,-19 0,-19 0,0 77,0 77,-19"/>
<text text-anchor="middle" x="38.5" y="-7" font-family="Helvetica,sans-Serif" font-size="10.00">main/main.c</text>
</a>
</g>
</g>
<!-- Node1&#45;&gt;Node4 -->
<g id="edge6_Node000001_Node000004" class="edge">
<title>Node1&#45;&gt;Node4</title>
<g id="a_edge6_Node000001_Node000004"><a xlink:title=" ">
<path fill="none" stroke="#63b8ff" d="M196.34,-131.71C166.57,-124.26 134.69,-113 108.5,-96 76.96,-75.53 52.68,-36.29 43.04,-19.01"/>
<polygon fill="#63b8ff" stroke="#63b8ff" points="195.8,-135.18 206.34,-134.09 197.42,-128.37 195.8,-135.18"/>
</a>
</g>
</g>
<!-- Node5 -->
<g id="Node000005" class="node">
<title>Node5</title>
<g id="a_Node000005"><a xlink:href="sevetest30___led_array_8c.html" target="_top" xlink:title=" ">
<polygon fill="white" stroke="#666666" points="368.5,-19 214.5,-19 214.5,0 368.5,0 368.5,-19"/>
<text text-anchor="middle" x="291.5" y="-7" font-family="Helvetica,sans-Serif" font-size="10.00">main/sevetest30_LedArray.c</text>
</a>
</g>
</g>
<!-- Node1&#45;&gt;Node5 -->
<g id="edge7_Node000001_Node000005" class="edge">
<title>Node1&#45;&gt;Node5</title>
<g id="a_edge7_Node000001_Node000005"><a xlink:title=" ">
<path fill="none" stroke="#63b8ff" d="M291.5,-121.41C291.5,-90.55 291.5,-39.23 291.5,-19.03"/>
<polygon fill="#63b8ff" stroke="#63b8ff" points="288,-121.76 291.5,-131.76 295,-121.76 288,-121.76"/>
</a>
</g>
</g>
<!-- Node6 -->
<g id="Node000006" class="node">
<title>Node6</title>
<g id="a_Node000006"><a xlink:href="sevetest30___u_i_8c.html" target="_top" xlink:title=" ">
<polygon fill="white" stroke="#666666" points="508.5,-19 386.5,-19 386.5,0 508.5,0 508.5,-19"/>
<text text-anchor="middle" x="447.5" y="-7" font-family="Helvetica,sans-Serif" font-size="10.00">main/sevetest30_UI.c</text>
</a>
</g>
</g>
<!-- Node1&#45;&gt;Node6 -->
<g id="edge8_Node000001_Node000006" class="edge">
<title>Node1&#45;&gt;Node6</title>
<g id="a_edge8_Node000001_Node000006"><a xlink:title=" ">
<path fill="none" stroke="#63b8ff" d="M301.6,-122.77C311.37,-102.61 327.86,-73.78 349.5,-55 369.26,-37.85 396.71,-26.15 417.54,-19.07"/>
<polygon fill="#63b8ff" stroke="#63b8ff" points="298.41,-121.35 297.36,-131.89 304.75,-124.3 298.41,-121.35"/>
</a>
</g>
</g>
<!-- Node7 -->
<g id="Node000007" class="node">
<title>Node7</title>
<g id="a_Node000007"><a xlink:href="sevetest30__sound_8c.html" target="_top" xlink:title=" ">
<polygon fill="white" stroke="#666666" points="499,-85 358,-85 358,-66 499,-66 499,-85"/>
<text text-anchor="middle" x="428.5" y="-73" font-family="Helvetica,sans-Serif" font-size="10.00">main/sevetest30_sound.c</text>
</a>
</g>
</g>
<!-- Node1&#45;&gt;Node7 -->
<g id="edge9_Node000001_Node000007" class="edge">
<title>Node1&#45;&gt;Node7</title>
<g id="a_edge9_Node000001_Node000007"><a xlink:title=" ">
<path fill="none" stroke="#63b8ff" d="M328.41,-127.28C355.48,-113.54 390.98,-95.53 411.61,-85.07"/>
<polygon fill="#63b8ff" stroke="#63b8ff" points="326.56,-124.29 319.22,-131.94 329.73,-130.53 326.56,-124.29"/>
</a>
</g>
</g>
<!-- Node3 -->
<g id="Node000003" class="node">
<title>Node3</title>
<g id="a_Node000003"><a xlink:href="board__ctrl_8c.html" target="_top" xlink:title=" ">
<polygon fill="white" stroke="#666666" points="196,-19 95,-19 95,0 196,0 196,-19"/>
<text text-anchor="middle" x="145.5" y="-7" font-family="Helvetica,sans-Serif" font-size="10.00">main/board_ctrl.c</text>
</a>
</g>
</g>
<!-- Node2&#45;&gt;Node3 -->
<g id="edge2_Node000002_Node000003" class="edge">
<title>Node2&#45;&gt;Node3</title>
<g id="a_edge2_Node000002_Node000003"><a xlink:title=" ">
<path fill="none" stroke="#63b8ff" d="M170.83,-46.53C163.91,-36.69 156.63,-26.33 151.66,-19.26"/>
<polygon fill="#63b8ff" stroke="#63b8ff" points="168.14,-48.78 176.75,-54.95 173.87,-44.76 168.14,-48.78"/>
</a>
</g>
</g>
<!-- Node2&#45;&gt;Node4 -->
<g id="edge3_Node000002_Node000004" class="edge">
<title>Node2&#45;&gt;Node4</title>
<g id="a_edge3_Node000002_Node000004"><a xlink:title=" ">
<path fill="none" stroke="#63b8ff" d="M134.52,-50.93C108.11,-39.81 78.22,-27.22 58.91,-19.09"/>
<polygon fill="#63b8ff" stroke="#63b8ff" points="133.49,-54.3 144.07,-54.95 136.21,-47.84 133.49,-54.3"/>
</a>
</g>
</g>
<!-- Node2&#45;&gt;Node5 -->
<g id="edge4_Node000002_Node000005" class="edge">
<title>Node2&#45;&gt;Node5</title>
<g id="a_edge4_Node000002_Node000005"><a xlink:title=" ">
<path fill="none" stroke="#63b8ff" d="M230.02,-49.46C246.98,-38.71 265.67,-26.87 277.94,-19.09"/>
<polygon fill="#63b8ff" stroke="#63b8ff" points="227.93,-46.64 221.35,-54.95 231.67,-52.55 227.93,-46.64"/>
</a>
</g>
</g>
<!-- Node2&#45;&gt;Node6 -->
<g id="edge5_Node000002_Node000006" class="edge">
<title>Node2&#45;&gt;Node6</title>
<g id="a_edge5_Node000002_Node000006"><a xlink:title=" ">
<path fill="none" stroke="#63b8ff" d="M273.07,-53.94C320.46,-42.14 377.45,-27.94 413.08,-19.07"/>
<polygon fill="#63b8ff" stroke="#63b8ff" points="271.97,-50.6 263.12,-56.42 273.66,-57.4 271.97,-50.6"/>
</a>
</g>
</g>
</g>
</svg>
