<?xml version="1.0" encoding="UTF-8" standalone="no"?>
<!DOCTYPE svg PUBLIC "-//W3C//DTD SVG 1.1//EN"
 "http://www.w3.org/Graphics/SVG/1.1/DTD/svg11.dtd">
<!-- Generated by graphviz version 2.43.0 (0)
 -->
<!-- Title: main/sevetest30_BWEDA.c Pages: 1 -->
<svg width="2480pt" height="247pt"
 viewBox="0.00 0.00 2480.12 247.00" xmlns="http://www.w3.org/2000/svg" xmlns:xlink="http://www.w3.org/1999/xlink">
<g id="graph0" class="graph" transform="scale(1 1) rotate(0) translate(4 243)">
<title>main/sevetest30_BWEDA.c</title>
<!-- Node1 -->
<g id="Node000001" class="node">
<title>Node1</title>
<g id="a_Node000001"><a xlink:title=" ">
<polygon fill="#999999" stroke="#666666" points="1633.62,-239 1484.62,-239 1484.62,-220 1633.62,-220 1633.62,-239"/>
<text text-anchor="middle" x="1559.12" y="-227" font-family="Helvetica,sans-Serif" font-size="10.00">main/sevetest30_BWEDA.c</text>
</a>
</g>
</g>
<!-- Node2 -->
<g id="Node000002" class="node">
<title>Node2</title>
<g id="a_Node000002"><a xlink:href="sevetest30___b_w_e_d_a_8h.html" target="_top" xlink:title=" ">
<polygon fill="white" stroke="#666666" points="139.12,-74 17.12,-74 17.12,-55 139.12,-55 139.12,-74"/>
<text text-anchor="middle" x="78.12" y="-62" font-family="Helvetica,sans-Serif" font-size="10.00">sevetest30_BWEDA.h</text>
</a>
</g>
</g>
<!-- Node1&#45;&gt;Node2 -->
<g id="edge1_Node000001_Node000002" class="edge">
<title>Node1&#45;&gt;Node2</title>
<g id="a_edge1_Node000001_Node000002"><a xlink:title=" ">
<path fill="none" stroke="#63b8ff" d="M1484.58,-228.45C1298.29,-227.71 797.53,-222.04 382.12,-184 213.5,-168.56 115.87,-257.09 5.12,-129 -11.91,-109.31 18.43,-90.19 45.03,-78.16"/>
<polygon fill="#63b8ff" stroke="#63b8ff" points="46.76,-81.23 54.56,-74.07 44,-74.8 46.76,-81.23"/>
</a>
</g>
</g>
<!-- Node4 -->
<g id="Node000004" class="node">
<title>Node4</title>
<g id="a_Node000004"><a xlink:title=" ">
<polygon fill="#e0e0e0" stroke="#999999" points="88.12,-129 14.12,-129 14.12,-110 88.12,-110 88.12,-129"/>
<text text-anchor="middle" x="51.12" y="-117" font-family="Helvetica,sans-Serif" font-size="10.00">board_def.h</text>
</a>
</g>
</g>
<!-- Node1&#45;&gt;Node4 -->
<g id="edge3_Node000001_Node000004" class="edge">
<title>Node1&#45;&gt;Node4</title>
<g id="a_edge3_Node000001_Node000004"><a xlink:title=" ">
<path fill="none" stroke="#63b8ff" d="M1484.58,-226.57C1323.88,-222.06 932.89,-209.26 606.12,-184 382.58,-166.72 323.97,-162.05 98.41,-129.09"/>
<polygon fill="#63b8ff" stroke="#63b8ff" points="98.64,-125.59 88.24,-127.61 97.63,-132.52 98.64,-125.59"/>
</a>
</g>
</g>
<!-- Node5 -->
<g id="Node000005" class="node">
<title>Node5</title>
<g id="a_Node000005"><a xlink:href="board__ctrl_8h.html" target="_top" xlink:title=" ">
<polygon fill="white" stroke="#666666" points="689.12,-184 615.12,-184 615.12,-165 689.12,-165 689.12,-184"/>
<text text-anchor="middle" x="652.12" y="-172" font-family="Helvetica,sans-Serif" font-size="10.00">board_ctrl.h</text>
</a>
</g>
</g>
<!-- Node1&#45;&gt;Node5 -->
<g id="edge4_Node000001_Node000005" class="edge">
<title>Node1&#45;&gt;Node5</title>
<g id="a_edge4_Node000001_Node000005"><a xlink:title=" ">
<path fill="none" stroke="#63b8ff" d="M1484.51,-224.14C1304.08,-213.6 848.09,-186.95 699.63,-178.28"/>
<polygon fill="#63b8ff" stroke="#63b8ff" points="699.67,-174.77 689.48,-177.68 699.26,-181.76 699.67,-174.77"/>
</a>
</g>
</g>
<!-- Node7 -->
<g id="Node000007" class="node">
<title>Node7</title>
<g id="a_Node000007"><a xlink:title=" ">
<polygon fill="#e0e0e0" stroke="#999999" points="983.62,-19 930.62,-19 930.62,0 983.62,0 983.62,-19"/>
<text text-anchor="middle" x="957.12" y="-7" font-family="Helvetica,sans-Serif" font-size="10.00">string.h</text>
</a>
</g>
</g>
<!-- Node1&#45;&gt;Node7 -->
<g id="edge24_Node000001_Node000007" class="edge">
<title>Node1&#45;&gt;Node7</title>
<g id="a_edge24_Node000001_Node000007"><a xlink:title=" ">
<path fill="none" stroke="#63b8ff" d="M1484.31,-225.05C1363.69,-218.9 1136.63,-204.75 1106.12,-184 1075.55,-163.21 1090.71,-139.27 1068.12,-110 1041.37,-75.33 1001.48,-43.02 977.52,-25.1"/>
<polygon fill="#63b8ff" stroke="#63b8ff" points="979.59,-22.28 969.46,-19.17 975.44,-27.91 979.59,-22.28"/>
</a>
</g>
</g>
<!-- Node18 -->
<g id="Node000018" class="node">
<title>Node18</title>
<g id="a_Node000018"><a xlink:title=" ">
<polygon fill="#e0e0e0" stroke="#999999" points="1165.12,-184 1115.12,-184 1115.12,-165 1165.12,-165 1165.12,-184"/>
<text text-anchor="middle" x="1140.12" y="-172" font-family="Helvetica,sans-Serif" font-size="10.00">stdio.h</text>
</a>
</g>
</g>
<!-- Node1&#45;&gt;Node18 -->
<g id="edge22_Node000001_Node000018" class="edge">
<title>Node1&#45;&gt;Node18</title>
<g id="a_edge22_Node000001_Node000018"><a xlink:title=" ">
<path fill="none" stroke="#63b8ff" d="M1484.39,-222.58C1406.72,-215.78 1281.82,-203.06 1175.12,-184 1175.02,-183.98 1174.92,-183.96 1174.82,-183.95"/>
<polygon fill="#63b8ff" stroke="#63b8ff" points="1175.77,-180.57 1165.28,-182 1174.38,-187.43 1175.77,-180.57"/>
</a>
</g>
</g>
<!-- Node19 -->
<g id="Node000019" class="node">
<title>Node19</title>
<g id="a_Node000019"><a xlink:title=" ">
<polygon fill="#e0e0e0" stroke="#999999" points="1236.62,-184 1183.62,-184 1183.62,-165 1236.62,-165 1236.62,-184"/>
<text text-anchor="middle" x="1210.12" y="-172" font-family="Helvetica,sans-Serif" font-size="10.00">stdlib.h</text>
</a>
</g>
</g>
<!-- Node1&#45;&gt;Node19 -->
<g id="edge23_Node000001_Node000019" class="edge">
<title>Node1&#45;&gt;Node19</title>
<g id="a_edge23_Node000001_Node000019"><a xlink:title=" ">
<path fill="none" stroke="#63b8ff" d="M1485.77,-219.98C1424.44,-212.42 1334.48,-200.31 1246.66,-183.94"/>
<polygon fill="#63b8ff" stroke="#63b8ff" points="1247.27,-180.5 1236.8,-182.08 1245.98,-187.37 1247.27,-180.5"/>
</a>
</g>
</g>
<!-- Node20 -->
<g id="Node000020" class="node">
<title>Node20</title>
<g id="a_Node000020"><a xlink:title=" ">
<polygon fill="#e0e0e0" stroke="#999999" points="1367.62,-184 1254.62,-184 1254.62,-165 1367.62,-165 1367.62,-184"/>
<text text-anchor="middle" x="1311.12" y="-172" font-family="Helvetica,sans-Serif" font-size="10.00">freertos/FreeRTOS.h</text>
</a>
</g>
</g>
<!-- Node1&#45;&gt;Node20 -->
<g id="edge25_Node000001_Node000020" class="edge">
<title>Node1&#45;&gt;Node20</title>
<g id="a_edge25_Node000001_Node000020"><a xlink:title=" ">
<path fill="none" stroke="#63b8ff" d="M1519.27,-219.98C1476.29,-210.8 1407.75,-196.15 1361.16,-186.19"/>
<polygon fill="#63b8ff" stroke="#63b8ff" points="1361.79,-182.75 1351.28,-184.08 1360.33,-189.59 1361.79,-182.75"/>
</a>
</g>
</g>
<!-- Node21 -->
<g id="Node000021" class="node">
<title>Node21</title>
<g id="a_Node000021"><a xlink:title=" ">
<polygon fill="#e0e0e0" stroke="#999999" points="1474.12,-184 1386.12,-184 1386.12,-165 1474.12,-165 1474.12,-184"/>
<text text-anchor="middle" x="1430.12" y="-172" font-family="Helvetica,sans-Serif" font-size="10.00">freertos/task.h</text>
</a>
</g>
</g>
<!-- Node1&#45;&gt;Node21 -->
<g id="edge26_Node000001_Node000021" class="edge">
<title>Node1&#45;&gt;Node21</title>
<g id="a_edge26_Node000001_Node000021"><a xlink:title=" ">
<path fill="none" stroke="#63b8ff" d="M1538.39,-219.98C1517.36,-211.34 1484.57,-197.87 1460.58,-188.02"/>
<polygon fill="#63b8ff" stroke="#63b8ff" points="1461.8,-184.73 1451.22,-184.17 1459.14,-191.21 1461.8,-184.73"/>
</a>
</g>
</g>
<!-- Node22 -->
<g id="Node000022" class="node">
<title>Node22</title>
<g id="a_Node000022"><a xlink:title=" ">
<polygon fill="#e0e0e0" stroke="#999999" points="1625.62,-184 1492.62,-184 1492.62,-165 1625.62,-165 1625.62,-184"/>
<text text-anchor="middle" x="1559.12" y="-172" font-family="Helvetica,sans-Serif" font-size="10.00">freertos/event_groups.h</text>
</a>
</g>
</g>
<!-- Node1&#45;&gt;Node22 -->
<g id="edge27_Node000001_Node000022" class="edge">
<title>Node1&#45;&gt;Node22</title>
<g id="a_edge27_Node000001_Node000022"><a xlink:title=" ">
<path fill="none" stroke="#63b8ff" d="M1559.12,-219.75C1559.12,-212.8 1559.12,-202.85 1559.12,-194.13"/>
<polygon fill="#63b8ff" stroke="#63b8ff" points="1562.62,-194.09 1559.12,-184.09 1555.62,-194.09 1562.62,-194.09"/>
</a>
</g>
</g>
<!-- Node23 -->
<g id="Node000023" class="node">
<title>Node23</title>
<g id="a_Node000023"><a xlink:title=" ">
<polygon fill="#e0e0e0" stroke="#999999" points="1728.12,-184 1644.12,-184 1644.12,-165 1728.12,-165 1728.12,-184"/>
<text text-anchor="middle" x="1686.12" y="-172" font-family="Helvetica,sans-Serif" font-size="10.00">esp_system.h</text>
</a>
</g>
</g>
<!-- Node1&#45;&gt;Node23 -->
<g id="edge28_Node000001_Node000023" class="edge">
<title>Node1&#45;&gt;Node23</title>
<g id="a_edge28_Node000001_Node000023"><a xlink:title=" ">
<path fill="none" stroke="#63b8ff" d="M1579.52,-219.98C1600.14,-211.38 1632.23,-197.99 1655.81,-188.15"/>
<polygon fill="#63b8ff" stroke="#63b8ff" points="1657.46,-191.25 1665.34,-184.17 1654.77,-184.79 1657.46,-191.25"/>
</a>
</g>
</g>
<!-- Node24 -->
<g id="Node000024" class="node">
<title>Node24</title>
<g id="a_Node000024"><a xlink:title=" ">
<polygon fill="#e0e0e0" stroke="#999999" points="1809.62,-184 1746.62,-184 1746.62,-165 1809.62,-165 1809.62,-184"/>
<text text-anchor="middle" x="1778.12" y="-172" font-family="Helvetica,sans-Serif" font-size="10.00">esp_log.h</text>
</a>
</g>
</g>
<!-- Node1&#45;&gt;Node24 -->
<g id="edge29_Node000001_Node000024" class="edge">
<title>Node1&#45;&gt;Node24</title>
<g id="a_edge29_Node000001_Node000024"><a xlink:title=" ">
<path fill="none" stroke="#63b8ff" d="M1594.31,-219.98C1633.1,-210.6 1695.44,-195.51 1736.6,-185.55"/>
<polygon fill="#63b8ff" stroke="#63b8ff" points="1737.68,-188.89 1746.58,-183.13 1736.03,-182.08 1737.68,-188.89"/>
</a>
</g>
</g>
<!-- Node25 -->
<g id="Node000025" class="node">
<title>Node25</title>
<g id="a_Node000025"><a xlink:title=" ">
<polygon fill="#e0e0e0" stroke="#999999" points="1898.62,-184 1827.62,-184 1827.62,-165 1898.62,-165 1898.62,-184"/>
<text text-anchor="middle" x="1863.12" y="-172" font-family="Helvetica,sans-Serif" font-size="10.00">nvs_flash.h</text>
</a>
</g>
</g>
<!-- Node1&#45;&gt;Node25 -->
<g id="edge30_Node000001_Node000025" class="edge">
<title>Node1&#45;&gt;Node25</title>
<g id="a_edge30_Node000001_Node000025"><a xlink:title=" ">
<path fill="none" stroke="#63b8ff" d="M1610.97,-219.96C1661.34,-211.59 1740.23,-198.28 1817.67,-184.24"/>
<polygon fill="#63b8ff" stroke="#63b8ff" points="1818.38,-187.66 1827.59,-182.43 1817.13,-180.78 1818.38,-187.66"/>
</a>
</g>
</g>
<!-- Node26 -->
<g id="Node000026" class="node">
<title>Node26</title>
<g id="a_Node000026"><a xlink:title=" ">
<polygon fill="#e0e0e0" stroke="#999999" points="1975.12,-184 1917.12,-184 1917.12,-165 1975.12,-165 1975.12,-184"/>
<text text-anchor="middle" x="1946.12" y="-172" font-family="Helvetica,sans-Serif" font-size="10.00">esp_bt.h</text>
</a>
</g>
</g>
<!-- Node1&#45;&gt;Node26 -->
<g id="edge31_Node000001_Node000026" class="edge">
<title>Node1&#45;&gt;Node26</title>
<g id="a_edge31_Node000001_Node000026"><a xlink:title=" ">
<path fill="none" stroke="#63b8ff" d="M1633.63,-221.03C1702.21,-213.7 1806.95,-201.33 1906.76,-184.1"/>
<polygon fill="#63b8ff" stroke="#63b8ff" points="1907.47,-187.53 1916.72,-182.36 1906.26,-180.63 1907.47,-187.53"/>
</a>
</g>
</g>
<!-- Node27 -->
<g id="Node000027" class="node">
<title>Node27</title>
<g id="a_Node000027"><a xlink:title=" ">
<polygon fill="#e0e0e0" stroke="#999999" points="2100.62,-184 1993.62,-184 1993.62,-165 2100.62,-165 2100.62,-184"/>
<text text-anchor="middle" x="2047.12" y="-172" font-family="Helvetica,sans-Serif" font-size="10.00">esp_gap_ble_api.h</text>
</a>
</g>
</g>
<!-- Node1&#45;&gt;Node27 -->
<g id="edge32_Node000001_Node000027" class="edge">
<title>Node1&#45;&gt;Node27</title>
<g id="a_edge32_Node000001_Node000027"><a xlink:title=" ">
<path fill="none" stroke="#63b8ff" d="M1633.67,-221.37C1716.43,-213.31 1854.26,-199.42 1983.44,-184.05"/>
<polygon fill="#63b8ff" stroke="#63b8ff" points="1984,-187.5 1993.52,-182.84 1983.17,-180.55 1984,-187.5"/>
</a>
</g>
</g>
<!-- Node28 -->
<g id="Node000028" class="node">
<title>Node28</title>
<g id="a_Node000028"><a xlink:title=" ">
<polygon fill="#e0e0e0" stroke="#999999" points="2211.62,-184 2118.62,-184 2118.62,-165 2211.62,-165 2211.62,-184"/>
<text text-anchor="middle" x="2165.12" y="-172" font-family="Helvetica,sans-Serif" font-size="10.00">esp_gatts_api.h</text>
</a>
</g>
</g>
<!-- Node1&#45;&gt;Node28 -->
<g id="edge33_Node000001_Node000028" class="edge">
<title>Node1&#45;&gt;Node28</title>
<g id="a_edge33_Node000001_Node000028"><a xlink:title=" ">
<path fill="none" stroke="#63b8ff" d="M1633.71,-224.2C1737.82,-217.82 1932.81,-204.47 2108.41,-184.13"/>
<polygon fill="#63b8ff" stroke="#63b8ff" points="2108.82,-187.6 2118.34,-182.97 2108.01,-180.65 2108.82,-187.6"/>
</a>
</g>
</g>
<!-- Node29 -->
<g id="Node000029" class="node">
<title>Node29</title>
<g id="a_Node000029"><a xlink:title=" ">
<polygon fill="#e0e0e0" stroke="#999999" points="2318.12,-184 2230.12,-184 2230.12,-165 2318.12,-165 2318.12,-184"/>
<text text-anchor="middle" x="2274.12" y="-172" font-family="Helvetica,sans-Serif" font-size="10.00">esp_bt_main.h</text>
</a>
</g>
</g>
<!-- Node1&#45;&gt;Node29 -->
<g id="edge34_Node000001_Node000029" class="edge">
<title>Node1&#45;&gt;Node29</title>
<g id="a_edge34_Node000001_Node000029"><a xlink:title=" ">
<path fill="none" stroke="#63b8ff" d="M1633.78,-225.72C1754.73,-220.72 2001.2,-208.49 2219.85,-184.04"/>
<polygon fill="#63b8ff" stroke="#63b8ff" points="2220.37,-187.5 2229.92,-182.9 2219.59,-180.55 2220.37,-187.5"/>
</a>
</g>
</g>
<!-- Node30 -->
<g id="Node000030" class="node">
<title>Node30</title>
<g id="a_Node000030"><a xlink:title=" ">
<polygon fill="#e0e0e0" stroke="#999999" points="2472.12,-184 2336.12,-184 2336.12,-165 2472.12,-165 2472.12,-184"/>
<text text-anchor="middle" x="2404.12" y="-172" font-family="Helvetica,sans-Serif" font-size="10.00">esp_gatt_common_api.h</text>
</a>
</g>
</g>
<!-- Node1&#45;&gt;Node30 -->
<g id="edge35_Node000001_Node000030" class="edge">
<title>Node1&#45;&gt;Node30</title>
<g id="a_edge35_Node000001_Node000030"><a xlink:title=" ">
<path fill="none" stroke="#63b8ff" d="M1633.89,-225.46C1769.57,-219.67 2065.62,-205.71 2326.09,-184.04"/>
<polygon fill="#63b8ff" stroke="#63b8ff" points="2326.45,-187.52 2336.12,-183.2 2325.86,-180.55 2326.45,-187.52"/>
</a>
</g>
</g>
<!-- Node3 -->
<g id="Node000003" class="node">
<title>Node3</title>
<g id="a_Node000003"><a xlink:title=" ">
<polygon fill="#e0e0e0" stroke="#999999" points="289.62,-19 228.62,-19 228.62,0 289.62,0 289.62,-19"/>
<text text-anchor="middle" x="259.12" y="-7" font-family="Helvetica,sans-Serif" font-size="10.00">esp_err.h</text>
</a>
</g>
</g>
<!-- Node2&#45;&gt;Node3 -->
<g id="edge2_Node000002_Node000003" class="edge">
<title>Node2&#45;&gt;Node3</title>
<g id="a_edge2_Node000002_Node000003"><a xlink:title=" ">
<path fill="none" stroke="#63b8ff" d="M107.2,-54.98C137.72,-46.05 185.88,-31.94 219.78,-22.02"/>
<polygon fill="#63b8ff" stroke="#63b8ff" points="221.2,-25.25 229.81,-19.08 219.23,-18.53 221.2,-25.25"/>
</a>
</g>
</g>
<!-- Node5&#45;&gt;Node4 -->
<g id="edge7_Node000005_Node000004" class="edge">
<title>Node5&#45;&gt;Node4</title>
<g id="a_edge7_Node000005_Node000004"><a xlink:title=" ">
<path fill="none" stroke="#63b8ff" d="M614.96,-171.84C526.98,-167.63 298.92,-155.07 98.36,-129.02"/>
<polygon fill="#63b8ff" stroke="#63b8ff" points="98.6,-125.53 88.23,-127.69 97.68,-132.47 98.6,-125.53"/>
</a>
</g>
</g>
<!-- Node6 -->
<g id="Node000006" class="node">
<title>Node6</title>
<g id="a_Node000006"><a xlink:title=" ">
<polygon fill="#e0e0e0" stroke="#999999" points="591.62,-74 516.62,-74 516.62,-55 591.62,-55 591.62,-74"/>
<text text-anchor="middle" x="554.12" y="-62" font-family="Helvetica,sans-Serif" font-size="10.00">esp_types.h</text>
</a>
</g>
</g>
<!-- Node5&#45;&gt;Node6 -->
<g id="edge5_Node000005_Node000006" class="edge">
<title>Node5&#45;&gt;Node6</title>
<g id="a_edge5_Node000005_Node000006"><a xlink:title=" ">
<path fill="none" stroke="#63b8ff" d="M689.17,-168.35C734.76,-160.49 803.02,-142.83 776.12,-110 754.56,-83.68 660.65,-72.61 602.09,-68.2"/>
<polygon fill="#63b8ff" stroke="#63b8ff" points="602.17,-64.7 591.95,-67.47 601.68,-71.68 602.17,-64.7"/>
</a>
</g>
</g>
<!-- Node5&#45;&gt;Node7 -->
<g id="edge6_Node000005_Node000007" class="edge">
<title>Node5&#45;&gt;Node7</title>
<g id="a_edge6_Node000005_Node000007"><a xlink:title=" ">
<path fill="none" stroke="#63b8ff" d="M689.31,-172.96C758.65,-171.13 903.75,-163.21 938.12,-129 964.49,-102.75 963.32,-55.46 960.19,-29.26"/>
<polygon fill="#63b8ff" stroke="#63b8ff" points="963.63,-28.56 958.76,-19.15 956.7,-29.54 963.63,-28.56"/>
</a>
</g>
</g>
<!-- Node8 -->
<g id="Node000008" class="node">
<title>Node8</title>
<g id="a_Node000008"><a xlink:title=" ">
<polygon fill="#e0e0e0" stroke="#999999" points="1058.62,-129 985.62,-129 985.62,-110 1058.62,-110 1058.62,-129"/>
<text text-anchor="middle" x="1022.12" y="-117" font-family="Helvetica,sans-Serif" font-size="10.00">audio_hal.h</text>
</a>
</g>
</g>
<!-- Node5&#45;&gt;Node8 -->
<g id="edge8_Node000005_Node000008" class="edge">
<title>Node5&#45;&gt;Node8</title>
<g id="a_edge8_Node000005_Node000008"><a xlink:title=" ">
<path fill="none" stroke="#63b8ff" d="M689.49,-168.61C749.12,-160.74 869.42,-144.57 971.12,-129 972.42,-128.8 973.73,-128.6 975.06,-128.39"/>
<polygon fill="#63b8ff" stroke="#63b8ff" points="976.04,-131.78 985.37,-126.75 974.94,-124.87 976.04,-131.78"/>
</a>
</g>
</g>
<!-- Node9 -->
<g id="Node000009" class="node">
<title>Node9</title>
<g id="a_Node000009"><a xlink:title=" ">
<polygon fill="#e0e0e0" stroke="#999999" points="209.62,-129 106.62,-129 106.62,-110 209.62,-110 209.62,-129"/>
<text text-anchor="middle" x="158.12" y="-117" font-family="Helvetica,sans-Serif" font-size="10.00">esxxx_common.h</text>
</a>
</g>
</g>
<!-- Node5&#45;&gt;Node9 -->
<g id="edge9_Node000005_Node000009" class="edge">
<title>Node5&#45;&gt;Node9</title>
<g id="a_edge9_Node000005_Node000009"><a xlink:title=" ">
<path fill="none" stroke="#63b8ff" d="M615,-170.14C541.68,-163.4 372.87,-147.41 219.75,-129.03"/>
<polygon fill="#63b8ff" stroke="#63b8ff" points="220.04,-125.54 209.69,-127.82 219.2,-132.49 220.04,-125.54"/>
</a>
</g>
</g>
<!-- Node10 -->
<g id="Node000010" class="node">
<title>Node10</title>
<g id="a_Node000010"><a xlink:href="sevetest30__gpio_8h.html" target="_top" xlink:title=" ">
<polygon fill="white" stroke="#666666" points="929.12,-129 823.12,-129 823.12,-110 929.12,-110 929.12,-129"/>
<text text-anchor="middle" x="876.12" y="-117" font-family="Helvetica,sans-Serif" font-size="10.00">sevetest30_gpio.h</text>
</a>
</g>
</g>
<!-- Node5&#45;&gt;Node10 -->
<g id="edge10_Node000005_Node000010" class="edge">
<title>Node5&#45;&gt;Node10</title>
<g id="a_edge10_Node000005_Node000010"><a xlink:title=" ">
<path fill="none" stroke="#63b8ff" d="M688.11,-164.98C726.61,-155.87 787.81,-141.4 829.86,-131.45"/>
<polygon fill="#63b8ff" stroke="#63b8ff" points="830.92,-134.79 839.85,-129.08 829.31,-127.98 830.92,-134.79"/>
</a>
</g>
</g>
<!-- Node13 -->
<g id="Node000013" class="node">
<title>Node13</title>
<g id="a_Node000013"><a xlink:title=" ">
<polygon fill="#e0e0e0" stroke="#999999" points="379.62,-129 308.62,-129 308.62,-110 379.62,-110 379.62,-129"/>
<text text-anchor="middle" x="344.12" y="-117" font-family="Helvetica,sans-Serif" font-size="10.00">driver/i2c.h</text>
</a>
</g>
</g>
<!-- Node5&#45;&gt;Node13 -->
<g id="edge15_Node000005_Node000013" class="edge">
<title>Node5&#45;&gt;Node13</title>
<g id="a_edge15_Node000005_Node000013"><a xlink:title=" ">
<path fill="none" stroke="#63b8ff" d="M614.91,-167.51C565.65,-159.53 475.83,-144.75 389.6,-129.24"/>
<polygon fill="#63b8ff" stroke="#63b8ff" points="390.11,-125.77 379.65,-127.44 388.87,-132.66 390.11,-125.77"/>
</a>
</g>
</g>
<!-- Node14 -->
<g id="Node000014" class="node">
<title>Node14</title>
<g id="a_Node000014"><a xlink:title=" ">
<polygon fill="#e0e0e0" stroke="#999999" points="516.62,-129 397.62,-129 397.62,-110 516.62,-110 516.62,-129"/>
<text text-anchor="middle" x="457.12" y="-117" font-family="Helvetica,sans-Serif" font-size="10.00">driver/spi_common.h</text>
</a>
</g>
</g>
<!-- Node5&#45;&gt;Node14 -->
<g id="edge16_Node000005_Node000014" class="edge">
<title>Node5&#45;&gt;Node14</title>
<g id="a_edge16_Node000005_Node000014"><a xlink:title=" ">
<path fill="none" stroke="#63b8ff" d="M620.79,-164.98C587.63,-155.97 535.12,-141.7 498.56,-131.76"/>
<polygon fill="#63b8ff" stroke="#63b8ff" points="499.26,-128.33 488.7,-129.08 497.43,-135.08 499.26,-128.33"/>
</a>
</g>
</g>
<!-- Node15 -->
<g id="Node000015" class="node">
<title>Node15</title>
<g id="a_Node000015"><a xlink:title=" ">
<polygon fill="#e0e0e0" stroke="#999999" points="645.12,-129 535.12,-129 535.12,-110 645.12,-110 645.12,-129"/>
<text text-anchor="middle" x="590.12" y="-117" font-family="Helvetica,sans-Serif" font-size="10.00">driver/spi_master.h</text>
</a>
</g>
</g>
<!-- Node5&#45;&gt;Node15 -->
<g id="edge17_Node000005_Node000015" class="edge">
<title>Node5&#45;&gt;Node15</title>
<g id="a_edge17_Node000005_Node000015"><a xlink:title=" ">
<path fill="none" stroke="#63b8ff" d="M642.16,-164.98C632.99,-157.15 619.18,-145.34 608.09,-135.86"/>
<polygon fill="#63b8ff" stroke="#63b8ff" points="610.14,-133.01 600.26,-129.17 605.59,-138.33 610.14,-133.01"/>
</a>
</g>
</g>
<!-- Node16 -->
<g id="Node000016" class="node">
<title>Node16</title>
<g id="a_Node000016"><a xlink:title=" ">
<polygon fill="#e0e0e0" stroke="#999999" points="766.62,-129 663.62,-129 663.62,-110 766.62,-110 766.62,-129"/>
<text text-anchor="middle" x="715.12" y="-117" font-family="Helvetica,sans-Serif" font-size="10.00">esp_peripherals.h</text>
</a>
</g>
</g>
<!-- Node5&#45;&gt;Node16 -->
<g id="edge18_Node000005_Node000016" class="edge">
<title>Node5&#45;&gt;Node16</title>
<g id="a_edge18_Node000005_Node000016"><a xlink:title=" ">
<path fill="none" stroke="#63b8ff" d="M662.24,-164.98C671.56,-157.15 685.59,-145.34 696.86,-135.86"/>
<polygon fill="#63b8ff" stroke="#63b8ff" points="699.41,-138.29 704.81,-129.17 694.91,-132.93 699.41,-138.29"/>
</a>
</g>
</g>
<!-- Node17 -->
<g id="Node000017" class="node">
<title>Node17</title>
<g id="a_Node000017"><a xlink:href="_b_l5372_8h.html" target="_top" xlink:title=" ">
<polygon fill="white" stroke="#666666" points="290.12,-129 228.12,-129 228.12,-110 290.12,-110 290.12,-129"/>
<text text-anchor="middle" x="259.12" y="-117" font-family="Helvetica,sans-Serif" font-size="10.00">BL5372.h</text>
</a>
</g>
</g>
<!-- Node5&#45;&gt;Node17 -->
<g id="edge19_Node000005_Node000017" class="edge">
<title>Node5&#45;&gt;Node17</title>
<g id="a_edge19_Node000005_Node000017"><a xlink:title=" ">
<path fill="none" stroke="#63b8ff" d="M614.87,-169.84C552.09,-163.46 421.05,-149.16 300.64,-129.13"/>
<polygon fill="#63b8ff" stroke="#63b8ff" points="300.96,-125.64 290.52,-127.43 299.8,-132.54 300.96,-125.64"/>
</a>
</g>
</g>
<!-- Node11 -->
<g id="Node000011" class="node">
<title>Node11</title>
<g id="a_Node000011"><a xlink:href="_t_c_a6416_a_8h.html" target="_top" xlink:title=" ">
<polygon fill="white" stroke="#666666" points="913.62,-74 838.62,-74 838.62,-55 913.62,-55 913.62,-74"/>
<text text-anchor="middle" x="876.12" y="-62" font-family="Helvetica,sans-Serif" font-size="10.00">TCA6416A.h</text>
</a>
</g>
</g>
<!-- Node10&#45;&gt;Node11 -->
<g id="edge11_Node000010_Node000011" class="edge">
<title>Node10&#45;&gt;Node11</title>
<g id="a_edge11_Node000010_Node000011"><a xlink:title=" ">
<path fill="none" stroke="#63b8ff" d="M876.12,-109.75C876.12,-102.8 876.12,-92.85 876.12,-84.13"/>
<polygon fill="#63b8ff" stroke="#63b8ff" points="879.62,-84.09 876.12,-74.09 872.62,-84.09 879.62,-84.09"/>
</a>
</g>
</g>
<!-- Node11&#45;&gt;Node3 -->
<g id="edge14_Node000011_Node000003" class="edge">
<title>Node11&#45;&gt;Node3</title>
<g id="a_edge14_Node000011_Node000003"><a xlink:title=" ">
<path fill="none" stroke="#63b8ff" d="M838.45,-60.26C729.23,-50.88 412.97,-23.72 299.9,-14"/>
<polygon fill="#63b8ff" stroke="#63b8ff" points="300.19,-10.51 289.92,-13.15 299.59,-17.49 300.19,-10.51"/>
</a>
</g>
</g>
<!-- Node11&#45;&gt;Node7 -->
<g id="edge12_Node000011_Node000007" class="edge">
<title>Node11&#45;&gt;Node7</title>
<g id="a_edge12_Node000011_Node000007"><a xlink:title=" ">
<path fill="none" stroke="#63b8ff" d="M889.13,-54.98C901.58,-46.84 920.58,-34.41 935.33,-24.76"/>
<polygon fill="#63b8ff" stroke="#63b8ff" points="937.42,-27.57 943.87,-19.17 933.59,-21.72 937.42,-27.57"/>
</a>
</g>
</g>
<!-- Node12 -->
<g id="Node000012" class="node">
<title>Node12</title>
<g id="a_Node000012"><a xlink:title=" ">
<polygon fill="#e0e0e0" stroke="#999999" points="907.12,-19 845.12,-19 845.12,0 907.12,0 907.12,-19"/>
<text text-anchor="middle" x="876.12" y="-7" font-family="Helvetica,sans-Serif" font-size="10.00">stdbool.h</text>
</a>
</g>
</g>
<!-- Node11&#45;&gt;Node12 -->
<g id="edge13_Node000011_Node000012" class="edge">
<title>Node11&#45;&gt;Node12</title>
<g id="a_edge13_Node000011_Node000012"><a xlink:title=" ">
<path fill="none" stroke="#63b8ff" d="M876.12,-54.75C876.12,-47.8 876.12,-37.85 876.12,-29.13"/>
<polygon fill="#63b8ff" stroke="#63b8ff" points="879.62,-29.09 876.12,-19.09 872.62,-29.09 879.62,-29.09"/>
</a>
</g>
</g>
<!-- Node17&#45;&gt;Node3 -->
<g id="edge21_Node000017_Node000003" class="edge">
<title>Node17&#45;&gt;Node3</title>
<g id="a_edge21_Node000017_Node000003"><a xlink:title=" ">
<path fill="none" stroke="#63b8ff" d="M259.12,-109.66C259.12,-92.17 259.12,-52.8 259.12,-29.27"/>
<polygon fill="#63b8ff" stroke="#63b8ff" points="262.62,-29.16 259.12,-19.16 255.62,-29.16 262.62,-29.16"/>
</a>
</g>
</g>
<!-- Node17&#45;&gt;Node6 -->
<g id="edge20_Node000017_Node000006" class="edge">
<title>Node17&#45;&gt;Node6</title>
<g id="a_edge20_Node000017_Node000006"><a xlink:title=" ">
<path fill="none" stroke="#63b8ff" d="M290.54,-111.71C293.44,-111.12 296.33,-110.54 299.12,-110 371.15,-96.07 455.01,-81.81 506.32,-73.3"/>
<polygon fill="#63b8ff" stroke="#63b8ff" points="507.16,-76.71 516.45,-71.63 506.01,-69.81 507.16,-76.71"/>
</a>
</g>
</g>
</g>
</svg>
