<?xml version="1.0" encoding="UTF-8" standalone="no"?>
<!DOCTYPE svg PUBLIC "-//W3C//DTD SVG 1.1//EN"
 "http://www.w3.org/Graphics/SVG/1.1/DTD/svg11.dtd">
<!-- Generated by graphviz version 2.43.0 (0)
 -->
<!-- Title: components/sevetest30_board/include/sevetest30_SWEDA.h Pages: 1 -->
<svg width="506pt" height="159pt"
 viewBox="0.00 0.00 506.00 159.00" xmlns="http://www.w3.org/2000/svg" xmlns:xlink="http://www.w3.org/1999/xlink">
<g id="graph0" class="graph" transform="scale(1 1) rotate(0) translate(4 155)">
<title>components/sevetest30_board/include/sevetest30_SWEDA.h</title>
<!-- Node1 -->
<g id="Node000001" class="node">
<title>Node1</title>
<g id="a_Node000001"><a xlink:title=" ">
<polygon fill="#999999" stroke="#666666" points="287.5,-151 142.5,-151 142.5,-110 287.5,-110 287.5,-151"/>
<text text-anchor="start" x="150.5" y="-139" font-family="Helvetica,sans-Serif" font-size="10.00">components/sevetest30</text>
<text text-anchor="start" x="150.5" y="-128" font-family="Helvetica,sans-Serif" font-size="10.00">_board/include/sevetest30</text>
<text text-anchor="middle" x="215" y="-117" font-family="Helvetica,sans-Serif" font-size="10.00">_SWEDA.h</text>
</a>
</g>
</g>
<!-- Node2 -->
<g id="Node000002" class="node">
<title>Node2</title>
<g id="a_Node000002"><a xlink:title=" ">
<polygon fill="#e0e0e0" stroke="#999999" points="50,-74 0,-74 0,-55 50,-55 50,-74"/>
<text text-anchor="middle" x="25" y="-62" font-family="Helvetica,sans-Serif" font-size="10.00">stdio.h</text>
</a>
</g>
</g>
<!-- Node1&#45;&gt;Node2 -->
<g id="edge1_Node000001_Node000002" class="edge">
<title>Node1&#45;&gt;Node2</title>
<g id="a_edge1_Node000001_Node000002"><a xlink:title=" ">
<path fill="none" stroke="#63b8ff" d="M156.96,-109.95C125.22,-99.26 86.96,-86.37 59.83,-77.23"/>
<polygon fill="#63b8ff" stroke="#63b8ff" points="60.6,-73.8 50.01,-73.92 58.37,-80.43 60.6,-73.8"/>
</a>
</g>
</g>
<!-- Node3 -->
<g id="Node000003" class="node">
<title>Node3</title>
<g id="a_Node000003"><a xlink:title=" ">
<polygon fill="#e0e0e0" stroke="#999999" points="130,-74 68,-74 68,-55 130,-55 130,-74"/>
<text text-anchor="middle" x="99" y="-62" font-family="Helvetica,sans-Serif" font-size="10.00">stdbool.h</text>
</a>
</g>
</g>
<!-- Node1&#45;&gt;Node3 -->
<g id="edge2_Node000001_Node000003" class="edge">
<title>Node1&#45;&gt;Node3</title>
<g id="a_edge2_Node000001_Node000003"><a xlink:title=" ">
<path fill="none" stroke="#63b8ff" d="M179.57,-109.95C161.41,-99.93 139.76,-87.99 123.47,-79"/>
<polygon fill="#63b8ff" stroke="#63b8ff" points="125.02,-75.86 114.57,-74.09 121.64,-81.99 125.02,-75.86"/>
</a>
</g>
</g>
<!-- Node4 -->
<g id="Node000004" class="node">
<title>Node4</title>
<g id="a_Node000004"><a xlink:title=" ">
<polygon fill="#e0e0e0" stroke="#999999" points="215,-19 141,-19 141,0 215,0 215,-19"/>
<text text-anchor="middle" x="178" y="-7" font-family="Helvetica,sans-Serif" font-size="10.00">board_def.h</text>
</a>
</g>
</g>
<!-- Node1&#45;&gt;Node4 -->
<g id="edge3_Node000001_Node000004" class="edge">
<title>Node1&#45;&gt;Node4</title>
<g id="a_edge3_Node000001_Node000004"><a xlink:title=" ">
<path fill="none" stroke="#63b8ff" d="M197.33,-109.98C189.47,-99.98 181.07,-87.16 177,-74 172.51,-59.5 173.14,-42.23 174.68,-29.36"/>
<polygon fill="#63b8ff" stroke="#63b8ff" points="178.16,-29.78 176.16,-19.37 171.23,-28.75 178.16,-29.78"/>
</a>
</g>
</g>
<!-- Node5 -->
<g id="Node000005" class="node">
<title>Node5</title>
<g id="a_Node000005"><a xlink:href="_a_h_t21_8h.html" target="_top" xlink:title=" ">
<polygon fill="white" stroke="#666666" points="320,-74 262,-74 262,-55 320,-55 320,-74"/>
<text text-anchor="middle" x="291" y="-62" font-family="Helvetica,sans-Serif" font-size="10.00">AHT21.h</text>
</a>
</g>
</g>
<!-- Node1&#45;&gt;Node5 -->
<g id="edge4_Node000001_Node000005" class="edge">
<title>Node1&#45;&gt;Node5</title>
<g id="a_edge4_Node000001_Node000005"><a xlink:title=" ">
<path fill="none" stroke="#63b8ff" d="M238.22,-109.95C249.38,-100.55 262.55,-89.46 272.95,-80.7"/>
<polygon fill="#63b8ff" stroke="#63b8ff" points="275.2,-83.38 280.6,-74.26 270.69,-78.02 275.2,-83.38"/>
</a>
</g>
</g>
<!-- Node8 -->
<g id="Node000008" class="node">
<title>Node8</title>
<g id="a_Node000008"><a xlink:href="_a_g_s10_8h.html" target="_top" xlink:title=" ">
<polygon fill="white" stroke="#666666" points="244,-74 186,-74 186,-55 244,-55 244,-74"/>
<text text-anchor="middle" x="215" y="-62" font-family="Helvetica,sans-Serif" font-size="10.00">AGS10.h</text>
</a>
</g>
</g>
<!-- Node1&#45;&gt;Node8 -->
<g id="edge7_Node000001_Node000008" class="edge">
<title>Node1&#45;&gt;Node8</title>
<g id="a_edge7_Node000001_Node000008"><a xlink:title=" ">
<path fill="none" stroke="#63b8ff" d="M215,-109.95C215,-101.85 215,-92.5 215,-84.47"/>
<polygon fill="#63b8ff" stroke="#63b8ff" points="218.5,-84.26 215,-74.26 211.5,-84.26 218.5,-84.26"/>
</a>
</g>
</g>
<!-- Node9 -->
<g id="Node000009" class="node">
<title>Node9</title>
<g id="a_Node000009"><a xlink:href="_b_l5372_8h.html" target="_top" xlink:title=" ">
<polygon fill="white" stroke="#666666" points="400,-74 338,-74 338,-55 400,-55 400,-74"/>
<text text-anchor="middle" x="369" y="-62" font-family="Helvetica,sans-Serif" font-size="10.00">BL5372.h</text>
</a>
</g>
</g>
<!-- Node1&#45;&gt;Node9 -->
<g id="edge10_Node000001_Node000009" class="edge">
<title>Node1&#45;&gt;Node9</title>
<g id="a_edge10_Node000001_Node000009"><a xlink:title=" ">
<path fill="none" stroke="#63b8ff" d="M262.04,-109.95C287.05,-99.56 317.05,-87.09 338.9,-78.01"/>
<polygon fill="#63b8ff" stroke="#63b8ff" points="340.43,-81.16 348.33,-74.09 337.75,-74.7 340.43,-81.16"/>
</a>
</g>
</g>
<!-- Node10 -->
<g id="Node000010" class="node">
<title>Node10</title>
<g id="a_Node000010"><a xlink:href="lsm6ds3trc_8h.html" target="_top" xlink:title=" ">
<polygon fill="white" stroke="#666666" points="498,-74 418,-74 418,-55 498,-55 498,-74"/>
<text text-anchor="middle" x="458" y="-62" font-family="Helvetica,sans-Serif" font-size="10.00">lsm6ds3trc.h</text>
</a>
</g>
</g>
<!-- Node1&#45;&gt;Node10 -->
<g id="edge13_Node000001_Node000010" class="edge">
<title>Node1&#45;&gt;Node10</title>
<g id="a_edge13_Node000001_Node000010"><a xlink:title=" ">
<path fill="none" stroke="#63b8ff" d="M287.58,-110.38C329.33,-99.39 380.33,-85.96 415.6,-76.67"/>
<polygon fill="#63b8ff" stroke="#63b8ff" points="416.78,-79.97 425.56,-74.04 415,-73.21 416.78,-79.97"/>
</a>
</g>
</g>
<!-- Node6 -->
<g id="Node000006" class="node">
<title>Node6</title>
<g id="a_Node000006"><a xlink:title=" ">
<polygon fill="#e0e0e0" stroke="#999999" points="328.5,-19 253.5,-19 253.5,0 328.5,0 328.5,-19"/>
<text text-anchor="middle" x="291" y="-7" font-family="Helvetica,sans-Serif" font-size="10.00">esp_types.h</text>
</a>
</g>
</g>
<!-- Node5&#45;&gt;Node6 -->
<g id="edge5_Node000005_Node000006" class="edge">
<title>Node5&#45;&gt;Node6</title>
<g id="a_edge5_Node000005_Node000006"><a xlink:title=" ">
<path fill="none" stroke="#63b8ff" d="M291,-54.75C291,-47.8 291,-37.85 291,-29.13"/>
<polygon fill="#63b8ff" stroke="#63b8ff" points="294.5,-29.09 291,-19.09 287.5,-29.09 294.5,-29.09"/>
</a>
</g>
</g>
<!-- Node7 -->
<g id="Node000007" class="node">
<title>Node7</title>
<g id="a_Node000007"><a xlink:title=" ">
<polygon fill="#e0e0e0" stroke="#999999" points="407.5,-19 346.5,-19 346.5,0 407.5,0 407.5,-19"/>
<text text-anchor="middle" x="377" y="-7" font-family="Helvetica,sans-Serif" font-size="10.00">esp_err.h</text>
</a>
</g>
</g>
<!-- Node5&#45;&gt;Node7 -->
<g id="edge6_Node000005_Node000007" class="edge">
<title>Node5&#45;&gt;Node7</title>
<g id="a_edge6_Node000005_Node000007"><a xlink:title=" ">
<path fill="none" stroke="#63b8ff" d="M304.82,-54.98C318.15,-46.77 338.58,-34.18 354.31,-24.49"/>
<polygon fill="#63b8ff" stroke="#63b8ff" points="356.25,-27.4 362.93,-19.17 352.58,-21.44 356.25,-27.4"/>
</a>
</g>
</g>
<!-- Node8&#45;&gt;Node4 -->
<g id="edge9_Node000008_Node000004" class="edge">
<title>Node8&#45;&gt;Node4</title>
<g id="a_edge9_Node000008_Node000004"><a xlink:title=" ">
<path fill="none" stroke="#63b8ff" d="M208.89,-54.75C203.72,-47.34 196.15,-36.5 189.81,-27.41"/>
<polygon fill="#63b8ff" stroke="#63b8ff" points="192.59,-25.29 184,-19.09 186.85,-29.29 192.59,-25.29"/>
</a>
</g>
</g>
<!-- Node8&#45;&gt;Node6 -->
<g id="edge8_Node000008_Node000006" class="edge">
<title>Node8&#45;&gt;Node6</title>
<g id="a_edge8_Node000008_Node000006"><a xlink:title=" ">
<path fill="none" stroke="#63b8ff" d="M227.21,-54.98C238.78,-46.92 256.38,-34.65 270.16,-25.03"/>
<polygon fill="#63b8ff" stroke="#63b8ff" points="272.37,-27.76 278.57,-19.17 268.36,-22.02 272.37,-27.76"/>
</a>
</g>
</g>
<!-- Node9&#45;&gt;Node6 -->
<g id="edge11_Node000009_Node000006" class="edge">
<title>Node9&#45;&gt;Node6</title>
<g id="a_edge11_Node000009_Node000006"><a xlink:title=" ">
<path fill="none" stroke="#63b8ff" d="M356.47,-54.98C344.6,-46.92 326.54,-34.65 312.39,-25.03"/>
<polygon fill="#63b8ff" stroke="#63b8ff" points="314,-21.9 303.76,-19.17 310.06,-27.69 314,-21.9"/>
</a>
</g>
</g>
<!-- Node9&#45;&gt;Node7 -->
<g id="edge12_Node000009_Node000007" class="edge">
<title>Node9&#45;&gt;Node7</title>
<g id="a_edge12_Node000009_Node000007"><a xlink:title=" ">
<path fill="none" stroke="#63b8ff" d="M370.32,-54.75C371.37,-47.8 372.87,-37.85 374.19,-29.13"/>
<polygon fill="#63b8ff" stroke="#63b8ff" points="377.67,-29.5 375.7,-19.09 370.75,-28.45 377.67,-29.5"/>
</a>
</g>
</g>
<!-- Node10&#45;&gt;Node6 -->
<g id="edge14_Node000010_Node000006" class="edge">
<title>Node10&#45;&gt;Node6</title>
<g id="a_edge14_Node000010_Node000006"><a xlink:title=" ">
<path fill="none" stroke="#63b8ff" d="M431.17,-54.98C403.13,-46.09 358.95,-32.07 327.7,-22.15"/>
<polygon fill="#63b8ff" stroke="#63b8ff" points="328.63,-18.77 318.04,-19.08 326.51,-25.44 328.63,-18.77"/>
</a>
</g>
</g>
<!-- Node10&#45;&gt;Node7 -->
<g id="edge15_Node000010_Node000007" class="edge">
<title>Node10&#45;&gt;Node7</title>
<g id="a_edge15_Node000010_Node000007"><a xlink:title=" ">
<path fill="none" stroke="#63b8ff" d="M444.99,-54.98C432.54,-46.84 413.54,-34.41 398.79,-24.76"/>
<polygon fill="#63b8ff" stroke="#63b8ff" points="400.54,-21.72 390.25,-19.17 396.7,-27.57 400.54,-21.72"/>
</a>
</g>
</g>
</g>
</svg>
