<?xml version="1.0" encoding="UTF-8" standalone="no"?>
<!DOCTYPE svg PUBLIC "-//W3C//DTD SVG 1.1//EN"
 "http://www.w3.org/Graphics/SVG/1.1/DTD/svg11.dtd">
<!-- Generated by graphviz version 2.43.0 (0)
 -->
<!-- Title: main/sevetest30_IWEDA.c Pages: 1 -->
<svg width="1922pt" height="247pt"
 viewBox="0.00 0.00 1922.00 247.00" xmlns="http://www.w3.org/2000/svg" xmlns:xlink="http://www.w3.org/1999/xlink">
<g id="graph0" class="graph" transform="scale(1 1) rotate(0) translate(4 243)">
<title>main/sevetest30_IWEDA.c</title>
<!-- Node1 -->
<g id="Node000001" class="node">
<title>Node1</title>
<g id="a_Node000001"><a xlink:title=" ">
<polygon fill="#999999" stroke="#666666" points="876,-239 731,-239 731,-220 876,-220 876,-239"/>
<text text-anchor="middle" x="803.5" y="-227" font-family="Helvetica,sans-Serif" font-size="10.00">main/sevetest30_IWEDA.c</text>
</a>
</g>
</g>
<!-- Node2 -->
<g id="Node000002" class="node">
<title>Node2</title>
<g id="a_Node000002"><a xlink:title=" ">
<polygon fill="#e0e0e0" stroke="#999999" points="43,-184 0,-184 0,-165 43,-165 43,-184"/>
<text text-anchor="middle" x="21.5" y="-172" font-family="Helvetica,sans-Serif" font-size="10.00">zlib.h</text>
</a>
</g>
</g>
<!-- Node1&#45;&gt;Node2 -->
<g id="edge1_Node000001_Node000002" class="edge">
<title>Node1&#45;&gt;Node2</title>
<g id="a_edge1_Node000001_Node000002"><a xlink:title=" ">
<path fill="none" stroke="#63b8ff" d="M730.84,-229.41C597.73,-229.94 305.94,-225.84 53.11,-183.9"/>
<polygon fill="#63b8ff" stroke="#63b8ff" points="53.44,-180.4 43,-182.2 52.28,-187.31 53.44,-180.4"/>
</a>
</g>
</g>
<!-- Node3 -->
<g id="Node000003" class="node">
<title>Node3</title>
<g id="a_Node000003"><a xlink:title=" ">
<polygon fill="#e0e0e0" stroke="#999999" points="108,-184 61,-184 61,-165 108,-165 108,-184"/>
<text text-anchor="middle" x="84.5" y="-172" font-family="Helvetica,sans-Serif" font-size="10.00">zutil.h</text>
</a>
</g>
</g>
<!-- Node1&#45;&gt;Node3 -->
<g id="edge2_Node000001_Node000003" class="edge">
<title>Node1&#45;&gt;Node3</title>
<g id="a_edge2_Node000001_Node000003"><a xlink:title=" ">
<path fill="none" stroke="#63b8ff" d="M730.91,-228.24C607.01,-226.83 346.83,-219.62 118.35,-183.78"/>
<polygon fill="#63b8ff" stroke="#63b8ff" points="118.61,-180.28 108.18,-182.17 117.51,-187.19 118.61,-180.28"/>
</a>
</g>
</g>
<!-- Node4 -->
<g id="Node000004" class="node">
<title>Node4</title>
<g id="a_Node000004"><a xlink:title=" ">
<polygon fill="#e0e0e0" stroke="#999999" points="188.5,-184 126.5,-184 126.5,-165 188.5,-165 188.5,-184"/>
<text text-anchor="middle" x="157.5" y="-172" font-family="Helvetica,sans-Serif" font-size="10.00">inftrees.h</text>
</a>
</g>
</g>
<!-- Node1&#45;&gt;Node4 -->
<g id="edge3_Node000001_Node000004" class="edge">
<title>Node1&#45;&gt;Node4</title>
<g id="a_edge3_Node000001_Node000004"><a xlink:title=" ">
<path fill="none" stroke="#63b8ff" d="M730.86,-226.36C618.68,-222.35 396.42,-211.6 198.85,-184"/>
<polygon fill="#63b8ff" stroke="#63b8ff" points="199.26,-180.52 188.87,-182.59 198.28,-187.45 199.26,-180.52"/>
</a>
</g>
</g>
<!-- Node5 -->
<g id="Node000005" class="node">
<title>Node5</title>
<g id="a_Node000005"><a xlink:title=" ">
<polygon fill="#e0e0e0" stroke="#999999" points="262.5,-184 206.5,-184 206.5,-165 262.5,-165 262.5,-184"/>
<text text-anchor="middle" x="234.5" y="-172" font-family="Helvetica,sans-Serif" font-size="10.00">inflate.h</text>
</a>
</g>
</g>
<!-- Node1&#45;&gt;Node5 -->
<g id="edge4_Node000001_Node000005" class="edge">
<title>Node1&#45;&gt;Node5</title>
<g id="a_edge4_Node000001_Node000005"><a xlink:title=" ">
<path fill="none" stroke="#63b8ff" d="M730.83,-225.7C630.04,-221.09 442.03,-209.86 272.79,-183.98"/>
<polygon fill="#63b8ff" stroke="#63b8ff" points="273.12,-180.49 262.7,-182.41 272.05,-187.4 273.12,-180.49"/>
</a>
</g>
</g>
<!-- Node6 -->
<g id="Node000006" class="node">
<title>Node6</title>
<g id="a_Node000006"><a xlink:title=" ">
<polygon fill="#e0e0e0" stroke="#999999" points="348.5,-184 280.5,-184 280.5,-165 348.5,-165 348.5,-184"/>
<text text-anchor="middle" x="314.5" y="-172" font-family="Helvetica,sans-Serif" font-size="10.00">sys/time.h</text>
</a>
</g>
</g>
<!-- Node1&#45;&gt;Node6 -->
<g id="edge5_Node000001_Node000006" class="edge">
<title>Node1&#45;&gt;Node6</title>
<g id="a_edge5_Node000001_Node000006"><a xlink:title=" ">
<path fill="none" stroke="#63b8ff" d="M730.73,-222.83C643.14,-215.63 491.69,-201.93 362.5,-184 361.23,-183.82 359.94,-183.64 358.63,-183.44"/>
<polygon fill="#63b8ff" stroke="#63b8ff" points="358.96,-179.95 348.54,-181.85 357.87,-186.87 358.96,-179.95"/>
</a>
</g>
</g>
<!-- Node7 -->
<g id="Node000007" class="node">
<title>Node7</title>
<g id="a_Node000007"><a xlink:title=" ">
<polygon fill="#e0e0e0" stroke="#999999" points="870,-19 817,-19 817,0 870,0 870,-19"/>
<text text-anchor="middle" x="843.5" y="-7" font-family="Helvetica,sans-Serif" font-size="10.00">string.h</text>
</a>
</g>
</g>
<!-- Node1&#45;&gt;Node7 -->
<g id="edge6_Node000001_Node000007" class="edge">
<title>Node1&#45;&gt;Node7</title>
<g id="a_edge6_Node000001_Node000007"><a xlink:title=" ">
<path fill="none" stroke="#63b8ff" d="M795.44,-219.71C785.08,-207.31 769.47,-184.06 778.5,-165 789.32,-142.17 809.72,-150.8 822.5,-129 840.93,-97.57 843.99,-53.97 844.08,-29.37"/>
<polygon fill="#63b8ff" stroke="#63b8ff" points="847.57,-29.19 843.94,-19.23 840.57,-29.28 847.57,-29.19"/>
</a>
</g>
</g>
<!-- Node8 -->
<g id="Node000008" class="node">
<title>Node8</title>
<g id="a_Node000008"><a xlink:title=" ">
<polygon fill="#e0e0e0" stroke="#999999" points="244,-129 131,-129 131,-110 244,-110 244,-129"/>
<text text-anchor="middle" x="187.5" y="-117" font-family="Helvetica,sans-Serif" font-size="10.00">freertos/FreeRTOS.h</text>
</a>
</g>
</g>
<!-- Node1&#45;&gt;Node8 -->
<g id="edge7_Node000001_Node000008" class="edge">
<title>Node1&#45;&gt;Node8</title>
<g id="a_edge7_Node000001_Node000008"><a xlink:title=" ">
<path fill="none" stroke="#63b8ff" d="M730.87,-229.06C647.37,-227.8 507.08,-219.77 392.5,-184 375.6,-178.73 373.96,-171.51 357.5,-165 319.96,-150.15 275.82,-138.76 241.92,-131.23"/>
<polygon fill="#63b8ff" stroke="#63b8ff" points="242.26,-127.72 231.75,-129.01 240.77,-134.56 242.26,-127.72"/>
</a>
</g>
</g>
<!-- Node9 -->
<g id="Node000009" class="node">
<title>Node9</title>
<g id="a_Node000009"><a xlink:title=" ">
<polygon fill="#e0e0e0" stroke="#999999" points="350.5,-129 262.5,-129 262.5,-110 350.5,-110 350.5,-129"/>
<text text-anchor="middle" x="306.5" y="-117" font-family="Helvetica,sans-Serif" font-size="10.00">freertos/task.h</text>
</a>
</g>
</g>
<!-- Node1&#45;&gt;Node9 -->
<g id="edge8_Node000001_Node000009" class="edge">
<title>Node1&#45;&gt;Node9</title>
<g id="a_edge8_Node000001_Node000009"><a xlink:title=" ">
<path fill="none" stroke="#63b8ff" d="M730.73,-227.08C655.01,-223.92 533.73,-214.09 433.5,-184 422.98,-180.84 365.54,-151.3 331.62,-133.64"/>
<polygon fill="#63b8ff" stroke="#63b8ff" points="333.22,-130.53 322.74,-129.01 329.98,-136.74 333.22,-130.53"/>
</a>
</g>
</g>
<!-- Node10 -->
<g id="Node000010" class="node">
<title>Node10</title>
<g id="a_Node000010"><a xlink:href="sevetest30___i_w_e_d_a_8h.html" target="_top" xlink:title=" ">
<polygon fill="white" stroke="#666666" points="730.5,-184 612.5,-184 612.5,-165 730.5,-165 730.5,-184"/>
<text text-anchor="middle" x="671.5" y="-172" font-family="Helvetica,sans-Serif" font-size="10.00">sevetest30_IWEDA.h</text>
</a>
</g>
</g>
<!-- Node1&#45;&gt;Node10 -->
<g id="edge9_Node000001_Node000010" class="edge">
<title>Node1&#45;&gt;Node10</title>
<g id="a_edge9_Node000001_Node000010"><a xlink:title=" ">
<path fill="none" stroke="#63b8ff" d="M782.29,-219.98C760.77,-211.34 727.22,-197.87 702.67,-188.02"/>
<polygon fill="#63b8ff" stroke="#63b8ff" points="703.68,-184.65 693.09,-184.17 701.07,-191.14 703.68,-184.65"/>
</a>
</g>
</g>
<!-- Node11 -->
<g id="Node000011" class="node">
<title>Node11</title>
<g id="a_Node000011"><a xlink:title=" ">
<polygon fill="#e0e0e0" stroke="#999999" points="619,-129 540,-129 540,-110 619,-110 619,-129"/>
<text text-anchor="middle" x="579.5" y="-117" font-family="Helvetica,sans-Serif" font-size="10.00">periph_wifi.h</text>
</a>
</g>
</g>
<!-- Node1&#45;&gt;Node11 -->
<g id="edge25_Node000001_Node000011" class="edge">
<title>Node1&#45;&gt;Node11</title>
<g id="a_edge25_Node000001_Node000011"><a xlink:title=" ">
<path fill="none" stroke="#63b8ff" d="M733.01,-220C683.5,-212.72 622.82,-200.75 603.5,-184 590.57,-172.79 584.59,-153.87 581.83,-139.59"/>
<polygon fill="#63b8ff" stroke="#63b8ff" points="585.24,-138.72 580.24,-129.37 578.32,-139.79 585.24,-138.72"/>
</a>
</g>
</g>
<!-- Node15 -->
<g id="Node000015" class="node">
<title>Node15</title>
<g id="a_Node000015"><a xlink:href="sevetest30__sound_8h.html" target="_top" xlink:title=" ">
<polygon fill="white" stroke="#666666" points="556.5,-184 442.5,-184 442.5,-165 556.5,-165 556.5,-184"/>
<text text-anchor="middle" x="499.5" y="-172" font-family="Helvetica,sans-Serif" font-size="10.00">sevetest30_sound.h</text>
</a>
</g>
</g>
<!-- Node1&#45;&gt;Node15 -->
<g id="edge14_Node000001_Node000015" class="edge">
<title>Node1&#45;&gt;Node15</title>
<g id="a_edge14_Node000001_Node000015"><a xlink:title=" ">
<path fill="none" stroke="#63b8ff" d="M754.66,-219.98C701.22,-210.67 615.58,-195.74 558.44,-185.78"/>
<polygon fill="#63b8ff" stroke="#63b8ff" points="558.93,-182.31 548.47,-184.04 557.72,-189.2 558.93,-182.31"/>
</a>
</g>
</g>
<!-- Node17 -->
<g id="Node000017" class="node">
<title>Node17</title>
<g id="a_Node000017"><a xlink:title=" ">
<polygon fill="#e0e0e0" stroke="#999999" points="910,-184 787,-184 787,-165 910,-165 910,-184"/>
<text text-anchor="middle" x="848.5" y="-172" font-family="Helvetica,sans-Serif" font-size="10.00">baidu_access_token.h</text>
</a>
</g>
</g>
<!-- Node1&#45;&gt;Node17 -->
<g id="edge19_Node000001_Node000017" class="edge">
<title>Node1&#45;&gt;Node17</title>
<g id="a_edge19_Node000001_Node000017"><a xlink:title=" ">
<path fill="none" stroke="#63b8ff" d="M810.93,-219.75C817.35,-212.18 826.81,-201.05 834.62,-191.84"/>
<polygon fill="#63b8ff" stroke="#63b8ff" points="837.4,-193.98 841.21,-184.09 832.07,-189.45 837.4,-193.98"/>
</a>
</g>
</g>
<!-- Node18 -->
<g id="Node000018" class="node">
<title>Node18</title>
<g id="a_Node000018"><a xlink:title=" ">
<polygon fill="#e0e0e0" stroke="#999999" points="991,-184 928,-184 928,-165 991,-165 991,-184"/>
<text text-anchor="middle" x="959.5" y="-172" font-family="Helvetica,sans-Serif" font-size="10.00">esp_log.h</text>
</a>
</g>
</g>
<!-- Node1&#45;&gt;Node18 -->
<g id="edge20_Node000001_Node000018" class="edge">
<title>Node1&#45;&gt;Node18</title>
<g id="a_edge20_Node000001_Node000018"><a xlink:title=" ">
<path fill="none" stroke="#63b8ff" d="M828.56,-219.98C854.53,-211.16 895.31,-197.31 924.46,-187.41"/>
<polygon fill="#63b8ff" stroke="#63b8ff" points="925.9,-190.61 934.24,-184.08 923.65,-183.99 925.9,-190.61"/>
</a>
</g>
</g>
<!-- Node19 -->
<g id="Node000019" class="node">
<title>Node19</title>
<g id="a_Node000019"><a xlink:title=" ">
<polygon fill="#e0e0e0" stroke="#999999" points="1074,-184 1009,-184 1009,-165 1074,-165 1074,-184"/>
<text text-anchor="middle" x="1041.5" y="-172" font-family="Helvetica,sans-Serif" font-size="10.00">esp_wifi.h</text>
</a>
</g>
</g>
<!-- Node1&#45;&gt;Node19 -->
<g id="edge21_Node000001_Node000019" class="edge">
<title>Node1&#45;&gt;Node19</title>
<g id="a_edge21_Node000001_Node000019"><a xlink:title=" ">
<path fill="none" stroke="#63b8ff" d="M841.74,-219.98C884.65,-210.43 954.09,-194.97 998.76,-185.02"/>
<polygon fill="#63b8ff" stroke="#63b8ff" points="999.72,-188.39 1008.72,-182.8 998.2,-181.56 999.72,-188.39"/>
</a>
</g>
</g>
<!-- Node20 -->
<g id="Node000020" class="node">
<title>Node20</title>
<g id="a_Node000020"><a xlink:title=" ">
<polygon fill="#e0e0e0" stroke="#999999" points="1163,-184 1092,-184 1092,-165 1163,-165 1163,-184"/>
<text text-anchor="middle" x="1127.5" y="-172" font-family="Helvetica,sans-Serif" font-size="10.00">nvs_flash.h</text>
</a>
</g>
</g>
<!-- Node1&#45;&gt;Node20 -->
<g id="edge22_Node000001_Node000020" class="edge">
<title>Node1&#45;&gt;Node20</title>
<g id="a_edge22_Node000001_Node000020"><a xlink:title=" ">
<path fill="none" stroke="#63b8ff" d="M860.7,-219.98C915.15,-211.74 999.63,-198.62 1081.95,-184.23"/>
<polygon fill="#63b8ff" stroke="#63b8ff" points="1082.73,-187.64 1091.98,-182.47 1081.52,-180.75 1082.73,-187.64"/>
</a>
</g>
</g>
<!-- Node21 -->
<g id="Node000021" class="node">
<title>Node21</title>
<g id="a_Node000021"><a xlink:href="sdkconfig_8h.html" target="_top" xlink:title=" ">
<polygon fill="white" stroke="#666666" points="1253.5,-184 1181.5,-184 1181.5,-165 1253.5,-165 1253.5,-184"/>
<text text-anchor="middle" x="1217.5" y="-172" font-family="Helvetica,sans-Serif" font-size="10.00">sdkconfig.h</text>
</a>
</g>
</g>
<!-- Node1&#45;&gt;Node21 -->
<g id="edge23_Node000001_Node000021" class="edge">
<title>Node1&#45;&gt;Node21</title>
<g id="a_edge23_Node000001_Node000021"><a xlink:title=" ">
<path fill="none" stroke="#63b8ff" d="M876.16,-221.18C948.47,-213.57 1062.81,-200.66 1171.07,-184.13"/>
<polygon fill="#63b8ff" stroke="#63b8ff" points="1171.84,-187.56 1181.19,-182.57 1170.77,-180.64 1171.84,-187.56"/>
</a>
</g>
</g>
<!-- Node22 -->
<g id="Node000022" class="node">
<title>Node22</title>
<g id="a_Node000022"><a xlink:title=" ">
<polygon fill="#e0e0e0" stroke="#999999" points="1341,-184 1272,-184 1272,-165 1341,-165 1341,-184"/>
<text text-anchor="middle" x="1306.5" y="-172" font-family="Helvetica,sans-Serif" font-size="10.00">esp_sntp.h</text>
</a>
</g>
</g>
<!-- Node1&#45;&gt;Node22 -->
<g id="edge24_Node000001_Node000022" class="edge">
<title>Node1&#45;&gt;Node22</title>
<g id="a_edge24_Node000001_Node000022"><a xlink:title=" ">
<path fill="none" stroke="#63b8ff" d="M876.1,-223.58C964.67,-217.11 1119.16,-204.29 1261.72,-183.97"/>
<polygon fill="#63b8ff" stroke="#63b8ff" points="1262.57,-187.38 1271.96,-182.49 1261.57,-180.45 1262.57,-187.38"/>
</a>
</g>
</g>
<!-- Node23 -->
<g id="Node000023" class="node">
<title>Node23</title>
<g id="a_Node000023"><a xlink:title=" ">
<polygon fill="#e0e0e0" stroke="#999999" points="1412,-184 1359,-184 1359,-165 1412,-165 1412,-184"/>
<text text-anchor="middle" x="1385.5" y="-172" font-family="Helvetica,sans-Serif" font-size="10.00">board.h</text>
</a>
</g>
</g>
<!-- Node1&#45;&gt;Node23 -->
<g id="edge26_Node000001_Node000023" class="edge">
<title>Node1&#45;&gt;Node23</title>
<g id="a_edge26_Node000001_Node000023"><a xlink:title=" ">
<path fill="none" stroke="#63b8ff" d="M876.05,-226.22C979.22,-222.18 1174.28,-211.57 1348.7,-184.05"/>
<polygon fill="#63b8ff" stroke="#63b8ff" points="1349.51,-187.47 1358.83,-182.43 1348.41,-180.56 1349.51,-187.47"/>
</a>
</g>
</g>
<!-- Node24 -->
<g id="Node000024" class="node">
<title>Node24</title>
<g id="a_Node000024"><a xlink:href="board__ctrl_8h.html" target="_top" xlink:title=" ">
<polygon fill="white" stroke="#666666" points="1504.5,-184 1430.5,-184 1430.5,-165 1504.5,-165 1504.5,-184"/>
<text text-anchor="middle" x="1467.5" y="-172" font-family="Helvetica,sans-Serif" font-size="10.00">board_ctrl.h</text>
</a>
</g>
</g>
<!-- Node1&#45;&gt;Node24 -->
<g id="edge27_Node000001_Node000024" class="edge">
<title>Node1&#45;&gt;Node24</title>
<g id="a_edge27_Node000001_Node000024"><a xlink:title=" ">
<path fill="none" stroke="#63b8ff" d="M876.07,-225.88C989.94,-221.2 1217.68,-209.51 1420.46,-183.99"/>
<polygon fill="#63b8ff" stroke="#63b8ff" points="1420.92,-187.46 1430.4,-182.72 1420.04,-180.51 1420.92,-187.46"/>
</a>
</g>
</g>
<!-- Node36 -->
<g id="Node000036" class="node">
<title>Node36</title>
<g id="a_Node000036"><a xlink:title=" ">
<polygon fill="#e0e0e0" stroke="#999999" points="1578,-184 1523,-184 1523,-165 1578,-165 1578,-184"/>
<text text-anchor="middle" x="1550.5" y="-172" font-family="Helvetica,sans-Serif" font-size="10.00">cJSON.h</text>
</a>
</g>
</g>
<!-- Node1&#45;&gt;Node36 -->
<g id="edge45_Node000001_Node000036" class="edge">
<title>Node1&#45;&gt;Node36</title>
<g id="a_edge45_Node000001_Node000036"><a xlink:title=" ">
<path fill="none" stroke="#63b8ff" d="M876.22,-227.85C1003.4,-225.85 1274.53,-217.8 1512.48,-183.87"/>
<polygon fill="#63b8ff" stroke="#63b8ff" points="1513.31,-187.29 1522.71,-182.4 1512.31,-180.36 1513.31,-187.29"/>
</a>
</g>
</g>
<!-- Node37 -->
<g id="Node000037" class="node">
<title>Node37</title>
<g id="a_Node000037"><a xlink:title=" ">
<polygon fill="#e0e0e0" stroke="#999999" points="1708.5,-184 1596.5,-184 1596.5,-165 1708.5,-165 1708.5,-184"/>
<text text-anchor="middle" x="1652.5" y="-172" font-family="Helvetica,sans-Serif" font-size="10.00">audio_idf_version.h</text>
</a>
</g>
</g>
<!-- Node1&#45;&gt;Node37 -->
<g id="edge46_Node000001_Node000037" class="edge">
<title>Node1&#45;&gt;Node37</title>
<g id="a_edge46_Node000001_Node000037"><a xlink:title=" ">
<path fill="none" stroke="#63b8ff" d="M876.05,-226.16C1012.82,-221.36 1318.32,-208.79 1585.86,-184.08"/>
<polygon fill="#63b8ff" stroke="#63b8ff" points="1586.53,-187.54 1596.16,-183.12 1585.88,-180.57 1586.53,-187.54"/>
</a>
</g>
</g>
<!-- Node38 -->
<g id="Node000038" class="node">
<title>Node38</title>
<g id="a_Node000038"><a xlink:title=" ">
<polygon fill="#e0e0e0" stroke="#999999" points="1796.5,-184 1726.5,-184 1726.5,-165 1796.5,-165 1796.5,-184"/>
<text text-anchor="middle" x="1761.5" y="-172" font-family="Helvetica,sans-Serif" font-size="10.00">esp_netif.h</text>
</a>
</g>
</g>
<!-- Node1&#45;&gt;Node38 -->
<g id="edge47_Node000001_Node000038" class="edge">
<title>Node1&#45;&gt;Node38</title>
<g id="a_edge47_Node000001_Node000038"><a xlink:title=" ">
<path fill="none" stroke="#63b8ff" d="M876.07,-228.46C1029.46,-227.62 1397.95,-221.61 1715.69,-184.04"/>
<polygon fill="#63b8ff" stroke="#63b8ff" points="1716.51,-187.46 1726.03,-182.8 1715.68,-180.51 1716.51,-187.46"/>
</a>
</g>
</g>
<!-- Node10&#45;&gt;Node11 -->
<g id="edge10_Node000010_Node000011" class="edge">
<title>Node10&#45;&gt;Node11</title>
<g id="a_edge10_Node000010_Node000011"><a xlink:title=" ">
<path fill="none" stroke="#63b8ff" d="M656.72,-164.98C642.32,-156.69 620.19,-143.94 603.31,-134.22"/>
<polygon fill="#63b8ff" stroke="#63b8ff" points="604.96,-131.13 594.55,-129.17 601.47,-137.19 604.96,-131.13"/>
</a>
</g>
</g>
<!-- Node12 -->
<g id="Node000012" class="node">
<title>Node12</title>
<g id="a_Node000012"><a xlink:title=" ">
<polygon fill="#e0e0e0" stroke="#999999" points="813.5,-129 713.5,-129 713.5,-110 813.5,-110 813.5,-129"/>
<text text-anchor="middle" x="763.5" y="-117" font-family="Helvetica,sans-Serif" font-size="10.00">esp_http_client.h</text>
</a>
</g>
</g>
<!-- Node10&#45;&gt;Node12 -->
<g id="edge11_Node000010_Node000012" class="edge">
<title>Node10&#45;&gt;Node12</title>
<g id="a_edge11_Node000010_Node000012"><a xlink:title=" ">
<path fill="none" stroke="#63b8ff" d="M686.28,-164.98C700.68,-156.69 722.81,-143.94 739.69,-134.22"/>
<polygon fill="#63b8ff" stroke="#63b8ff" points="741.53,-137.19 748.45,-129.17 738.04,-131.13 741.53,-137.19"/>
</a>
</g>
</g>
<!-- Node13 -->
<g id="Node000013" class="node">
<title>Node13</title>
<g id="a_Node000013"><a xlink:title=" ">
<polygon fill="#e0e0e0" stroke="#999999" points="799,-19 738,-19 738,0 799,0 799,-19"/>
<text text-anchor="middle" x="768.5" y="-7" font-family="Helvetica,sans-Serif" font-size="10.00">esp_err.h</text>
</a>
</g>
</g>
<!-- Node10&#45;&gt;Node13 -->
<g id="edge12_Node000010_Node000013" class="edge">
<title>Node10&#45;&gt;Node13</title>
<g id="a_edge12_Node000010_Node000013"><a xlink:title=" ">
<path fill="none" stroke="#63b8ff" d="M674.26,-164.94C681.03,-144.7 699.79,-92.75 725.5,-55 732.65,-44.5 742.37,-34.21 750.75,-26.17"/>
<polygon fill="#63b8ff" stroke="#63b8ff" points="753.3,-28.59 758.26,-19.22 748.54,-23.45 753.3,-28.59"/>
</a>
</g>
</g>
<!-- Node14 -->
<g id="Node000014" class="node">
<title>Node14</title>
<g id="a_Node000014"><a xlink:title=" ">
<polygon fill="#e0e0e0" stroke="#999999" points="678.5,-19 616.5,-19 616.5,0 678.5,0 678.5,-19"/>
<text text-anchor="middle" x="647.5" y="-7" font-family="Helvetica,sans-Serif" font-size="10.00">stdbool.h</text>
</a>
</g>
</g>
<!-- Node10&#45;&gt;Node14 -->
<g id="edge13_Node000010_Node000014" class="edge">
<title>Node10&#45;&gt;Node14</title>
<g id="a_edge13_Node000010_Node000014"><a xlink:title=" ">
<path fill="none" stroke="#63b8ff" d="M670.21,-164.74C666.45,-139.2 655.44,-64.43 650.26,-29.23"/>
<polygon fill="#63b8ff" stroke="#63b8ff" points="653.72,-28.69 648.8,-19.31 646.79,-29.71 653.72,-28.69"/>
</a>
</g>
</g>
<!-- Node15&#45;&gt;Node8 -->
<g id="edge16_Node000015_Node000008" class="edge">
<title>Node15&#45;&gt;Node8</title>
<g id="a_edge16_Node000015_Node000008"><a xlink:title=" ">
<path fill="none" stroke="#63b8ff" d="M449.37,-164.98C394.41,-155.65 306.27,-140.67 247.63,-130.71"/>
<polygon fill="#63b8ff" stroke="#63b8ff" points="248.21,-127.26 237.76,-129.04 247.03,-134.16 248.21,-127.26"/>
</a>
</g>
</g>
<!-- Node15&#45;&gt;Node9 -->
<g id="edge17_Node000015_Node000009" class="edge">
<title>Node15&#45;&gt;Node9</title>
<g id="a_edge17_Node000015_Node000009"><a xlink:title=" ">
<path fill="none" stroke="#63b8ff" d="M468.49,-164.98C435.67,-155.97 383.7,-141.7 347.51,-131.76"/>
<polygon fill="#63b8ff" stroke="#63b8ff" points="348.32,-128.36 337.75,-129.08 346.47,-135.11 348.32,-128.36"/>
</a>
</g>
</g>
<!-- Node15&#45;&gt;Node14 -->
<g id="edge15_Node000015_Node000014" class="edge">
<title>Node15&#45;&gt;Node14</title>
<g id="a_edge15_Node000015_Node000014"><a xlink:title=" ">
<path fill="none" stroke="#63b8ff" d="M502.49,-164.65C507.13,-151.75 516.96,-127.44 530.5,-110 558.02,-74.54 599.94,-42.7 625.42,-25.04"/>
<polygon fill="#63b8ff" stroke="#63b8ff" points="627.7,-27.72 634,-19.2 623.77,-21.93 627.7,-27.72"/>
</a>
</g>
</g>
<!-- Node16 -->
<g id="Node000016" class="node">
<title>Node16</title>
<g id="a_Node000016"><a xlink:title=" ">
<polygon fill="#e0e0e0" stroke="#999999" points="483,-129 368,-129 368,-110 483,-110 483,-129"/>
<text text-anchor="middle" x="425.5" y="-117" font-family="Helvetica,sans-Serif" font-size="10.00">audio_event_iface.h</text>
</a>
</g>
</g>
<!-- Node15&#45;&gt;Node16 -->
<g id="edge18_Node000015_Node000016" class="edge">
<title>Node15&#45;&gt;Node16</title>
<g id="a_edge18_Node000015_Node000016"><a xlink:title=" ">
<path fill="none" stroke="#63b8ff" d="M487.61,-164.98C476.35,-156.92 459.21,-144.65 445.79,-135.03"/>
<polygon fill="#63b8ff" stroke="#63b8ff" points="447.77,-132.15 437.61,-129.17 443.7,-137.84 447.77,-132.15"/>
</a>
</g>
</g>
<!-- Node24&#45;&gt;Node7 -->
<g id="edge29_Node000024_Node000007" class="edge">
<title>Node24&#45;&gt;Node7</title>
<g id="a_edge29_Node000024_Node000007"><a xlink:title=" ">
<path fill="none" stroke="#63b8ff" d="M1504.67,-166.6C1507.99,-166.03 1511.3,-165.49 1514.5,-165 1576.72,-155.39 1753.91,-176.26 1795.5,-129 1801.08,-122.66 1801.01,-116.4 1795.5,-110 1734.64,-39.36 1048.77,-16.1 880.57,-11.44"/>
<polygon fill="#63b8ff" stroke="#63b8ff" points="880.57,-7.94 870.47,-11.17 880.38,-14.94 880.57,-7.94"/>
</a>
</g>
</g>
<!-- Node25 -->
<g id="Node000025" class="node">
<title>Node25</title>
<g id="a_Node000025"><a xlink:title=" ">
<polygon fill="#e0e0e0" stroke="#999999" points="1418,-74 1343,-74 1343,-55 1418,-55 1418,-74"/>
<text text-anchor="middle" x="1380.5" y="-62" font-family="Helvetica,sans-Serif" font-size="10.00">esp_types.h</text>
</a>
</g>
</g>
<!-- Node24&#45;&gt;Node25 -->
<g id="edge28_Node000024_Node000025" class="edge">
<title>Node24&#45;&gt;Node25</title>
<g id="a_edge28_Node000024_Node000025"><a xlink:title=" ">
<path fill="none" stroke="#63b8ff" d="M1467.49,-164.84C1467.05,-151.76 1464.56,-126.72 1452.5,-110 1442.49,-96.11 1426.68,-85.65 1412.43,-78.37"/>
<polygon fill="#63b8ff" stroke="#63b8ff" points="1413.89,-75.19 1403.36,-74.04 1410.88,-81.51 1413.89,-75.19"/>
</a>
</g>
</g>
<!-- Node26 -->
<g id="Node000026" class="node">
<title>Node26</title>
<g id="a_Node000026"><a xlink:title=" ">
<polygon fill="#e0e0e0" stroke="#999999" points="1573.5,-129 1499.5,-129 1499.5,-110 1573.5,-110 1573.5,-129"/>
<text text-anchor="middle" x="1536.5" y="-117" font-family="Helvetica,sans-Serif" font-size="10.00">board_def.h</text>
</a>
</g>
</g>
<!-- Node24&#45;&gt;Node26 -->
<g id="edge30_Node000024_Node000026" class="edge">
<title>Node24&#45;&gt;Node26</title>
<g id="a_edge30_Node000024_Node000026"><a xlink:title=" ">
<path fill="none" stroke="#63b8ff" d="M1478.59,-164.98C1488.99,-157 1504.76,-144.88 1517.22,-135.31"/>
<polygon fill="#63b8ff" stroke="#63b8ff" points="1519.41,-138.04 1525.21,-129.17 1515.15,-132.49 1519.41,-138.04"/>
</a>
</g>
</g>
<!-- Node27 -->
<g id="Node000027" class="node">
<title>Node27</title>
<g id="a_Node000027"><a xlink:title=" ">
<polygon fill="#e0e0e0" stroke="#999999" points="1665,-129 1592,-129 1592,-110 1665,-110 1665,-129"/>
<text text-anchor="middle" x="1628.5" y="-117" font-family="Helvetica,sans-Serif" font-size="10.00">audio_hal.h</text>
</a>
</g>
</g>
<!-- Node24&#45;&gt;Node27 -->
<g id="edge31_Node000024_Node000027" class="edge">
<title>Node24&#45;&gt;Node27</title>
<g id="a_edge31_Node000024_Node000027"><a xlink:title=" ">
<path fill="none" stroke="#63b8ff" d="M1493.37,-164.98C1520.28,-156.13 1562.62,-142.19 1592.73,-132.28"/>
<polygon fill="#63b8ff" stroke="#63b8ff" points="1594.03,-135.53 1602.43,-129.08 1591.84,-128.88 1594.03,-135.53"/>
</a>
</g>
</g>
<!-- Node28 -->
<g id="Node000028" class="node">
<title>Node28</title>
<g id="a_Node000028"><a xlink:title=" ">
<polygon fill="#e0e0e0" stroke="#999999" points="1786,-129 1683,-129 1683,-110 1786,-110 1786,-129"/>
<text text-anchor="middle" x="1734.5" y="-117" font-family="Helvetica,sans-Serif" font-size="10.00">esxxx_common.h</text>
</a>
</g>
</g>
<!-- Node24&#45;&gt;Node28 -->
<g id="edge32_Node000024_Node000028" class="edge">
<title>Node24&#45;&gt;Node28</title>
<g id="a_edge32_Node000024_Node000028"><a xlink:title=" ">
<path fill="none" stroke="#63b8ff" d="M1504.63,-166.13C1550.57,-157.01 1629.12,-141.42 1681.42,-131.04"/>
<polygon fill="#63b8ff" stroke="#63b8ff" points="1682.38,-134.41 1691.51,-129.03 1681.02,-127.55 1682.38,-134.41"/>
</a>
</g>
</g>
<!-- Node29 -->
<g id="Node000029" class="node">
<title>Node29</title>
<g id="a_Node000029"><a xlink:href="sevetest30__gpio_8h.html" target="_top" xlink:title=" ">
<polygon fill="white" stroke="#666666" points="975.5,-129 869.5,-129 869.5,-110 975.5,-110 975.5,-129"/>
<text text-anchor="middle" x="922.5" y="-117" font-family="Helvetica,sans-Serif" font-size="10.00">sevetest30_gpio.h</text>
</a>
</g>
</g>
<!-- Node24&#45;&gt;Node29 -->
<g id="edge33_Node000024_Node000029" class="edge">
<title>Node24&#45;&gt;Node29</title>
<g id="a_edge33_Node000024_Node000029"><a xlink:title=" ">
<path fill="none" stroke="#63b8ff" d="M1430.39,-166.31C1427.39,-165.83 1424.4,-165.39 1421.5,-165 1231.97,-139.73 1180.5,-149.66 985.74,-128.96"/>
<polygon fill="#63b8ff" stroke="#63b8ff" points="986.07,-125.47 975.75,-127.88 985.32,-132.43 986.07,-125.47"/>
</a>
</g>
</g>
<!-- Node31 -->
<g id="Node000031" class="node">
<title>Node31</title>
<g id="a_Node000031"><a xlink:title=" ">
<polygon fill="#e0e0e0" stroke="#999999" points="1914,-129 1843,-129 1843,-110 1914,-110 1914,-129"/>
<text text-anchor="middle" x="1878.5" y="-117" font-family="Helvetica,sans-Serif" font-size="10.00">driver/i2c.h</text>
</a>
</g>
</g>
<!-- Node24&#45;&gt;Node31 -->
<g id="edge38_Node000024_Node000031" class="edge">
<title>Node24&#45;&gt;Node31</title>
<g id="a_edge38_Node000024_Node000031"><a xlink:title=" ">
<path fill="none" stroke="#63b8ff" d="M1504.66,-166.55C1507.99,-166 1511.3,-165.47 1514.5,-165 1653.46,-144.49 1689.43,-148.78 1828.5,-129 1829.8,-128.82 1831.12,-128.62 1832.45,-128.43"/>
<polygon fill="#63b8ff" stroke="#63b8ff" points="1833.42,-131.82 1842.76,-126.82 1832.34,-124.9 1833.42,-131.82"/>
</a>
</g>
</g>
<!-- Node32 -->
<g id="Node000032" class="node">
<title>Node32</title>
<g id="a_Node000032"><a xlink:title=" ">
<polygon fill="#e0e0e0" stroke="#999999" points="1113,-129 994,-129 994,-110 1113,-110 1113,-129"/>
<text text-anchor="middle" x="1053.5" y="-117" font-family="Helvetica,sans-Serif" font-size="10.00">driver/spi_common.h</text>
</a>
</g>
</g>
<!-- Node24&#45;&gt;Node32 -->
<g id="edge39_Node000024_Node000032" class="edge">
<title>Node24&#45;&gt;Node32</title>
<g id="a_edge39_Node000024_Node000032"><a xlink:title=" ">
<path fill="none" stroke="#63b8ff" d="M1430.38,-166.43C1427.38,-165.93 1424.39,-165.44 1421.5,-165 1292.41,-145.32 1257.08,-145.18 1123.55,-129.12"/>
<polygon fill="#63b8ff" stroke="#63b8ff" points="1123.69,-125.61 1113.34,-127.88 1122.84,-132.56 1123.69,-125.61"/>
</a>
</g>
</g>
<!-- Node33 -->
<g id="Node000033" class="node">
<title>Node33</title>
<g id="a_Node000033"><a xlink:title=" ">
<polygon fill="#e0e0e0" stroke="#999999" points="1241.5,-129 1131.5,-129 1131.5,-110 1241.5,-110 1241.5,-129"/>
<text text-anchor="middle" x="1186.5" y="-117" font-family="Helvetica,sans-Serif" font-size="10.00">driver/spi_master.h</text>
</a>
</g>
</g>
<!-- Node24&#45;&gt;Node33 -->
<g id="edge40_Node000024_Node000033" class="edge">
<title>Node24&#45;&gt;Node33</title>
<g id="a_edge40_Node000024_Node000033"><a xlink:title=" ">
<path fill="none" stroke="#63b8ff" d="M1430.48,-166.52C1382.35,-157.44 1297.89,-141.51 1242.06,-130.98"/>
<polygon fill="#63b8ff" stroke="#63b8ff" points="1242.46,-127.49 1231.99,-129.08 1241.17,-134.37 1242.46,-127.49"/>
</a>
</g>
</g>
<!-- Node34 -->
<g id="Node000034" class="node">
<title>Node34</title>
<g id="a_Node000034"><a xlink:title=" ">
<polygon fill="#e0e0e0" stroke="#999999" points="1443,-129 1340,-129 1340,-110 1443,-110 1443,-129"/>
<text text-anchor="middle" x="1391.5" y="-117" font-family="Helvetica,sans-Serif" font-size="10.00">esp_peripherals.h</text>
</a>
</g>
</g>
<!-- Node24&#45;&gt;Node34 -->
<g id="edge41_Node000024_Node000034" class="edge">
<title>Node24&#45;&gt;Node34</title>
<g id="a_edge41_Node000024_Node000034"><a xlink:title=" ">
<path fill="none" stroke="#63b8ff" d="M1455.29,-164.98C1443.72,-156.92 1426.12,-144.65 1412.34,-135.03"/>
<polygon fill="#63b8ff" stroke="#63b8ff" points="1414.14,-132.02 1403.93,-129.17 1410.13,-137.76 1414.14,-132.02"/>
</a>
</g>
</g>
<!-- Node35 -->
<g id="Node000035" class="node">
<title>Node35</title>
<g id="a_Node000035"><a xlink:href="_b_l5372_8h.html" target="_top" xlink:title=" ">
<polygon fill="white" stroke="#666666" points="1321.5,-129 1259.5,-129 1259.5,-110 1321.5,-110 1321.5,-129"/>
<text text-anchor="middle" x="1290.5" y="-117" font-family="Helvetica,sans-Serif" font-size="10.00">BL5372.h</text>
</a>
</g>
</g>
<!-- Node24&#45;&gt;Node35 -->
<g id="edge42_Node000024_Node000035" class="edge">
<title>Node24&#45;&gt;Node35</title>
<g id="a_edge42_Node000024_Node000035"><a xlink:title=" ">
<path fill="none" stroke="#63b8ff" d="M1439.06,-164.98C1409.22,-156.05 1362.12,-141.94 1328.97,-132.02"/>
<polygon fill="#63b8ff" stroke="#63b8ff" points="1329.74,-128.6 1319.16,-129.08 1327.74,-135.3 1329.74,-128.6"/>
</a>
</g>
</g>
<!-- Node30 -->
<g id="Node000030" class="node">
<title>Node30</title>
<g id="a_Node000030"><a xlink:href="_t_c_a6416_a_8h.html" target="_top" xlink:title=" ">
<polygon fill="white" stroke="#666666" points="809,-74 734,-74 734,-55 809,-55 809,-74"/>
<text text-anchor="middle" x="771.5" y="-62" font-family="Helvetica,sans-Serif" font-size="10.00">TCA6416A.h</text>
</a>
</g>
</g>
<!-- Node29&#45;&gt;Node30 -->
<g id="edge34_Node000029_Node000030" class="edge">
<title>Node29&#45;&gt;Node30</title>
<g id="a_edge34_Node000029_Node000030"><a xlink:title=" ">
<path fill="none" stroke="#63b8ff" d="M898.24,-109.98C873.18,-101.19 833.87,-87.39 805.67,-77.49"/>
<polygon fill="#63b8ff" stroke="#63b8ff" points="806.8,-74.18 796.2,-74.17 804.48,-80.78 806.8,-74.18"/>
</a>
</g>
</g>
<!-- Node30&#45;&gt;Node7 -->
<g id="edge35_Node000030_Node000007" class="edge">
<title>Node30&#45;&gt;Node7</title>
<g id="a_edge35_Node000030_Node000007"><a xlink:title=" ">
<path fill="none" stroke="#63b8ff" d="M783.07,-54.98C793.92,-47 810.38,-34.88 823.38,-25.31"/>
<polygon fill="#63b8ff" stroke="#63b8ff" points="825.74,-27.92 831.72,-19.17 821.59,-22.28 825.74,-27.92"/>
</a>
</g>
</g>
<!-- Node30&#45;&gt;Node13 -->
<g id="edge37_Node000030_Node000013" class="edge">
<title>Node30&#45;&gt;Node13</title>
<g id="a_edge37_Node000030_Node000013"><a xlink:title=" ">
<path fill="none" stroke="#63b8ff" d="M771,-54.75C770.61,-47.8 770.05,-37.85 769.55,-29.13"/>
<polygon fill="#63b8ff" stroke="#63b8ff" points="773.05,-28.88 768.99,-19.09 766.06,-29.27 773.05,-28.88"/>
</a>
</g>
</g>
<!-- Node30&#45;&gt;Node14 -->
<g id="edge36_Node000030_Node000014" class="edge">
<title>Node30&#45;&gt;Node14</title>
<g id="a_edge36_Node000030_Node000014"><a xlink:title=" ">
<path fill="none" stroke="#63b8ff" d="M751.58,-54.98C731.45,-46.38 700.12,-32.99 677.09,-23.15"/>
<polygon fill="#63b8ff" stroke="#63b8ff" points="678.36,-19.88 667.79,-19.17 675.6,-26.32 678.36,-19.88"/>
</a>
</g>
</g>
<!-- Node35&#45;&gt;Node13 -->
<g id="edge44_Node000035_Node000013" class="edge">
<title>Node35&#45;&gt;Node13</title>
<g id="a_edge44_Node000035_Node000013"><a xlink:title=" ">
<path fill="none" stroke="#63b8ff" d="M1259.5,-111.89C1256.46,-111.25 1253.42,-110.61 1250.5,-110 1057.35,-69.59 1006.44,-60.36 808.9,-19.07"/>
<polygon fill="#63b8ff" stroke="#63b8ff" points="809.58,-15.64 799.07,-17.02 808.14,-22.49 809.58,-15.64"/>
</a>
</g>
</g>
<!-- Node35&#45;&gt;Node25 -->
<g id="edge43_Node000035_Node000025" class="edge">
<title>Node35&#45;&gt;Node25</title>
<g id="a_edge43_Node000035_Node000025"><a xlink:title=" ">
<path fill="none" stroke="#63b8ff" d="M1304.96,-109.98C1318.92,-101.77 1340.29,-89.18 1356.75,-79.49"/>
<polygon fill="#63b8ff" stroke="#63b8ff" points="1358.94,-82.26 1365.78,-74.17 1355.38,-76.23 1358.94,-82.26"/>
</a>
</g>
</g>
</g>
</svg>
