<?xml version="1.0" encoding="UTF-8" standalone="no"?>
<!DOCTYPE svg PUBLIC "-//W3C//DTD SVG 1.1//EN"
 "http://www.w3.org/Graphics/SVG/1.1/DTD/svg11.dtd">
<!-- Generated by graphviz version 2.43.0 (0)
 -->
<!-- Title: main/sevetest30_UI.c Pages: 1 -->
<svg width="2529pt" height="357pt"
 viewBox="0.00 0.00 2529.00 357.00" xmlns="http://www.w3.org/2000/svg" xmlns:xlink="http://www.w3.org/1999/xlink">
<g id="graph0" class="graph" transform="scale(1 1) rotate(0) translate(4 353)">
<title>main/sevetest30_UI.c</title>
<!-- Node1 -->
<g id="Node000001" class="node">
<title>Node1</title>
<g id="a_Node000001"><a xlink:title=" ">
<polygon fill="#999999" stroke="#666666" points="2025.5,-349 1903.5,-349 1903.5,-330 2025.5,-330 2025.5,-349"/>
<text text-anchor="middle" x="1964.5" y="-337" font-family="Helvetica,sans-Serif" font-size="10.00">main/sevetest30_UI.c</text>
</a>
</g>
</g>
<!-- Node2 -->
<g id="Node000002" class="node">
<title>Node2</title>
<g id="a_Node000002"><a xlink:href="sevetest30___u_i_8h.html" target="_top" xlink:title=" ">
<polygon fill="white" stroke="#666666" points="1073,-239 978,-239 978,-220 1073,-220 1073,-239"/>
<text text-anchor="middle" x="1025.5" y="-227" font-family="Helvetica,sans-Serif" font-size="10.00">sevetest30_UI.h</text>
</a>
</g>
</g>
<!-- Node1&#45;&gt;Node2 -->
<g id="edge1_Node000001_Node000002" class="edge">
<title>Node1&#45;&gt;Node2</title>
<g id="a_edge1_Node000001_Node000002"><a xlink:title=" ">
<path fill="none" stroke="#63b8ff" d="M1903.25,-331.46C1732.04,-311.76 1250.11,-256.33 1083.24,-237.14"/>
<polygon fill="#63b8ff" stroke="#63b8ff" points="1083.51,-233.65 1073.18,-235.98 1082.71,-240.6 1083.51,-233.65"/>
</a>
</g>
</g>
<!-- Node11 -->
<g id="Node000011" class="node">
<title>Node11</title>
<g id="a_Node000011"><a xlink:title=" ">
<polygon fill="#e0e0e0" stroke="#999999" points="1819.5,-74 1745.5,-74 1745.5,-55 1819.5,-55 1819.5,-74"/>
<text text-anchor="middle" x="1782.5" y="-62" font-family="Helvetica,sans-Serif" font-size="10.00">board_def.h</text>
</a>
</g>
</g>
<!-- Node1&#45;&gt;Node11 -->
<g id="edge63_Node000001_Node000011" class="edge">
<title>Node1&#45;&gt;Node11</title>
<g id="a_edge63_Node000001_Node000011"><a xlink:title=" ">
<path fill="none" stroke="#63b8ff" d="M1959.22,-329.9C1948.77,-312.07 1926.5,-269.46 1926.5,-230.5 1926.5,-230.5 1926.5,-230.5 1926.5,-173.5 1926.5,-122.04 1866.92,-92.1 1824.4,-77.28"/>
<polygon fill="#63b8ff" stroke="#63b8ff" points="1825.41,-73.93 1814.82,-74.09 1823.2,-80.57 1825.41,-73.93"/>
</a>
</g>
</g>
<!-- Node21 -->
<g id="Node000021" class="node">
<title>Node21</title>
<g id="a_Node000021"><a xlink:href="sevetest30__sound_8h.html" target="_top" xlink:title=" ">
<polygon fill="white" stroke="#666666" points="553.5,-239 439.5,-239 439.5,-220 553.5,-220 553.5,-239"/>
<text text-anchor="middle" x="496.5" y="-227" font-family="Helvetica,sans-Serif" font-size="10.00">sevetest30_sound.h</text>
</a>
</g>
</g>
<!-- Node1&#45;&gt;Node21 -->
<g id="edge26_Node000001_Node000021" class="edge">
<title>Node1&#45;&gt;Node21</title>
<g id="a_edge26_Node000001_Node000021"><a xlink:title=" ">
<path fill="none" stroke="#63b8ff" d="M1903.4,-337.81C1745.77,-335.6 1312.61,-326.78 953.5,-294 810.59,-280.95 643.88,-255.07 556.68,-240.7"/>
<polygon fill="#63b8ff" stroke="#63b8ff" points="557.14,-237.23 546.7,-239.05 556,-244.14 557.14,-237.23"/>
</a>
</g>
</g>
<!-- Node23 -->
<g id="Node000023" class="node">
<title>Node23</title>
<g id="a_Node000023"><a xlink:href="sevetest30__touch_8h.html" target="_top" xlink:title=" ">
<polygon fill="white" stroke="#666666" points="219.5,-294 107.5,-294 107.5,-275 219.5,-275 219.5,-294"/>
<text text-anchor="middle" x="163.5" y="-282" font-family="Helvetica,sans-Serif" font-size="10.00">sevetest30_touch.h</text>
</a>
</g>
</g>
<!-- Node1&#45;&gt;Node23 -->
<g id="edge31_Node000001_Node000023" class="edge">
<title>Node1&#45;&gt;Node23</title>
<g id="a_edge31_Node000001_Node000023"><a xlink:title=" ">
<path fill="none" stroke="#63b8ff" d="M1903.29,-336.7C1629.1,-328.63 514.89,-295.84 230.06,-287.46"/>
<polygon fill="#63b8ff" stroke="#63b8ff" points="229.98,-283.95 219.88,-287.16 229.77,-290.95 229.98,-283.95"/>
</a>
</g>
</g>
<!-- Node26 -->
<g id="Node000026" class="node">
<title>Node26</title>
<g id="a_Node000026"><a xlink:href="sevetest30___i_w_e_d_a_8h.html" target="_top" xlink:title=" ">
<polygon fill="white" stroke="#666666" points="1955.5,-74 1837.5,-74 1837.5,-55 1955.5,-55 1955.5,-74"/>
<text text-anchor="middle" x="1896.5" y="-62" font-family="Helvetica,sans-Serif" font-size="10.00">sevetest30_IWEDA.h</text>
</a>
</g>
</g>
<!-- Node1&#45;&gt;Node26 -->
<g id="edge34_Node000001_Node000026" class="edge">
<title>Node1&#45;&gt;Node26</title>
<g id="a_edge34_Node000001_Node000026"><a xlink:title=" ">
<path fill="none" stroke="#63b8ff" d="M1964.5,-329.82C1964.5,-311.48 1964.5,-267.44 1964.5,-230.5 1964.5,-230.5 1964.5,-230.5 1964.5,-173.5 1964.5,-143.33 1956.8,-135.39 1940.5,-110 1933.49,-99.08 1923.45,-88.66 1914.72,-80.66"/>
<polygon fill="#63b8ff" stroke="#63b8ff" points="1917.02,-78.02 1907.21,-74.04 1912.4,-83.27 1917.02,-78.02"/>
</a>
</g>
</g>
<!-- Node29 -->
<g id="Node000029" class="node">
<title>Node29</title>
<g id="a_Node000029"><a xlink:href="sevetest30___s_w_e_d_a_8h.html" target="_top" xlink:title=" ">
<polygon fill="white" stroke="#666666" points="1742,-184 1621,-184 1621,-165 1742,-165 1742,-184"/>
<text text-anchor="middle" x="1681.5" y="-172" font-family="Helvetica,sans-Serif" font-size="10.00">sevetest30_SWEDA.h</text>
</a>
</g>
</g>
<!-- Node1&#45;&gt;Node29 -->
<g id="edge39_Node000001_Node000029" class="edge">
<title>Node1&#45;&gt;Node29</title>
<g id="a_edge39_Node000001_Node000029"><a xlink:title=" ">
<path fill="none" stroke="#63b8ff" d="M1949.68,-329.97C1903.56,-303.4 1762.25,-222.01 1705.48,-189.31"/>
<polygon fill="#63b8ff" stroke="#63b8ff" points="1706.92,-186.1 1696.51,-184.15 1703.43,-192.17 1706.92,-186.1"/>
</a>
</g>
</g>
<!-- Node34 -->
<g id="Node000034" class="node">
<title>Node34</title>
<g id="a_Node000034"><a xlink:href="sevetest30___led_array_8h.html" target="_top" xlink:title=" ">
<polygon fill="white" stroke="#666666" points="1089,-294 962,-294 962,-275 1089,-275 1089,-294"/>
<text text-anchor="middle" x="1025.5" y="-282" font-family="Helvetica,sans-Serif" font-size="10.00">sevetest30_LedArray.h</text>
</a>
</g>
</g>
<!-- Node1&#45;&gt;Node34 -->
<g id="edge53_Node000001_Node000034" class="edge">
<title>Node1&#45;&gt;Node34</title>
<g id="a_edge53_Node000001_Node000034"><a xlink:title=" ">
<path fill="none" stroke="#63b8ff" d="M1903.25,-335.04C1737.28,-325.67 1279.3,-299.83 1099.42,-289.67"/>
<polygon fill="#63b8ff" stroke="#63b8ff" points="1099.44,-286.17 1089.26,-289.1 1099.04,-293.16 1099.44,-286.17"/>
</a>
</g>
</g>
<!-- Node36 -->
<g id="Node000036" class="node">
<title>Node36</title>
<g id="a_Node000036"><a xlink:title=" ">
<polygon fill="#e0e0e0" stroke="#999999" points="2056,-294 1993,-294 1993,-275 2056,-275 2056,-294"/>
<text text-anchor="middle" x="2024.5" y="-282" font-family="Helvetica,sans-Serif" font-size="10.00">esp_log.h</text>
</a>
</g>
</g>
<!-- Node1&#45;&gt;Node36 -->
<g id="edge58_Node000001_Node000036" class="edge">
<title>Node1&#45;&gt;Node36</title>
<g id="a_edge58_Node000001_Node000036"><a xlink:title=" ">
<path fill="none" stroke="#63b8ff" d="M1974.14,-329.98C1983.01,-322.15 1996.37,-310.34 2007.11,-300.86"/>
<polygon fill="#63b8ff" stroke="#63b8ff" points="2009.51,-303.41 2014.68,-294.17 2004.87,-298.17 2009.51,-303.41"/>
</a>
</g>
</g>
<!-- Node37 -->
<g id="Node000037" class="node">
<title>Node37</title>
<g id="a_Node000037"><a xlink:title=" ">
<polygon fill="#e0e0e0" stroke="#999999" points="2125,-294 2074,-294 2074,-275 2125,-275 2125,-294"/>
<text text-anchor="middle" x="2099.5" y="-282" font-family="Helvetica,sans-Serif" font-size="10.00">math.h</text>
</a>
</g>
</g>
<!-- Node1&#45;&gt;Node37 -->
<g id="edge59_Node000001_Node000037" class="edge">
<title>Node1&#45;&gt;Node37</title>
<g id="a_edge59_Node000001_Node000037"><a xlink:title=" ">
<path fill="none" stroke="#63b8ff" d="M1986.19,-329.98C2008.3,-321.3 2042.82,-307.75 2067.95,-297.88"/>
<polygon fill="#63b8ff" stroke="#63b8ff" points="2069.39,-301.08 2077.42,-294.17 2066.83,-294.57 2069.39,-301.08"/>
</a>
</g>
</g>
<!-- Node38 -->
<g id="Node000038" class="node">
<title>Node38</title>
<g id="a_Node000038"><a xlink:title=" ">
<polygon fill="#e0e0e0" stroke="#999999" points="2229.5,-294 2143.5,-294 2143.5,-275 2229.5,-275 2229.5,-294"/>
<text text-anchor="middle" x="2186.5" y="-282" font-family="Helvetica,sans-Serif" font-size="10.00">esp_random.h</text>
</a>
</g>
</g>
<!-- Node1&#45;&gt;Node38 -->
<g id="edge60_Node000001_Node000038" class="edge">
<title>Node1&#45;&gt;Node38</title>
<g id="a_edge60_Node000001_Node000038"><a xlink:title=" ">
<path fill="none" stroke="#63b8ff" d="M2000.17,-329.98C2038.33,-320.87 2098.97,-306.4 2140.65,-296.45"/>
<polygon fill="#63b8ff" stroke="#63b8ff" points="2141.64,-299.81 2150.55,-294.08 2140.01,-293 2141.64,-299.81"/>
</a>
</g>
</g>
<!-- Node39 -->
<g id="Node000039" class="node">
<title>Node39</title>
<g id="a_Node000039"><a xlink:title=" ">
<polygon fill="#e0e0e0" stroke="#999999" points="2313,-294 2248,-294 2248,-275 2313,-275 2313,-294"/>
<text text-anchor="middle" x="2280.5" y="-282" font-family="Helvetica,sans-Serif" font-size="10.00">esp_dsp.h</text>
</a>
</g>
</g>
<!-- Node1&#45;&gt;Node39 -->
<g id="edge61_Node000001_Node000039" class="edge">
<title>Node1&#45;&gt;Node39</title>
<g id="a_edge61_Node000001_Node000039"><a xlink:title=" ">
<path fill="none" stroke="#63b8ff" d="M2021.02,-329.97C2074.33,-321.78 2156.73,-308.75 2238.05,-294.02"/>
<polygon fill="#63b8ff" stroke="#63b8ff" points="2238.75,-297.45 2247.96,-292.21 2237.5,-290.56 2238.75,-297.45"/>
</a>
</g>
</g>
<!-- Node40 -->
<g id="Node000040" class="node">
<title>Node40</title>
<g id="a_Node000040"><a xlink:title=" ">
<polygon fill="#e0e0e0" stroke="#999999" points="2414,-294 2331,-294 2331,-275 2414,-275 2414,-294"/>
<text text-anchor="middle" x="2372.5" y="-282" font-family="Helvetica,sans-Serif" font-size="10.00">audio_mem.h</text>
</a>
</g>
</g>
<!-- Node1&#45;&gt;Node40 -->
<g id="edge62_Node000001_Node000040" class="edge">
<title>Node1&#45;&gt;Node40</title>
<g id="a_edge62_Node000001_Node000040"><a xlink:title=" ">
<path fill="none" stroke="#63b8ff" d="M2025.74,-331.73C2094.95,-323.89 2211.25,-310.15 2320.56,-294.23"/>
<polygon fill="#63b8ff" stroke="#63b8ff" points="2321.39,-297.65 2330.78,-292.74 2320.38,-290.72 2321.39,-297.65"/>
</a>
</g>
</g>
<!-- Node41 -->
<g id="Node000041" class="node">
<title>Node41</title>
<g id="a_Node000041"><a xlink:title=" ">
<polygon fill="#e0e0e0" stroke="#999999" points="2521,-294 2432,-294 2432,-275 2521,-275 2521,-294"/>
<text text-anchor="middle" x="2476.5" y="-282" font-family="Helvetica,sans-Serif" font-size="10.00">soc/soc_caps.h</text>
</a>
</g>
</g>
<!-- Node1&#45;&gt;Node41 -->
<g id="edge64_Node000001_Node000041" class="edge">
<title>Node1&#45;&gt;Node41</title>
<g id="a_edge64_Node000001_Node000041"><a xlink:title=" ">
<path fill="none" stroke="#63b8ff" d="M2025.52,-333.8C2111.61,-326.91 2273.86,-312.92 2421.82,-294.15"/>
<polygon fill="#63b8ff" stroke="#63b8ff" points="2422.52,-297.58 2432,-292.84 2421.63,-290.64 2422.52,-297.58"/>
</a>
</g>
</g>
<!-- Node3 -->
<g id="Node000003" class="node">
<title>Node3</title>
<g id="a_Node000003"><a xlink:title=" ">
<polygon fill="#e0e0e0" stroke="#999999" points="381,-19 328,-19 328,0 381,0 381,-19"/>
<text text-anchor="middle" x="354.5" y="-7" font-family="Helvetica,sans-Serif" font-size="10.00">string.h</text>
</a>
</g>
</g>
<!-- Node2&#45;&gt;Node3 -->
<g id="edge2_Node000002_Node000003" class="edge">
<title>Node2&#45;&gt;Node3</title>
<g id="a_edge2_Node000002_Node000003"><a xlink:title=" ">
<path fill="none" stroke="#63b8ff" d="M977.92,-221.35C974.73,-220.89 971.57,-220.44 968.5,-220 849.95,-203.17 814.85,-222.6 701.5,-184 685.48,-178.54 684.47,-170.6 668.5,-165 569.21,-130.15 528.14,-176.99 434.5,-129 404.01,-113.38 399.34,-102.61 380.5,-74 371.29,-60.01 364.35,-42.23 359.97,-29.04"/>
<polygon fill="#63b8ff" stroke="#63b8ff" points="363.22,-27.73 356.9,-19.23 356.54,-29.82 363.22,-27.73"/>
</a>
</g>
</g>
<!-- Node4 -->
<g id="Node000004" class="node">
<title>Node4</title>
<g id="a_Node000004"><a xlink:title=" ">
<polygon fill="#e0e0e0" stroke="#999999" points="561.5,-19 499.5,-19 499.5,0 561.5,0 561.5,-19"/>
<text text-anchor="middle" x="530.5" y="-7" font-family="Helvetica,sans-Serif" font-size="10.00">stdbool.h</text>
</a>
</g>
</g>
<!-- Node2&#45;&gt;Node4 -->
<g id="edge3_Node000002_Node000004" class="edge">
<title>Node2&#45;&gt;Node4</title>
<g id="a_edge3_Node000002_Node000004"><a xlink:title=" ">
<path fill="none" stroke="#63b8ff" d="M984.68,-219.95C923.34,-207.23 803.69,-182.9 701.5,-165 649.89,-155.96 502.6,-168.77 468.5,-129 440.7,-96.57 484.87,-49.55 511.93,-25.66"/>
<polygon fill="#63b8ff" stroke="#63b8ff" points="514.36,-28.19 519.68,-19.03 509.81,-22.87 514.36,-28.19"/>
</a>
</g>
</g>
<!-- Node5 -->
<g id="Node000005" class="node">
<title>Node5</title>
<g id="a_Node000005"><a xlink:title=" ">
<polygon fill="#e0e0e0" stroke="#999999" points="1529,-19 1468,-19 1468,0 1529,0 1529,-19"/>
<text text-anchor="middle" x="1498.5" y="-7" font-family="Helvetica,sans-Serif" font-size="10.00">esp_err.h</text>
</a>
</g>
</g>
<!-- Node2&#45;&gt;Node5 -->
<g id="edge4_Node000002_Node000005" class="edge">
<title>Node2&#45;&gt;Node5</title>
<g id="a_edge4_Node000002_Node000005"><a xlink:title=" ">
<path fill="none" stroke="#63b8ff" d="M1050.66,-219.94C1097.06,-203.89 1198.92,-167.4 1281.5,-129 1354.16,-95.21 1436.24,-47.69 1475.37,-24.43"/>
<polygon fill="#63b8ff" stroke="#63b8ff" points="1477.56,-27.19 1484.36,-19.06 1473.98,-21.18 1477.56,-27.19"/>
</a>
</g>
</g>
<!-- Node6 -->
<g id="Node000006" class="node">
<title>Node6</title>
<g id="a_Node000006"><a xlink:title=" ">
<polygon fill="#e0e0e0" stroke="#999999" points="553,-184 440,-184 440,-165 553,-165 553,-184"/>
<text text-anchor="middle" x="496.5" y="-172" font-family="Helvetica,sans-Serif" font-size="10.00">freertos/FreeRTOS.h</text>
</a>
</g>
</g>
<!-- Node2&#45;&gt;Node6 -->
<g id="edge5_Node000002_Node000006" class="edge">
<title>Node2&#45;&gt;Node6</title>
<g id="a_edge5_Node000002_Node000006"><a xlink:title=" ">
<path fill="none" stroke="#63b8ff" d="M977.94,-221.19C974.75,-220.77 971.58,-220.37 968.5,-220 791.86,-199.02 744.3,-203.4 563.14,-184.02"/>
<polygon fill="#63b8ff" stroke="#63b8ff" points="563.33,-180.52 553.01,-182.93 562.57,-187.48 563.33,-180.52"/>
</a>
</g>
</g>
<!-- Node7 -->
<g id="Node000007" class="node">
<title>Node7</title>
<g id="a_Node000007"><a xlink:title=" ">
<polygon fill="#e0e0e0" stroke="#999999" points="659.5,-184 571.5,-184 571.5,-165 659.5,-165 659.5,-184"/>
<text text-anchor="middle" x="615.5" y="-172" font-family="Helvetica,sans-Serif" font-size="10.00">freertos/task.h</text>
</a>
</g>
</g>
<!-- Node2&#45;&gt;Node7 -->
<g id="edge6_Node000002_Node000007" class="edge">
<title>Node2&#45;&gt;Node7</title>
<g id="a_edge6_Node000002_Node000007"><a xlink:title=" ">
<path fill="none" stroke="#63b8ff" d="M977.93,-221.31C974.74,-220.86 971.57,-220.42 968.5,-220 837.61,-202.26 804.41,-201.58 673.5,-184 672.22,-183.83 670.93,-183.65 669.63,-183.48"/>
<polygon fill="#63b8ff" stroke="#63b8ff" points="669.89,-179.98 659.5,-182.06 668.92,-186.91 669.89,-179.98"/>
</a>
</g>
</g>
<!-- Node8 -->
<g id="Node000008" class="node">
<title>Node8</title>
<g id="a_Node000008"><a xlink:title=" ">
<polygon fill="#e0e0e0" stroke="#999999" points="1466,-184 1395,-184 1395,-165 1466,-165 1466,-184"/>
<text text-anchor="middle" x="1430.5" y="-172" font-family="Helvetica,sans-Serif" font-size="10.00">driver/i2s.h</text>
</a>
</g>
</g>
<!-- Node2&#45;&gt;Node8 -->
<g id="edge7_Node000002_Node000008" class="edge">
<title>Node2&#45;&gt;Node8</title>
<g id="a_edge7_Node000002_Node000008"><a xlink:title=" ">
<path fill="none" stroke="#63b8ff" d="M1073.25,-223.19C1141.5,-215.44 1270.81,-200.19 1380.5,-184 1381.8,-183.81 1383.12,-183.61 1384.44,-183.41"/>
<polygon fill="#63b8ff" stroke="#63b8ff" points="1385.42,-186.8 1394.75,-181.77 1384.33,-179.88 1385.42,-186.8"/>
</a>
</g>
</g>
<!-- Node9 -->
<g id="Node000009" class="node">
<title>Node9</title>
<g id="a_Node000009"><a xlink:href="board__ctrl_8h.html" target="_top" xlink:title=" ">
<polygon fill="white" stroke="#666666" points="1062.5,-184 988.5,-184 988.5,-165 1062.5,-165 1062.5,-184"/>
<text text-anchor="middle" x="1025.5" y="-172" font-family="Helvetica,sans-Serif" font-size="10.00">board_ctrl.h</text>
</a>
</g>
</g>
<!-- Node2&#45;&gt;Node9 -->
<g id="edge8_Node000002_Node000009" class="edge">
<title>Node2&#45;&gt;Node9</title>
<g id="a_edge8_Node000002_Node000009"><a xlink:title=" ">
<path fill="none" stroke="#63b8ff" d="M1025.5,-219.75C1025.5,-212.8 1025.5,-202.85 1025.5,-194.13"/>
<polygon fill="#63b8ff" stroke="#63b8ff" points="1029,-194.09 1025.5,-184.09 1022,-194.09 1029,-194.09"/>
</a>
</g>
</g>
<!-- Node9&#45;&gt;Node3 -->
<g id="edge10_Node000009_Node000003" class="edge">
<title>Node9&#45;&gt;Node3</title>
<g id="a_edge10_Node000009_Node000003"><a xlink:title=" ">
<path fill="none" stroke="#63b8ff" d="M988.41,-172.06C871.45,-167.31 515.3,-151.16 468.5,-129 420.93,-106.48 382.75,-54.94 365.11,-27.85"/>
<polygon fill="#63b8ff" stroke="#63b8ff" points="367.87,-25.66 359.56,-19.08 361.95,-29.4 367.87,-25.66"/>
</a>
</g>
</g>
<!-- Node10 -->
<g id="Node000010" class="node">
<title>Node10</title>
<g id="a_Node000010"><a xlink:title=" ">
<polygon fill="#e0e0e0" stroke="#999999" points="1536,-74 1461,-74 1461,-55 1536,-55 1536,-74"/>
<text text-anchor="middle" x="1498.5" y="-62" font-family="Helvetica,sans-Serif" font-size="10.00">esp_types.h</text>
</a>
</g>
</g>
<!-- Node9&#45;&gt;Node10 -->
<g id="edge9_Node000009_Node000010" class="edge">
<title>Node9&#45;&gt;Node10</title>
<g id="a_edge9_Node000009_Node000010"><a xlink:title=" ">
<path fill="none" stroke="#63b8ff" d="M1062.65,-168.38C1112.69,-161.19 1204.39,-146.93 1281.5,-129 1346.28,-113.94 1420.35,-91 1463.05,-77.21"/>
<polygon fill="#63b8ff" stroke="#63b8ff" points="1464.27,-80.5 1472.7,-74.08 1462.1,-73.84 1464.27,-80.5"/>
</a>
</g>
</g>
<!-- Node9&#45;&gt;Node11 -->
<g id="edge11_Node000009_Node000011" class="edge">
<title>Node9&#45;&gt;Node11</title>
<g id="a_edge11_Node000009_Node000011"><a xlink:title=" ">
<path fill="none" stroke="#63b8ff" d="M1062.54,-172.44C1208.3,-168.11 1735.77,-150.97 1763.5,-129 1776.87,-118.41 1781.12,-98.79 1782.34,-84.16"/>
<polygon fill="#63b8ff" stroke="#63b8ff" points="1785.84,-84.31 1782.78,-74.17 1778.84,-84 1785.84,-84.31"/>
</a>
</g>
</g>
<!-- Node12 -->
<g id="Node000012" class="node">
<title>Node12</title>
<g id="a_Node000012"><a xlink:title=" ">
<polygon fill="#e0e0e0" stroke="#999999" points="1062,-129 989,-129 989,-110 1062,-110 1062,-129"/>
<text text-anchor="middle" x="1025.5" y="-117" font-family="Helvetica,sans-Serif" font-size="10.00">audio_hal.h</text>
</a>
</g>
</g>
<!-- Node9&#45;&gt;Node12 -->
<g id="edge12_Node000009_Node000012" class="edge">
<title>Node9&#45;&gt;Node12</title>
<g id="a_edge12_Node000009_Node000012"><a xlink:title=" ">
<path fill="none" stroke="#63b8ff" d="M1025.5,-164.75C1025.5,-157.8 1025.5,-147.85 1025.5,-139.13"/>
<polygon fill="#63b8ff" stroke="#63b8ff" points="1029,-139.09 1025.5,-129.09 1022,-139.09 1029,-139.09"/>
</a>
</g>
</g>
<!-- Node13 -->
<g id="Node000013" class="node">
<title>Node13</title>
<g id="a_Node000013"><a xlink:title=" ">
<polygon fill="#e0e0e0" stroke="#999999" points="1183,-129 1080,-129 1080,-110 1183,-110 1183,-129"/>
<text text-anchor="middle" x="1131.5" y="-117" font-family="Helvetica,sans-Serif" font-size="10.00">esxxx_common.h</text>
</a>
</g>
</g>
<!-- Node9&#45;&gt;Node13 -->
<g id="edge13_Node000009_Node000013" class="edge">
<title>Node9&#45;&gt;Node13</title>
<g id="a_edge13_Node000009_Node000013"><a xlink:title=" ">
<path fill="none" stroke="#63b8ff" d="M1042.53,-164.98C1059.43,-156.54 1085.56,-143.47 1105.14,-133.68"/>
<polygon fill="#63b8ff" stroke="#63b8ff" points="1106.78,-136.77 1114.16,-129.17 1103.65,-130.51 1106.78,-136.77"/>
</a>
</g>
</g>
<!-- Node14 -->
<g id="Node000014" class="node">
<title>Node14</title>
<g id="a_Node000014"><a xlink:href="sevetest30__gpio_8h.html" target="_top" xlink:title=" ">
<polygon fill="white" stroke="#666666" points="583.5,-129 477.5,-129 477.5,-110 583.5,-110 583.5,-129"/>
<text text-anchor="middle" x="530.5" y="-117" font-family="Helvetica,sans-Serif" font-size="10.00">sevetest30_gpio.h</text>
</a>
</g>
</g>
<!-- Node9&#45;&gt;Node14 -->
<g id="edge14_Node000009_Node000014" class="edge">
<title>Node9&#45;&gt;Node14</title>
<g id="a_edge14_Node000009_Node000014"><a xlink:title=" ">
<path fill="none" stroke="#63b8ff" d="M988.47,-170.08C915.33,-163.24 746.94,-147.08 593.82,-129"/>
<polygon fill="#63b8ff" stroke="#63b8ff" points="594.1,-125.51 583.76,-127.81 593.28,-132.46 594.1,-125.51"/>
</a>
</g>
</g>
<!-- Node16 -->
<g id="Node000016" class="node">
<title>Node16</title>
<g id="a_Node000016"><a xlink:title=" ">
<polygon fill="#e0e0e0" stroke="#999999" points="1272,-129 1201,-129 1201,-110 1272,-110 1272,-129"/>
<text text-anchor="middle" x="1236.5" y="-117" font-family="Helvetica,sans-Serif" font-size="10.00">driver/i2c.h</text>
</a>
</g>
</g>
<!-- Node9&#45;&gt;Node16 -->
<g id="edge19_Node000009_Node000016" class="edge">
<title>Node9&#45;&gt;Node16</title>
<g id="a_edge19_Node000009_Node000016"><a xlink:title=" ">
<path fill="none" stroke="#63b8ff" d="M1059.4,-164.98C1095.52,-155.91 1152.82,-141.52 1192.42,-131.57"/>
<polygon fill="#63b8ff" stroke="#63b8ff" points="1193.49,-134.91 1202.33,-129.08 1191.78,-128.12 1193.49,-134.91"/>
</a>
</g>
</g>
<!-- Node17 -->
<g id="Node000017" class="node">
<title>Node17</title>
<g id="a_Node000017"><a xlink:title=" ">
<polygon fill="#e0e0e0" stroke="#999999" points="721,-129 602,-129 602,-110 721,-110 721,-129"/>
<text text-anchor="middle" x="661.5" y="-117" font-family="Helvetica,sans-Serif" font-size="10.00">driver/spi_common.h</text>
</a>
</g>
</g>
<!-- Node9&#45;&gt;Node17 -->
<g id="edge20_Node000009_Node000017" class="edge">
<title>Node9&#45;&gt;Node17</title>
<g id="a_edge20_Node000009_Node000017"><a xlink:title=" ">
<path fill="none" stroke="#63b8ff" d="M988.26,-168.08C927.56,-159.24 806.43,-141.6 729.92,-130.46"/>
<polygon fill="#63b8ff" stroke="#63b8ff" points="730.29,-126.98 719.89,-129 729.28,-133.91 730.29,-126.98"/>
</a>
</g>
</g>
<!-- Node18 -->
<g id="Node000018" class="node">
<title>Node18</title>
<g id="a_Node000018"><a xlink:title=" ">
<polygon fill="#e0e0e0" stroke="#999999" points="849.5,-129 739.5,-129 739.5,-110 849.5,-110 849.5,-129"/>
<text text-anchor="middle" x="794.5" y="-117" font-family="Helvetica,sans-Serif" font-size="10.00">driver/spi_master.h</text>
</a>
</g>
</g>
<!-- Node9&#45;&gt;Node18 -->
<g id="edge21_Node000009_Node000018" class="edge">
<title>Node9&#45;&gt;Node18</title>
<g id="a_edge21_Node000009_Node000018"><a xlink:title=" ">
<path fill="none" stroke="#63b8ff" d="M988.39,-164.98C948.51,-155.84 885.04,-141.27 841.66,-131.32"/>
<polygon fill="#63b8ff" stroke="#63b8ff" points="842.43,-127.91 831.91,-129.08 840.87,-134.73 842.43,-127.91"/>
</a>
</g>
</g>
<!-- Node19 -->
<g id="Node000019" class="node">
<title>Node19</title>
<g id="a_Node000019"><a xlink:title=" ">
<polygon fill="#e0e0e0" stroke="#999999" points="971,-129 868,-129 868,-110 971,-110 971,-129"/>
<text text-anchor="middle" x="919.5" y="-117" font-family="Helvetica,sans-Serif" font-size="10.00">esp_peripherals.h</text>
</a>
</g>
</g>
<!-- Node9&#45;&gt;Node19 -->
<g id="edge22_Node000009_Node000019" class="edge">
<title>Node9&#45;&gt;Node19</title>
<g id="a_edge22_Node000009_Node000019"><a xlink:title=" ">
<path fill="none" stroke="#63b8ff" d="M1008.47,-164.98C991.57,-156.54 965.44,-143.47 945.86,-133.68"/>
<polygon fill="#63b8ff" stroke="#63b8ff" points="947.35,-130.51 936.84,-129.17 944.22,-136.77 947.35,-130.51"/>
</a>
</g>
</g>
<!-- Node20 -->
<g id="Node000020" class="node">
<title>Node20</title>
<g id="a_Node000020"><a xlink:href="_b_l5372_8h.html" target="_top" xlink:title=" ">
<polygon fill="white" stroke="#666666" points="1466.5,-129 1404.5,-129 1404.5,-110 1466.5,-110 1466.5,-129"/>
<text text-anchor="middle" x="1435.5" y="-117" font-family="Helvetica,sans-Serif" font-size="10.00">BL5372.h</text>
</a>
</g>
</g>
<!-- Node9&#45;&gt;Node20 -->
<g id="edge23_Node000009_Node000020" class="edge">
<title>Node9&#45;&gt;Node20</title>
<g id="a_edge23_Node000009_Node000020"><a xlink:title=" ">
<path fill="none" stroke="#63b8ff" d="M1062.61,-168.7C1139.2,-158.8 1314.3,-136.17 1394.28,-125.83"/>
<polygon fill="#63b8ff" stroke="#63b8ff" points="1394.99,-129.27 1404.46,-124.51 1394.09,-122.32 1394.99,-129.27"/>
</a>
</g>
</g>
<!-- Node15 -->
<g id="Node000015" class="node">
<title>Node15</title>
<g id="a_Node000015"><a xlink:href="_t_c_a6416_a_8h.html" target="_top" xlink:title=" ">
<polygon fill="white" stroke="#666666" points="568,-74 493,-74 493,-55 568,-55 568,-74"/>
<text text-anchor="middle" x="530.5" y="-62" font-family="Helvetica,sans-Serif" font-size="10.00">TCA6416A.h</text>
</a>
</g>
</g>
<!-- Node14&#45;&gt;Node15 -->
<g id="edge15_Node000014_Node000015" class="edge">
<title>Node14&#45;&gt;Node15</title>
<g id="a_edge15_Node000014_Node000015"><a xlink:title=" ">
<path fill="none" stroke="#63b8ff" d="M530.5,-109.75C530.5,-102.8 530.5,-92.85 530.5,-84.13"/>
<polygon fill="#63b8ff" stroke="#63b8ff" points="534,-84.09 530.5,-74.09 527,-84.09 534,-84.09"/>
</a>
</g>
</g>
<!-- Node15&#45;&gt;Node3 -->
<g id="edge16_Node000015_Node000003" class="edge">
<title>Node15&#45;&gt;Node3</title>
<g id="a_edge16_Node000015_Node000003"><a xlink:title=" ">
<path fill="none" stroke="#63b8ff" d="M502.22,-54.98C472.02,-45.89 424.04,-31.44 391,-21.49"/>
<polygon fill="#63b8ff" stroke="#63b8ff" points="391.85,-18.09 381.26,-18.56 389.83,-24.79 391.85,-18.09"/>
</a>
</g>
</g>
<!-- Node15&#45;&gt;Node4 -->
<g id="edge17_Node000015_Node000004" class="edge">
<title>Node15&#45;&gt;Node4</title>
<g id="a_edge17_Node000015_Node000004"><a xlink:title=" ">
<path fill="none" stroke="#63b8ff" d="M530.5,-54.75C530.5,-47.8 530.5,-37.85 530.5,-29.13"/>
<polygon fill="#63b8ff" stroke="#63b8ff" points="534,-29.09 530.5,-19.09 527,-29.09 534,-29.09"/>
</a>
</g>
</g>
<!-- Node15&#45;&gt;Node5 -->
<g id="edge18_Node000015_Node000005" class="edge">
<title>Node15&#45;&gt;Node5</title>
<g id="a_edge18_Node000015_Node000005"><a xlink:title=" ">
<path fill="none" stroke="#63b8ff" d="M568.15,-61.44C721.45,-53.04 1298.08,-21.47 1457.46,-12.75"/>
<polygon fill="#63b8ff" stroke="#63b8ff" points="1457.98,-16.22 1467.78,-12.18 1457.6,-9.23 1457.98,-16.22"/>
</a>
</g>
</g>
<!-- Node20&#45;&gt;Node5 -->
<g id="edge25_Node000020_Node000005" class="edge">
<title>Node20&#45;&gt;Node5</title>
<g id="a_edge25_Node000020_Node000005"><a xlink:title=" ">
<path fill="none" stroke="#63b8ff" d="M1436.35,-109.71C1437.91,-96.91 1442.08,-72.71 1452.5,-55 1459.14,-43.71 1469.42,-33.38 1478.58,-25.52"/>
<polygon fill="#63b8ff" stroke="#63b8ff" points="1481,-28.07 1486.54,-19.04 1476.58,-22.64 1481,-28.07"/>
</a>
</g>
</g>
<!-- Node20&#45;&gt;Node10 -->
<g id="edge24_Node000020_Node000010" class="edge">
<title>Node20&#45;&gt;Node10</title>
<g id="a_edge24_Node000020_Node000010"><a xlink:title=" ">
<path fill="none" stroke="#63b8ff" d="M1445.62,-109.98C1454.94,-102.15 1468.97,-90.34 1480.24,-80.86"/>
<polygon fill="#63b8ff" stroke="#63b8ff" points="1482.79,-83.29 1488.19,-74.17 1478.29,-77.93 1482.79,-83.29"/>
</a>
</g>
</g>
<!-- Node21&#45;&gt;Node4 -->
<g id="edge27_Node000021_Node000004" class="edge">
<title>Node21&#45;&gt;Node4</title>
<g id="a_edge27_Node000021_Node000004"><a xlink:title=" ">
<path fill="none" stroke="#63b8ff" d="M474.38,-219.95C459.3,-212.82 440.49,-201.06 431.5,-184 417.14,-156.76 357.92,-172.25 435.5,-55 447.71,-36.55 469.72,-25.59 489.49,-19.16"/>
<polygon fill="#63b8ff" stroke="#63b8ff" points="490.65,-22.47 499.25,-16.28 488.67,-15.76 490.65,-22.47"/>
</a>
</g>
</g>
<!-- Node21&#45;&gt;Node6 -->
<g id="edge28_Node000021_Node000006" class="edge">
<title>Node21&#45;&gt;Node6</title>
<g id="a_edge28_Node000021_Node000006"><a xlink:title=" ">
<path fill="none" stroke="#63b8ff" d="M496.5,-219.75C496.5,-212.8 496.5,-202.85 496.5,-194.13"/>
<polygon fill="#63b8ff" stroke="#63b8ff" points="500,-194.09 496.5,-184.09 493,-194.09 500,-194.09"/>
</a>
</g>
</g>
<!-- Node21&#45;&gt;Node7 -->
<g id="edge29_Node000021_Node000007" class="edge">
<title>Node21&#45;&gt;Node7</title>
<g id="a_edge29_Node000021_Node000007"><a xlink:title=" ">
<path fill="none" stroke="#63b8ff" d="M515.62,-219.98C534.85,-211.42 564.73,-198.11 586.81,-188.28"/>
<polygon fill="#63b8ff" stroke="#63b8ff" points="588.32,-191.44 596.03,-184.17 585.47,-185.04 588.32,-191.44"/>
</a>
</g>
</g>
<!-- Node22 -->
<g id="Node000022" class="node">
<title>Node22</title>
<g id="a_Node000022"><a xlink:title=" ">
<polygon fill="#e0e0e0" stroke="#999999" points="383,-184 268,-184 268,-165 383,-165 383,-184"/>
<text text-anchor="middle" x="325.5" y="-172" font-family="Helvetica,sans-Serif" font-size="10.00">audio_event_iface.h</text>
</a>
</g>
</g>
<!-- Node21&#45;&gt;Node22 -->
<g id="edge30_Node000021_Node000022" class="edge">
<title>Node21&#45;&gt;Node22</title>
<g id="a_edge30_Node000021_Node000022"><a xlink:title=" ">
<path fill="none" stroke="#63b8ff" d="M469.03,-219.98C440.32,-211.09 395.08,-197.07 363.08,-187.15"/>
<polygon fill="#63b8ff" stroke="#63b8ff" points="363.78,-183.7 353.19,-184.08 361.7,-190.39 363.78,-183.7"/>
</a>
</g>
</g>
<!-- Node24 -->
<g id="Node000024" class="node">
<title>Node24</title>
<g id="a_Node000024"><a xlink:title=" ">
<polygon fill="#e0e0e0" stroke="#999999" points="97,-239 0,-239 0,-220 97,-220 97,-239"/>
<text text-anchor="middle" x="48.5" y="-227" font-family="Helvetica,sans-Serif" font-size="10.00">hal/gpio_types.h</text>
</a>
</g>
</g>
<!-- Node23&#45;&gt;Node24 -->
<g id="edge32_Node000023_Node000024" class="edge">
<title>Node23&#45;&gt;Node24</title>
<g id="a_edge32_Node000023_Node000024"><a xlink:title=" ">
<path fill="none" stroke="#63b8ff" d="M145.02,-274.98C126.52,-266.46 97.82,-253.23 76.52,-243.41"/>
<polygon fill="#63b8ff" stroke="#63b8ff" points="77.86,-240.18 67.31,-239.17 74.93,-246.53 77.86,-240.18"/>
</a>
</g>
</g>
<!-- Node25 -->
<g id="Node000025" class="node">
<title>Node25</title>
<g id="a_Node000025"><a xlink:title=" ">
<polygon fill="#e0e0e0" stroke="#999999" points="211.5,-239 115.5,-239 115.5,-220 211.5,-220 211.5,-239"/>
<text text-anchor="middle" x="163.5" y="-227" font-family="Helvetica,sans-Serif" font-size="10.00">driver/mcpwm.h</text>
</a>
</g>
</g>
<!-- Node23&#45;&gt;Node25 -->
<g id="edge33_Node000023_Node000025" class="edge">
<title>Node23&#45;&gt;Node25</title>
<g id="a_edge33_Node000023_Node000025"><a xlink:title=" ">
<path fill="none" stroke="#63b8ff" d="M163.5,-274.75C163.5,-267.8 163.5,-257.85 163.5,-249.13"/>
<polygon fill="#63b8ff" stroke="#63b8ff" points="167,-249.09 163.5,-239.09 160,-249.09 167,-249.09"/>
</a>
</g>
</g>
<!-- Node26&#45;&gt;Node4 -->
<g id="edge38_Node000026_Node000004" class="edge">
<title>Node26&#45;&gt;Node4</title>
<g id="a_edge38_Node000026_Node000004"><a xlink:title=" ">
<path fill="none" stroke="#63b8ff" d="M1837.19,-55.77C1834.26,-55.48 1831.35,-55.23 1828.5,-55 1335.22,-15.79 733.79,-11.1 572.14,-10.56"/>
<polygon fill="#63b8ff" stroke="#63b8ff" points="571.71,-7.06 561.7,-10.53 571.69,-14.06 571.71,-7.06"/>
</a>
</g>
</g>
<!-- Node26&#45;&gt;Node5 -->
<g id="edge37_Node000026_Node000005" class="edge">
<title>Node26&#45;&gt;Node5</title>
<g id="a_edge37_Node000026_Node000005"><a xlink:title=" ">
<path fill="none" stroke="#63b8ff" d="M1837.35,-55.62C1755.57,-44.73 1610.11,-25.36 1539.38,-15.94"/>
<polygon fill="#63b8ff" stroke="#63b8ff" points="1539.47,-12.42 1529.09,-14.57 1538.54,-19.36 1539.47,-12.42"/>
</a>
</g>
</g>
<!-- Node27 -->
<g id="Node000027" class="node">
<title>Node27</title>
<g id="a_Node000027"><a xlink:title=" ">
<polygon fill="#e0e0e0" stroke="#999999" points="1882,-19 1803,-19 1803,0 1882,0 1882,-19"/>
<text text-anchor="middle" x="1842.5" y="-7" font-family="Helvetica,sans-Serif" font-size="10.00">periph_wifi.h</text>
</a>
</g>
</g>
<!-- Node26&#45;&gt;Node27 -->
<g id="edge35_Node000026_Node000027" class="edge">
<title>Node26&#45;&gt;Node27</title>
<g id="a_edge35_Node000026_Node000027"><a xlink:title=" ">
<path fill="none" stroke="#63b8ff" d="M1887.58,-54.75C1879.72,-47.03 1868.07,-35.6 1858.58,-26.28"/>
<polygon fill="#63b8ff" stroke="#63b8ff" points="1860.84,-23.6 1851.25,-19.09 1855.94,-28.59 1860.84,-23.6"/>
</a>
</g>
</g>
<!-- Node28 -->
<g id="Node000028" class="node">
<title>Node28</title>
<g id="a_Node000028"><a xlink:title=" ">
<polygon fill="#e0e0e0" stroke="#999999" points="2000.5,-19 1900.5,-19 1900.5,0 2000.5,0 2000.5,-19"/>
<text text-anchor="middle" x="1950.5" y="-7" font-family="Helvetica,sans-Serif" font-size="10.00">esp_http_client.h</text>
</a>
</g>
</g>
<!-- Node26&#45;&gt;Node28 -->
<g id="edge36_Node000026_Node000028" class="edge">
<title>Node26&#45;&gt;Node28</title>
<g id="a_edge36_Node000026_Node000028"><a xlink:title=" ">
<path fill="none" stroke="#63b8ff" d="M1905.42,-54.75C1913.28,-47.03 1924.93,-35.6 1934.42,-26.28"/>
<polygon fill="#63b8ff" stroke="#63b8ff" points="1937.06,-28.59 1941.75,-19.09 1932.16,-23.6 1937.06,-28.59"/>
</a>
</g>
</g>
<!-- Node29&#45;&gt;Node4 -->
<g id="edge41_Node000029_Node000004" class="edge">
<title>Node29&#45;&gt;Node4</title>
<g id="a_edge41_Node000029_Node000004"><a xlink:title=" ">
<path fill="none" stroke="#63b8ff" d="M1625.57,-164.98C1567.9,-156.15 1475.37,-141.87 1395.5,-129 1344.79,-120.83 1332.3,-117.6 1281.5,-110 1011.25,-69.59 685.01,-29.23 571.66,-15.46"/>
<polygon fill="#63b8ff" stroke="#63b8ff" points="572.02,-11.98 561.67,-14.25 571.18,-18.93 572.02,-11.98"/>
</a>
</g>
</g>
<!-- Node29&#45;&gt;Node11 -->
<g id="edge42_Node000029_Node000011" class="edge">
<title>Node29&#45;&gt;Node11</title>
<g id="a_edge42_Node000029_Node000011"><a xlink:title=" ">
<path fill="none" stroke="#63b8ff" d="M1742.03,-167.27C1790.79,-160.85 1853.74,-148.93 1869.5,-129 1887.14,-106.7 1853.14,-88.49 1822.61,-77.38"/>
<polygon fill="#63b8ff" stroke="#63b8ff" points="1823.49,-73.98 1812.89,-74.02 1821.2,-80.59 1823.49,-73.98"/>
</a>
</g>
</g>
<!-- Node29&#45;&gt;Node20 -->
<g id="edge49_Node000029_Node000020" class="edge">
<title>Node29&#45;&gt;Node20</title>
<g id="a_edge49_Node000029_Node000020"><a xlink:title=" ">
<path fill="none" stroke="#63b8ff" d="M1641.98,-164.98C1596.65,-155.22 1522.68,-139.28 1476.67,-129.37"/>
<polygon fill="#63b8ff" stroke="#63b8ff" points="1477.24,-125.91 1466.73,-127.23 1475.77,-132.76 1477.24,-125.91"/>
</a>
</g>
</g>
<!-- Node30 -->
<g id="Node000030" class="node">
<title>Node30</title>
<g id="a_Node000030"><a xlink:title=" ">
<polygon fill="#e0e0e0" stroke="#999999" points="1860.5,-129 1810.5,-129 1810.5,-110 1860.5,-110 1860.5,-129"/>
<text text-anchor="middle" x="1835.5" y="-117" font-family="Helvetica,sans-Serif" font-size="10.00">stdio.h</text>
</a>
</g>
</g>
<!-- Node29&#45;&gt;Node30 -->
<g id="edge40_Node000029_Node000030" class="edge">
<title>Node29&#45;&gt;Node30</title>
<g id="a_edge40_Node000029_Node000030"><a xlink:title=" ">
<path fill="none" stroke="#63b8ff" d="M1706.24,-164.98C1731.87,-156.16 1772.13,-142.31 1800.91,-132.41"/>
<polygon fill="#63b8ff" stroke="#63b8ff" points="1802.25,-135.65 1810.56,-129.08 1799.97,-129.03 1802.25,-135.65"/>
</a>
</g>
</g>
<!-- Node31 -->
<g id="Node000031" class="node">
<title>Node31</title>
<g id="a_Node000031"><a xlink:href="_a_h_t21_8h.html" target="_top" xlink:title=" ">
<polygon fill="white" stroke="#666666" points="1580.5,-129 1522.5,-129 1522.5,-110 1580.5,-110 1580.5,-129"/>
<text text-anchor="middle" x="1551.5" y="-117" font-family="Helvetica,sans-Serif" font-size="10.00">AHT21.h</text>
</a>
</g>
</g>
<!-- Node29&#45;&gt;Node31 -->
<g id="edge43_Node000029_Node000031" class="edge">
<title>Node29&#45;&gt;Node31</title>
<g id="a_edge43_Node000029_Node000031"><a xlink:title=" ">
<path fill="none" stroke="#63b8ff" d="M1660.61,-164.98C1639.42,-156.34 1606.37,-142.87 1582.2,-133.02"/>
<polygon fill="#63b8ff" stroke="#63b8ff" points="1583.35,-129.7 1572.77,-129.17 1580.71,-136.19 1583.35,-129.7"/>
</a>
</g>
</g>
<!-- Node32 -->
<g id="Node000032" class="node">
<title>Node32</title>
<g id="a_Node000032"><a xlink:href="_a_g_s10_8h.html" target="_top" xlink:title=" ">
<polygon fill="white" stroke="#666666" points="1754.5,-129 1696.5,-129 1696.5,-110 1754.5,-110 1754.5,-129"/>
<text text-anchor="middle" x="1725.5" y="-117" font-family="Helvetica,sans-Serif" font-size="10.00">AGS10.h</text>
</a>
</g>
</g>
<!-- Node29&#45;&gt;Node32 -->
<g id="edge46_Node000029_Node000032" class="edge">
<title>Node29&#45;&gt;Node32</title>
<g id="a_edge46_Node000029_Node000032"><a xlink:title=" ">
<path fill="none" stroke="#63b8ff" d="M1688.77,-164.75C1695.04,-157.18 1704.29,-146.05 1711.93,-136.84"/>
<polygon fill="#63b8ff" stroke="#63b8ff" points="1714.67,-139.02 1718.37,-129.09 1709.29,-134.55 1714.67,-139.02"/>
</a>
</g>
</g>
<!-- Node33 -->
<g id="Node000033" class="node">
<title>Node33</title>
<g id="a_Node000033"><a xlink:href="lsm6ds3trc_8h.html" target="_top" xlink:title=" ">
<polygon fill="white" stroke="#666666" points="1678.5,-129 1598.5,-129 1598.5,-110 1678.5,-110 1678.5,-129"/>
<text text-anchor="middle" x="1638.5" y="-117" font-family="Helvetica,sans-Serif" font-size="10.00">lsm6ds3trc.h</text>
</a>
</g>
</g>
<!-- Node29&#45;&gt;Node33 -->
<g id="edge50_Node000029_Node000033" class="edge">
<title>Node29&#45;&gt;Node33</title>
<g id="a_edge50_Node000029_Node000033"><a xlink:title=" ">
<path fill="none" stroke="#63b8ff" d="M1674.4,-164.75C1668.33,-157.26 1659.41,-146.28 1651.99,-137.13"/>
<polygon fill="#63b8ff" stroke="#63b8ff" points="1654.49,-134.65 1645.47,-129.09 1649.05,-139.06 1654.49,-134.65"/>
</a>
</g>
</g>
<!-- Node31&#45;&gt;Node5 -->
<g id="edge45_Node000031_Node000005" class="edge">
<title>Node31&#45;&gt;Node5</title>
<g id="a_edge45_Node000031_Node000005"><a xlink:title=" ">
<path fill="none" stroke="#63b8ff" d="M1552.54,-109.77C1553.65,-97.03 1554.23,-72.92 1545.5,-55 1539.79,-43.28 1529.6,-33.04 1520.17,-25.35"/>
<polygon fill="#63b8ff" stroke="#63b8ff" points="1522.28,-22.56 1512.2,-19.28 1518.03,-28.13 1522.28,-22.56"/>
</a>
</g>
</g>
<!-- Node31&#45;&gt;Node10 -->
<g id="edge44_Node000031_Node000010" class="edge">
<title>Node31&#45;&gt;Node10</title>
<g id="a_edge44_Node000031_Node000010"><a xlink:title=" ">
<path fill="none" stroke="#63b8ff" d="M1542.75,-109.75C1535.03,-102.03 1523.6,-90.6 1514.28,-81.28"/>
<polygon fill="#63b8ff" stroke="#63b8ff" points="1516.64,-78.69 1507.09,-74.09 1511.69,-83.64 1516.64,-78.69"/>
</a>
</g>
</g>
<!-- Node32&#45;&gt;Node10 -->
<g id="edge47_Node000032_Node000010" class="edge">
<title>Node32&#45;&gt;Node10</title>
<g id="a_edge47_Node000032_Node000010"><a xlink:title=" ">
<path fill="none" stroke="#63b8ff" d="M1696.29,-111.68C1657.99,-102.74 1590.37,-86.95 1545,-76.36"/>
<polygon fill="#63b8ff" stroke="#63b8ff" points="1545.64,-72.91 1535.11,-74.05 1544.05,-79.73 1545.64,-72.91"/>
</a>
</g>
</g>
<!-- Node32&#45;&gt;Node11 -->
<g id="edge48_Node000032_Node000011" class="edge">
<title>Node32&#45;&gt;Node11</title>
<g id="a_edge48_Node000032_Node000011"><a xlink:title=" ">
<path fill="none" stroke="#63b8ff" d="M1734.66,-109.98C1743,-102.23 1755.53,-90.58 1765.68,-81.14"/>
<polygon fill="#63b8ff" stroke="#63b8ff" points="1768.24,-83.54 1773.18,-74.17 1763.47,-78.42 1768.24,-83.54"/>
</a>
</g>
</g>
<!-- Node33&#45;&gt;Node5 -->
<g id="edge52_Node000033_Node000005" class="edge">
<title>Node33&#45;&gt;Node5</title>
<g id="a_edge52_Node000033_Node000005"><a xlink:title=" ">
<path fill="none" stroke="#63b8ff" d="M1628.24,-109.62C1613.66,-97.11 1586.01,-73.72 1561.5,-55 1547.8,-44.53 1531.94,-33.34 1519.57,-24.8"/>
<polygon fill="#63b8ff" stroke="#63b8ff" points="1521.48,-21.86 1511.25,-19.09 1517.52,-27.64 1521.48,-21.86"/>
</a>
</g>
</g>
<!-- Node33&#45;&gt;Node10 -->
<g id="edge51_Node000033_Node000010" class="edge">
<title>Node33&#45;&gt;Node10</title>
<g id="a_edge51_Node000033_Node000010"><a xlink:title=" ">
<path fill="none" stroke="#63b8ff" d="M1616.01,-109.98C1592.98,-101.27 1556.96,-87.63 1530.87,-77.75"/>
<polygon fill="#63b8ff" stroke="#63b8ff" points="1531.99,-74.44 1521.4,-74.17 1529.52,-80.98 1531.99,-74.44"/>
</a>
</g>
</g>
<!-- Node34&#45;&gt;Node2 -->
<g id="edge56_Node000034_Node000002" class="edge">
<title>Node34&#45;&gt;Node2</title>
<g id="a_edge56_Node000034_Node000002"><a xlink:title=" ">
<path fill="none" stroke="#63b8ff" d="M1025.5,-274.75C1025.5,-267.8 1025.5,-257.85 1025.5,-249.13"/>
<polygon fill="#63b8ff" stroke="#63b8ff" points="1029,-249.09 1025.5,-239.09 1022,-249.09 1029,-249.09"/>
</a>
</g>
</g>
<!-- Node34&#45;&gt;Node3 -->
<g id="edge54_Node000034_Node000003" class="edge">
<title>Node34&#45;&gt;Node3</title>
<g id="a_edge54_Node000034_Node000003"><a xlink:title=" ">
<path fill="none" stroke="#63b8ff" d="M961.84,-281.42C774.72,-274.47 239.5,-248.24 239.5,-175.5 239.5,-175.5 239.5,-175.5 239.5,-118.5 239.5,-72.06 289.95,-39.76 324.02,-23.24"/>
<polygon fill="#63b8ff" stroke="#63b8ff" points="325.55,-26.39 333.14,-19 322.6,-20.04 325.55,-26.39"/>
</a>
</g>
</g>
<!-- Node34&#45;&gt;Node10 -->
<g id="edge57_Node000034_Node000010" class="edge">
<title>Node34&#45;&gt;Node10</title>
<g id="a_edge57_Node000034_Node000010"><a xlink:title=" ">
<path fill="none" stroke="#63b8ff" d="M1089.23,-277.92C1200.27,-266.88 1422.45,-238.44 1475.5,-184 1501.62,-157.2 1502.49,-110.13 1500.63,-84.11"/>
<polygon fill="#63b8ff" stroke="#63b8ff" points="1504.11,-83.7 1499.7,-74.07 1497.14,-84.35 1504.11,-83.7"/>
</a>
</g>
</g>
<!-- Node35 -->
<g id="Node000035" class="node">
<title>Node35</title>
<g id="a_Node000035"><a xlink:title=" ">
<polygon fill="#e0e0e0" stroke="#999999" points="959.5,-239 859.5,-239 859.5,-220 959.5,-220 959.5,-239"/>
<text text-anchor="middle" x="909.5" y="-227" font-family="Helvetica,sans-Serif" font-size="10.00">led_strip_types.h</text>
</a>
</g>
</g>
<!-- Node34&#45;&gt;Node35 -->
<g id="edge55_Node000034_Node000035" class="edge">
<title>Node34&#45;&gt;Node35</title>
<g id="a_edge55_Node000034_Node000035"><a xlink:title=" ">
<path fill="none" stroke="#63b8ff" d="M1006.86,-274.98C988.2,-266.46 959.25,-253.23 937.76,-243.41"/>
<polygon fill="#63b8ff" stroke="#63b8ff" points="939.03,-240.14 928.48,-239.17 936.12,-246.51 939.03,-240.14"/>
</a>
</g>
</g>
</g>
</svg>
