<?xml version="1.0" encoding="UTF-8" standalone="no"?>
<!DOCTYPE svg PUBLIC "-//W3C//DTD SVG 1.1//EN"
 "http://www.w3.org/Graphics/SVG/1.1/DTD/svg11.dtd">
<!-- Generated by graphviz version 2.43.0 (0)
 -->
<!-- Title: cartoon_support_t Pages: 1 -->
<svg width="372pt" height="159pt"
 viewBox="0.00 0.00 372.00 159.00" xmlns="http://www.w3.org/2000/svg" xmlns:xlink="http://www.w3.org/1999/xlink">
<g id="graph0" class="graph" transform="scale(1 1) rotate(0) translate(4 155)">
<title>cartoon_support_t</title>
<!-- Node1 -->
<g id="Node000001" class="node">
<title>Node1</title>
<g id="a_Node000001"><a xlink:title=" ">
<polygon fill="#999999" stroke="#666666" points="218.5,-19 114.5,-19 114.5,0 218.5,0 218.5,-19"/>
<text text-anchor="middle" x="166.5" y="-7" font-family="Helvetica,sans-Serif" font-size="10.00">cartoon_support_t</text>
</a>
</g>
</g>
<!-- Node2 -->
<g id="Node000002" class="node">
<title>Node2</title>
<g id="a_Node000002"><a xlink:href="structcartoon__plan__t.html" target="_top" xlink:title=" ">
<polygon fill="white" stroke="#666666" points="89,-85 0,-85 0,-66 89,-66 89,-85"/>
<text text-anchor="middle" x="44.5" y="-73" font-family="Helvetica,sans-Serif" font-size="10.00">cartoon_plan_t</text>
</a>
</g>
</g>
<!-- Node2&#45;&gt;Node1 -->
<g id="edge1_Node000001_Node000002" class="edge">
<title>Node2&#45;&gt;Node1</title>
<g id="a_edge1_Node000001_Node000002"><a xlink:title=" ">
<path fill="none" stroke="#9a32cd" stroke-dasharray="5,2" d="M62.34,-59.48C71.78,-52.04 83.81,-43.32 95.5,-37 108.93,-29.74 124.76,-23.62 138.07,-19.1"/>
<polygon fill="#9a32cd" stroke="#9a32cd" points="60.05,-56.84 54.48,-65.85 64.46,-62.27 60.05,-56.84"/>
</a>
</g>
<text text-anchor="middle" x="129" y="-40" font-family="Helvetica,sans-Serif" font-size="10.00" fill="grey"> cartoon_plan</text>
</g>
<!-- Node3 -->
<g id="Node000003" class="node">
<title>Node3</title>
<g id="a_Node000003"><a xlink:href="structkey__frame__t.html" target="_top" xlink:title=" ">
<polygon fill="white" stroke="#666666" points="83,-151 6,-151 6,-132 83,-132 83,-151"/>
<text text-anchor="middle" x="44.5" y="-139" font-family="Helvetica,sans-Serif" font-size="10.00">key_frame_t</text>
</a>
</g>
</g>
<!-- Node3&#45;&gt;Node2 -->
<g id="edge2_Node000002_Node000003" class="edge">
<title>Node3&#45;&gt;Node2</title>
<g id="a_edge2_Node000002_Node000003"><a xlink:title=" ">
<path fill="none" stroke="#9a32cd" stroke-dasharray="5,2" d="M44.5,-121.58C44.5,-109.63 44.5,-94.72 44.5,-85.41"/>
<polygon fill="#9a32cd" stroke="#9a32cd" points="41,-121.87 44.5,-131.87 48,-121.87 41,-121.87"/>
</a>
</g>
<text text-anchor="middle" x="97.5" y="-106" font-family="Helvetica,sans-Serif" font-size="10.00" fill="grey"> key_frame_database</text>
</g>
<!-- Node4 -->
<g id="Node000004" class="node">
<title>Node4</title>
<g id="a_Node000004"><a xlink:href="structcartoon__ctrl__param__t.html" target="_top" xlink:title=" ">
<polygon fill="white" stroke="#666666" points="226.5,-85 106.5,-85 106.5,-66 226.5,-66 226.5,-85"/>
<text text-anchor="middle" x="166.5" y="-73" font-family="Helvetica,sans-Serif" font-size="10.00">cartoon_ctrl_param_t</text>
</a>
</g>
</g>
<!-- Node4&#45;&gt;Node1 -->
<g id="edge3_Node000001_Node000004" class="edge">
<title>Node4&#45;&gt;Node1</title>
<g id="a_edge3_Node000001_Node000004"><a xlink:title=" ">
<path fill="none" stroke="#9a32cd" stroke-dasharray="5,2" d="M166.5,-55.58C166.5,-43.63 166.5,-28.72 166.5,-19.41"/>
<polygon fill="#9a32cd" stroke="#9a32cd" points="163,-55.87 166.5,-65.87 170,-55.87 163,-55.87"/>
</a>
</g>
<text text-anchor="middle" x="204.5" y="-40" font-family="Helvetica,sans-Serif" font-size="10.00" fill="grey"> ctrl_param_list</text>
</g>
<!-- Node5 -->
<g id="Node000005" class="node">
<title>Node5</title>
<g id="a_Node000005"><a xlink:href="structcartoon__ctrl__object__t.html" target="_top" xlink:title=" ">
<polygon fill="white" stroke="#666666" points="364,-85 245,-85 245,-66 364,-66 364,-85"/>
<text text-anchor="middle" x="304.5" y="-73" font-family="Helvetica,sans-Serif" font-size="10.00">cartoon_ctrl_object_t</text>
</a>
</g>
</g>
<!-- Node5&#45;&gt;Node1 -->
<g id="edge4_Node000001_Node000005" class="edge">
<title>Node5&#45;&gt;Node1</title>
<g id="a_edge4_Node000001_Node000005"><a xlink:title=" ">
<path fill="none" stroke="#9a32cd" stroke-dasharray="5,2" d="M284.69,-59.89C273.81,-52.34 259.85,-43.4 246.5,-37 231.19,-29.67 213.33,-23.54 198.38,-19.03"/>
<polygon fill="#9a32cd" stroke="#9a32cd" points="282.84,-62.88 293.02,-65.82 286.9,-57.17 282.84,-62.88"/>
</a>
</g>
<text text-anchor="middle" x="290" y="-40" font-family="Helvetica,sans-Serif" font-size="10.00" fill="grey"> ctrl_hook</text>
</g>
</g>
</svg>
