<?xml version="1.0" encoding="UTF-8" standalone="no"?>
<!DOCTYPE svg PUBLIC "-//W3C//DTD SVG 1.1//EN"
 "http://www.w3.org/Graphics/SVG/1.1/DTD/svg11.dtd">
<!-- Generated by graphviz version 2.43.0 (0)
 -->
<!-- Title: PsP2P_DM_message_box_t Pages: 1 -->
<svg width="350pt" height="176pt"
 viewBox="0.00 0.00 350.00 176.00" xmlns="http://www.w3.org/2000/svg" xmlns:xlink="http://www.w3.org/1999/xlink">
<g id="graph0" class="graph" transform="scale(1 1) rotate(0) translate(4 172)">
<title>PsP2P_DM_message_box_t</title>
<!-- Node1 -->
<g id="Node000001" class="node">
<title>Node1</title>
<g id="a_Node000001"><a xlink:title=" ">
<polygon fill="#999999" stroke="#666666" points="149,-19 0,-19 0,0 149,0 149,-19"/>
<text text-anchor="middle" x="74.5" y="-7" font-family="Helvetica,sans-Serif" font-size="10.00">PsP2P_DM_message_box_t</text>
</a>
</g>
</g>
<!-- Node2 -->
<g id="Node000002" class="node">
<title>Node2</title>
<g id="a_Node000002"><a xlink:href="struct_ps_p2_p___d_m__message__t.html" target="_top" xlink:title=" ">
<polygon fill="white" stroke="#666666" points="137.5,-86.5 11.5,-86.5 11.5,-67.5 137.5,-67.5 137.5,-86.5"/>
<text text-anchor="middle" x="74.5" y="-74.5" font-family="Helvetica,sans-Serif" font-size="10.00">PsP2P_DM_message_t</text>
</a>
</g>
</g>
<!-- Node2&#45;&gt;Node1 -->
<g id="edge1_Node000001_Node000002" class="edge">
<title>Node2&#45;&gt;Node1</title>
<g id="a_edge1_Node000001_Node000002"><a xlink:title=" ">
<path fill="none" stroke="#9a32cd" stroke-dasharray="5,2" d="M74.5,-57.18C74.5,-44.71 74.5,-28.92 74.5,-19.27"/>
<polygon fill="#9a32cd" stroke="#9a32cd" points="71,-57.44 74.5,-67.44 78,-57.44 71,-57.44"/>
</a>
</g>
<text text-anchor="middle" x="108.5" y="-40" font-family="Helvetica,sans-Serif" font-size="10.00" fill="grey"> message_list</text>
</g>
<!-- Node3 -->
<g id="Node000003" class="node">
<title>Node3</title>
<g id="a_Node000003"><a xlink:href="struct_ps_p2_p___d_m__node__t.html" target="_top" xlink:title=" ">
<polygon fill="white" stroke="#666666" points="193.5,-166.5 87.5,-166.5 87.5,-147.5 193.5,-147.5 193.5,-166.5"/>
<text text-anchor="middle" x="140.5" y="-154.5" font-family="Helvetica,sans-Serif" font-size="10.00">PsP2P_DM_node_t</text>
</a>
</g>
</g>
<!-- Node3&#45;&gt;Node2 -->
<g id="edge2_Node000002_Node000003" class="edge">
<title>Node3&#45;&gt;Node2</title>
<g id="a_edge2_Node000002_Node000003"><a xlink:title=" ">
<path fill="none" stroke="#9a32cd" stroke-dasharray="5,2" d="M92.15,-142.87C85.6,-139.09 79.7,-134.24 75.5,-128 67.17,-115.61 69.58,-97.3 72.06,-86.61"/>
<polygon fill="#9a32cd" stroke="#9a32cd" points="90.88,-146.14 101.4,-147.38 93.95,-139.85 90.88,-146.14"/>
</a>
</g>
<text text-anchor="middle" x="97" y="-114.5" font-family="Helvetica,sans-Serif" font-size="10.00" fill="grey"> receiver</text>
</g>
<!-- Node3&#45;&gt;Node3 -->
<g id="edge3_Node000003_Node000003" class="edge">
<title>Node3&#45;&gt;Node3</title>
<g id="a_edge3_Node000003_Node000003"><a xlink:title=" ">
<path fill="none" stroke="#9a32cd" stroke-dasharray="5,2" d="M203.93,-162.57C208.62,-161.32 211.5,-159.47 211.5,-157 211.5,-153.05 204.13,-150.67 193.76,-149.83"/>
<polygon fill="#9a32cd" stroke="#9a32cd" points="203.1,-159.16 193.76,-164.17 204.18,-166.08 203.1,-159.16"/>
</a>
</g>
<text text-anchor="middle" x="224" y="-160" font-family="Helvetica,sans-Serif" font-size="10.00" fill="grey"> next</text>
<text text-anchor="middle" x="224" y="-149" font-family="Helvetica,sans-Serif" font-size="10.00" fill="grey">prev</text>
</g>
<!-- Node4 -->
<g id="Node000004" class="node">
<title>Node4</title>
<g id="a_Node000004"><a xlink:href="struct_ps_p2_p___d_m__product__t.html" target="_top" xlink:title=" ">
<polygon fill="white" stroke="#666666" points="299,-86.5 180,-86.5 180,-67.5 299,-67.5 299,-86.5"/>
<text text-anchor="middle" x="239.5" y="-74.5" font-family="Helvetica,sans-Serif" font-size="10.00">PsP2P_DM_product_t</text>
</a>
</g>
</g>
<!-- Node3&#45;&gt;Node4 -->
<g id="edge6_Node000004_Node000003" class="edge">
<title>Node3&#45;&gt;Node4</title>
<g id="a_edge6_Node000004_Node000003"><a xlink:title=" ">
<path fill="none" stroke="#9a32cd" stroke-dasharray="5,2" d="M133.92,-137.56C131.5,-127.28 130.77,-114.83 137.5,-106 143.87,-97.64 164.95,-91.16 186.3,-86.54"/>
<polygon fill="#9a32cd" stroke="#9a32cd" points="130.59,-138.65 136.81,-147.22 137.3,-136.64 130.59,-138.65"/>
</a>
</g>
<text text-anchor="middle" x="188" y="-120" font-family="Helvetica,sans-Serif" font-size="10.00" fill="grey"> consumer_node_list</text>
<text text-anchor="middle" x="188" y="-109" font-family="Helvetica,sans-Serif" font-size="10.00" fill="grey">producer_node</text>
</g>
<!-- Node4&#45;&gt;Node3 -->
<g id="edge4_Node000003_Node000004" class="edge">
<title>Node4&#45;&gt;Node3</title>
<g id="a_edge4_Node000003_Node000004"><a xlink:title=" ">
<path fill="none" stroke="#9a32cd" stroke-dasharray="5,2" d="M246.08,-96.44C248.5,-106.72 249.23,-119.17 242.5,-128 236.13,-136.36 215.05,-142.84 193.7,-147.46"/>
<polygon fill="#9a32cd" stroke="#9a32cd" points="249.41,-95.35 243.19,-86.78 242.7,-97.36 249.41,-95.35"/>
</a>
</g>
<text text-anchor="middle" x="282.5" y="-120" font-family="Helvetica,sans-Serif" font-size="10.00" fill="grey"> head_product</text>
<text text-anchor="middle" x="282.5" y="-109" font-family="Helvetica,sans-Serif" font-size="10.00" fill="grey">tail_product</text>
</g>
<!-- Node4&#45;&gt;Node4 -->
<g id="edge5_Node000004_Node000004" class="edge">
<title>Node4&#45;&gt;Node4</title>
<g id="a_edge5_Node000004_Node000004"><a xlink:title=" ">
<path fill="none" stroke="#9a32cd" stroke-dasharray="5,2" d="M309.48,-81.58C314.16,-80.52 317,-78.99 317,-77 317,-73.81 309.73,-71.82 299.29,-71.02"/>
<polygon fill="#9a32cd" stroke="#9a32cd" points="308.72,-78.15 299.29,-82.98 309.67,-85.08 308.72,-78.15"/>
</a>
</g>
<text text-anchor="middle" x="329.5" y="-80" font-family="Helvetica,sans-Serif" font-size="10.00" fill="grey"> next</text>
<text text-anchor="middle" x="329.5" y="-69" font-family="Helvetica,sans-Serif" font-size="10.00" fill="grey">prev</text>
</g>
</g>
</svg>
