<?xml version="1.0" encoding="UTF-8" standalone="no"?>
<!DOCTYPE svg PUBLIC "-//W3C//DTD SVG 1.1//EN"
 "http://www.w3.org/Graphics/SVG/1.1/DTD/svg11.dtd">
<!-- Generated by graphviz version 2.43.0 (0)
 -->
<!-- Title: GS_calibration_t Pages: 1 -->
<svg width="280pt" height="104pt"
 viewBox="0.00 0.00 279.50 104.00" xmlns="http://www.w3.org/2000/svg" xmlns:xlink="http://www.w3.org/1999/xlink">
<g id="graph0" class="graph" transform="scale(1 1) rotate(0) translate(4 100)">
<title>GS_calibration_t</title>
<!-- Node1 -->
<g id="Node000001" class="node">
<title>Node1</title>
<g id="a_Node000001"><a xlink:title=" ">
<polygon fill="#999999" stroke="#666666" points="179.5,-19 83.5,-19 83.5,0 179.5,0 179.5,-19"/>
<text text-anchor="middle" x="131.5" y="-7" font-family="Helvetica,sans-Serif" font-size="10.00">GS_calibration_t</text>
</a>
</g>
</g>
<!-- Node2 -->
<g id="Node000002" class="node">
<title>Node2</title>
<g id="a_Node000002"><a xlink:href="struct_g_s__static__calibration__model__t.html" target="_top" xlink:title="地磁传感器静态校准模型(解决固有误差问题,会被存储到Flash,反复使用)">
<polygon fill="white" stroke="#666666" points="119,-96 0,-96 0,-66 119,-66 119,-96"/>
<text text-anchor="start" x="8" y="-84" font-family="Helvetica,sans-Serif" font-size="10.00">GS_static_calibration</text>
<text text-anchor="middle" x="59.5" y="-73" font-family="Helvetica,sans-Serif" font-size="10.00">_model_t</text>
</a>
</g>
</g>
<!-- Node2&#45;&gt;Node1 -->
<g id="edge1_Node000001_Node000002" class="edge">
<title>Node2&#45;&gt;Node1</title>
<g id="a_edge1_Node000001_Node000002"><a xlink:title=" ">
<path fill="none" stroke="#9a32cd" stroke-dasharray="5,2" d="M81.32,-58.94C95.09,-45.65 112.16,-29.17 122.42,-19.27"/>
<polygon fill="#9a32cd" stroke="#9a32cd" points="78.83,-56.47 74.07,-65.94 83.7,-61.51 78.83,-56.47"/>
</a>
</g>
<text text-anchor="middle" x="136" y="-40" font-family="Helvetica,sans-Serif" font-size="10.00" fill="grey"> static_model</text>
</g>
<!-- Node3 -->
<g id="Node000003" class="node">
<title>Node3</title>
<g id="a_Node000003"><a xlink:href="struct_g_s__dynamic__calibration__model__t.html" target="_top" xlink:title="地磁传感器动态校准模型(解决动态误差问题,仅临时变量,不会被存储到Flash)">
<polygon fill="white" stroke="#666666" points="271.5,-96 137.5,-96 137.5,-66 271.5,-66 271.5,-96"/>
<text text-anchor="start" x="145.5" y="-84" font-family="Helvetica,sans-Serif" font-size="10.00">GS_dynamic_calibration</text>
<text text-anchor="middle" x="204.5" y="-73" font-family="Helvetica,sans-Serif" font-size="10.00">_model_t</text>
</a>
</g>
</g>
<!-- Node3&#45;&gt;Node1 -->
<g id="edge2_Node000001_Node000003" class="edge">
<title>Node3&#45;&gt;Node1</title>
<g id="a_edge2_Node000001_Node000003"><a xlink:title=" ">
<path fill="none" stroke="#9a32cd" stroke-dasharray="5,2" d="M190.58,-57.3C185.68,-50.33 179.82,-42.94 173.5,-37 166.09,-30.03 156.58,-23.86 148.49,-19.22"/>
<polygon fill="#9a32cd" stroke="#9a32cd" points="187.76,-59.38 196.21,-65.77 193.58,-55.5 187.76,-59.38"/>
</a>
</g>
<text text-anchor="middle" x="223.5" y="-40" font-family="Helvetica,sans-Serif" font-size="10.00" fill="grey"> dynamic_model</text>
</g>
</g>
</svg>
