<?xml version="1.0" encoding="UTF-8" standalone="no"?>
<!DOCTYPE svg PUBLIC "-//W3C//DTD SVG 1.1//EN"
 "http://www.w3.org/Graphics/SVG/1.1/DTD/svg11.dtd">
<!-- Generated by graphviz version 2.43.0 (0)
 -->
<!-- Title: PsP2P_DM_message_t Pages: 1 -->
<svg width="339pt" height="110pt"
 viewBox="0.00 0.00 338.50 110.00" xmlns="http://www.w3.org/2000/svg" xmlns:xlink="http://www.w3.org/1999/xlink">
<g id="graph0" class="graph" transform="scale(1 1) rotate(0) translate(4 106)">
<title>PsP2P_DM_message_t</title>
<!-- Node1 -->
<g id="Node000001" class="node">
<title>Node1</title>
<g id="a_Node000001"><a xlink:title=" ">
<polygon fill="#999999" stroke="#666666" points="126,-20.5 0,-20.5 0,-1.5 126,-1.5 126,-20.5"/>
<text text-anchor="middle" x="63" y="-8.5" font-family="Helvetica,sans-Serif" font-size="10.00">PsP2P_DM_message_t</text>
</a>
</g>
</g>
<!-- Node2 -->
<g id="Node000002" class="node">
<title>Node2</title>
<g id="a_Node000002"><a xlink:href="struct_ps_p2_p___d_m__node__t.html" target="_top" xlink:title=" ">
<polygon fill="white" stroke="#666666" points="182,-100.5 76,-100.5 76,-81.5 182,-81.5 182,-100.5"/>
<text text-anchor="middle" x="129" y="-88.5" font-family="Helvetica,sans-Serif" font-size="10.00">PsP2P_DM_node_t</text>
</a>
</g>
</g>
<!-- Node2&#45;&gt;Node1 -->
<g id="edge1_Node000001_Node000002" class="edge">
<title>Node2&#45;&gt;Node1</title>
<g id="a_edge1_Node000001_Node000002"><a xlink:title=" ">
<path fill="none" stroke="#9a32cd" stroke-dasharray="5,2" d="M80.65,-76.87C74.1,-73.09 68.2,-68.24 64,-62 55.67,-49.61 58.08,-31.3 60.56,-20.61"/>
<polygon fill="#9a32cd" stroke="#9a32cd" points="79.38,-80.14 89.9,-81.38 82.45,-73.85 79.38,-80.14"/>
</a>
</g>
<text text-anchor="middle" x="85.5" y="-48.5" font-family="Helvetica,sans-Serif" font-size="10.00" fill="grey"> receiver</text>
</g>
<!-- Node2&#45;&gt;Node2 -->
<g id="edge2_Node000002_Node000002" class="edge">
<title>Node2&#45;&gt;Node2</title>
<g id="a_edge2_Node000002_Node000002"><a xlink:title=" ">
<path fill="none" stroke="#9a32cd" stroke-dasharray="5,2" d="M192.43,-96.57C197.12,-95.32 200,-93.47 200,-91 200,-87.05 192.63,-84.67 182.26,-83.83"/>
<polygon fill="#9a32cd" stroke="#9a32cd" points="191.6,-93.16 182.26,-98.17 192.68,-100.08 191.6,-93.16"/>
</a>
</g>
<text text-anchor="middle" x="212.5" y="-94" font-family="Helvetica,sans-Serif" font-size="10.00" fill="grey"> next</text>
<text text-anchor="middle" x="212.5" y="-83" font-family="Helvetica,sans-Serif" font-size="10.00" fill="grey">prev</text>
</g>
<!-- Node3 -->
<g id="Node000003" class="node">
<title>Node3</title>
<g id="a_Node000003"><a xlink:href="struct_ps_p2_p___d_m__product__t.html" target="_top" xlink:title=" ">
<polygon fill="white" stroke="#666666" points="287.5,-20.5 168.5,-20.5 168.5,-1.5 287.5,-1.5 287.5,-20.5"/>
<text text-anchor="middle" x="228" y="-8.5" font-family="Helvetica,sans-Serif" font-size="10.00">PsP2P_DM_product_t</text>
</a>
</g>
</g>
<!-- Node2&#45;&gt;Node3 -->
<g id="edge5_Node000003_Node000002" class="edge">
<title>Node2&#45;&gt;Node3</title>
<g id="a_edge5_Node000003_Node000002"><a xlink:title=" ">
<path fill="none" stroke="#9a32cd" stroke-dasharray="5,2" d="M122.42,-71.56C120,-61.28 119.27,-48.83 126,-40 132.37,-31.64 153.45,-25.16 174.8,-20.54"/>
<polygon fill="#9a32cd" stroke="#9a32cd" points="119.09,-72.65 125.31,-81.22 125.8,-70.64 119.09,-72.65"/>
</a>
</g>
<text text-anchor="middle" x="176.5" y="-54" font-family="Helvetica,sans-Serif" font-size="10.00" fill="grey"> consumer_node_list</text>
<text text-anchor="middle" x="176.5" y="-43" font-family="Helvetica,sans-Serif" font-size="10.00" fill="grey">producer_node</text>
</g>
<!-- Node3&#45;&gt;Node2 -->
<g id="edge3_Node000002_Node000003" class="edge">
<title>Node3&#45;&gt;Node2</title>
<g id="a_edge3_Node000002_Node000003"><a xlink:title=" ">
<path fill="none" stroke="#9a32cd" stroke-dasharray="5,2" d="M234.58,-30.44C237,-40.72 237.73,-53.17 231,-62 224.63,-70.36 203.55,-76.84 182.2,-81.46"/>
<polygon fill="#9a32cd" stroke="#9a32cd" points="237.91,-29.35 231.69,-20.78 231.2,-31.36 237.91,-29.35"/>
</a>
</g>
<text text-anchor="middle" x="271" y="-54" font-family="Helvetica,sans-Serif" font-size="10.00" fill="grey"> head_product</text>
<text text-anchor="middle" x="271" y="-43" font-family="Helvetica,sans-Serif" font-size="10.00" fill="grey">tail_product</text>
</g>
<!-- Node3&#45;&gt;Node3 -->
<g id="edge4_Node000003_Node000003" class="edge">
<title>Node3&#45;&gt;Node3</title>
<g id="a_edge4_Node000003_Node000003"><a xlink:title=" ">
<path fill="none" stroke="#9a32cd" stroke-dasharray="5,2" d="M297.98,-16.38C302.66,-15.14 305.5,-13.34 305.5,-11 305.5,-7.25 298.23,-4.91 287.79,-3.97"/>
<polygon fill="#9a32cd" stroke="#9a32cd" points="297.1,-12.98 287.79,-18.03 298.22,-19.89 297.1,-12.98"/>
</a>
</g>
<text text-anchor="middle" x="318" y="-14" font-family="Helvetica,sans-Serif" font-size="10.00" fill="grey"> next</text>
<text text-anchor="middle" x="318" y="-3" font-family="Helvetica,sans-Serif" font-size="10.00" fill="grey">prev</text>
</g>
</g>
</svg>
