<?xml version="1.0" encoding="UTF-8" standalone="no"?>
<!DOCTYPE svg PUBLIC "-//W3C//DTD SVG 1.1//EN"
 "http://www.w3.org/Graphics/SVG/1.1/DTD/svg11.dtd">
<!-- Generated by graphviz version 2.43.0 (0)
 -->
<!-- Title: PsP2P_DM_node_t Pages: 1 -->
<svg width="190pt" height="110pt"
 viewBox="0.00 0.00 190.03 110.00" xmlns="http://www.w3.org/2000/svg" xmlns:xlink="http://www.w3.org/1999/xlink">
<g id="graph0" class="graph" transform="scale(1 1) rotate(0) translate(4 106)">
<title>PsP2P_DM_node_t</title>
<!-- Node1 -->
<g id="Node000001" class="node">
<title>Node1</title>
<g id="a_Node000001"><a xlink:title=" ">
<polygon fill="#999999" stroke="#666666" points="122.03,-100.5 16.03,-100.5 16.03,-81.5 122.03,-81.5 122.03,-100.5"/>
<text text-anchor="middle" x="69.03" y="-88.5" font-family="Helvetica,sans-Serif" font-size="10.00">PsP2P_DM_node_t</text>
</a>
</g>
</g>
<!-- Node1&#45;&gt;Node1 -->
<g id="edge1_Node000001_Node000001" class="edge">
<title>Node1&#45;&gt;Node1</title>
<g id="a_edge1_Node000001_Node000001"><a xlink:title=" ">
<path fill="none" stroke="#9a32cd" stroke-dasharray="5,2" d="M132.46,-96.57C137.15,-95.32 140.03,-93.47 140.03,-91 140.03,-87.05 132.66,-84.67 122.29,-83.83"/>
<polygon fill="#9a32cd" stroke="#9a32cd" points="131.63,-93.16 122.29,-98.17 132.71,-100.08 131.63,-93.16"/>
</a>
</g>
<text text-anchor="middle" x="152.53" y="-94" font-family="Helvetica,sans-Serif" font-size="10.00" fill="grey"> next</text>
<text text-anchor="middle" x="152.53" y="-83" font-family="Helvetica,sans-Serif" font-size="10.00" fill="grey">prev</text>
</g>
<!-- Node2 -->
<g id="Node000002" class="node">
<title>Node2</title>
<g id="a_Node000002"><a xlink:href="struct_ps_p2_p___d_m__product__t.html" target="_top" xlink:title=" ">
<polygon fill="white" stroke="#666666" points="128.53,-20.5 9.53,-20.5 9.53,-1.5 128.53,-1.5 128.53,-20.5"/>
<text text-anchor="middle" x="69.03" y="-8.5" font-family="Helvetica,sans-Serif" font-size="10.00">PsP2P_DM_product_t</text>
</a>
</g>
</g>
<!-- Node1&#45;&gt;Node2 -->
<g id="edge4_Node000002_Node000001" class="edge">
<title>Node1&#45;&gt;Node2</title>
<g id="a_edge4_Node000002_Node000001"><a xlink:title=" ">
<path fill="none" stroke="#9a32cd" stroke-dasharray="5,2" d="M20.58,-76.94C14.03,-73.16 8.16,-68.28 4.03,-62 -1.34,-53.83 -1.34,-48.17 4.03,-40 10.04,-30.86 19.73,-24.7 29.81,-20.54"/>
<polygon fill="#9a32cd" stroke="#9a32cd" points="19.29,-80.21 29.81,-81.46 22.37,-73.92 19.29,-80.21"/>
</a>
</g>
<text text-anchor="middle" x="54.53" y="-54" font-family="Helvetica,sans-Serif" font-size="10.00" fill="grey"> consumer_node_list</text>
<text text-anchor="middle" x="54.53" y="-43" font-family="Helvetica,sans-Serif" font-size="10.00" fill="grey">producer_node</text>
</g>
<!-- Node2&#45;&gt;Node1 -->
<g id="edge2_Node000001_Node000002" class="edge">
<title>Node2&#45;&gt;Node1</title>
<g id="a_edge2_Node000001_Node000002"><a xlink:title=" ">
<path fill="none" stroke="#9a32cd" stroke-dasharray="5,2" d="M97,-26.25C101.85,-30.04 106.22,-34.61 109.03,-40 113.55,-48.67 113.55,-53.33 109.03,-62 104.65,-70.42 96.44,-76.83 88.6,-81.38"/>
<polygon fill="#9a32cd" stroke="#9a32cd" points="98.85,-23.28 88.6,-20.62 94.96,-29.09 98.85,-23.28"/>
</a>
</g>
<text text-anchor="middle" x="147.03" y="-54" font-family="Helvetica,sans-Serif" font-size="10.00" fill="grey"> head_product</text>
<text text-anchor="middle" x="147.03" y="-43" font-family="Helvetica,sans-Serif" font-size="10.00" fill="grey">tail_product</text>
</g>
<!-- Node2&#45;&gt;Node2 -->
<g id="edge3_Node000002_Node000002" class="edge">
<title>Node2&#45;&gt;Node2</title>
<g id="a_edge3_Node000002_Node000002"><a xlink:title=" ">
<path fill="none" stroke="#9a32cd" stroke-dasharray="5,2" d="M139.01,-16.38C143.69,-15.14 146.53,-13.34 146.53,-11 146.53,-7.25 139.27,-4.91 128.82,-3.97"/>
<polygon fill="#9a32cd" stroke="#9a32cd" points="138.13,-12.98 128.82,-18.03 139.25,-19.89 138.13,-12.98"/>
</a>
</g>
<text text-anchor="middle" x="159.03" y="-14" font-family="Helvetica,sans-Serif" font-size="10.00" fill="grey"> next</text>
<text text-anchor="middle" x="159.03" y="-3" font-family="Helvetica,sans-Serif" font-size="10.00" fill="grey">prev</text>
</g>
</g>
</svg>
