<?xml version="1.0" encoding="UTF-8" standalone="no"?>
<!DOCTYPE svg PUBLIC "-//W3C//DTD SVG 1.1//EN"
 "http://www.w3.org/Graphics/SVG/1.1/DTD/svg11.dtd">
<!-- Generated by graphviz version 2.43.0 (0)
 -->
<!-- Title: PsP2P_DM_product_t Pages: 1 -->
<svg width="196pt" height="110pt"
 viewBox="0.00 0.00 195.50 110.00" xmlns="http://www.w3.org/2000/svg" xmlns:xlink="http://www.w3.org/1999/xlink">
<g id="graph0" class="graph" transform="scale(1 1) rotate(0) translate(4 106)">
<title>PsP2P_DM_product_t</title>
<!-- Node1 -->
<g id="Node000001" class="node">
<title>Node1</title>
<g id="a_Node000001"><a xlink:title=" ">
<polygon fill="#999999" stroke="#666666" points="119,-100.5 0,-100.5 0,-81.5 119,-81.5 119,-100.5"/>
<text text-anchor="middle" x="59.5" y="-88.5" font-family="Helvetica,sans-Serif" font-size="10.00">PsP2P_DM_product_t</text>
</a>
</g>
</g>
<!-- Node1&#45;&gt;Node1 -->
<g id="edge1_Node000001_Node000001" class="edge">
<title>Node1&#45;&gt;Node1</title>
<g id="a_edge1_Node000001_Node000001"><a xlink:title=" ">
<path fill="none" stroke="#9a32cd" stroke-dasharray="5,2" d="M129.48,-96.38C134.16,-95.14 137,-93.34 137,-91 137,-87.25 129.73,-84.91 119.29,-83.97"/>
<polygon fill="#9a32cd" stroke="#9a32cd" points="128.6,-92.98 119.29,-98.03 129.72,-99.89 128.6,-92.98"/>
</a>
</g>
<text text-anchor="middle" x="149.5" y="-94" font-family="Helvetica,sans-Serif" font-size="10.00" fill="grey"> next</text>
<text text-anchor="middle" x="149.5" y="-83" font-family="Helvetica,sans-Serif" font-size="10.00" fill="grey">prev</text>
</g>
<!-- Node2 -->
<g id="Node000002" class="node">
<title>Node2</title>
<g id="a_Node000002"><a xlink:href="struct_ps_p2_p___d_m__node__t.html" target="_top" xlink:title=" ">
<polygon fill="white" stroke="#666666" points="112.5,-20.5 6.5,-20.5 6.5,-1.5 112.5,-1.5 112.5,-20.5"/>
<text text-anchor="middle" x="59.5" y="-8.5" font-family="Helvetica,sans-Serif" font-size="10.00">PsP2P_DM_node_t</text>
</a>
</g>
</g>
<!-- Node1&#45;&gt;Node2 -->
<g id="edge4_Node000002_Node000001" class="edge">
<title>Node1&#45;&gt;Node2</title>
<g id="a_edge4_Node000002_Node000001"><a xlink:title=" ">
<path fill="none" stroke="#9a32cd" stroke-dasharray="5,2" d="M24.51,-76.24C18.91,-72.47 13.86,-67.78 10.5,-62 5.59,-53.54 5.59,-48.46 10.5,-40 15.61,-31.19 24.66,-24.91 33.6,-20.57"/>
<polygon fill="#9a32cd" stroke="#9a32cd" points="23.18,-79.51 33.6,-81.43 26.65,-73.43 23.18,-79.51"/>
</a>
</g>
<text text-anchor="middle" x="45.5" y="-54" font-family="Helvetica,sans-Serif" font-size="10.00" fill="grey"> head_product</text>
<text text-anchor="middle" x="45.5" y="-43" font-family="Helvetica,sans-Serif" font-size="10.00" fill="grey">tail_product</text>
</g>
<!-- Node2&#45;&gt;Node1 -->
<g id="edge2_Node000001_Node000002" class="edge">
<title>Node2&#45;&gt;Node1</title>
<g id="a_edge2_Node000001_Node000002"><a xlink:title=" ">
<path fill="none" stroke="#9a32cd" stroke-dasharray="5,2" d="M77.37,-28.15C80.29,-31.74 82.88,-35.75 84.5,-40 87.98,-49.14 87.98,-52.86 84.5,-62 81.62,-69.55 75.66,-76.36 70.29,-81.37"/>
<polygon fill="#9a32cd" stroke="#9a32cd" points="79.69,-25.51 70.29,-20.63 74.6,-30.31 79.69,-25.51"/>
</a>
</g>
<text text-anchor="middle" x="137" y="-54" font-family="Helvetica,sans-Serif" font-size="10.00" fill="grey"> consumer_node_list</text>
<text text-anchor="middle" x="137" y="-43" font-family="Helvetica,sans-Serif" font-size="10.00" fill="grey">producer_node</text>
</g>
<!-- Node2&#45;&gt;Node2 -->
<g id="edge3_Node000002_Node000002" class="edge">
<title>Node2&#45;&gt;Node2</title>
<g id="a_edge3_Node000002_Node000002"><a xlink:title=" ">
<path fill="none" stroke="#9a32cd" stroke-dasharray="5,2" d="M122.93,-16.57C127.62,-15.32 130.5,-13.47 130.5,-11 130.5,-7.05 123.13,-4.67 112.76,-3.83"/>
<polygon fill="#9a32cd" stroke="#9a32cd" points="122.1,-13.16 112.76,-18.17 123.18,-20.08 122.1,-13.16"/>
</a>
</g>
<text text-anchor="middle" x="143" y="-14" font-family="Helvetica,sans-Serif" font-size="10.00" fill="grey"> next</text>
<text text-anchor="middle" x="143" y="-3" font-family="Helvetica,sans-Serif" font-size="10.00" fill="grey">prev</text>
</g>
</g>
</svg>
