<?xml version="1.0" encoding="UTF-8" standalone="no"?>
<!DOCTYPE svg PUBLIC "-//W3C//DTD SVG 1.1//EN"
 "http://www.w3.org/Graphics/SVG/1.1/DTD/svg11.dtd">
<!-- Generated by graphviz version 2.43.0 (0)
 -->
<!-- Title: board_ctrl_t Pages: 1 -->
<svg width="249pt" height="93pt"
 viewBox="0.00 0.00 249.00 93.00" xmlns="http://www.w3.org/2000/svg" xmlns:xlink="http://www.w3.org/1999/xlink">
<g id="graph0" class="graph" transform="scale(1 1) rotate(0) translate(4 89)">
<title>board_ctrl_t</title>
<!-- Node1 -->
<g id="Node000001" class="node">
<title>Node1</title>
<g id="a_Node000001"><a xlink:title=" ">
<polygon fill="#999999" stroke="#666666" points="153,-19 79,-19 79,0 153,0 153,-19"/>
<text text-anchor="middle" x="116" y="-7" font-family="Helvetica,sans-Serif" font-size="10.00">board_ctrl_t</text>
</a>
</g>
</g>
<!-- Node2 -->
<g id="Node000002" class="node">
<title>Node2</title>
<g id="a_Node000002"><a xlink:href="struct_t_c_a6416_a__mode__t.html" target="_top" xlink:title=" ">
<polygon fill="white" stroke="#666666" points="108,-85 0,-85 0,-66 108,-66 108,-85"/>
<text text-anchor="middle" x="54" y="-73" font-family="Helvetica,sans-Serif" font-size="10.00">TCA6416A_mode_t</text>
</a>
</g>
</g>
<!-- Node2&#45;&gt;Node1 -->
<g id="edge1_Node000001_Node000002" class="edge">
<title>Node2&#45;&gt;Node1</title>
<g id="a_edge1_Node000001_Node000002"><a xlink:title=" ">
<path fill="none" stroke="#9a32cd" stroke-dasharray="5,2" d="M63.35,-56.82C67.35,-50.19 72.39,-42.84 78,-37 84.69,-30.04 93.46,-23.78 100.88,-19.1"/>
<polygon fill="#9a32cd" stroke="#9a32cd" points="60.16,-55.35 58.3,-65.78 66.26,-58.79 60.16,-55.35"/>
</a>
</g>
<text text-anchor="middle" x="117" y="-40" font-family="Helvetica,sans-Serif" font-size="10.00" fill="grey"> p_ext_io_mode</text>
</g>
<!-- Node3 -->
<g id="Node000003" class="node">
<title>Node3</title>
<g id="a_Node000003"><a xlink:href="struct_t_c_a6416_a__level__t.html" target="_top" xlink:title=" ">
<polygon fill="white" stroke="#666666" points="230,-85 126,-85 126,-66 230,-66 230,-85"/>
<text text-anchor="middle" x="178" y="-73" font-family="Helvetica,sans-Serif" font-size="10.00">TCA6416A_level_t</text>
</a>
</g>
</g>
<!-- Node3&#45;&gt;Node1 -->
<g id="edge2_Node000001_Node000003" class="edge">
<title>Node3&#45;&gt;Node1</title>
<g id="a_edge2_Node000001_Node000003"><a xlink:title=" ">
<path fill="none" stroke="#9a32cd" stroke-dasharray="5,2" d="M169.74,-56.72C166.11,-50.07 161.44,-42.74 156,-37 149.24,-29.86 140.22,-23.67 132.45,-19.08"/>
<polygon fill="#9a32cd" stroke="#9a32cd" points="166.64,-58.36 174.26,-65.72 172.89,-55.21 166.64,-58.36"/>
</a>
</g>
<text text-anchor="middle" x="202.5" y="-40" font-family="Helvetica,sans-Serif" font-size="10.00" fill="grey"> p_ext_io_value</text>
</g>
</g>
</svg>
